<?xml version="1.0" encoding="UTF-8" standalone="no"?>
<!DOCTYPE svg PUBLIC "-//W3C//DTD SVG 1.1//EN"
 "http://www.w3.org/Graphics/SVG/1.1/DTD/svg11.dtd">
<!-- Generated by graphviz version 2.40.1 (20161225.0304)
 -->
<!-- Title: controllers_diagram Pages: 1 -->
<svg width="1359pt" height="1281pt"
 viewBox="0.00 0.00 1358.83 1281.00" xmlns="http://www.w3.org/2000/svg" xmlns:xlink="http://www.w3.org/1999/xlink">
<g id="graph0" class="graph" transform="scale(1 1) rotate(0) translate(4 1277)">
<title>controllers_diagram</title>
<polygon fill="transparent" stroke="transparent" points="-4,4 -4,-1277 1354.8281,-1277 1354.8281,4 -4,4"/>
<!-- _diagram_info -->
<g id="node1" class="node">
<title>_diagram_info</title>
<text text-anchor="start" x="558" y="-1258.6" font-family="Times,serif" font-size="13.00" fill="#000000">Controllers diagram</text>
<text text-anchor="start" x="558" y="-1245.6" font-family="Times,serif" font-size="13.00" fill="#000000">Date: Nov 11 2019 &#45; 14:43</text>
<text text-anchor="start" x="558" y="-1232.6" font-family="Times,serif" font-size="13.00" fill="#000000">Migration version: 20191109183306</text>
<text text-anchor="start" x="558" y="-1219.6" font-family="Times,serif" font-size="13.00" fill="#000000">Generated by RailRoady 1.5.3</text>
<text text-anchor="start" x="558" y="-1206.6" font-family="Times,serif" font-size="13.00" fill="#000000">http://railroady.prestonlee.com</text>
</g>
<!-- MessagesController -->
<g id="node2" class="node">
<title>MessagesController</title>
<path fill="none" stroke="#000000" d="M30.6788,-502.7684C30.6788,-502.7684 134.6583,-502.7684 134.6583,-502.7684 140.6583,-502.7684 146.6583,-508.7684 146.6583,-514.7684 146.6583,-514.7684 146.6583,-622.7684 146.6583,-622.7684 146.6583,-628.7684 140.6583,-634.7684 134.6583,-634.7684 134.6583,-634.7684 30.6788,-634.7684 30.6788,-634.7684 24.6788,-634.7684 18.6788,-628.7684 18.6788,-622.7684 18.6788,-622.7684 18.6788,-514.7684 18.6788,-514.7684 18.6788,-508.7684 24.6788,-502.7684 30.6788,-502.7684"/>
<text text-anchor="middle" x="82.6686" y="-619.5684" font-family="Times,serif" font-size="14.00" fill="#000000">MessagesController</text>
<polyline fill="none" stroke="#000000" points="18.6788,-612.7684 146.6583,-612.7684 "/>
<text text-anchor="start" x="26.6788" y="-597.5684" font-family="Times,serif" font-size="14.00" fill="#000000">create</text>
<text text-anchor="start" x="26.6788" y="-583.5684" font-family="Times,serif" font-size="14.00" fill="#000000">index</text>
<polyline fill="none" stroke="#000000" points="18.6788,-576.7684 146.6583,-576.7684 "/>
<polyline fill="none" stroke="#000000" points="18.6788,-552.7684 146.6583,-552.7684 "/>
<text text-anchor="start" x="26.6788" y="-537.5684" font-family="Times,serif" font-size="14.00" fill="#000000">_layout</text>
<text text-anchor="start" x="26.6788" y="-523.5684" font-family="Times,serif" font-size="14.00" fill="#000000">load_chatroom</text>
<text text-anchor="start" x="26.6788" y="-509.5684" font-family="Times,serif" font-size="14.00" fill="#000000">message_params</text>
</g>
<!-- ApplicationController -->
<g id="node3" class="node">
<title>ApplicationController</title>
<path fill="none" stroke="#000000" d="M307.0821,-381.7102C307.0821,-381.7102 481.0137,-381.7102 481.0137,-381.7102 487.0137,-381.7102 493.0137,-387.7102 493.0137,-393.7102 493.0137,-393.7102 493.0137,-557.7102 493.0137,-557.7102 493.0137,-563.7102 487.0137,-569.7102 481.0137,-569.7102 481.0137,-569.7102 307.0821,-569.7102 307.0821,-569.7102 301.0821,-569.7102 295.0821,-563.7102 295.0821,-557.7102 295.0821,-557.7102 295.0821,-393.7102 295.0821,-393.7102 295.0821,-387.7102 301.0821,-381.7102 307.0821,-381.7102"/>
<text text-anchor="middle" x="394.0479" y="-554.5102" font-family="Times,serif" font-size="14.00" fill="#000000">ApplicationController</text>
<polyline fill="none" stroke="#000000" points="295.0821,-547.7102 493.0137,-547.7102 "/>
<text text-anchor="start" x="303.0821" y="-532.5102" font-family="Times,serif" font-size="14.00" fill="#000000">sort_params</text>
<text text-anchor="start" x="303.0821" y="-518.5102" font-family="Times,serif" font-size="14.00" fill="#000000">data_name</text>
<text text-anchor="start" x="303.0821" y="-504.5102" font-family="Times,serif" font-size="14.00" fill="#000000">default_url_options</text>
<text text-anchor="start" x="303.0821" y="-490.5102" font-family="Times,serif" font-size="14.00" fill="#000000">detect_layout</text>
<text text-anchor="start" x="303.0821" y="-476.5102" font-family="Times,serif" font-size="14.00" fill="#000000">f7_request?</text>
<text text-anchor="start" x="303.0821" y="-462.5102" font-family="Times,serif" font-size="14.00" fill="#000000">no_back?</text>
<text text-anchor="start" x="303.0821" y="-448.5102" font-family="Times,serif" font-size="14.00" fill="#000000">rails_routes</text>
<text text-anchor="start" x="303.0821" y="-434.5102" font-family="Times,serif" font-size="14.00" fill="#000000">configure_permitted_parameters</text>
<polyline fill="none" stroke="#000000" points="295.0821,-427.7102 493.0137,-427.7102 "/>
<polyline fill="none" stroke="#000000" points="295.0821,-403.7102 493.0137,-403.7102 "/>
<text text-anchor="start" x="303.0821" y="-388.5102" font-family="Times,serif" font-size="14.00" fill="#000000">_layout</text>
</g>
<!-- ApplicationController&#45;&gt;MessagesController -->
<g id="edge1" class="edge">
<title>ApplicationController&#45;&gt;MessagesController</title>
<path fill="none" stroke="#000000" d="M294.6694,-505.4102C246.258,-519.8783 189.4515,-536.8554 146.8326,-549.5924"/>
</g>
<!-- EventsController -->
<g id="node4" class="node">
<title>EventsController</title>
<path fill="none" stroke="#000000" d="M333.8944,-8.3455C333.8944,-8.3455 452.6463,-8.3455 452.6463,-8.3455 458.6463,-8.3455 464.6463,-14.3455 464.6463,-20.3455 464.6463,-20.3455 464.6463,-240.3455 464.6463,-240.3455 464.6463,-246.3455 458.6463,-252.3455 452.6463,-252.3455 452.6463,-252.3455 333.8944,-252.3455 333.8944,-252.3455 327.8944,-252.3455 321.8944,-246.3455 321.8944,-240.3455 321.8944,-240.3455 321.8944,-20.3455 321.8944,-20.3455 321.8944,-14.3455 327.8944,-8.3455 333.8944,-8.3455"/>
<text text-anchor="middle" x="393.2703" y="-237.1455" font-family="Times,serif" font-size="14.00" fill="#000000">EventsController</text>
<polyline fill="none" stroke="#000000" points="321.8944,-230.3455 464.6463,-230.3455 "/>
<text text-anchor="start" x="329.8944" y="-215.1455" font-family="Times,serif" font-size="14.00" fill="#000000">update</text>
<text text-anchor="start" x="329.8944" y="-201.1455" font-family="Times,serif" font-size="14.00" fill="#000000">create</text>
<text text-anchor="start" x="329.8944" y="-187.1455" font-family="Times,serif" font-size="14.00" fill="#000000">destroy</text>
<text text-anchor="start" x="329.8944" y="-173.1455" font-family="Times,serif" font-size="14.00" fill="#000000">edit</text>
<text text-anchor="start" x="329.8944" y="-159.1455" font-family="Times,serif" font-size="14.00" fill="#000000">index</text>
<text text-anchor="start" x="329.8944" y="-145.1455" font-family="Times,serif" font-size="14.00" fill="#000000">new</text>
<text text-anchor="start" x="329.8944" y="-131.1455" font-family="Times,serif" font-size="14.00" fill="#000000">perform</text>
<text text-anchor="start" x="329.8944" y="-117.1455" font-family="Times,serif" font-size="14.00" fill="#000000">show</text>
<text text-anchor="start" x="329.8944" y="-103.1455" font-family="Times,serif" font-size="14.00" fill="#000000">check_valid</text>
<polyline fill="none" stroke="#000000" points="321.8944,-96.3455 464.6463,-96.3455 "/>
<polyline fill="none" stroke="#000000" points="321.8944,-72.3455 464.6463,-72.3455 "/>
<text text-anchor="start" x="329.8944" y="-57.1455" font-family="Times,serif" font-size="14.00" fill="#000000">_layout</text>
<text text-anchor="start" x="329.8944" y="-43.1455" font-family="Times,serif" font-size="14.00" fill="#000000">event_params</text>
<text text-anchor="start" x="329.8944" y="-29.1455" font-family="Times,serif" font-size="14.00" fill="#000000">get_building_selectors</text>
<text text-anchor="start" x="329.8944" y="-15.1455" font-family="Times,serif" font-size="14.00" fill="#000000">load_event</text>
</g>
<!-- ApplicationController&#45;&gt;EventsController -->
<g id="edge2" class="edge">
<title>ApplicationController&#45;&gt;EventsController</title>
<path fill="none" stroke="#000000" d="M393.8354,-381.3377C393.7459,-341.5937 393.6407,-294.828 393.5454,-252.503"/>
</g>
<!-- ChatroomsController -->
<g id="node5" class="node">
<title>ChatroomsController</title>
<path fill="none" stroke="#000000" d="M80.4841,-988.5535C80.4841,-988.5535 191.4705,-988.5535 191.4705,-988.5535 197.4705,-988.5535 203.4705,-994.5535 203.4705,-1000.5535 203.4705,-1000.5535 203.4705,-1122.5535 203.4705,-1122.5535 203.4705,-1128.5535 197.4705,-1134.5535 191.4705,-1134.5535 191.4705,-1134.5535 80.4841,-1134.5535 80.4841,-1134.5535 74.4841,-1134.5535 68.4841,-1128.5535 68.4841,-1122.5535 68.4841,-1122.5535 68.4841,-1000.5535 68.4841,-1000.5535 68.4841,-994.5535 74.4841,-988.5535 80.4841,-988.5535"/>
<text text-anchor="middle" x="135.9773" y="-1119.3535" font-family="Times,serif" font-size="14.00" fill="#000000">ChatroomsController</text>
<polyline fill="none" stroke="#000000" points="68.4841,-1112.5535 203.4705,-1112.5535 "/>
<text text-anchor="start" x="76.4841" y="-1097.3535" font-family="Times,serif" font-size="14.00" fill="#000000">destroy</text>
<text text-anchor="start" x="76.4841" y="-1083.3535" font-family="Times,serif" font-size="14.00" fill="#000000">edit</text>
<text text-anchor="start" x="76.4841" y="-1069.3535" font-family="Times,serif" font-size="14.00" fill="#000000">index</text>
<text text-anchor="start" x="76.4841" y="-1055.3535" font-family="Times,serif" font-size="14.00" fill="#000000">show</text>
<text text-anchor="start" x="76.4841" y="-1041.3535" font-family="Times,serif" font-size="14.00" fill="#000000">update</text>
<polyline fill="none" stroke="#000000" points="68.4841,-1034.5535 203.4705,-1034.5535 "/>
<polyline fill="none" stroke="#000000" points="68.4841,-1010.5535 203.4705,-1010.5535 "/>
<text text-anchor="start" x="76.4841" y="-995.3535" font-family="Times,serif" font-size="14.00" fill="#000000">_layout</text>
</g>
<!-- ApplicationController&#45;&gt;ChatroomsController -->
<g id="edge3" class="edge">
<title>ApplicationController&#45;&gt;ChatroomsController</title>
<path fill="none" stroke="#000000" d="M352.5844,-569.836C301.2198,-686.4383 214.8021,-882.6142 168.1576,-988.5013"/>
</g>
<!-- TinymceAssetsController -->
<g id="node6" class="node">
<title>TinymceAssetsController</title>
<path fill="none" stroke="#000000" d="M304.8508,-718.7417C304.8508,-718.7417 440.2278,-718.7417 440.2278,-718.7417 446.2278,-718.7417 452.2278,-724.7417 452.2278,-730.7417 452.2278,-730.7417 452.2278,-796.7417 452.2278,-796.7417 452.2278,-802.7417 446.2278,-808.7417 440.2278,-808.7417 440.2278,-808.7417 304.8508,-808.7417 304.8508,-808.7417 298.8508,-808.7417 292.8508,-802.7417 292.8508,-796.7417 292.8508,-796.7417 292.8508,-730.7417 292.8508,-730.7417 292.8508,-724.7417 298.8508,-718.7417 304.8508,-718.7417"/>
<text text-anchor="middle" x="372.5393" y="-793.5417" font-family="Times,serif" font-size="14.00" fill="#000000">TinymceAssetsController</text>
<polyline fill="none" stroke="#000000" points="292.8508,-786.7417 452.2278,-786.7417 "/>
<text text-anchor="start" x="300.8508" y="-771.5417" font-family="Times,serif" font-size="14.00" fill="#000000">create</text>
<polyline fill="none" stroke="#000000" points="292.8508,-764.7417 452.2278,-764.7417 "/>
<polyline fill="none" stroke="#000000" points="292.8508,-740.7417 452.2278,-740.7417 "/>
<text text-anchor="start" x="300.8508" y="-725.5417" font-family="Times,serif" font-size="14.00" fill="#000000">_layout</text>
</g>
<!-- ApplicationController&#45;&gt;TinymceAssetsController -->
<g id="edge4" class="edge">
<title>ApplicationController&#45;&gt;TinymceAssetsController</title>
<path fill="none" stroke="#000000" d="M387.0052,-570.0225C383.2807,-619.8988 378.8792,-678.8406 375.9177,-718.4992"/>
</g>
<!-- MapsController -->
<g id="node7" class="node">
<title>MapsController</title>
<path fill="none" stroke="#000000" d="M12,-758.6998C12,-758.6998 92.6553,-758.6998 92.6553,-758.6998 98.6553,-758.6998 104.6553,-764.6998 104.6553,-770.6998 104.6553,-770.6998 104.6553,-836.6998 104.6553,-836.6998 104.6553,-842.6998 98.6553,-848.6998 92.6553,-848.6998 92.6553,-848.6998 12,-848.6998 12,-848.6998 6,-848.6998 0,-842.6998 0,-836.6998 0,-836.6998 0,-770.6998 0,-770.6998 0,-764.6998 6,-758.6998 12,-758.6998"/>
<text text-anchor="middle" x="52.3276" y="-833.4998" font-family="Times,serif" font-size="14.00" fill="#000000">MapsController</text>
<polyline fill="none" stroke="#000000" points="0,-826.6998 104.6553,-826.6998 "/>
<text text-anchor="start" x="8" y="-811.4998" font-family="Times,serif" font-size="14.00" fill="#000000">index</text>
<polyline fill="none" stroke="#000000" points="0,-804.6998 104.6553,-804.6998 "/>
<polyline fill="none" stroke="#000000" points="0,-780.6998 104.6553,-780.6998 "/>
<text text-anchor="start" x="8" y="-765.4998" font-family="Times,serif" font-size="14.00" fill="#000000">_layout</text>
</g>
<!-- ApplicationController&#45;&gt;MapsController -->
<g id="edge5" class="edge">
<title>ApplicationController&#45;&gt;MapsController</title>
<path fill="none" stroke="#000000" d="M295.6667,-570.1383C231.1922,-632.0222 149.8153,-710.1292 99.4255,-758.4943"/>
</g>
<!-- NotificationsController -->
<g id="node8" class="node">
<title>NotificationsController</title>
<path fill="none" stroke="#000000" d="M31.2231,-301.5942C31.2231,-301.5942 153.0991,-301.5942 153.0991,-301.5942 159.0991,-301.5942 165.0991,-307.5942 165.0991,-313.5942 165.0991,-313.5942 165.0991,-379.5942 165.0991,-379.5942 165.0991,-385.5942 159.0991,-391.5942 153.0991,-391.5942 153.0991,-391.5942 31.2231,-391.5942 31.2231,-391.5942 25.2231,-391.5942 19.2231,-385.5942 19.2231,-379.5942 19.2231,-379.5942 19.2231,-313.5942 19.2231,-313.5942 19.2231,-307.5942 25.2231,-301.5942 31.2231,-301.5942"/>
<text text-anchor="middle" x="92.1611" y="-376.3942" font-family="Times,serif" font-size="14.00" fill="#000000">NotificationsController</text>
<polyline fill="none" stroke="#000000" points="19.2231,-369.5942 165.0991,-369.5942 "/>
<text text-anchor="start" x="27.2231" y="-354.3942" font-family="Times,serif" font-size="14.00" fill="#000000">index</text>
<polyline fill="none" stroke="#000000" points="19.2231,-347.5942 165.0991,-347.5942 "/>
<polyline fill="none" stroke="#000000" points="19.2231,-323.5942 165.0991,-323.5942 "/>
<text text-anchor="start" x="27.2231" y="-308.3942" font-family="Times,serif" font-size="14.00" fill="#000000">_layout</text>
</g>
<!-- ApplicationController&#45;&gt;NotificationsController -->
<g id="edge6" class="edge">
<title>ApplicationController&#45;&gt;NotificationsController</title>
<path fill="none" stroke="#000000" d="M294.7807,-433.2539C252.505,-415.1728 204.0789,-394.4611 165.1718,-377.8206"/>
</g>
<!-- UsersController -->
<g id="node9" class="node">
<title>UsersController</title>
<path fill="none" stroke="#000000" d="M600.1762,-329.2224C600.1762,-329.2224 697.9077,-329.2224 697.9077,-329.2224 703.9077,-329.2224 709.9077,-335.2224 709.9077,-341.2224 709.9077,-341.2224 709.9077,-477.2224 709.9077,-477.2224 709.9077,-483.2224 703.9077,-489.2224 697.9077,-489.2224 697.9077,-489.2224 600.1762,-489.2224 600.1762,-489.2224 594.1762,-489.2224 588.1762,-483.2224 588.1762,-477.2224 588.1762,-477.2224 588.1762,-341.2224 588.1762,-341.2224 588.1762,-335.2224 594.1762,-329.2224 600.1762,-329.2224"/>
<text text-anchor="middle" x="649.042" y="-474.0224" font-family="Times,serif" font-size="14.00" fill="#000000">UsersController</text>
<polyline fill="none" stroke="#000000" points="588.1762,-467.2224 709.9077,-467.2224 "/>
<text text-anchor="start" x="596.1762" y="-452.0224" font-family="Times,serif" font-size="14.00" fill="#000000">check_email</text>
<text text-anchor="start" x="596.1762" y="-438.0224" font-family="Times,serif" font-size="14.00" fill="#000000">edit</text>
<text text-anchor="start" x="596.1762" y="-424.0224" font-family="Times,serif" font-size="14.00" fill="#000000">mypage</text>
<text text-anchor="start" x="596.1762" y="-410.0224" font-family="Times,serif" font-size="14.00" fill="#000000">select_certification</text>
<text text-anchor="start" x="596.1762" y="-396.0224" font-family="Times,serif" font-size="14.00" fill="#000000">token</text>
<polyline fill="none" stroke="#000000" points="588.1762,-389.2224 709.9077,-389.2224 "/>
<polyline fill="none" stroke="#000000" points="588.1762,-365.2224 709.9077,-365.2224 "/>
<text text-anchor="start" x="596.1762" y="-350.0224" font-family="Times,serif" font-size="14.00" fill="#000000">_layout</text>
<text text-anchor="start" x="596.1762" y="-336.0224" font-family="Times,serif" font-size="14.00" fill="#000000">user_params</text>
</g>
<!-- ApplicationController&#45;&gt;UsersController -->
<g id="edge7" class="edge">
<title>ApplicationController&#45;&gt;UsersController</title>
<path fill="none" stroke="#000000" d="M493.3654,-449.8139C525.2489,-441.5005 559.6074,-432.5418 587.9139,-425.1611"/>
</g>
<!-- ReportsController -->
<g id="node10" class="node">
<title>ReportsController</title>
<path fill="none" stroke="#000000" d="M35.524,-20.6997C35.524,-20.6997 128.6207,-20.6997 128.6207,-20.6997 134.6207,-20.6997 140.6207,-26.6997 140.6207,-32.6997 140.6207,-32.6997 140.6207,-126.6997 140.6207,-126.6997 140.6207,-132.6997 134.6207,-138.6997 128.6207,-138.6997 128.6207,-138.6997 35.524,-138.6997 35.524,-138.6997 29.524,-138.6997 23.524,-132.6997 23.524,-126.6997 23.524,-126.6997 23.524,-32.6997 23.524,-32.6997 23.524,-26.6997 29.524,-20.6997 35.524,-20.6997"/>
<text text-anchor="middle" x="82.0723" y="-123.4997" font-family="Times,serif" font-size="14.00" fill="#000000">ReportsController</text>
<polyline fill="none" stroke="#000000" points="23.524,-116.6997 140.6207,-116.6997 "/>
<text text-anchor="start" x="31.524" y="-101.4997" font-family="Times,serif" font-size="14.00" fill="#000000">create</text>
<text text-anchor="start" x="31.524" y="-87.4997" font-family="Times,serif" font-size="14.00" fill="#000000">new</text>
<polyline fill="none" stroke="#000000" points="23.524,-80.6997 140.6207,-80.6997 "/>
<polyline fill="none" stroke="#000000" points="23.524,-56.6997 140.6207,-56.6997 "/>
<text text-anchor="start" x="31.524" y="-41.4997" font-family="Times,serif" font-size="14.00" fill="#000000">_layout</text>
<text text-anchor="start" x="31.524" y="-27.4997" font-family="Times,serif" font-size="14.00" fill="#000000">set_params</text>
</g>
<!-- ApplicationController&#45;&gt;ReportsController -->
<g id="edge8" class="edge">
<title>ApplicationController&#45;&gt;ReportsController</title>
<path fill="none" stroke="#000000" d="M319.9163,-381.6102C260.5382,-306.2378 179.0801,-202.8378 128.5536,-138.7013"/>
</g>
<!-- DeviseController -->
<g id="node22" class="node">
<title>DeviseController</title>
<path fill="none" stroke="#000000" d="M574.1713,-530.6819C574.1713,-530.6819 745.0473,-530.6819 745.0473,-530.6819 751.0473,-530.6819 757.0473,-536.6819 757.0473,-542.6819 757.0473,-542.6819 757.0473,-886.6819 757.0473,-886.6819 757.0473,-892.6819 751.0473,-898.6819 745.0473,-898.6819 745.0473,-898.6819 574.1713,-898.6819 574.1713,-898.6819 568.1713,-898.6819 562.1713,-892.6819 562.1713,-886.6819 562.1713,-886.6819 562.1713,-542.6819 562.1713,-542.6819 562.1713,-536.6819 568.1713,-530.6819 574.1713,-530.6819"/>
<text text-anchor="middle" x="659.6093" y="-883.4819" font-family="Times,serif" font-size="14.00" fill="#000000">DeviseController</text>
<polyline fill="none" stroke="#000000" points="562.1713,-876.6819 757.0473,-876.6819 "/>
<text text-anchor="start" x="570.1713" y="-861.4819" font-family="Times,serif" font-size="14.00" fill="#000000">_prefixes</text>
<polyline fill="none" stroke="#000000" points="562.1713,-854.6819 757.0473,-854.6819 "/>
<text text-anchor="start" x="570.1713" y="-839.4819" font-family="Times,serif" font-size="14.00" fill="#000000">unknown_action!</text>
<text text-anchor="start" x="570.1713" y="-825.4819" font-family="Times,serif" font-size="14.00" fill="#000000">clean_up_passwords</text>
<text text-anchor="start" x="570.1713" y="-811.4819" font-family="Times,serif" font-size="14.00" fill="#000000">devise_i18n_options</text>
<text text-anchor="start" x="570.1713" y="-797.4819" font-family="Times,serif" font-size="14.00" fill="#000000">devise_mapping</text>
<text text-anchor="start" x="570.1713" y="-783.4819" font-family="Times,serif" font-size="14.00" fill="#000000">find_message</text>
<text text-anchor="start" x="570.1713" y="-769.4819" font-family="Times,serif" font-size="14.00" fill="#000000">navigational_formats</text>
<text text-anchor="start" x="570.1713" y="-755.4819" font-family="Times,serif" font-size="14.00" fill="#000000">require_no_authentication</text>
<text text-anchor="start" x="570.1713" y="-741.4819" font-family="Times,serif" font-size="14.00" fill="#000000">resource</text>
<text text-anchor="start" x="570.1713" y="-727.4819" font-family="Times,serif" font-size="14.00" fill="#000000">resource=</text>
<text text-anchor="start" x="570.1713" y="-713.4819" font-family="Times,serif" font-size="14.00" fill="#000000">resource_class</text>
<text text-anchor="start" x="570.1713" y="-699.4819" font-family="Times,serif" font-size="14.00" fill="#000000">resource_name</text>
<text text-anchor="start" x="570.1713" y="-685.4819" font-family="Times,serif" font-size="14.00" fill="#000000">resource_params</text>
<text text-anchor="start" x="570.1713" y="-671.4819" font-family="Times,serif" font-size="14.00" fill="#000000">respond_with_navigational</text>
<text text-anchor="start" x="570.1713" y="-657.4819" font-family="Times,serif" font-size="14.00" fill="#000000">scope_name</text>
<text text-anchor="start" x="570.1713" y="-643.4819" font-family="Times,serif" font-size="14.00" fill="#000000">set_flash_message</text>
<text text-anchor="start" x="570.1713" y="-629.4819" font-family="Times,serif" font-size="14.00" fill="#000000">set_flash_message!</text>
<text text-anchor="start" x="570.1713" y="-615.4819" font-family="Times,serif" font-size="14.00" fill="#000000">set_minimum_password_length</text>
<text text-anchor="start" x="570.1713" y="-601.4819" font-family="Times,serif" font-size="14.00" fill="#000000">signed_in_resource</text>
<text text-anchor="start" x="570.1713" y="-587.4819" font-family="Times,serif" font-size="14.00" fill="#000000">successfully_sent?</text>
<text text-anchor="start" x="570.1713" y="-573.4819" font-family="Times,serif" font-size="14.00" fill="#000000">translation_scope</text>
<text text-anchor="start" x="570.1713" y="-559.4819" font-family="Times,serif" font-size="14.00" fill="#000000">assert_is_devise_resource!</text>
<polyline fill="none" stroke="#000000" points="562.1713,-552.6819 757.0473,-552.6819 "/>
<text text-anchor="start" x="570.1713" y="-537.4819" font-family="Times,serif" font-size="14.00" fill="#000000">_layout</text>
</g>
<!-- ApplicationController&#45;&gt;DeviseController -->
<g id="edge15" class="edge">
<title>ApplicationController&#45;&gt;DeviseController</title>
<path fill="none" stroke="#000000" d="M493.3108,-565.0342C515.7038,-585.1851 539.4576,-606.5605 561.7906,-626.6574"/>
</g>
<!-- ActiveStorage::DirectUploadsController -->
<g id="node11" class="node">
<title>ActiveStorage::DirectUploadsController</title>
<path fill="none" stroke="#000000" d="M1112,-900.5C1112,-900.5 1331.0488,-900.5 1331.0488,-900.5 1337.0488,-900.5 1343.0488,-906.5 1343.0488,-912.5 1343.0488,-912.5 1343.0488,-1006.5 1343.0488,-1006.5 1343.0488,-1012.5 1337.0488,-1018.5 1331.0488,-1018.5 1331.0488,-1018.5 1112,-1018.5 1112,-1018.5 1106,-1018.5 1100,-1012.5 1100,-1006.5 1100,-1006.5 1100,-912.5 1100,-912.5 1100,-906.5 1106,-900.5 1112,-900.5"/>
<text text-anchor="middle" x="1221.5244" y="-1003.3" font-family="Times,serif" font-size="14.00" fill="#000000">ActiveStorage::DirectUploadsController</text>
<polyline fill="none" stroke="#000000" points="1100,-996.5 1343.0488,-996.5 "/>
<text text-anchor="start" x="1108" y="-981.3" font-family="Times,serif" font-size="14.00" fill="#000000">create</text>
<polyline fill="none" stroke="#000000" points="1100,-974.5 1343.0488,-974.5 "/>
<polyline fill="none" stroke="#000000" points="1100,-950.5 1343.0488,-950.5 "/>
<text text-anchor="start" x="1108" y="-935.3" font-family="Times,serif" font-size="14.00" fill="#000000">_layout</text>
<text text-anchor="start" x="1108" y="-921.3" font-family="Times,serif" font-size="14.00" fill="#000000">blob_args</text>
<text text-anchor="start" x="1108" y="-907.3" font-family="Times,serif" font-size="14.00" fill="#000000">direct_upload_json</text>
</g>
<!-- ActiveStorage::BaseController -->
<g id="node12" class="node">
<title>ActiveStorage::BaseController</title>
<path fill="none" stroke="#000000" d="M1162,-250.5C1162,-250.5 1326.6211,-250.5 1326.6211,-250.5 1332.6211,-250.5 1338.6211,-256.5 1338.6211,-262.5 1338.6211,-262.5 1338.6211,-330.5 1338.6211,-330.5 1338.6211,-336.5 1332.6211,-342.5 1326.6211,-342.5 1326.6211,-342.5 1162,-342.5 1162,-342.5 1156,-342.5 1150,-336.5 1150,-330.5 1150,-330.5 1150,-262.5 1150,-262.5 1150,-256.5 1156,-250.5 1162,-250.5"/>
<text text-anchor="middle" x="1244.3105" y="-327.3" font-family="Times,serif" font-size="14.00" fill="#000000">ActiveStorage::BaseController</text>
<polyline fill="none" stroke="#000000" points="1150,-320.5 1338.6211,-320.5 "/>
<polyline fill="none" stroke="#000000" points="1150,-296.5 1338.6211,-296.5 "/>
<polyline fill="none" stroke="#000000" points="1150,-272.5 1338.6211,-272.5 "/>
<text text-anchor="start" x="1158" y="-257.3" font-family="Times,serif" font-size="14.00" fill="#000000">_layout</text>
</g>
<!-- ActiveStorage::BlobsController -->
<g id="node13" class="node">
<title>ActiveStorage::BlobsController</title>
<path fill="none" stroke="#000000" d="M1162,-450.5C1162,-450.5 1332.083,-450.5 1332.083,-450.5 1338.083,-450.5 1344.083,-456.5 1344.083,-462.5 1344.083,-462.5 1344.083,-528.5 1344.083,-528.5 1344.083,-534.5 1338.083,-540.5 1332.083,-540.5 1332.083,-540.5 1162,-540.5 1162,-540.5 1156,-540.5 1150,-534.5 1150,-528.5 1150,-528.5 1150,-462.5 1150,-462.5 1150,-456.5 1156,-450.5 1162,-450.5"/>
<text text-anchor="middle" x="1247.0415" y="-525.3" font-family="Times,serif" font-size="14.00" fill="#000000">ActiveStorage::BlobsController</text>
<polyline fill="none" stroke="#000000" points="1150,-518.5 1344.083,-518.5 "/>
<text text-anchor="start" x="1158" y="-503.3" font-family="Times,serif" font-size="14.00" fill="#000000">show</text>
<polyline fill="none" stroke="#000000" points="1150,-496.5 1344.083,-496.5 "/>
<polyline fill="none" stroke="#000000" points="1150,-472.5 1344.083,-472.5 "/>
<text text-anchor="start" x="1158" y="-457.3" font-family="Times,serif" font-size="14.00" fill="#000000">_layout</text>
</g>
<!-- ActiveStorage::RepresentationsController -->
<g id="node14" class="node">
<title>ActiveStorage::RepresentationsController</title>
<path fill="none" stroke="#000000" d="M1112,-1100.5C1112,-1100.5 1338.8281,-1100.5 1338.8281,-1100.5 1344.8281,-1100.5 1350.8281,-1106.5 1350.8281,-1112.5 1350.8281,-1112.5 1350.8281,-1178.5 1350.8281,-1178.5 1350.8281,-1184.5 1344.8281,-1190.5 1338.8281,-1190.5 1338.8281,-1190.5 1112,-1190.5 1112,-1190.5 1106,-1190.5 1100,-1184.5 1100,-1178.5 1100,-1178.5 1100,-1112.5 1100,-1112.5 1100,-1106.5 1106,-1100.5 1112,-1100.5"/>
<text text-anchor="middle" x="1225.4141" y="-1175.3" font-family="Times,serif" font-size="14.00" fill="#000000">ActiveStorage::RepresentationsController</text>
<polyline fill="none" stroke="#000000" points="1100,-1168.5 1350.8281,-1168.5 "/>
<text text-anchor="start" x="1108" y="-1153.3" font-family="Times,serif" font-size="14.00" fill="#000000">show</text>
<polyline fill="none" stroke="#000000" points="1100,-1146.5 1350.8281,-1146.5 "/>
<polyline fill="none" stroke="#000000" points="1100,-1122.5 1350.8281,-1122.5 "/>
<text text-anchor="start" x="1108" y="-1107.3" font-family="Times,serif" font-size="14.00" fill="#000000">_layout</text>
</g>
<!-- ActiveStorage::DiskController -->
<g id="node15" class="node">
<title>ActiveStorage::DiskController</title>
<path fill="none" stroke="#000000" d="M1162,-.5C1162,-.5 1325.8555,-.5 1325.8555,-.5 1331.8555,-.5 1337.8555,-6.5 1337.8555,-12.5 1337.8555,-12.5 1337.8555,-162.5 1337.8555,-162.5 1337.8555,-168.5 1331.8555,-174.5 1325.8555,-174.5 1325.8555,-174.5 1162,-174.5 1162,-174.5 1156,-174.5 1150,-168.5 1150,-162.5 1150,-162.5 1150,-12.5 1150,-12.5 1150,-6.5 1156,-.5 1162,-.5"/>
<text text-anchor="middle" x="1243.9277" y="-159.3" font-family="Times,serif" font-size="14.00" fill="#000000">ActiveStorage::DiskController</text>
<polyline fill="none" stroke="#000000" points="1150,-152.5 1337.8555,-152.5 "/>
<text text-anchor="start" x="1158" y="-137.3" font-family="Times,serif" font-size="14.00" fill="#000000">show</text>
<text text-anchor="start" x="1158" y="-123.3" font-family="Times,serif" font-size="14.00" fill="#000000">update</text>
<polyline fill="none" stroke="#000000" points="1150,-116.5 1337.8555,-116.5 "/>
<polyline fill="none" stroke="#000000" points="1150,-92.5 1337.8555,-92.5 "/>
<text text-anchor="start" x="1158" y="-77.3" font-family="Times,serif" font-size="14.00" fill="#000000">_layout</text>
<text text-anchor="start" x="1158" y="-63.3" font-family="Times,serif" font-size="14.00" fill="#000000">acceptable_content?</text>
<text text-anchor="start" x="1158" y="-49.3" font-family="Times,serif" font-size="14.00" fill="#000000">decode_verified_key</text>
<text text-anchor="start" x="1158" y="-35.3" font-family="Times,serif" font-size="14.00" fill="#000000">decode_verified_token</text>
<text text-anchor="start" x="1158" y="-21.3" font-family="Times,serif" font-size="14.00" fill="#000000">disk_service</text>
<text text-anchor="start" x="1158" y="-7.3" font-family="Times,serif" font-size="14.00" fill="#000000">serve_file</text>
</g>
<!-- Devise::OmniauthCallbacksController -->
<g id="node16" class="node">
<title>Devise::OmniauthCallbacksController</title>
<path fill="none" stroke="#000000" d="M860.6996,-47.743C860.6996,-47.743 1068.1,-47.743 1068.1,-47.743 1074.1,-47.743 1080.1,-53.743 1080.1,-59.743 1080.1,-59.743 1080.1,-179.743 1080.1,-179.743 1080.1,-185.743 1074.1,-191.743 1068.1,-191.743 1068.1,-191.743 860.6996,-191.743 860.6996,-191.743 854.6996,-191.743 848.6996,-185.743 848.6996,-179.743 848.6996,-179.743 848.6996,-59.743 848.6996,-59.743 848.6996,-53.743 854.6996,-47.743 860.6996,-47.743"/>
<text text-anchor="middle" x="964.3998" y="-176.543" font-family="Times,serif" font-size="14.00" fill="#000000">Devise::OmniauthCallbacksController</text>
<polyline fill="none" stroke="#000000" points="848.6996,-169.743 1080.1,-169.743 "/>
<text text-anchor="start" x="856.6996" y="-154.543" font-family="Times,serif" font-size="14.00" fill="#000000">failure</text>
<text text-anchor="start" x="856.6996" y="-140.543" font-family="Times,serif" font-size="14.00" fill="#000000">passthru</text>
<polyline fill="none" stroke="#000000" points="848.6996,-133.743 1080.1,-133.743 "/>
<text text-anchor="start" x="856.6996" y="-118.543" font-family="Times,serif" font-size="14.00" fill="#000000">after_omniauth_failure_path_for</text>
<text text-anchor="start" x="856.6996" y="-104.543" font-family="Times,serif" font-size="14.00" fill="#000000">failed_strategy</text>
<text text-anchor="start" x="856.6996" y="-90.543" font-family="Times,serif" font-size="14.00" fill="#000000">failure_message</text>
<text text-anchor="start" x="856.6996" y="-76.543" font-family="Times,serif" font-size="14.00" fill="#000000">translation_scope</text>
<polyline fill="none" stroke="#000000" points="848.6996,-69.743 1080.1,-69.743 "/>
<text text-anchor="start" x="856.6996" y="-54.543" font-family="Times,serif" font-size="14.00" fill="#000000">_layout</text>
</g>
<!-- Devise::PasswordsController -->
<g id="node17" class="node">
<title>Devise::PasswordsController</title>
<path fill="none" stroke="#000000" d="M515.885,-.5C515.885,-.5 804.1477,-.5 804.1477,-.5 810.1477,-.5 816.1477,-6.5 816.1477,-12.5 816.1477,-12.5 816.1477,-174.5 816.1477,-174.5 816.1477,-180.5 810.1477,-186.5 804.1477,-186.5 804.1477,-186.5 515.885,-186.5 515.885,-186.5 509.885,-186.5 503.885,-180.5 503.885,-174.5 503.885,-174.5 503.885,-12.5 503.885,-12.5 503.885,-6.5 509.885,-.5 515.885,-.5"/>
<text text-anchor="middle" x="660.0163" y="-171.3" font-family="Times,serif" font-size="14.00" fill="#000000">Devise::PasswordsController</text>
<polyline fill="none" stroke="#000000" points="503.885,-164.5 816.1477,-164.5 "/>
<text text-anchor="start" x="511.885" y="-149.3" font-family="Times,serif" font-size="14.00" fill="#000000">create</text>
<text text-anchor="start" x="511.885" y="-135.3" font-family="Times,serif" font-size="14.00" fill="#000000">edit</text>
<text text-anchor="start" x="511.885" y="-121.3" font-family="Times,serif" font-size="14.00" fill="#000000">new</text>
<text text-anchor="start" x="511.885" y="-107.3" font-family="Times,serif" font-size="14.00" fill="#000000">update</text>
<polyline fill="none" stroke="#000000" points="503.885,-100.5 816.1477,-100.5 "/>
<text text-anchor="start" x="511.885" y="-85.3" font-family="Times,serif" font-size="14.00" fill="#000000">after_resetting_password_path_for</text>
<text text-anchor="start" x="511.885" y="-71.3" font-family="Times,serif" font-size="14.00" fill="#000000">after_sending_reset_password_instructions_path_for</text>
<text text-anchor="start" x="511.885" y="-57.3" font-family="Times,serif" font-size="14.00" fill="#000000">assert_reset_token_passed</text>
<text text-anchor="start" x="511.885" y="-43.3" font-family="Times,serif" font-size="14.00" fill="#000000">translation_scope</text>
<text text-anchor="start" x="511.885" y="-29.3" font-family="Times,serif" font-size="14.00" fill="#000000">unlockable?</text>
<polyline fill="none" stroke="#000000" points="503.885,-22.5 816.1477,-22.5 "/>
<text text-anchor="start" x="511.885" y="-7.3" font-family="Times,serif" font-size="14.00" fill="#000000">_layout</text>
</g>
<!-- Devise::SessionsController -->
<g id="node18" class="node">
<title>Devise::SessionsController</title>
<path fill="none" stroke="#000000" d="M461.859,-939.8679C461.859,-939.8679 606.2936,-939.8679 606.2936,-939.8679 612.2936,-939.8679 618.2936,-945.8679 618.2936,-951.8679 618.2936,-951.8679 618.2936,-1127.8679 618.2936,-1127.8679 618.2936,-1133.8679 612.2936,-1139.8679 606.2936,-1139.8679 606.2936,-1139.8679 461.859,-1139.8679 461.859,-1139.8679 455.859,-1139.8679 449.859,-1133.8679 449.859,-1127.8679 449.859,-1127.8679 449.859,-951.8679 449.859,-951.8679 449.859,-945.8679 455.859,-939.8679 461.859,-939.8679"/>
<text text-anchor="middle" x="534.0763" y="-1124.6679" font-family="Times,serif" font-size="14.00" fill="#000000">Devise::SessionsController</text>
<polyline fill="none" stroke="#000000" points="449.859,-1117.8679 618.2936,-1117.8679 "/>
<text text-anchor="start" x="457.859" y="-1102.6679" font-family="Times,serif" font-size="14.00" fill="#000000">create</text>
<text text-anchor="start" x="457.859" y="-1088.6679" font-family="Times,serif" font-size="14.00" fill="#000000">destroy</text>
<text text-anchor="start" x="457.859" y="-1074.6679" font-family="Times,serif" font-size="14.00" fill="#000000">new</text>
<polyline fill="none" stroke="#000000" points="449.859,-1067.8679 618.2936,-1067.8679 "/>
<text text-anchor="start" x="457.859" y="-1052.6679" font-family="Times,serif" font-size="14.00" fill="#000000">auth_options</text>
<text text-anchor="start" x="457.859" y="-1038.6679" font-family="Times,serif" font-size="14.00" fill="#000000">serialize_options</text>
<text text-anchor="start" x="457.859" y="-1024.6679" font-family="Times,serif" font-size="14.00" fill="#000000">sign_in_params</text>
<text text-anchor="start" x="457.859" y="-1010.6679" font-family="Times,serif" font-size="14.00" fill="#000000">translation_scope</text>
<polyline fill="none" stroke="#000000" points="449.859,-1003.8679 618.2936,-1003.8679 "/>
<text text-anchor="start" x="457.859" y="-988.6679" font-family="Times,serif" font-size="14.00" fill="#000000">_layout</text>
<text text-anchor="start" x="457.859" y="-974.6679" font-family="Times,serif" font-size="14.00" fill="#000000">all_signed_out?</text>
<text text-anchor="start" x="457.859" y="-960.6679" font-family="Times,serif" font-size="14.00" fill="#000000">respond_to_on_destroy</text>
<text text-anchor="start" x="457.859" y="-946.6679" font-family="Times,serif" font-size="14.00" fill="#000000">verify_signed_out_user</text>
</g>
<!-- Devise::UnlocksController -->
<g id="node19" class="node">
<title>Devise::UnlocksController</title>
<path fill="none" stroke="#000000" d="M833.554,-376.3472C833.554,-376.3472 1073.6097,-376.3472 1073.6097,-376.3472 1079.6097,-376.3472 1085.6097,-382.3472 1085.6097,-388.3472 1085.6097,-388.3472 1085.6097,-508.3472 1085.6097,-508.3472 1085.6097,-514.3472 1079.6097,-520.3472 1073.6097,-520.3472 1073.6097,-520.3472 833.554,-520.3472 833.554,-520.3472 827.554,-520.3472 821.554,-514.3472 821.554,-508.3472 821.554,-508.3472 821.554,-388.3472 821.554,-388.3472 821.554,-382.3472 827.554,-376.3472 833.554,-376.3472"/>
<text text-anchor="middle" x="953.5818" y="-505.1472" font-family="Times,serif" font-size="14.00" fill="#000000">Devise::UnlocksController</text>
<polyline fill="none" stroke="#000000" points="821.554,-498.3472 1085.6097,-498.3472 "/>
<text text-anchor="start" x="829.554" y="-483.1472" font-family="Times,serif" font-size="14.00" fill="#000000">create</text>
<text text-anchor="start" x="829.554" y="-469.1472" font-family="Times,serif" font-size="14.00" fill="#000000">new</text>
<text text-anchor="start" x="829.554" y="-455.1472" font-family="Times,serif" font-size="14.00" fill="#000000">show</text>
<polyline fill="none" stroke="#000000" points="821.554,-448.3472 1085.6097,-448.3472 "/>
<text text-anchor="start" x="829.554" y="-433.1472" font-family="Times,serif" font-size="14.00" fill="#000000">after_sending_unlock_instructions_path_for</text>
<text text-anchor="start" x="829.554" y="-419.1472" font-family="Times,serif" font-size="14.00" fill="#000000">after_unlock_path_for</text>
<text text-anchor="start" x="829.554" y="-405.1472" font-family="Times,serif" font-size="14.00" fill="#000000">translation_scope</text>
<polyline fill="none" stroke="#000000" points="821.554,-398.3472 1085.6097,-398.3472 "/>
<text text-anchor="start" x="829.554" y="-383.1472" font-family="Times,serif" font-size="14.00" fill="#000000">_layout</text>
</g>
<!-- Devise::ConfirmationsController -->
<g id="node20" class="node">
<title>Devise::ConfirmationsController</title>
<path fill="none" stroke="#000000" d="M828.9992,-661.2916C828.9992,-661.2916 1113.3723,-661.2916 1113.3723,-661.2916 1119.3723,-661.2916 1125.3723,-667.2916 1125.3723,-673.2916 1125.3723,-673.2916 1125.3723,-793.2916 1125.3723,-793.2916 1125.3723,-799.2916 1119.3723,-805.2916 1113.3723,-805.2916 1113.3723,-805.2916 828.9992,-805.2916 828.9992,-805.2916 822.9992,-805.2916 816.9992,-799.2916 816.9992,-793.2916 816.9992,-793.2916 816.9992,-673.2916 816.9992,-673.2916 816.9992,-667.2916 822.9992,-661.2916 828.9992,-661.2916"/>
<text text-anchor="middle" x="971.1857" y="-790.0916" font-family="Times,serif" font-size="14.00" fill="#000000">Devise::ConfirmationsController</text>
<polyline fill="none" stroke="#000000" points="816.9992,-783.2916 1125.3723,-783.2916 "/>
<text text-anchor="start" x="824.9992" y="-768.0916" font-family="Times,serif" font-size="14.00" fill="#000000">create</text>
<text text-anchor="start" x="824.9992" y="-754.0916" font-family="Times,serif" font-size="14.00" fill="#000000">new</text>
<text text-anchor="start" x="824.9992" y="-740.0916" font-family="Times,serif" font-size="14.00" fill="#000000">show</text>
<polyline fill="none" stroke="#000000" points="816.9992,-733.2916 1125.3723,-733.2916 "/>
<text text-anchor="start" x="824.9992" y="-718.0916" font-family="Times,serif" font-size="14.00" fill="#000000">after_confirmation_path_for</text>
<text text-anchor="start" x="824.9992" y="-704.0916" font-family="Times,serif" font-size="14.00" fill="#000000">after_resending_confirmation_instructions_path_for</text>
<text text-anchor="start" x="824.9992" y="-690.0916" font-family="Times,serif" font-size="14.00" fill="#000000">translation_scope</text>
<polyline fill="none" stroke="#000000" points="816.9992,-683.2916 1125.3723,-683.2916 "/>
<text text-anchor="start" x="824.9992" y="-668.0916" font-family="Times,serif" font-size="14.00" fill="#000000">_layout</text>
</g>
<!-- Devise::RegistrationsController -->
<g id="node21" class="node">
<title>Devise::RegistrationsController</title>
<path fill="none" stroke="#000000" d="M826.4879,-875.4841C826.4879,-875.4841 1005.0953,-875.4841 1005.0953,-875.4841 1011.0953,-875.4841 1017.0953,-881.4841 1017.0953,-887.4841 1017.0953,-887.4841 1017.0953,-1189.4841 1017.0953,-1189.4841 1017.0953,-1195.4841 1011.0953,-1201.4841 1005.0953,-1201.4841 1005.0953,-1201.4841 826.4879,-1201.4841 826.4879,-1201.4841 820.4879,-1201.4841 814.4879,-1195.4841 814.4879,-1189.4841 814.4879,-1189.4841 814.4879,-887.4841 814.4879,-887.4841 814.4879,-881.4841 820.4879,-875.4841 826.4879,-875.4841"/>
<text text-anchor="middle" x="915.7916" y="-1186.2841" font-family="Times,serif" font-size="14.00" fill="#000000">Devise::RegistrationsController</text>
<polyline fill="none" stroke="#000000" points="814.4879,-1179.4841 1017.0953,-1179.4841 "/>
<text text-anchor="start" x="822.4879" y="-1164.2841" font-family="Times,serif" font-size="14.00" fill="#000000">cancel</text>
<text text-anchor="start" x="822.4879" y="-1150.2841" font-family="Times,serif" font-size="14.00" fill="#000000">create</text>
<text text-anchor="start" x="822.4879" y="-1136.2841" font-family="Times,serif" font-size="14.00" fill="#000000">destroy</text>
<text text-anchor="start" x="822.4879" y="-1122.2841" font-family="Times,serif" font-size="14.00" fill="#000000">edit</text>
<text text-anchor="start" x="822.4879" y="-1108.2841" font-family="Times,serif" font-size="14.00" fill="#000000">new</text>
<text text-anchor="start" x="822.4879" y="-1094.2841" font-family="Times,serif" font-size="14.00" fill="#000000">update</text>
<polyline fill="none" stroke="#000000" points="814.4879,-1087.4841 1017.0953,-1087.4841 "/>
<text text-anchor="start" x="822.4879" y="-1072.2841" font-family="Times,serif" font-size="14.00" fill="#000000">update_resource</text>
<text text-anchor="start" x="822.4879" y="-1058.2841" font-family="Times,serif" font-size="14.00" fill="#000000">after_inactive_sign_up_path_for</text>
<text text-anchor="start" x="822.4879" y="-1044.2841" font-family="Times,serif" font-size="14.00" fill="#000000">after_sign_up_path_for</text>
<text text-anchor="start" x="822.4879" y="-1030.2841" font-family="Times,serif" font-size="14.00" fill="#000000">after_update_path_for</text>
<text text-anchor="start" x="822.4879" y="-1016.2841" font-family="Times,serif" font-size="14.00" fill="#000000">authenticate_scope!</text>
<text text-anchor="start" x="822.4879" y="-1002.2841" font-family="Times,serif" font-size="14.00" fill="#000000">build_resource</text>
<text text-anchor="start" x="822.4879" y="-988.2841" font-family="Times,serif" font-size="14.00" fill="#000000">sign_up</text>
<text text-anchor="start" x="822.4879" y="-974.2841" font-family="Times,serif" font-size="14.00" fill="#000000">sign_up_params</text>
<text text-anchor="start" x="822.4879" y="-960.2841" font-family="Times,serif" font-size="14.00" fill="#000000">translation_scope</text>
<text text-anchor="start" x="822.4879" y="-946.2841" font-family="Times,serif" font-size="14.00" fill="#000000">update_needs_confirmation?</text>
<text text-anchor="start" x="822.4879" y="-932.2841" font-family="Times,serif" font-size="14.00" fill="#000000">account_update_params</text>
<polyline fill="none" stroke="#000000" points="814.4879,-925.4841 1017.0953,-925.4841 "/>
<text text-anchor="start" x="822.4879" y="-910.2841" font-family="Times,serif" font-size="14.00" fill="#000000">_layout</text>
<text text-anchor="start" x="822.4879" y="-896.2841" font-family="Times,serif" font-size="14.00" fill="#000000">set_flash_message_for_update</text>
<text text-anchor="start" x="822.4879" y="-882.2841" font-family="Times,serif" font-size="14.00" fill="#000000">sign_in_after_change_password?</text>
</g>
<!-- DeviseController&#45;&gt;Devise::OmniauthCallbacksController -->
<g id="edge9" class="edge">
<title>DeviseController&#45;&gt;Devise::OmniauthCallbacksController</title>
<path fill="none" stroke="#000000" d="M741.5374,-530.6769C765.406,-479.2479 792.1375,-423.6319 818.354,-373.1472 850.6477,-310.9595 890.564,-242.1816 920.5005,-191.9896"/>
</g>
<!-- DeviseController&#45;&gt;Devise::PasswordsController -->
<g id="edge10" class="edge">
<title>DeviseController&#45;&gt;Devise::PasswordsController</title>
<path fill="none" stroke="#000000" d="M707.4251,-530.6366C709.6835,-517.7641 711.6229,-504.9358 713.1077,-492.4224 721.8219,-418.9821 721.391,-399.5126 713.1077,-326.0224 707.867,-279.5265 696.9085,-228.7732 686.3011,-186.5802"/>
</g>
<!-- DeviseController&#45;&gt;Devise::SessionsController -->
<g id="edge11" class="edge">
<title>DeviseController&#45;&gt;Devise::SessionsController</title>
<path fill="none" stroke="#000000" d="M588.4068,-899.1279C583.039,-913.0329 577.755,-926.7207 572.7158,-939.7745"/>
</g>
<!-- DeviseController&#45;&gt;Devise::UnlocksController -->
<g id="edge12" class="edge">
<title>DeviseController&#45;&gt;Devise::UnlocksController</title>
<path fill="none" stroke="#000000" d="M757.0896,-626.3662C795.029,-591.9936 837.9509,-553.1071 873.9794,-520.4657"/>
</g>
<!-- DeviseController&#45;&gt;Devise::ConfirmationsController -->
<g id="edge13" class="edge">
<title>DeviseController&#45;&gt;Devise::ConfirmationsController</title>
<path fill="none" stroke="#000000" d="M757.3392,-720.519C776.2567,-721.6489 796.507,-722.8584 816.7275,-724.0662"/>
</g>
<!-- DeviseController&#45;&gt;Devise::RegistrationsController -->
<g id="edge14" class="edge">
<title>DeviseController&#45;&gt;Devise::RegistrationsController</title>
<path fill="none" stroke="#000000" d="M757.1917,-838.0213C775.9272,-861.7022 795.5874,-886.5517 814.4388,-910.379"/>
</g>
</g>
</svg>
