<?xml version="1.0" encoding="UTF-8" standalone="no"?>
<!DOCTYPE svg PUBLIC "-//W3C//DTD SVG 1.1//EN"
 "http://www.w3.org/Graphics/SVG/1.1/DTD/svg11.dtd">
<!-- Generated by graphviz version 2.40.1 (20161225.0304)
 -->
<!-- Title: controllers_diagram Pages: 1 -->
<svg width="1351pt" height="1299pt"
 viewBox="0.00 0.00 1351.05 1299.00" xmlns="http://www.w3.org/2000/svg" xmlns:xlink="http://www.w3.org/1999/xlink">
<g id="graph0" class="graph" transform="scale(1 1) rotate(0) translate(4 1295)">
<title>controllers_diagram</title>
<polygon fill="transparent" stroke="transparent" points="-4,4 -4,-1295 1347.0488,-1295 1347.0488,4 -4,4"/>
<!-- _diagram_info -->
<g id="node1" class="node">
<title>_diagram_info</title>
<text text-anchor="start" x="258" y="-1258.6" font-family="Times,serif" font-size="13.00" fill="#000000">Controllers diagram</text>
<text text-anchor="start" x="258" y="-1245.6" font-family="Times,serif" font-size="13.00" fill="#000000">Date: Nov 04 2019 &#45; 14:31</text>
<text text-anchor="start" x="258" y="-1232.6" font-family="Times,serif" font-size="13.00" fill="#000000">Migration version: 20191014104536</text>
<text text-anchor="start" x="258" y="-1219.6" font-family="Times,serif" font-size="13.00" fill="#000000">Generated by RailRoady 1.5.3</text>
<text text-anchor="start" x="258" y="-1206.6" font-family="Times,serif" font-size="13.00" fill="#000000">http://railroady.prestonlee.com</text>
</g>
<!-- MessagesController -->
<g id="node2" class="node">
<title>MessagesController</title>
<path fill="none" stroke="#000000" d="M37.8832,-492.4652C37.8832,-492.4652 141.8627,-492.4652 141.8627,-492.4652 147.8627,-492.4652 153.8627,-498.4652 153.8627,-504.4652 153.8627,-504.4652 153.8627,-612.4652 153.8627,-612.4652 153.8627,-618.4652 147.8627,-624.4652 141.8627,-624.4652 141.8627,-624.4652 37.8832,-624.4652 37.8832,-624.4652 31.8832,-624.4652 25.8832,-618.4652 25.8832,-612.4652 25.8832,-612.4652 25.8832,-504.4652 25.8832,-504.4652 25.8832,-498.4652 31.8832,-492.4652 37.8832,-492.4652"/>
<text text-anchor="middle" x="89.873" y="-609.2652" font-family="Times,serif" font-size="14.00" fill="#000000">MessagesController</text>
<polyline fill="none" stroke="#000000" points="25.8832,-602.4652 153.8627,-602.4652 "/>
<text text-anchor="start" x="33.8832" y="-587.2652" font-family="Times,serif" font-size="14.00" fill="#000000">create</text>
<text text-anchor="start" x="33.8832" y="-573.2652" font-family="Times,serif" font-size="14.00" fill="#000000">index</text>
<polyline fill="none" stroke="#000000" points="25.8832,-566.4652 153.8627,-566.4652 "/>
<polyline fill="none" stroke="#000000" points="25.8832,-542.4652 153.8627,-542.4652 "/>
<text text-anchor="start" x="33.8832" y="-527.2652" font-family="Times,serif" font-size="14.00" fill="#000000">_layout</text>
<text text-anchor="start" x="33.8832" y="-513.2652" font-family="Times,serif" font-size="14.00" fill="#000000">load_chatroom</text>
<text text-anchor="start" x="33.8832" y="-499.2652" font-family="Times,serif" font-size="14.00" fill="#000000">message_params</text>
</g>
<!-- ApplicationController -->
<g id="node3" class="node">
<title>ApplicationController</title>
<path fill="none" stroke="#000000" d="M310.9217,-363.1248C310.9217,-363.1248 484.8534,-363.1248 484.8534,-363.1248 490.8534,-363.1248 496.8534,-369.1248 496.8534,-375.1248 496.8534,-375.1248 496.8534,-539.1248 496.8534,-539.1248 496.8534,-545.1248 490.8534,-551.1248 484.8534,-551.1248 484.8534,-551.1248 310.9217,-551.1248 310.9217,-551.1248 304.9217,-551.1248 298.9217,-545.1248 298.9217,-539.1248 298.9217,-539.1248 298.9217,-375.1248 298.9217,-375.1248 298.9217,-369.1248 304.9217,-363.1248 310.9217,-363.1248"/>
<text text-anchor="middle" x="397.8876" y="-535.9248" font-family="Times,serif" font-size="14.00" fill="#000000">ApplicationController</text>
<polyline fill="none" stroke="#000000" points="298.9217,-529.1248 496.8534,-529.1248 "/>
<text text-anchor="start" x="306.9217" y="-513.9248" font-family="Times,serif" font-size="14.00" fill="#000000">sort_params</text>
<text text-anchor="start" x="306.9217" y="-499.9248" font-family="Times,serif" font-size="14.00" fill="#000000">data_name</text>
<text text-anchor="start" x="306.9217" y="-485.9248" font-family="Times,serif" font-size="14.00" fill="#000000">default_url_options</text>
<text text-anchor="start" x="306.9217" y="-471.9248" font-family="Times,serif" font-size="14.00" fill="#000000">detect_layout</text>
<text text-anchor="start" x="306.9217" y="-457.9248" font-family="Times,serif" font-size="14.00" fill="#000000">f7_request?</text>
<text text-anchor="start" x="306.9217" y="-443.9248" font-family="Times,serif" font-size="14.00" fill="#000000">no_back?</text>
<text text-anchor="start" x="306.9217" y="-429.9248" font-family="Times,serif" font-size="14.00" fill="#000000">rails_routes</text>
<text text-anchor="start" x="306.9217" y="-415.9248" font-family="Times,serif" font-size="14.00" fill="#000000">configure_permitted_parameters</text>
<polyline fill="none" stroke="#000000" points="298.9217,-409.1248 496.8534,-409.1248 "/>
<polyline fill="none" stroke="#000000" points="298.9217,-385.1248 496.8534,-385.1248 "/>
<text text-anchor="start" x="306.9217" y="-369.9248" font-family="Times,serif" font-size="14.00" fill="#000000">_layout</text>
</g>
<!-- ApplicationController&#45;&gt;MessagesController -->
<g id="edge1" class="edge">
<title>ApplicationController&#45;&gt;MessagesController</title>
<path fill="none" stroke="#000000" d="M298.7343,-489.7474C251.251,-505.3699 195.7652,-523.6254 153.9217,-537.3924"/>
</g>
<!-- EventsController -->
<g id="node4" class="node">
<title>EventsController</title>
<path fill="none" stroke="#000000" d="M352.3664,-14.7746C352.3664,-14.7746 440.0148,-14.7746 440.0148,-14.7746 446.0148,-14.7746 452.0148,-20.7746 452.0148,-26.7746 452.0148,-26.7746 452.0148,-218.7746 452.0148,-218.7746 452.0148,-224.7746 446.0148,-230.7746 440.0148,-230.7746 440.0148,-230.7746 352.3664,-230.7746 352.3664,-230.7746 346.3664,-230.7746 340.3664,-224.7746 340.3664,-218.7746 340.3664,-218.7746 340.3664,-26.7746 340.3664,-26.7746 340.3664,-20.7746 346.3664,-14.7746 352.3664,-14.7746"/>
<text text-anchor="middle" x="396.1906" y="-215.5746" font-family="Times,serif" font-size="14.00" fill="#000000">EventsController</text>
<polyline fill="none" stroke="#000000" points="340.3664,-208.7746 452.0148,-208.7746 "/>
<text text-anchor="start" x="348.3664" y="-193.5746" font-family="Times,serif" font-size="14.00" fill="#000000">update</text>
<text text-anchor="start" x="348.3664" y="-179.5746" font-family="Times,serif" font-size="14.00" fill="#000000">destroy</text>
<text text-anchor="start" x="348.3664" y="-165.5746" font-family="Times,serif" font-size="14.00" fill="#000000">edit</text>
<text text-anchor="start" x="348.3664" y="-151.5746" font-family="Times,serif" font-size="14.00" fill="#000000">index</text>
<text text-anchor="start" x="348.3664" y="-137.5746" font-family="Times,serif" font-size="14.00" fill="#000000">new</text>
<text text-anchor="start" x="348.3664" y="-123.5746" font-family="Times,serif" font-size="14.00" fill="#000000">perform</text>
<text text-anchor="start" x="348.3664" y="-109.5746" font-family="Times,serif" font-size="14.00" fill="#000000">show</text>
<text text-anchor="start" x="348.3664" y="-95.5746" font-family="Times,serif" font-size="14.00" fill="#000000">create</text>
<polyline fill="none" stroke="#000000" points="340.3664,-88.7746 452.0148,-88.7746 "/>
<polyline fill="none" stroke="#000000" points="340.3664,-64.7746 452.0148,-64.7746 "/>
<text text-anchor="start" x="348.3664" y="-49.5746" font-family="Times,serif" font-size="14.00" fill="#000000">_layout</text>
<text text-anchor="start" x="348.3664" y="-35.5746" font-family="Times,serif" font-size="14.00" fill="#000000">load_event</text>
<text text-anchor="start" x="348.3664" y="-21.5746" font-family="Times,serif" font-size="14.00" fill="#000000">set_params</text>
</g>
<!-- ApplicationController&#45;&gt;EventsController -->
<g id="edge2" class="edge">
<title>ApplicationController&#45;&gt;EventsController</title>
<path fill="none" stroke="#000000" d="M397.4103,-363.0999C397.2015,-321.9591 396.9554,-273.4558 396.7391,-230.8362"/>
</g>
<!-- ChatroomsController -->
<g id="node5" class="node">
<title>ChatroomsController</title>
<path fill="none" stroke="#000000" d="M88.5398,-949.7282C88.5398,-949.7282 199.5261,-949.7282 199.5261,-949.7282 205.5261,-949.7282 211.5261,-955.7282 211.5261,-961.7282 211.5261,-961.7282 211.5261,-1111.7282 211.5261,-1111.7282 211.5261,-1117.7282 205.5261,-1123.7282 199.5261,-1123.7282 199.5261,-1123.7282 88.5398,-1123.7282 88.5398,-1123.7282 82.5398,-1123.7282 76.5398,-1117.7282 76.5398,-1111.7282 76.5398,-1111.7282 76.5398,-961.7282 76.5398,-961.7282 76.5398,-955.7282 82.5398,-949.7282 88.5398,-949.7282"/>
<text text-anchor="middle" x="144.0329" y="-1108.5282" font-family="Times,serif" font-size="14.00" fill="#000000">ChatroomsController</text>
<polyline fill="none" stroke="#000000" points="76.5398,-1101.7282 211.5261,-1101.7282 "/>
<text text-anchor="start" x="84.5398" y="-1086.5282" font-family="Times,serif" font-size="14.00" fill="#000000">create</text>
<text text-anchor="start" x="84.5398" y="-1072.5282" font-family="Times,serif" font-size="14.00" fill="#000000">destroy</text>
<text text-anchor="start" x="84.5398" y="-1058.5282" font-family="Times,serif" font-size="14.00" fill="#000000">edit</text>
<text text-anchor="start" x="84.5398" y="-1044.5282" font-family="Times,serif" font-size="14.00" fill="#000000">index</text>
<text text-anchor="start" x="84.5398" y="-1030.5282" font-family="Times,serif" font-size="14.00" fill="#000000">new</text>
<text text-anchor="start" x="84.5398" y="-1016.5282" font-family="Times,serif" font-size="14.00" fill="#000000">show</text>
<text text-anchor="start" x="84.5398" y="-1002.5282" font-family="Times,serif" font-size="14.00" fill="#000000">update</text>
<polyline fill="none" stroke="#000000" points="76.5398,-995.7282 211.5261,-995.7282 "/>
<polyline fill="none" stroke="#000000" points="76.5398,-971.7282 211.5261,-971.7282 "/>
<text text-anchor="start" x="84.5398" y="-956.5282" font-family="Times,serif" font-size="14.00" fill="#000000">_layout</text>
</g>
<!-- ApplicationController&#45;&gt;ChatroomsController -->
<g id="edge3" class="edge">
<title>ApplicationController&#45;&gt;ChatroomsController</title>
<path fill="none" stroke="#000000" d="M356.5391,-551.1668C336.9909,-595.6532 313.3402,-649.5142 292.13,-697.9221 254.6453,-783.4732 211.93,-881.2221 182.0386,-949.6676"/>
</g>
<!-- TinymceAssetsController -->
<g id="node6" class="node">
<title>TinymceAssetsController</title>
<path fill="none" stroke="#000000" d="M307.33,-701.1221C307.33,-701.1221 442.7069,-701.1221 442.7069,-701.1221 448.7069,-701.1221 454.7069,-707.1221 454.7069,-713.1221 454.7069,-713.1221 454.7069,-779.1221 454.7069,-779.1221 454.7069,-785.1221 448.7069,-791.1221 442.7069,-791.1221 442.7069,-791.1221 307.33,-791.1221 307.33,-791.1221 301.33,-791.1221 295.33,-785.1221 295.33,-779.1221 295.33,-779.1221 295.33,-713.1221 295.33,-713.1221 295.33,-707.1221 301.33,-701.1221 307.33,-701.1221"/>
<text text-anchor="middle" x="375.0184" y="-775.9221" font-family="Times,serif" font-size="14.00" fill="#000000">TinymceAssetsController</text>
<polyline fill="none" stroke="#000000" points="295.33,-769.1221 454.7069,-769.1221 "/>
<text text-anchor="start" x="303.33" y="-753.9221" font-family="Times,serif" font-size="14.00" fill="#000000">create</text>
<polyline fill="none" stroke="#000000" points="295.33,-747.1221 454.7069,-747.1221 "/>
<polyline fill="none" stroke="#000000" points="295.33,-723.1221 454.7069,-723.1221 "/>
<text text-anchor="start" x="303.33" y="-707.9221" font-family="Times,serif" font-size="14.00" fill="#000000">_layout</text>
</g>
<!-- ApplicationController&#45;&gt;TinymceAssetsController -->
<g id="edge4" class="edge">
<title>ApplicationController&#45;&gt;TinymceAssetsController</title>
<path fill="none" stroke="#000000" d="M390.431,-551.3535C386.4555,-601.5921 381.7471,-661.0921 378.5897,-700.9917"/>
</g>
<!-- MapsController -->
<g id="node7" class="node">
<title>MapsController</title>
<path fill="none" stroke="#000000" d="M12,-746.4701C12,-746.4701 92.6553,-746.4701 92.6553,-746.4701 98.6553,-746.4701 104.6553,-752.4701 104.6553,-758.4701 104.6553,-758.4701 104.6553,-826.4701 104.6553,-826.4701 104.6553,-832.4701 98.6553,-838.4701 92.6553,-838.4701 92.6553,-838.4701 12,-838.4701 12,-838.4701 6,-838.4701 0,-832.4701 0,-826.4701 0,-826.4701 0,-758.4701 0,-758.4701 0,-752.4701 6,-746.4701 12,-746.4701"/>
<text text-anchor="middle" x="52.3276" y="-823.2701" font-family="Times,serif" font-size="14.00" fill="#000000">MapsController</text>
<polyline fill="none" stroke="#000000" points="0,-816.4701 104.6553,-816.4701 "/>
<polyline fill="none" stroke="#000000" points="0,-792.4701 104.6553,-792.4701 "/>
<polyline fill="none" stroke="#000000" points="0,-768.4701 104.6553,-768.4701 "/>
<text text-anchor="start" x="8" y="-753.2701" font-family="Times,serif" font-size="14.00" fill="#000000">_layout</text>
</g>
<!-- ApplicationController&#45;&gt;MapsController -->
<g id="edge5" class="edge">
<title>ApplicationController&#45;&gt;MapsController</title>
<path fill="none" stroke="#000000" d="M300.7103,-551.4296C235.2332,-614.9712 151.7123,-696.0232 100.1381,-746.073"/>
</g>
<!-- NotificationsController -->
<g id="node8" class="node">
<title>NotificationsController</title>
<path fill="none" stroke="#000000" d="M30.0748,-289.3749C30.0748,-289.3749 151.9508,-289.3749 151.9508,-289.3749 157.9508,-289.3749 163.9508,-295.3749 163.9508,-301.3749 163.9508,-301.3749 163.9508,-369.3749 163.9508,-369.3749 163.9508,-375.3749 157.9508,-381.3749 151.9508,-381.3749 151.9508,-381.3749 30.0748,-381.3749 30.0748,-381.3749 24.0748,-381.3749 18.0748,-375.3749 18.0748,-369.3749 18.0748,-369.3749 18.0748,-301.3749 18.0748,-301.3749 18.0748,-295.3749 24.0748,-289.3749 30.0748,-289.3749"/>
<text text-anchor="middle" x="91.0128" y="-366.1749" font-family="Times,serif" font-size="14.00" fill="#000000">NotificationsController</text>
<polyline fill="none" stroke="#000000" points="18.0748,-359.3749 163.9508,-359.3749 "/>
<polyline fill="none" stroke="#000000" points="18.0748,-335.3749 163.9508,-335.3749 "/>
<polyline fill="none" stroke="#000000" points="18.0748,-311.3749 163.9508,-311.3749 "/>
<text text-anchor="start" x="26.0748" y="-296.1749" font-family="Times,serif" font-size="14.00" fill="#000000">_layout</text>
</g>
<!-- ApplicationController&#45;&gt;NotificationsController -->
<g id="edge6" class="edge">
<title>ApplicationController&#45;&gt;NotificationsController</title>
<path fill="none" stroke="#000000" d="M298.6779,-417.7643C254.8996,-400.3956 204.3624,-380.3454 164.1042,-364.3733"/>
</g>
<!-- UsersController -->
<g id="node9" class="node">
<title>UsersController</title>
<path fill="none" stroke="#000000" d="M609.5745,-321.5736C609.5745,-321.5736 707.3059,-321.5736 707.3059,-321.5736 713.3059,-321.5736 719.3059,-327.5736 719.3059,-333.5736 719.3059,-333.5736 719.3059,-469.5736 719.3059,-469.5736 719.3059,-475.5736 713.3059,-481.5736 707.3059,-481.5736 707.3059,-481.5736 609.5745,-481.5736 609.5745,-481.5736 603.5745,-481.5736 597.5745,-475.5736 597.5745,-469.5736 597.5745,-469.5736 597.5745,-333.5736 597.5745,-333.5736 597.5745,-327.5736 603.5745,-321.5736 609.5745,-321.5736"/>
<text text-anchor="middle" x="658.4402" y="-466.3736" font-family="Times,serif" font-size="14.00" fill="#000000">UsersController</text>
<polyline fill="none" stroke="#000000" points="597.5745,-459.5736 719.3059,-459.5736 "/>
<text text-anchor="start" x="605.5745" y="-444.3736" font-family="Times,serif" font-size="14.00" fill="#000000">check_email</text>
<text text-anchor="start" x="605.5745" y="-430.3736" font-family="Times,serif" font-size="14.00" fill="#000000">mypage</text>
<text text-anchor="start" x="605.5745" y="-416.3736" font-family="Times,serif" font-size="14.00" fill="#000000">select_certification</text>
<text text-anchor="start" x="605.5745" y="-402.3736" font-family="Times,serif" font-size="14.00" fill="#000000">token</text>
<text text-anchor="start" x="605.5745" y="-388.3736" font-family="Times,serif" font-size="14.00" fill="#000000">update</text>
<polyline fill="none" stroke="#000000" points="597.5745,-381.5736 719.3059,-381.5736 "/>
<polyline fill="none" stroke="#000000" points="597.5745,-357.5736 719.3059,-357.5736 "/>
<text text-anchor="start" x="605.5745" y="-342.3736" font-family="Times,serif" font-size="14.00" fill="#000000">_layout</text>
<text text-anchor="start" x="605.5745" y="-328.3736" font-family="Times,serif" font-size="14.00" fill="#000000">thumbnail_params</text>
</g>
<!-- ApplicationController&#45;&gt;UsersController -->
<g id="edge7" class="edge">
<title>ApplicationController&#45;&gt;UsersController</title>
<path fill="none" stroke="#000000" d="M497.1346,-435.9648C530.9306,-428.7593 567.6846,-420.9232 597.5616,-414.5532"/>
</g>
<!-- ReportsController -->
<g id="node10" class="node">
<title>ReportsController</title>
<path fill="none" stroke="#000000" d="M38.2033,-23.7947C38.2033,-23.7947 131.2999,-23.7947 131.2999,-23.7947 137.2999,-23.7947 143.2999,-29.7947 143.2999,-35.7947 143.2999,-35.7947 143.2999,-115.7947 143.2999,-115.7947 143.2999,-121.7947 137.2999,-127.7947 131.2999,-127.7947 131.2999,-127.7947 38.2033,-127.7947 38.2033,-127.7947 32.2033,-127.7947 26.2033,-121.7947 26.2033,-115.7947 26.2033,-115.7947 26.2033,-35.7947 26.2033,-35.7947 26.2033,-29.7947 32.2033,-23.7947 38.2033,-23.7947"/>
<text text-anchor="middle" x="84.7516" y="-112.5947" font-family="Times,serif" font-size="14.00" fill="#000000">ReportsController</text>
<polyline fill="none" stroke="#000000" points="26.2033,-105.7947 143.2999,-105.7947 "/>
<text text-anchor="start" x="34.2033" y="-90.5947" font-family="Times,serif" font-size="14.00" fill="#000000">create</text>
<text text-anchor="start" x="34.2033" y="-76.5947" font-family="Times,serif" font-size="14.00" fill="#000000">new</text>
<polyline fill="none" stroke="#000000" points="26.2033,-69.7947 143.2999,-69.7947 "/>
<polyline fill="none" stroke="#000000" points="26.2033,-45.7947 143.2999,-45.7947 "/>
<text text-anchor="start" x="34.2033" y="-30.5947" font-family="Times,serif" font-size="14.00" fill="#000000">_layout</text>
</g>
<!-- ApplicationController&#45;&gt;ReportsController -->
<g id="edge8" class="edge">
<title>ApplicationController&#45;&gt;ReportsController</title>
<path fill="none" stroke="#000000" d="M320.4831,-362.8634C259.63,-288.7579 177.1255,-188.2857 127.5943,-127.9677"/>
</g>
<!-- DeviseController -->
<g id="node22" class="node">
<title>DeviseController</title>
<path fill="none" stroke="#000000" d="M581.9619,-517.4073C581.9619,-517.4073 752.8379,-517.4073 752.8379,-517.4073 758.8379,-517.4073 764.8379,-523.4073 764.8379,-529.4073 764.8379,-529.4073 764.8379,-873.4073 764.8379,-873.4073 764.8379,-879.4073 758.8379,-885.4073 752.8379,-885.4073 752.8379,-885.4073 581.9619,-885.4073 581.9619,-885.4073 575.9619,-885.4073 569.9619,-879.4073 569.9619,-873.4073 569.9619,-873.4073 569.9619,-529.4073 569.9619,-529.4073 569.9619,-523.4073 575.9619,-517.4073 581.9619,-517.4073"/>
<text text-anchor="middle" x="667.3999" y="-870.2073" font-family="Times,serif" font-size="14.00" fill="#000000">DeviseController</text>
<polyline fill="none" stroke="#000000" points="569.9619,-863.4073 764.8379,-863.4073 "/>
<text text-anchor="start" x="577.9619" y="-848.2073" font-family="Times,serif" font-size="14.00" fill="#000000">_prefixes</text>
<polyline fill="none" stroke="#000000" points="569.9619,-841.4073 764.8379,-841.4073 "/>
<text text-anchor="start" x="577.9619" y="-826.2073" font-family="Times,serif" font-size="14.00" fill="#000000">unknown_action!</text>
<text text-anchor="start" x="577.9619" y="-812.2073" font-family="Times,serif" font-size="14.00" fill="#000000">clean_up_passwords</text>
<text text-anchor="start" x="577.9619" y="-798.2073" font-family="Times,serif" font-size="14.00" fill="#000000">devise_i18n_options</text>
<text text-anchor="start" x="577.9619" y="-784.2073" font-family="Times,serif" font-size="14.00" fill="#000000">devise_mapping</text>
<text text-anchor="start" x="577.9619" y="-770.2073" font-family="Times,serif" font-size="14.00" fill="#000000">find_message</text>
<text text-anchor="start" x="577.9619" y="-756.2073" font-family="Times,serif" font-size="14.00" fill="#000000">navigational_formats</text>
<text text-anchor="start" x="577.9619" y="-742.2073" font-family="Times,serif" font-size="14.00" fill="#000000">require_no_authentication</text>
<text text-anchor="start" x="577.9619" y="-728.2073" font-family="Times,serif" font-size="14.00" fill="#000000">resource</text>
<text text-anchor="start" x="577.9619" y="-714.2073" font-family="Times,serif" font-size="14.00" fill="#000000">resource=</text>
<text text-anchor="start" x="577.9619" y="-700.2073" font-family="Times,serif" font-size="14.00" fill="#000000">resource_class</text>
<text text-anchor="start" x="577.9619" y="-686.2073" font-family="Times,serif" font-size="14.00" fill="#000000">resource_name</text>
<text text-anchor="start" x="577.9619" y="-672.2073" font-family="Times,serif" font-size="14.00" fill="#000000">resource_params</text>
<text text-anchor="start" x="577.9619" y="-658.2073" font-family="Times,serif" font-size="14.00" fill="#000000">respond_with_navigational</text>
<text text-anchor="start" x="577.9619" y="-644.2073" font-family="Times,serif" font-size="14.00" fill="#000000">scope_name</text>
<text text-anchor="start" x="577.9619" y="-630.2073" font-family="Times,serif" font-size="14.00" fill="#000000">set_flash_message</text>
<text text-anchor="start" x="577.9619" y="-616.2073" font-family="Times,serif" font-size="14.00" fill="#000000">set_flash_message!</text>
<text text-anchor="start" x="577.9619" y="-602.2073" font-family="Times,serif" font-size="14.00" fill="#000000">set_minimum_password_length</text>
<text text-anchor="start" x="577.9619" y="-588.2073" font-family="Times,serif" font-size="14.00" fill="#000000">signed_in_resource</text>
<text text-anchor="start" x="577.9619" y="-574.2073" font-family="Times,serif" font-size="14.00" fill="#000000">successfully_sent?</text>
<text text-anchor="start" x="577.9619" y="-560.2073" font-family="Times,serif" font-size="14.00" fill="#000000">translation_scope</text>
<text text-anchor="start" x="577.9619" y="-546.2073" font-family="Times,serif" font-size="14.00" fill="#000000">assert_is_devise_resource!</text>
<polyline fill="none" stroke="#000000" points="569.9619,-539.4073 764.8379,-539.4073 "/>
<text text-anchor="start" x="577.9619" y="-524.2073" font-family="Times,serif" font-size="14.00" fill="#000000">_layout</text>
</g>
<!-- ApplicationController&#45;&gt;DeviseController -->
<g id="edge15" class="edge">
<title>ApplicationController&#45;&gt;DeviseController</title>
<path fill="none" stroke="#000000" d="M497.0958,-547.0459C520.8102,-568.5404 546.1065,-591.4686 569.75,-612.8987"/>
</g>
<!-- ActiveStorage::DirectUploadsController -->
<g id="node11" class="node">
<title>ActiveStorage::DirectUploadsController</title>
<path fill="none" stroke="#000000" d="M1112,-850.5C1112,-850.5 1331.0488,-850.5 1331.0488,-850.5 1337.0488,-850.5 1343.0488,-856.5 1343.0488,-862.5 1343.0488,-862.5 1343.0488,-956.5 1343.0488,-956.5 1343.0488,-962.5 1337.0488,-968.5 1331.0488,-968.5 1331.0488,-968.5 1112,-968.5 1112,-968.5 1106,-968.5 1100,-962.5 1100,-956.5 1100,-956.5 1100,-862.5 1100,-862.5 1100,-856.5 1106,-850.5 1112,-850.5"/>
<text text-anchor="middle" x="1221.5244" y="-953.3" font-family="Times,serif" font-size="14.00" fill="#000000">ActiveStorage::DirectUploadsController</text>
<polyline fill="none" stroke="#000000" points="1100,-946.5 1343.0488,-946.5 "/>
<text text-anchor="start" x="1108" y="-931.3" font-family="Times,serif" font-size="14.00" fill="#000000">create</text>
<polyline fill="none" stroke="#000000" points="1100,-924.5 1343.0488,-924.5 "/>
<polyline fill="none" stroke="#000000" points="1100,-900.5 1343.0488,-900.5 "/>
<text text-anchor="start" x="1108" y="-885.3" font-family="Times,serif" font-size="14.00" fill="#000000">_layout</text>
<text text-anchor="start" x="1108" y="-871.3" font-family="Times,serif" font-size="14.00" fill="#000000">blob_args</text>
<text text-anchor="start" x="1108" y="-857.3" font-family="Times,serif" font-size="14.00" fill="#000000">direct_upload_json</text>
</g>
<!-- ActiveStorage::BaseController -->
<g id="node12" class="node">
<title>ActiveStorage::BaseController</title>
<path fill="none" stroke="#000000" d="M1162,-.5C1162,-.5 1326.6211,-.5 1326.6211,-.5 1332.6211,-.5 1338.6211,-6.5 1338.6211,-12.5 1338.6211,-12.5 1338.6211,-80.5 1338.6211,-80.5 1338.6211,-86.5 1332.6211,-92.5 1326.6211,-92.5 1326.6211,-92.5 1162,-92.5 1162,-92.5 1156,-92.5 1150,-86.5 1150,-80.5 1150,-80.5 1150,-12.5 1150,-12.5 1150,-6.5 1156,-.5 1162,-.5"/>
<text text-anchor="middle" x="1244.3105" y="-77.3" font-family="Times,serif" font-size="14.00" fill="#000000">ActiveStorage::BaseController</text>
<polyline fill="none" stroke="#000000" points="1150,-70.5 1338.6211,-70.5 "/>
<polyline fill="none" stroke="#000000" points="1150,-46.5 1338.6211,-46.5 "/>
<polyline fill="none" stroke="#000000" points="1150,-22.5 1338.6211,-22.5 "/>
<text text-anchor="start" x="1158" y="-7.3" font-family="Times,serif" font-size="14.00" fill="#000000">_layout</text>
</g>
<!-- ActiveStorage::BlobsController -->
<g id="node13" class="node">
<title>ActiveStorage::BlobsController</title>
<path fill="none" stroke="#000000" d="M562,-1200.5C562,-1200.5 732.083,-1200.5 732.083,-1200.5 738.083,-1200.5 744.083,-1206.5 744.083,-1212.5 744.083,-1212.5 744.083,-1278.5 744.083,-1278.5 744.083,-1284.5 738.083,-1290.5 732.083,-1290.5 732.083,-1290.5 562,-1290.5 562,-1290.5 556,-1290.5 550,-1284.5 550,-1278.5 550,-1278.5 550,-1212.5 550,-1212.5 550,-1206.5 556,-1200.5 562,-1200.5"/>
<text text-anchor="middle" x="647.0415" y="-1275.3" font-family="Times,serif" font-size="14.00" fill="#000000">ActiveStorage::BlobsController</text>
<polyline fill="none" stroke="#000000" points="550,-1268.5 744.083,-1268.5 "/>
<text text-anchor="start" x="558" y="-1253.3" font-family="Times,serif" font-size="14.00" fill="#000000">show</text>
<polyline fill="none" stroke="#000000" points="550,-1246.5 744.083,-1246.5 "/>
<polyline fill="none" stroke="#000000" points="550,-1222.5 744.083,-1222.5 "/>
<text text-anchor="start" x="558" y="-1207.3" font-family="Times,serif" font-size="14.00" fill="#000000">_layout</text>
</g>
<!-- ActiveStorage::RepresentationsController -->
<g id="node14" class="node">
<title>ActiveStorage::RepresentationsController</title>
<path fill="none" stroke="#000000" d="M1062,-250.5C1062,-250.5 1288.8281,-250.5 1288.8281,-250.5 1294.8281,-250.5 1300.8281,-256.5 1300.8281,-262.5 1300.8281,-262.5 1300.8281,-328.5 1300.8281,-328.5 1300.8281,-334.5 1294.8281,-340.5 1288.8281,-340.5 1288.8281,-340.5 1062,-340.5 1062,-340.5 1056,-340.5 1050,-334.5 1050,-328.5 1050,-328.5 1050,-262.5 1050,-262.5 1050,-256.5 1056,-250.5 1062,-250.5"/>
<text text-anchor="middle" x="1175.4141" y="-325.3" font-family="Times,serif" font-size="14.00" fill="#000000">ActiveStorage::RepresentationsController</text>
<polyline fill="none" stroke="#000000" points="1050,-318.5 1300.8281,-318.5 "/>
<text text-anchor="start" x="1058" y="-303.3" font-family="Times,serif" font-size="14.00" fill="#000000">show</text>
<polyline fill="none" stroke="#000000" points="1050,-296.5 1300.8281,-296.5 "/>
<polyline fill="none" stroke="#000000" points="1050,-272.5 1300.8281,-272.5 "/>
<text text-anchor="start" x="1058" y="-257.3" font-family="Times,serif" font-size="14.00" fill="#000000">_layout</text>
</g>
<!-- ActiveStorage::DiskController -->
<g id="node15" class="node">
<title>ActiveStorage::DiskController</title>
<path fill="none" stroke="#000000" d="M1112,-1050.5C1112,-1050.5 1275.8555,-1050.5 1275.8555,-1050.5 1281.8555,-1050.5 1287.8555,-1056.5 1287.8555,-1062.5 1287.8555,-1062.5 1287.8555,-1212.5 1287.8555,-1212.5 1287.8555,-1218.5 1281.8555,-1224.5 1275.8555,-1224.5 1275.8555,-1224.5 1112,-1224.5 1112,-1224.5 1106,-1224.5 1100,-1218.5 1100,-1212.5 1100,-1212.5 1100,-1062.5 1100,-1062.5 1100,-1056.5 1106,-1050.5 1112,-1050.5"/>
<text text-anchor="middle" x="1193.9277" y="-1209.3" font-family="Times,serif" font-size="14.00" fill="#000000">ActiveStorage::DiskController</text>
<polyline fill="none" stroke="#000000" points="1100,-1202.5 1287.8555,-1202.5 "/>
<text text-anchor="start" x="1108" y="-1187.3" font-family="Times,serif" font-size="14.00" fill="#000000">show</text>
<text text-anchor="start" x="1108" y="-1173.3" font-family="Times,serif" font-size="14.00" fill="#000000">update</text>
<polyline fill="none" stroke="#000000" points="1100,-1166.5 1287.8555,-1166.5 "/>
<polyline fill="none" stroke="#000000" points="1100,-1142.5 1287.8555,-1142.5 "/>
<text text-anchor="start" x="1108" y="-1127.3" font-family="Times,serif" font-size="14.00" fill="#000000">_layout</text>
<text text-anchor="start" x="1108" y="-1113.3" font-family="Times,serif" font-size="14.00" fill="#000000">acceptable_content?</text>
<text text-anchor="start" x="1108" y="-1099.3" font-family="Times,serif" font-size="14.00" fill="#000000">decode_verified_key</text>
<text text-anchor="start" x="1108" y="-1085.3" font-family="Times,serif" font-size="14.00" fill="#000000">decode_verified_token</text>
<text text-anchor="start" x="1108" y="-1071.3" font-family="Times,serif" font-size="14.00" fill="#000000">disk_service</text>
<text text-anchor="start" x="1108" y="-1057.3" font-family="Times,serif" font-size="14.00" fill="#000000">serve_file</text>
</g>
<!-- Devise::OmniauthCallbacksController -->
<g id="node16" class="node">
<title>Devise::OmniauthCallbacksController</title>
<path fill="none" stroke="#000000" d="M867.4971,-41.789C867.4971,-41.789 1074.8975,-41.789 1074.8975,-41.789 1080.8975,-41.789 1086.8975,-47.789 1086.8975,-53.789 1086.8975,-53.789 1086.8975,-173.789 1086.8975,-173.789 1086.8975,-179.789 1080.8975,-185.789 1074.8975,-185.789 1074.8975,-185.789 867.4971,-185.789 867.4971,-185.789 861.4971,-185.789 855.4971,-179.789 855.4971,-173.789 855.4971,-173.789 855.4971,-53.789 855.4971,-53.789 855.4971,-47.789 861.4971,-41.789 867.4971,-41.789"/>
<text text-anchor="middle" x="971.1973" y="-170.589" font-family="Times,serif" font-size="14.00" fill="#000000">Devise::OmniauthCallbacksController</text>
<polyline fill="none" stroke="#000000" points="855.4971,-163.789 1086.8975,-163.789 "/>
<text text-anchor="start" x="863.4971" y="-148.589" font-family="Times,serif" font-size="14.00" fill="#000000">failure</text>
<text text-anchor="start" x="863.4971" y="-134.589" font-family="Times,serif" font-size="14.00" fill="#000000">passthru</text>
<polyline fill="none" stroke="#000000" points="855.4971,-127.789 1086.8975,-127.789 "/>
<text text-anchor="start" x="863.4971" y="-112.589" font-family="Times,serif" font-size="14.00" fill="#000000">after_omniauth_failure_path_for</text>
<text text-anchor="start" x="863.4971" y="-98.589" font-family="Times,serif" font-size="14.00" fill="#000000">failed_strategy</text>
<text text-anchor="start" x="863.4971" y="-84.589" font-family="Times,serif" font-size="14.00" fill="#000000">failure_message</text>
<text text-anchor="start" x="863.4971" y="-70.589" font-family="Times,serif" font-size="14.00" fill="#000000">translation_scope</text>
<polyline fill="none" stroke="#000000" points="855.4971,-63.789 1086.8975,-63.789 "/>
<text text-anchor="start" x="863.4971" y="-48.589" font-family="Times,serif" font-size="14.00" fill="#000000">_layout</text>
</g>
<!-- Devise::PasswordsController -->
<g id="node17" class="node">
<title>Devise::PasswordsController</title>
<path fill="none" stroke="#000000" d="M523.4517,-.5C523.4517,-.5 811.7144,-.5 811.7144,-.5 817.7144,-.5 823.7144,-6.5 823.7144,-12.5 823.7144,-12.5 823.7144,-174.5 823.7144,-174.5 823.7144,-180.5 817.7144,-186.5 811.7144,-186.5 811.7144,-186.5 523.4517,-186.5 523.4517,-186.5 517.4517,-186.5 511.4517,-180.5 511.4517,-174.5 511.4517,-174.5 511.4517,-12.5 511.4517,-12.5 511.4517,-6.5 517.4517,-.5 523.4517,-.5"/>
<text text-anchor="middle" x="667.5831" y="-171.3" font-family="Times,serif" font-size="14.00" fill="#000000">Devise::PasswordsController</text>
<polyline fill="none" stroke="#000000" points="511.4517,-164.5 823.7144,-164.5 "/>
<text text-anchor="start" x="519.4517" y="-149.3" font-family="Times,serif" font-size="14.00" fill="#000000">create</text>
<text text-anchor="start" x="519.4517" y="-135.3" font-family="Times,serif" font-size="14.00" fill="#000000">edit</text>
<text text-anchor="start" x="519.4517" y="-121.3" font-family="Times,serif" font-size="14.00" fill="#000000">new</text>
<text text-anchor="start" x="519.4517" y="-107.3" font-family="Times,serif" font-size="14.00" fill="#000000">update</text>
<polyline fill="none" stroke="#000000" points="511.4517,-100.5 823.7144,-100.5 "/>
<text text-anchor="start" x="519.4517" y="-85.3" font-family="Times,serif" font-size="14.00" fill="#000000">after_resetting_password_path_for</text>
<text text-anchor="start" x="519.4517" y="-71.3" font-family="Times,serif" font-size="14.00" fill="#000000">after_sending_reset_password_instructions_path_for</text>
<text text-anchor="start" x="519.4517" y="-57.3" font-family="Times,serif" font-size="14.00" fill="#000000">assert_reset_token_passed</text>
<text text-anchor="start" x="519.4517" y="-43.3" font-family="Times,serif" font-size="14.00" fill="#000000">translation_scope</text>
<text text-anchor="start" x="519.4517" y="-29.3" font-family="Times,serif" font-size="14.00" fill="#000000">unlockable?</text>
<polyline fill="none" stroke="#000000" points="511.4517,-22.5 823.7144,-22.5 "/>
<text text-anchor="start" x="519.4517" y="-7.3" font-family="Times,serif" font-size="14.00" fill="#000000">_layout</text>
</g>
<!-- Devise::SessionsController -->
<g id="node18" class="node">
<title>Devise::SessionsController</title>
<path fill="none" stroke="#000000" d="M468.4168,-913.8382C468.4168,-913.8382 612.8514,-913.8382 612.8514,-913.8382 618.8514,-913.8382 624.8514,-919.8382 624.8514,-925.8382 624.8514,-925.8382 624.8514,-1101.8382 624.8514,-1101.8382 624.8514,-1107.8382 618.8514,-1113.8382 612.8514,-1113.8382 612.8514,-1113.8382 468.4168,-1113.8382 468.4168,-1113.8382 462.4168,-1113.8382 456.4168,-1107.8382 456.4168,-1101.8382 456.4168,-1101.8382 456.4168,-925.8382 456.4168,-925.8382 456.4168,-919.8382 462.4168,-913.8382 468.4168,-913.8382"/>
<text text-anchor="middle" x="540.6341" y="-1098.6382" font-family="Times,serif" font-size="14.00" fill="#000000">Devise::SessionsController</text>
<polyline fill="none" stroke="#000000" points="456.4168,-1091.8382 624.8514,-1091.8382 "/>
<text text-anchor="start" x="464.4168" y="-1076.6382" font-family="Times,serif" font-size="14.00" fill="#000000">create</text>
<text text-anchor="start" x="464.4168" y="-1062.6382" font-family="Times,serif" font-size="14.00" fill="#000000">destroy</text>
<text text-anchor="start" x="464.4168" y="-1048.6382" font-family="Times,serif" font-size="14.00" fill="#000000">new</text>
<polyline fill="none" stroke="#000000" points="456.4168,-1041.8382 624.8514,-1041.8382 "/>
<text text-anchor="start" x="464.4168" y="-1026.6382" font-family="Times,serif" font-size="14.00" fill="#000000">auth_options</text>
<text text-anchor="start" x="464.4168" y="-1012.6382" font-family="Times,serif" font-size="14.00" fill="#000000">serialize_options</text>
<text text-anchor="start" x="464.4168" y="-998.6382" font-family="Times,serif" font-size="14.00" fill="#000000">sign_in_params</text>
<text text-anchor="start" x="464.4168" y="-984.6382" font-family="Times,serif" font-size="14.00" fill="#000000">translation_scope</text>
<polyline fill="none" stroke="#000000" points="456.4168,-977.8382 624.8514,-977.8382 "/>
<text text-anchor="start" x="464.4168" y="-962.6382" font-family="Times,serif" font-size="14.00" fill="#000000">_layout</text>
<text text-anchor="start" x="464.4168" y="-948.6382" font-family="Times,serif" font-size="14.00" fill="#000000">all_signed_out?</text>
<text text-anchor="start" x="464.4168" y="-934.6382" font-family="Times,serif" font-size="14.00" fill="#000000">respond_to_on_destroy</text>
<text text-anchor="start" x="464.4168" y="-920.6382" font-family="Times,serif" font-size="14.00" fill="#000000">verify_signed_out_user</text>
</g>
<!-- Devise::UnlocksController -->
<g id="node19" class="node">
<title>Devise::UnlocksController</title>
<path fill="none" stroke="#000000" d="M841.9477,-361.1549C841.9477,-361.1549 1082.0034,-361.1549 1082.0034,-361.1549 1088.0034,-361.1549 1094.0034,-367.1549 1094.0034,-373.1549 1094.0034,-373.1549 1094.0034,-493.1549 1094.0034,-493.1549 1094.0034,-499.1549 1088.0034,-505.1549 1082.0034,-505.1549 1082.0034,-505.1549 841.9477,-505.1549 841.9477,-505.1549 835.9477,-505.1549 829.9477,-499.1549 829.9477,-493.1549 829.9477,-493.1549 829.9477,-373.1549 829.9477,-373.1549 829.9477,-367.1549 835.9477,-361.1549 841.9477,-361.1549"/>
<text text-anchor="middle" x="961.9755" y="-489.9549" font-family="Times,serif" font-size="14.00" fill="#000000">Devise::UnlocksController</text>
<polyline fill="none" stroke="#000000" points="829.9477,-483.1549 1094.0034,-483.1549 "/>
<text text-anchor="start" x="837.9477" y="-467.9549" font-family="Times,serif" font-size="14.00" fill="#000000">create</text>
<text text-anchor="start" x="837.9477" y="-453.9549" font-family="Times,serif" font-size="14.00" fill="#000000">new</text>
<text text-anchor="start" x="837.9477" y="-439.9549" font-family="Times,serif" font-size="14.00" fill="#000000">show</text>
<polyline fill="none" stroke="#000000" points="829.9477,-433.1549 1094.0034,-433.1549 "/>
<text text-anchor="start" x="837.9477" y="-417.9549" font-family="Times,serif" font-size="14.00" fill="#000000">after_sending_unlock_instructions_path_for</text>
<text text-anchor="start" x="837.9477" y="-403.9549" font-family="Times,serif" font-size="14.00" fill="#000000">after_unlock_path_for</text>
<text text-anchor="start" x="837.9477" y="-389.9549" font-family="Times,serif" font-size="14.00" fill="#000000">translation_scope</text>
<polyline fill="none" stroke="#000000" points="829.9477,-383.1549 1094.0034,-383.1549 "/>
<text text-anchor="start" x="837.9477" y="-367.9549" font-family="Times,serif" font-size="14.00" fill="#000000">_layout</text>
</g>
<!-- Devise::ConfirmationsController -->
<g id="node20" class="node">
<title>Devise::ConfirmationsController</title>
<path fill="none" stroke="#000000" d="M836.862,-642.9045C836.862,-642.9045 1121.2351,-642.9045 1121.2351,-642.9045 1127.2351,-642.9045 1133.2351,-648.9045 1133.2351,-654.9045 1133.2351,-654.9045 1133.2351,-774.9045 1133.2351,-774.9045 1133.2351,-780.9045 1127.2351,-786.9045 1121.2351,-786.9045 1121.2351,-786.9045 836.862,-786.9045 836.862,-786.9045 830.862,-786.9045 824.862,-780.9045 824.862,-774.9045 824.862,-774.9045 824.862,-654.9045 824.862,-654.9045 824.862,-648.9045 830.862,-642.9045 836.862,-642.9045"/>
<text text-anchor="middle" x="979.0485" y="-771.7045" font-family="Times,serif" font-size="14.00" fill="#000000">Devise::ConfirmationsController</text>
<polyline fill="none" stroke="#000000" points="824.862,-764.9045 1133.2351,-764.9045 "/>
<text text-anchor="start" x="832.862" y="-749.7045" font-family="Times,serif" font-size="14.00" fill="#000000">create</text>
<text text-anchor="start" x="832.862" y="-735.7045" font-family="Times,serif" font-size="14.00" fill="#000000">new</text>
<text text-anchor="start" x="832.862" y="-721.7045" font-family="Times,serif" font-size="14.00" fill="#000000">show</text>
<polyline fill="none" stroke="#000000" points="824.862,-714.9045 1133.2351,-714.9045 "/>
<text text-anchor="start" x="832.862" y="-699.7045" font-family="Times,serif" font-size="14.00" fill="#000000">after_confirmation_path_for</text>
<text text-anchor="start" x="832.862" y="-685.7045" font-family="Times,serif" font-size="14.00" fill="#000000">after_resending_confirmation_instructions_path_for</text>
<text text-anchor="start" x="832.862" y="-671.7045" font-family="Times,serif" font-size="14.00" fill="#000000">translation_scope</text>
<polyline fill="none" stroke="#000000" points="824.862,-664.9045 1133.2351,-664.9045 "/>
<text text-anchor="start" x="832.862" y="-649.7045" font-family="Times,serif" font-size="14.00" fill="#000000">_layout</text>
</g>
<!-- Devise::RegistrationsController -->
<g id="node21" class="node">
<title>Devise::RegistrationsController</title>
<path fill="none" stroke="#000000" d="M833.098,-849.1497C833.098,-849.1497 1011.7054,-849.1497 1011.7054,-849.1497 1017.7054,-849.1497 1023.7054,-855.1497 1023.7054,-861.1497 1023.7054,-861.1497 1023.7054,-1163.1497 1023.7054,-1163.1497 1023.7054,-1169.1497 1017.7054,-1175.1497 1011.7054,-1175.1497 1011.7054,-1175.1497 833.098,-1175.1497 833.098,-1175.1497 827.098,-1175.1497 821.098,-1169.1497 821.098,-1163.1497 821.098,-1163.1497 821.098,-861.1497 821.098,-861.1497 821.098,-855.1497 827.098,-849.1497 833.098,-849.1497"/>
<text text-anchor="middle" x="922.4017" y="-1159.9497" font-family="Times,serif" font-size="14.00" fill="#000000">Devise::RegistrationsController</text>
<polyline fill="none" stroke="#000000" points="821.098,-1153.1497 1023.7054,-1153.1497 "/>
<text text-anchor="start" x="829.098" y="-1137.9497" font-family="Times,serif" font-size="14.00" fill="#000000">cancel</text>
<text text-anchor="start" x="829.098" y="-1123.9497" font-family="Times,serif" font-size="14.00" fill="#000000">create</text>
<text text-anchor="start" x="829.098" y="-1109.9497" font-family="Times,serif" font-size="14.00" fill="#000000">destroy</text>
<text text-anchor="start" x="829.098" y="-1095.9497" font-family="Times,serif" font-size="14.00" fill="#000000">edit</text>
<text text-anchor="start" x="829.098" y="-1081.9497" font-family="Times,serif" font-size="14.00" fill="#000000">new</text>
<text text-anchor="start" x="829.098" y="-1067.9497" font-family="Times,serif" font-size="14.00" fill="#000000">update</text>
<polyline fill="none" stroke="#000000" points="821.098,-1061.1497 1023.7054,-1061.1497 "/>
<text text-anchor="start" x="829.098" y="-1045.9497" font-family="Times,serif" font-size="14.00" fill="#000000">update_resource</text>
<text text-anchor="start" x="829.098" y="-1031.9497" font-family="Times,serif" font-size="14.00" fill="#000000">after_inactive_sign_up_path_for</text>
<text text-anchor="start" x="829.098" y="-1017.9497" font-family="Times,serif" font-size="14.00" fill="#000000">after_sign_up_path_for</text>
<text text-anchor="start" x="829.098" y="-1003.9497" font-family="Times,serif" font-size="14.00" fill="#000000">after_update_path_for</text>
<text text-anchor="start" x="829.098" y="-989.9497" font-family="Times,serif" font-size="14.00" fill="#000000">authenticate_scope!</text>
<text text-anchor="start" x="829.098" y="-975.9497" font-family="Times,serif" font-size="14.00" fill="#000000">build_resource</text>
<text text-anchor="start" x="829.098" y="-961.9497" font-family="Times,serif" font-size="14.00" fill="#000000">sign_up</text>
<text text-anchor="start" x="829.098" y="-947.9497" font-family="Times,serif" font-size="14.00" fill="#000000">sign_up_params</text>
<text text-anchor="start" x="829.098" y="-933.9497" font-family="Times,serif" font-size="14.00" fill="#000000">translation_scope</text>
<text text-anchor="start" x="829.098" y="-919.9497" font-family="Times,serif" font-size="14.00" fill="#000000">update_needs_confirmation?</text>
<text text-anchor="start" x="829.098" y="-905.9497" font-family="Times,serif" font-size="14.00" fill="#000000">account_update_params</text>
<polyline fill="none" stroke="#000000" points="821.098,-899.1497 1023.7054,-899.1497 "/>
<text text-anchor="start" x="829.098" y="-883.9497" font-family="Times,serif" font-size="14.00" fill="#000000">_layout</text>
<text text-anchor="start" x="829.098" y="-869.9497" font-family="Times,serif" font-size="14.00" fill="#000000">set_flash_message_for_update</text>
<text text-anchor="start" x="829.098" y="-855.9497" font-family="Times,serif" font-size="14.00" fill="#000000">sign_in_after_change_password?</text>
</g>
<!-- DeviseController&#45;&gt;Devise::OmniauthCallbacksController -->
<g id="edge9" class="edge">
<title>DeviseController&#45;&gt;Devise::OmniauthCallbacksController</title>
<path fill="none" stroke="#000000" d="M748.821,-517.0539C772.8794,-465.0853 799.9684,-408.856 826.7477,-357.9549 857.8205,-298.8928 896.4682,-233.9491 925.9667,-185.8966"/>
</g>
<!-- DeviseController&#45;&gt;Devise::PasswordsController -->
<g id="edge10" class="edge">
<title>DeviseController&#45;&gt;Devise::PasswordsController</title>
<path fill="none" stroke="#000000" d="M717.5133,-517.3422C719.4728,-506.3739 721.1681,-495.4593 722.5059,-484.7736 731.6929,-411.3909 731.3427,-391.7993 722.5059,-318.3736 717.2237,-274.4834 706.3404,-226.7926 695.6447,-186.6709"/>
</g>
<!-- DeviseController&#45;&gt;Devise::SessionsController -->
<g id="edge11" class="edge">
<title>DeviseController&#45;&gt;Devise::SessionsController</title>
<path fill="none" stroke="#000000" d="M592.7434,-885.4081C588.8197,-895.0785 584.9556,-904.6021 581.2138,-913.8242"/>
</g>
<!-- DeviseController&#45;&gt;Devise::UnlocksController -->
<g id="edge12" class="edge">
<title>DeviseController&#45;&gt;Devise::UnlocksController</title>
<path fill="none" stroke="#000000" d="M765.0801,-612.4557C803.2649,-577.6831 846.4864,-538.3239 882.6865,-505.3586"/>
</g>
<!-- DeviseController&#45;&gt;Devise::ConfirmationsController -->
<g id="edge13" class="edge">
<title>DeviseController&#45;&gt;Devise::ConfirmationsController</title>
<path fill="none" stroke="#000000" d="M765.1524,-705.6409C784.1636,-706.4642 804.5205,-707.3459 824.8407,-708.2259"/>
</g>
<!-- DeviseController&#45;&gt;Devise::RegistrationsController -->
<g id="edge14" class="edge">
<title>DeviseController&#45;&gt;Devise::RegistrationsController</title>
<path fill="none" stroke="#000000" d="M764.8967,-820.2158C783.2452,-842.5751 802.4726,-866.0054 820.9389,-888.5082"/>
</g>
</g>
</svg>
