<?xml version="1.0" encoding="UTF-8" standalone="no"?>
<!DOCTYPE svg PUBLIC "-//W3C//DTD SVG 1.1//EN"
 "http://www.w3.org/Graphics/SVG/1.1/DTD/svg11.dtd">
<!-- Generated by graphviz version 2.40.1 (20161225.0304)
 -->
<!-- Title: controllers_diagram Pages: 1 -->
<svg width="1375pt" height="1305pt"
 viewBox="0.00 0.00 1375.08 1305.00" xmlns="http://www.w3.org/2000/svg" xmlns:xlink="http://www.w3.org/1999/xlink">
<g id="graph0" class="graph" transform="scale(1 1) rotate(0) translate(4 1301)">
<title>controllers_diagram</title>
<polygon fill="transparent" stroke="transparent" points="-4,4 -4,-1301 1371.083,-1301 1371.083,4 -4,4"/>
<!-- _diagram_info -->
<g id="node1" class="node">
<title>_diagram_info</title>
<text text-anchor="start" x="569" y="-1282.6" font-family="Times,serif" font-size="13.00" fill="#000000">Controllers diagram</text>
<text text-anchor="start" x="569" y="-1269.6" font-family="Times,serif" font-size="13.00" fill="#000000">Date: Nov 18 2019 &#45; 14:16</text>
<text text-anchor="start" x="569" y="-1256.6" font-family="Times,serif" font-size="13.00" fill="#000000">Migration version: 20191114143358</text>
<text text-anchor="start" x="569" y="-1243.6" font-family="Times,serif" font-size="13.00" fill="#000000">Generated by RailRoady 1.5.3</text>
<text text-anchor="start" x="569" y="-1230.6" font-family="Times,serif" font-size="13.00" fill="#000000">http://railroady.prestonlee.com</text>
</g>
<!-- MessagesController -->
<g id="node2" class="node">
<title>MessagesController</title>
<path fill="none" stroke="#000000" d="M32.9118,-516.8077C32.9118,-516.8077 136.8913,-516.8077 136.8913,-516.8077 142.8913,-516.8077 148.8913,-522.8077 148.8913,-528.8077 148.8913,-528.8077 148.8913,-636.8077 148.8913,-636.8077 148.8913,-642.8077 142.8913,-648.8077 136.8913,-648.8077 136.8913,-648.8077 32.9118,-648.8077 32.9118,-648.8077 26.9118,-648.8077 20.9118,-642.8077 20.9118,-636.8077 20.9118,-636.8077 20.9118,-528.8077 20.9118,-528.8077 20.9118,-522.8077 26.9118,-516.8077 32.9118,-516.8077"/>
<text text-anchor="middle" x="84.9016" y="-633.6077" font-family="Times,serif" font-size="14.00" fill="#000000">MessagesController</text>
<polyline fill="none" stroke="#000000" points="20.9118,-626.8077 148.8913,-626.8077 "/>
<text text-anchor="start" x="28.9118" y="-611.6077" font-family="Times,serif" font-size="14.00" fill="#000000">create</text>
<text text-anchor="start" x="28.9118" y="-597.6077" font-family="Times,serif" font-size="14.00" fill="#000000">index</text>
<polyline fill="none" stroke="#000000" points="20.9118,-590.8077 148.8913,-590.8077 "/>
<polyline fill="none" stroke="#000000" points="20.9118,-566.8077 148.8913,-566.8077 "/>
<text text-anchor="start" x="28.9118" y="-551.6077" font-family="Times,serif" font-size="14.00" fill="#000000">_layout</text>
<text text-anchor="start" x="28.9118" y="-537.6077" font-family="Times,serif" font-size="14.00" fill="#000000">load_chatroom</text>
<text text-anchor="start" x="28.9118" y="-523.6077" font-family="Times,serif" font-size="14.00" fill="#000000">message_params</text>
</g>
<!-- ApplicationController -->
<g id="node3" class="node">
<title>ApplicationController</title>
<path fill="none" stroke="#000000" d="M309.2189,-383.7078C309.2189,-383.7078 483.1505,-383.7078 483.1505,-383.7078 489.1505,-383.7078 495.1505,-389.7078 495.1505,-395.7078 495.1505,-395.7078 495.1505,-559.7078 495.1505,-559.7078 495.1505,-565.7078 489.1505,-571.7078 483.1505,-571.7078 483.1505,-571.7078 309.2189,-571.7078 309.2189,-571.7078 303.2189,-571.7078 297.2189,-565.7078 297.2189,-559.7078 297.2189,-559.7078 297.2189,-395.7078 297.2189,-395.7078 297.2189,-389.7078 303.2189,-383.7078 309.2189,-383.7078"/>
<text text-anchor="middle" x="396.1847" y="-556.5078" font-family="Times,serif" font-size="14.00" fill="#000000">ApplicationController</text>
<polyline fill="none" stroke="#000000" points="297.2189,-549.7078 495.1505,-549.7078 "/>
<text text-anchor="start" x="305.2189" y="-534.5078" font-family="Times,serif" font-size="14.00" fill="#000000">sort_params</text>
<text text-anchor="start" x="305.2189" y="-520.5078" font-family="Times,serif" font-size="14.00" fill="#000000">data_name</text>
<text text-anchor="start" x="305.2189" y="-506.5078" font-family="Times,serif" font-size="14.00" fill="#000000">default_url_options</text>
<text text-anchor="start" x="305.2189" y="-492.5078" font-family="Times,serif" font-size="14.00" fill="#000000">detect_layout</text>
<text text-anchor="start" x="305.2189" y="-478.5078" font-family="Times,serif" font-size="14.00" fill="#000000">f7_request?</text>
<text text-anchor="start" x="305.2189" y="-464.5078" font-family="Times,serif" font-size="14.00" fill="#000000">no_back?</text>
<text text-anchor="start" x="305.2189" y="-450.5078" font-family="Times,serif" font-size="14.00" fill="#000000">rails_routes</text>
<text text-anchor="start" x="305.2189" y="-436.5078" font-family="Times,serif" font-size="14.00" fill="#000000">configure_permitted_parameters</text>
<polyline fill="none" stroke="#000000" points="297.2189,-429.7078 495.1505,-429.7078 "/>
<polyline fill="none" stroke="#000000" points="297.2189,-405.7078 495.1505,-405.7078 "/>
<text text-anchor="start" x="305.2189" y="-390.5078" font-family="Times,serif" font-size="14.00" fill="#000000">_layout</text>
</g>
<!-- ApplicationController&#45;&gt;MessagesController -->
<g id="edge1" class="edge">
<title>ApplicationController&#45;&gt;MessagesController</title>
<path fill="none" stroke="#000000" d="M296.8369,-511.251C248.4405,-527.5913 191.6515,-546.7653 149.0457,-561.1504"/>
</g>
<!-- EventsController -->
<g id="node4" class="node">
<title>EventsController</title>
<path fill="none" stroke="#000000" d="M349.2018,-7.5105C349.2018,-7.5105 436.8502,-7.5105 436.8502,-7.5105 442.8502,-7.5105 448.8502,-13.5105 448.8502,-19.5105 448.8502,-19.5105 448.8502,-239.5105 448.8502,-239.5105 448.8502,-245.5105 442.8502,-251.5105 436.8502,-251.5105 436.8502,-251.5105 349.2018,-251.5105 349.2018,-251.5105 343.2018,-251.5105 337.2018,-245.5105 337.2018,-239.5105 337.2018,-239.5105 337.2018,-19.5105 337.2018,-19.5105 337.2018,-13.5105 343.2018,-7.5105 349.2018,-7.5105"/>
<text text-anchor="middle" x="393.026" y="-236.3105" font-family="Times,serif" font-size="14.00" fill="#000000">EventsController</text>
<polyline fill="none" stroke="#000000" points="337.2018,-229.5105 448.8502,-229.5105 "/>
<text text-anchor="start" x="345.2018" y="-214.3105" font-family="Times,serif" font-size="14.00" fill="#000000">update</text>
<text text-anchor="start" x="345.2018" y="-200.3105" font-family="Times,serif" font-size="14.00" fill="#000000">create</text>
<text text-anchor="start" x="345.2018" y="-186.3105" font-family="Times,serif" font-size="14.00" fill="#000000">destroy</text>
<text text-anchor="start" x="345.2018" y="-172.3105" font-family="Times,serif" font-size="14.00" fill="#000000">edit</text>
<text text-anchor="start" x="345.2018" y="-158.3105" font-family="Times,serif" font-size="14.00" fill="#000000">index</text>
<text text-anchor="start" x="345.2018" y="-144.3105" font-family="Times,serif" font-size="14.00" fill="#000000">new</text>
<text text-anchor="start" x="345.2018" y="-130.3105" font-family="Times,serif" font-size="14.00" fill="#000000">perform</text>
<text text-anchor="start" x="345.2018" y="-116.3105" font-family="Times,serif" font-size="14.00" fill="#000000">show</text>
<text text-anchor="start" x="345.2018" y="-102.3105" font-family="Times,serif" font-size="14.00" fill="#000000">check_valid</text>
<polyline fill="none" stroke="#000000" points="337.2018,-95.5105 448.8502,-95.5105 "/>
<polyline fill="none" stroke="#000000" points="337.2018,-71.5105 448.8502,-71.5105 "/>
<text text-anchor="start" x="345.2018" y="-56.3105" font-family="Times,serif" font-size="14.00" fill="#000000">_layout</text>
<text text-anchor="start" x="345.2018" y="-42.3105" font-family="Times,serif" font-size="14.00" fill="#000000">event_params</text>
<text text-anchor="start" x="345.2018" y="-28.3105" font-family="Times,serif" font-size="14.00" fill="#000000">load_event</text>
<text text-anchor="start" x="345.2018" y="-14.3105" font-family="Times,serif" font-size="14.00" fill="#000000">load_selectors</text>
</g>
<!-- ApplicationController&#45;&gt;EventsController -->
<g id="edge2" class="edge">
<title>ApplicationController&#45;&gt;EventsController</title>
<path fill="none" stroke="#000000" d="M395.3299,-383.4806C394.9617,-342.8972 394.5265,-294.9211 394.1341,-251.657"/>
</g>
<!-- ChatroomsController -->
<g id="node5" class="node">
<title>ChatroomsController</title>
<path fill="none" stroke="#000000" d="M83.1505,-1008.0723C83.1505,-1008.0723 194.1369,-1008.0723 194.1369,-1008.0723 200.1369,-1008.0723 206.1369,-1014.0723 206.1369,-1020.0723 206.1369,-1020.0723 206.1369,-1142.0723 206.1369,-1142.0723 206.1369,-1148.0723 200.1369,-1154.0723 194.1369,-1154.0723 194.1369,-1154.0723 83.1505,-1154.0723 83.1505,-1154.0723 77.1505,-1154.0723 71.1505,-1148.0723 71.1505,-1142.0723 71.1505,-1142.0723 71.1505,-1020.0723 71.1505,-1020.0723 71.1505,-1014.0723 77.1505,-1008.0723 83.1505,-1008.0723"/>
<text text-anchor="middle" x="138.6437" y="-1138.8723" font-family="Times,serif" font-size="14.00" fill="#000000">ChatroomsController</text>
<polyline fill="none" stroke="#000000" points="71.1505,-1132.0723 206.1369,-1132.0723 "/>
<text text-anchor="start" x="79.1505" y="-1116.8723" font-family="Times,serif" font-size="14.00" fill="#000000">destroy</text>
<text text-anchor="start" x="79.1505" y="-1102.8723" font-family="Times,serif" font-size="14.00" fill="#000000">edit</text>
<text text-anchor="start" x="79.1505" y="-1088.8723" font-family="Times,serif" font-size="14.00" fill="#000000">index</text>
<text text-anchor="start" x="79.1505" y="-1074.8723" font-family="Times,serif" font-size="14.00" fill="#000000">show</text>
<text text-anchor="start" x="79.1505" y="-1060.8723" font-family="Times,serif" font-size="14.00" fill="#000000">update</text>
<polyline fill="none" stroke="#000000" points="71.1505,-1054.0723 206.1369,-1054.0723 "/>
<polyline fill="none" stroke="#000000" points="71.1505,-1030.0723 206.1369,-1030.0723 "/>
<text text-anchor="start" x="79.1505" y="-1014.8723" font-family="Times,serif" font-size="14.00" fill="#000000">_layout</text>
</g>
<!-- ApplicationController&#45;&gt;ChatroomsController -->
<g id="edge3" class="edge">
<title>ApplicationController&#45;&gt;ChatroomsController</title>
<path fill="none" stroke="#000000" d="M355.9439,-571.9835C304.519,-692.4612 216.5845,-898.4734 169.9016,-1007.8417"/>
</g>
<!-- TinymceAssetsController -->
<g id="node6" class="node">
<title>TinymceAssetsController</title>
<path fill="none" stroke="#000000" d="M304.392,-740.9812C304.392,-740.9812 439.7689,-740.9812 439.7689,-740.9812 445.7689,-740.9812 451.7689,-746.9812 451.7689,-752.9812 451.7689,-752.9812 451.7689,-818.9812 451.7689,-818.9812 451.7689,-824.9812 445.7689,-830.9812 439.7689,-830.9812 439.7689,-830.9812 304.392,-830.9812 304.392,-830.9812 298.392,-830.9812 292.392,-824.9812 292.392,-818.9812 292.392,-818.9812 292.392,-752.9812 292.392,-752.9812 292.392,-746.9812 298.392,-740.9812 304.392,-740.9812"/>
<text text-anchor="middle" x="372.0804" y="-815.7812" font-family="Times,serif" font-size="14.00" fill="#000000">TinymceAssetsController</text>
<polyline fill="none" stroke="#000000" points="292.392,-808.9812 451.7689,-808.9812 "/>
<text text-anchor="start" x="300.392" y="-793.7812" font-family="Times,serif" font-size="14.00" fill="#000000">create</text>
<polyline fill="none" stroke="#000000" points="292.392,-786.9812 451.7689,-786.9812 "/>
<polyline fill="none" stroke="#000000" points="292.392,-762.9812 451.7689,-762.9812 "/>
<text text-anchor="start" x="300.392" y="-747.7812" font-family="Times,serif" font-size="14.00" fill="#000000">_layout</text>
</g>
<!-- ApplicationController&#45;&gt;TinymceAssetsController -->
<g id="edge4" class="edge">
<title>ApplicationController&#45;&gt;TinymceAssetsController</title>
<path fill="none" stroke="#000000" d="M388.8216,-571.875C384.4328,-628.0048 379.0611,-696.7045 375.606,-740.8925"/>
</g>
<!-- MapsController -->
<g id="node7" class="node">
<title>MapsController</title>
<path fill="none" stroke="#000000" d="M12,-783.7573C12,-783.7573 92.6553,-783.7573 92.6553,-783.7573 98.6553,-783.7573 104.6553,-789.7573 104.6553,-795.7573 104.6553,-795.7573 104.6553,-861.7573 104.6553,-861.7573 104.6553,-867.7573 98.6553,-873.7573 92.6553,-873.7573 92.6553,-873.7573 12,-873.7573 12,-873.7573 6,-873.7573 0,-867.7573 0,-861.7573 0,-861.7573 0,-795.7573 0,-795.7573 0,-789.7573 6,-783.7573 12,-783.7573"/>
<text text-anchor="middle" x="52.3276" y="-858.5573" font-family="Times,serif" font-size="14.00" fill="#000000">MapsController</text>
<polyline fill="none" stroke="#000000" points="0,-851.7573 104.6553,-851.7573 "/>
<text text-anchor="start" x="8" y="-836.5573" font-family="Times,serif" font-size="14.00" fill="#000000">index</text>
<polyline fill="none" stroke="#000000" points="0,-829.7573 104.6553,-829.7573 "/>
<polyline fill="none" stroke="#000000" points="0,-805.7573 104.6553,-805.7573 "/>
<text text-anchor="start" x="8" y="-790.5573" font-family="Times,serif" font-size="14.00" fill="#000000">_layout</text>
</g>
<!-- ApplicationController&#45;&gt;MapsController -->
<g id="edge5" class="edge">
<title>ApplicationController&#45;&gt;MapsController</title>
<path fill="none" stroke="#000000" d="M304.0373,-571.7826C236.7973,-640.429 148.6385,-730.4319 96.4838,-783.6775"/>
</g>
<!-- NotificationsController -->
<g id="node8" class="node">
<title>NotificationsController</title>
<path fill="none" stroke="#000000" d="M29.7045,-299.2359C29.7045,-299.2359 151.5805,-299.2359 151.5805,-299.2359 157.5805,-299.2359 163.5805,-305.2359 163.5805,-311.2359 163.5805,-311.2359 163.5805,-377.2359 163.5805,-377.2359 163.5805,-383.2359 157.5805,-389.2359 151.5805,-389.2359 151.5805,-389.2359 29.7045,-389.2359 29.7045,-389.2359 23.7045,-389.2359 17.7045,-383.2359 17.7045,-377.2359 17.7045,-377.2359 17.7045,-311.2359 17.7045,-311.2359 17.7045,-305.2359 23.7045,-299.2359 29.7045,-299.2359"/>
<text text-anchor="middle" x="90.6425" y="-374.0359" font-family="Times,serif" font-size="14.00" fill="#000000">NotificationsController</text>
<polyline fill="none" stroke="#000000" points="17.7045,-367.2359 163.5805,-367.2359 "/>
<text text-anchor="start" x="25.7045" y="-352.0359" font-family="Times,serif" font-size="14.00" fill="#000000">index</text>
<polyline fill="none" stroke="#000000" points="17.7045,-345.2359 163.5805,-345.2359 "/>
<polyline fill="none" stroke="#000000" points="17.7045,-321.2359 163.5805,-321.2359 "/>
<text text-anchor="start" x="25.7045" y="-306.0359" font-family="Times,serif" font-size="14.00" fill="#000000">_layout</text>
</g>
<!-- ApplicationController&#45;&gt;NotificationsController -->
<g id="edge6" class="edge">
<title>ApplicationController&#45;&gt;NotificationsController</title>
<path fill="none" stroke="#000000" d="M296.9839,-434.3733C253.5955,-415.4196 203.6062,-393.5825 163.6985,-376.1494"/>
</g>
<!-- UsersController -->
<g id="node9" class="node">
<title>UsersController</title>
<path fill="none" stroke="#000000" d="M604.9934,-293.2819C604.9934,-293.2819 733.8352,-293.2819 733.8352,-293.2819 739.8352,-293.2819 745.8352,-299.2819 745.8352,-305.2819 745.8352,-305.2819 745.8352,-511.2819 745.8352,-511.2819 745.8352,-517.2819 739.8352,-523.2819 733.8352,-523.2819 733.8352,-523.2819 604.9934,-523.2819 604.9934,-523.2819 598.9934,-523.2819 592.9934,-517.2819 592.9934,-511.2819 592.9934,-511.2819 592.9934,-305.2819 592.9934,-305.2819 592.9934,-299.2819 598.9934,-293.2819 604.9934,-293.2819"/>
<text text-anchor="middle" x="669.4143" y="-508.0819" font-family="Times,serif" font-size="14.00" fill="#000000">UsersController</text>
<polyline fill="none" stroke="#000000" points="592.9934,-501.2819 745.8352,-501.2819 "/>
<text text-anchor="start" x="600.9934" y="-486.0819" font-family="Times,serif" font-size="14.00" fill="#000000">token</text>
<text text-anchor="start" x="600.9934" y="-472.0819" font-family="Times,serif" font-size="14.00" fill="#000000">confirm_email</text>
<text text-anchor="start" x="600.9934" y="-458.0819" font-family="Times,serif" font-size="14.00" fill="#000000">edit</text>
<text text-anchor="start" x="600.9934" y="-444.0819" font-family="Times,serif" font-size="14.00" fill="#000000">mypage</text>
<text text-anchor="start" x="600.9934" y="-430.0819" font-family="Times,serif" font-size="14.00" fill="#000000">reported_user</text>
<text text-anchor="start" x="600.9934" y="-416.0819" font-family="Times,serif" font-size="14.00" fill="#000000">select_certification</text>
<text text-anchor="start" x="600.9934" y="-402.0819" font-family="Times,serif" font-size="14.00" fill="#000000">submit_student_card</text>
<text text-anchor="start" x="600.9934" y="-388.0819" font-family="Times,serif" font-size="14.00" fill="#000000">submit_student_email</text>
<text text-anchor="start" x="600.9934" y="-374.0819" font-family="Times,serif" font-size="14.00" fill="#000000">check_email</text>
<polyline fill="none" stroke="#000000" points="592.9934,-367.2819 745.8352,-367.2819 "/>
<polyline fill="none" stroke="#000000" points="592.9934,-343.2819 745.8352,-343.2819 "/>
<text text-anchor="start" x="600.9934" y="-328.0819" font-family="Times,serif" font-size="14.00" fill="#000000">_layout</text>
<text text-anchor="start" x="600.9934" y="-314.0819" font-family="Times,serif" font-size="14.00" fill="#000000">get_student_card_image</text>
<text text-anchor="start" x="600.9934" y="-300.0819" font-family="Times,serif" font-size="14.00" fill="#000000">user_params</text>
</g>
<!-- ApplicationController&#45;&gt;UsersController -->
<g id="edge7" class="edge">
<title>ApplicationController&#45;&gt;UsersController</title>
<path fill="none" stroke="#000000" d="M495.2132,-452.5453C527.2848,-444.3961 562.3532,-435.4855 592.5647,-427.8089"/>
</g>
<!-- ReportsController -->
<g id="node10" class="node">
<title>ReportsController</title>
<path fill="none" stroke="#000000" d="M34.5197,-12.0708C34.5197,-12.0708 127.6164,-12.0708 127.6164,-12.0708 133.6164,-12.0708 139.6164,-18.0708 139.6164,-24.0708 139.6164,-24.0708 139.6164,-132.0708 139.6164,-132.0708 139.6164,-138.0708 133.6164,-144.0708 127.6164,-144.0708 127.6164,-144.0708 34.5197,-144.0708 34.5197,-144.0708 28.5197,-144.0708 22.5197,-138.0708 22.5197,-132.0708 22.5197,-132.0708 22.5197,-24.0708 22.5197,-24.0708 22.5197,-18.0708 28.5197,-12.0708 34.5197,-12.0708"/>
<text text-anchor="middle" x="81.068" y="-128.8708" font-family="Times,serif" font-size="14.00" fill="#000000">ReportsController</text>
<polyline fill="none" stroke="#000000" points="22.5197,-122.0708 139.6164,-122.0708 "/>
<text text-anchor="start" x="30.5197" y="-106.8708" font-family="Times,serif" font-size="14.00" fill="#000000">create</text>
<text text-anchor="start" x="30.5197" y="-92.8708" font-family="Times,serif" font-size="14.00" fill="#000000">new</text>
<polyline fill="none" stroke="#000000" points="22.5197,-86.0708 139.6164,-86.0708 "/>
<polyline fill="none" stroke="#000000" points="22.5197,-62.0708 139.6164,-62.0708 "/>
<text text-anchor="start" x="30.5197" y="-46.8708" font-family="Times,serif" font-size="14.00" fill="#000000">_layout</text>
<text text-anchor="start" x="30.5197" y="-32.8708" font-family="Times,serif" font-size="14.00" fill="#000000">find_event</text>
<text text-anchor="start" x="30.5197" y="-18.8708" font-family="Times,serif" font-size="14.00" fill="#000000">set_params</text>
</g>
<!-- ApplicationController&#45;&gt;ReportsController -->
<g id="edge8" class="edge">
<title>ApplicationController&#45;&gt;ReportsController</title>
<path fill="none" stroke="#000000" d="M321.9055,-383.5054C263.861,-309.8924 184.6553,-209.4422 133.1894,-144.1722"/>
</g>
<!-- DeviseController -->
<g id="node22" class="node">
<title>DeviseController</title>
<path fill="none" stroke="#000000" d="M592.7536,-549.7554C592.7536,-549.7554 763.6296,-549.7554 763.6296,-549.7554 769.6296,-549.7554 775.6296,-555.7554 775.6296,-561.7554 775.6296,-561.7554 775.6296,-905.7554 775.6296,-905.7554 775.6296,-911.7554 769.6296,-917.7554 763.6296,-917.7554 763.6296,-917.7554 592.7536,-917.7554 592.7536,-917.7554 586.7536,-917.7554 580.7536,-911.7554 580.7536,-905.7554 580.7536,-905.7554 580.7536,-561.7554 580.7536,-561.7554 580.7536,-555.7554 586.7536,-549.7554 592.7536,-549.7554"/>
<text text-anchor="middle" x="678.1916" y="-902.5554" font-family="Times,serif" font-size="14.00" fill="#000000">DeviseController</text>
<polyline fill="none" stroke="#000000" points="580.7536,-895.7554 775.6296,-895.7554 "/>
<text text-anchor="start" x="588.7536" y="-880.5554" font-family="Times,serif" font-size="14.00" fill="#000000">_prefixes</text>
<polyline fill="none" stroke="#000000" points="580.7536,-873.7554 775.6296,-873.7554 "/>
<text text-anchor="start" x="588.7536" y="-858.5554" font-family="Times,serif" font-size="14.00" fill="#000000">unknown_action!</text>
<text text-anchor="start" x="588.7536" y="-844.5554" font-family="Times,serif" font-size="14.00" fill="#000000">clean_up_passwords</text>
<text text-anchor="start" x="588.7536" y="-830.5554" font-family="Times,serif" font-size="14.00" fill="#000000">devise_i18n_options</text>
<text text-anchor="start" x="588.7536" y="-816.5554" font-family="Times,serif" font-size="14.00" fill="#000000">devise_mapping</text>
<text text-anchor="start" x="588.7536" y="-802.5554" font-family="Times,serif" font-size="14.00" fill="#000000">find_message</text>
<text text-anchor="start" x="588.7536" y="-788.5554" font-family="Times,serif" font-size="14.00" fill="#000000">navigational_formats</text>
<text text-anchor="start" x="588.7536" y="-774.5554" font-family="Times,serif" font-size="14.00" fill="#000000">require_no_authentication</text>
<text text-anchor="start" x="588.7536" y="-760.5554" font-family="Times,serif" font-size="14.00" fill="#000000">resource</text>
<text text-anchor="start" x="588.7536" y="-746.5554" font-family="Times,serif" font-size="14.00" fill="#000000">resource=</text>
<text text-anchor="start" x="588.7536" y="-732.5554" font-family="Times,serif" font-size="14.00" fill="#000000">resource_class</text>
<text text-anchor="start" x="588.7536" y="-718.5554" font-family="Times,serif" font-size="14.00" fill="#000000">resource_name</text>
<text text-anchor="start" x="588.7536" y="-704.5554" font-family="Times,serif" font-size="14.00" fill="#000000">resource_params</text>
<text text-anchor="start" x="588.7536" y="-690.5554" font-family="Times,serif" font-size="14.00" fill="#000000">respond_with_navigational</text>
<text text-anchor="start" x="588.7536" y="-676.5554" font-family="Times,serif" font-size="14.00" fill="#000000">scope_name</text>
<text text-anchor="start" x="588.7536" y="-662.5554" font-family="Times,serif" font-size="14.00" fill="#000000">set_flash_message</text>
<text text-anchor="start" x="588.7536" y="-648.5554" font-family="Times,serif" font-size="14.00" fill="#000000">set_flash_message!</text>
<text text-anchor="start" x="588.7536" y="-634.5554" font-family="Times,serif" font-size="14.00" fill="#000000">set_minimum_password_length</text>
<text text-anchor="start" x="588.7536" y="-620.5554" font-family="Times,serif" font-size="14.00" fill="#000000">signed_in_resource</text>
<text text-anchor="start" x="588.7536" y="-606.5554" font-family="Times,serif" font-size="14.00" fill="#000000">successfully_sent?</text>
<text text-anchor="start" x="588.7536" y="-592.5554" font-family="Times,serif" font-size="14.00" fill="#000000">translation_scope</text>
<text text-anchor="start" x="588.7536" y="-578.5554" font-family="Times,serif" font-size="14.00" fill="#000000">assert_is_devise_resource!</text>
<polyline fill="none" stroke="#000000" points="580.7536,-571.7554 775.6296,-571.7554 "/>
<text text-anchor="start" x="588.7536" y="-556.5554" font-family="Times,serif" font-size="14.00" fill="#000000">_layout</text>
</g>
<!-- ApplicationController&#45;&gt;DeviseController -->
<g id="edge15" class="edge">
<title>ApplicationController&#45;&gt;DeviseController</title>
<path fill="none" stroke="#000000" d="M495.2132,-567.6205C522.8281,-592.6934 552.8063,-619.9121 580.3523,-644.9224"/>
</g>
<!-- ActiveStorage::DirectUploadsController -->
<g id="node11" class="node">
<title>ActiveStorage::DirectUploadsController</title>
<path fill="none" stroke="#000000" d="M1134,-918.5C1134,-918.5 1353.0488,-918.5 1353.0488,-918.5 1359.0488,-918.5 1365.0488,-924.5 1365.0488,-930.5 1365.0488,-930.5 1365.0488,-1024.5 1365.0488,-1024.5 1365.0488,-1030.5 1359.0488,-1036.5 1353.0488,-1036.5 1353.0488,-1036.5 1134,-1036.5 1134,-1036.5 1128,-1036.5 1122,-1030.5 1122,-1024.5 1122,-1024.5 1122,-930.5 1122,-930.5 1122,-924.5 1128,-918.5 1134,-918.5"/>
<text text-anchor="middle" x="1243.5244" y="-1021.3" font-family="Times,serif" font-size="14.00" fill="#000000">ActiveStorage::DirectUploadsController</text>
<polyline fill="none" stroke="#000000" points="1122,-1014.5 1365.0488,-1014.5 "/>
<text text-anchor="start" x="1130" y="-999.3" font-family="Times,serif" font-size="14.00" fill="#000000">create</text>
<polyline fill="none" stroke="#000000" points="1122,-992.5 1365.0488,-992.5 "/>
<polyline fill="none" stroke="#000000" points="1122,-968.5 1365.0488,-968.5 "/>
<text text-anchor="start" x="1130" y="-953.3" font-family="Times,serif" font-size="14.00" fill="#000000">_layout</text>
<text text-anchor="start" x="1130" y="-939.3" font-family="Times,serif" font-size="14.00" fill="#000000">blob_args</text>
<text text-anchor="start" x="1130" y="-925.3" font-family="Times,serif" font-size="14.00" fill="#000000">direct_upload_json</text>
</g>
<!-- ActiveStorage::BaseController -->
<g id="node12" class="node">
<title>ActiveStorage::BaseController</title>
<path fill="none" stroke="#000000" d="M1134,-1122.5C1134,-1122.5 1298.6211,-1122.5 1298.6211,-1122.5 1304.6211,-1122.5 1310.6211,-1128.5 1310.6211,-1134.5 1310.6211,-1134.5 1310.6211,-1202.5 1310.6211,-1202.5 1310.6211,-1208.5 1304.6211,-1214.5 1298.6211,-1214.5 1298.6211,-1214.5 1134,-1214.5 1134,-1214.5 1128,-1214.5 1122,-1208.5 1122,-1202.5 1122,-1202.5 1122,-1134.5 1122,-1134.5 1122,-1128.5 1128,-1122.5 1134,-1122.5"/>
<text text-anchor="middle" x="1216.3105" y="-1199.3" font-family="Times,serif" font-size="14.00" fill="#000000">ActiveStorage::BaseController</text>
<polyline fill="none" stroke="#000000" points="1122,-1192.5 1310.6211,-1192.5 "/>
<polyline fill="none" stroke="#000000" points="1122,-1168.5 1310.6211,-1168.5 "/>
<polyline fill="none" stroke="#000000" points="1122,-1144.5 1310.6211,-1144.5 "/>
<text text-anchor="start" x="1130" y="-1129.3" font-family="Times,serif" font-size="14.00" fill="#000000">_layout</text>
</g>
<!-- ActiveStorage::BlobsController -->
<g id="node13" class="node">
<title>ActiveStorage::BlobsController</title>
<path fill="none" stroke="#000000" d="M1185,-.5C1185,-.5 1355.083,-.5 1355.083,-.5 1361.083,-.5 1367.083,-6.5 1367.083,-12.5 1367.083,-12.5 1367.083,-78.5 1367.083,-78.5 1367.083,-84.5 1361.083,-90.5 1355.083,-90.5 1355.083,-90.5 1185,-90.5 1185,-90.5 1179,-90.5 1173,-84.5 1173,-78.5 1173,-78.5 1173,-12.5 1173,-12.5 1173,-6.5 1179,-.5 1185,-.5"/>
<text text-anchor="middle" x="1270.0415" y="-75.3" font-family="Times,serif" font-size="14.00" fill="#000000">ActiveStorage::BlobsController</text>
<polyline fill="none" stroke="#000000" points="1173,-68.5 1367.083,-68.5 "/>
<text text-anchor="start" x="1181" y="-53.3" font-family="Times,serif" font-size="14.00" fill="#000000">show</text>
<polyline fill="none" stroke="#000000" points="1173,-46.5 1367.083,-46.5 "/>
<polyline fill="none" stroke="#000000" points="1173,-22.5 1367.083,-22.5 "/>
<text text-anchor="start" x="1181" y="-7.3" font-family="Times,serif" font-size="14.00" fill="#000000">_layout</text>
</g>
<!-- ActiveStorage::RepresentationsController -->
<g id="node14" class="node">
<title>ActiveStorage::RepresentationsController</title>
<path fill="none" stroke="#000000" d="M1032,-255.5C1032,-255.5 1258.8281,-255.5 1258.8281,-255.5 1264.8281,-255.5 1270.8281,-261.5 1270.8281,-267.5 1270.8281,-267.5 1270.8281,-333.5 1270.8281,-333.5 1270.8281,-339.5 1264.8281,-345.5 1258.8281,-345.5 1258.8281,-345.5 1032,-345.5 1032,-345.5 1026,-345.5 1020,-339.5 1020,-333.5 1020,-333.5 1020,-267.5 1020,-267.5 1020,-261.5 1026,-255.5 1032,-255.5"/>
<text text-anchor="middle" x="1145.4141" y="-330.3" font-family="Times,serif" font-size="14.00" fill="#000000">ActiveStorage::RepresentationsController</text>
<polyline fill="none" stroke="#000000" points="1020,-323.5 1270.8281,-323.5 "/>
<text text-anchor="start" x="1028" y="-308.3" font-family="Times,serif" font-size="14.00" fill="#000000">show</text>
<polyline fill="none" stroke="#000000" points="1020,-301.5 1270.8281,-301.5 "/>
<polyline fill="none" stroke="#000000" points="1020,-277.5 1270.8281,-277.5 "/>
<text text-anchor="start" x="1028" y="-262.3" font-family="Times,serif" font-size="14.00" fill="#000000">_layout</text>
</g>
<!-- ActiveStorage::DiskController -->
<g id="node15" class="node">
<title>ActiveStorage::DiskController</title>
<path fill="none" stroke="#000000" d="M1185,-408.5C1185,-408.5 1348.8555,-408.5 1348.8555,-408.5 1354.8555,-408.5 1360.8555,-414.5 1360.8555,-420.5 1360.8555,-420.5 1360.8555,-570.5 1360.8555,-570.5 1360.8555,-576.5 1354.8555,-582.5 1348.8555,-582.5 1348.8555,-582.5 1185,-582.5 1185,-582.5 1179,-582.5 1173,-576.5 1173,-570.5 1173,-570.5 1173,-420.5 1173,-420.5 1173,-414.5 1179,-408.5 1185,-408.5"/>
<text text-anchor="middle" x="1266.9277" y="-567.3" font-family="Times,serif" font-size="14.00" fill="#000000">ActiveStorage::DiskController</text>
<polyline fill="none" stroke="#000000" points="1173,-560.5 1360.8555,-560.5 "/>
<text text-anchor="start" x="1181" y="-545.3" font-family="Times,serif" font-size="14.00" fill="#000000">show</text>
<text text-anchor="start" x="1181" y="-531.3" font-family="Times,serif" font-size="14.00" fill="#000000">update</text>
<polyline fill="none" stroke="#000000" points="1173,-524.5 1360.8555,-524.5 "/>
<polyline fill="none" stroke="#000000" points="1173,-500.5 1360.8555,-500.5 "/>
<text text-anchor="start" x="1181" y="-485.3" font-family="Times,serif" font-size="14.00" fill="#000000">_layout</text>
<text text-anchor="start" x="1181" y="-471.3" font-family="Times,serif" font-size="14.00" fill="#000000">acceptable_content?</text>
<text text-anchor="start" x="1181" y="-457.3" font-family="Times,serif" font-size="14.00" fill="#000000">decode_verified_key</text>
<text text-anchor="start" x="1181" y="-443.3" font-family="Times,serif" font-size="14.00" fill="#000000">decode_verified_token</text>
<text text-anchor="start" x="1181" y="-429.3" font-family="Times,serif" font-size="14.00" fill="#000000">disk_service</text>
<text text-anchor="start" x="1181" y="-415.3" font-family="Times,serif" font-size="14.00" fill="#000000">serve_file</text>
</g>
<!-- Devise::OmniauthCallbacksController -->
<g id="node16" class="node">
<title>Devise::OmniauthCallbacksController</title>
<path fill="none" stroke="#000000" d="M877.7302,-46.5037C877.7302,-46.5037 1085.1306,-46.5037 1085.1306,-46.5037 1091.1306,-46.5037 1097.1306,-52.5037 1097.1306,-58.5037 1097.1306,-58.5037 1097.1306,-178.5037 1097.1306,-178.5037 1097.1306,-184.5037 1091.1306,-190.5037 1085.1306,-190.5037 1085.1306,-190.5037 877.7302,-190.5037 877.7302,-190.5037 871.7302,-190.5037 865.7302,-184.5037 865.7302,-178.5037 865.7302,-178.5037 865.7302,-58.5037 865.7302,-58.5037 865.7302,-52.5037 871.7302,-46.5037 877.7302,-46.5037"/>
<text text-anchor="middle" x="981.4304" y="-175.3037" font-family="Times,serif" font-size="14.00" fill="#000000">Devise::OmniauthCallbacksController</text>
<polyline fill="none" stroke="#000000" points="865.7302,-168.5037 1097.1306,-168.5037 "/>
<text text-anchor="start" x="873.7302" y="-153.3037" font-family="Times,serif" font-size="14.00" fill="#000000">failure</text>
<text text-anchor="start" x="873.7302" y="-139.3037" font-family="Times,serif" font-size="14.00" fill="#000000">passthru</text>
<polyline fill="none" stroke="#000000" points="865.7302,-132.5037 1097.1306,-132.5037 "/>
<text text-anchor="start" x="873.7302" y="-117.3037" font-family="Times,serif" font-size="14.00" fill="#000000">after_omniauth_failure_path_for</text>
<text text-anchor="start" x="873.7302" y="-103.3037" font-family="Times,serif" font-size="14.00" fill="#000000">failed_strategy</text>
<text text-anchor="start" x="873.7302" y="-89.3037" font-family="Times,serif" font-size="14.00" fill="#000000">failure_message</text>
<text text-anchor="start" x="873.7302" y="-75.3037" font-family="Times,serif" font-size="14.00" fill="#000000">translation_scope</text>
<polyline fill="none" stroke="#000000" points="865.7302,-68.5037 1097.1306,-68.5037 "/>
<text text-anchor="start" x="873.7302" y="-53.3037" font-family="Times,serif" font-size="14.00" fill="#000000">_layout</text>
</g>
<!-- Devise::PasswordsController -->
<g id="node17" class="node">
<title>Devise::PasswordsController</title>
<path fill="none" stroke="#000000" d="M533.6302,-.5C533.6302,-.5 821.8929,-.5 821.8929,-.5 827.8929,-.5 833.8929,-6.5 833.8929,-12.5 833.8929,-12.5 833.8929,-174.5 833.8929,-174.5 833.8929,-180.5 827.8929,-186.5 821.8929,-186.5 821.8929,-186.5 533.6302,-186.5 533.6302,-186.5 527.6302,-186.5 521.6302,-180.5 521.6302,-174.5 521.6302,-174.5 521.6302,-12.5 521.6302,-12.5 521.6302,-6.5 527.6302,-.5 533.6302,-.5"/>
<text text-anchor="middle" x="677.7615" y="-171.3" font-family="Times,serif" font-size="14.00" fill="#000000">Devise::PasswordsController</text>
<polyline fill="none" stroke="#000000" points="521.6302,-164.5 833.8929,-164.5 "/>
<text text-anchor="start" x="529.6302" y="-149.3" font-family="Times,serif" font-size="14.00" fill="#000000">create</text>
<text text-anchor="start" x="529.6302" y="-135.3" font-family="Times,serif" font-size="14.00" fill="#000000">edit</text>
<text text-anchor="start" x="529.6302" y="-121.3" font-family="Times,serif" font-size="14.00" fill="#000000">new</text>
<text text-anchor="start" x="529.6302" y="-107.3" font-family="Times,serif" font-size="14.00" fill="#000000">update</text>
<polyline fill="none" stroke="#000000" points="521.6302,-100.5 833.8929,-100.5 "/>
<text text-anchor="start" x="529.6302" y="-85.3" font-family="Times,serif" font-size="14.00" fill="#000000">after_resetting_password_path_for</text>
<text text-anchor="start" x="529.6302" y="-71.3" font-family="Times,serif" font-size="14.00" fill="#000000">after_sending_reset_password_instructions_path_for</text>
<text text-anchor="start" x="529.6302" y="-57.3" font-family="Times,serif" font-size="14.00" fill="#000000">assert_reset_token_passed</text>
<text text-anchor="start" x="529.6302" y="-43.3" font-family="Times,serif" font-size="14.00" fill="#000000">translation_scope</text>
<text text-anchor="start" x="529.6302" y="-29.3" font-family="Times,serif" font-size="14.00" fill="#000000">unlockable?</text>
<polyline fill="none" stroke="#000000" points="521.6302,-22.5 833.8929,-22.5 "/>
<text text-anchor="start" x="529.6302" y="-7.3" font-family="Times,serif" font-size="14.00" fill="#000000">_layout</text>
</g>
<!-- Devise::SessionsController -->
<g id="node18" class="node">
<title>Devise::SessionsController</title>
<path fill="none" stroke="#000000" d="M474.0963,-959.8673C474.0963,-959.8673 618.5309,-959.8673 618.5309,-959.8673 624.5309,-959.8673 630.5309,-965.8673 630.5309,-971.8673 630.5309,-971.8673 630.5309,-1147.8673 630.5309,-1147.8673 630.5309,-1153.8673 624.5309,-1159.8673 618.5309,-1159.8673 618.5309,-1159.8673 474.0963,-1159.8673 474.0963,-1159.8673 468.0963,-1159.8673 462.0963,-1153.8673 462.0963,-1147.8673 462.0963,-1147.8673 462.0963,-971.8673 462.0963,-971.8673 462.0963,-965.8673 468.0963,-959.8673 474.0963,-959.8673"/>
<text text-anchor="middle" x="546.3136" y="-1144.6673" font-family="Times,serif" font-size="14.00" fill="#000000">Devise::SessionsController</text>
<polyline fill="none" stroke="#000000" points="462.0963,-1137.8673 630.5309,-1137.8673 "/>
<text text-anchor="start" x="470.0963" y="-1122.6673" font-family="Times,serif" font-size="14.00" fill="#000000">create</text>
<text text-anchor="start" x="470.0963" y="-1108.6673" font-family="Times,serif" font-size="14.00" fill="#000000">destroy</text>
<text text-anchor="start" x="470.0963" y="-1094.6673" font-family="Times,serif" font-size="14.00" fill="#000000">new</text>
<polyline fill="none" stroke="#000000" points="462.0963,-1087.8673 630.5309,-1087.8673 "/>
<text text-anchor="start" x="470.0963" y="-1072.6673" font-family="Times,serif" font-size="14.00" fill="#000000">auth_options</text>
<text text-anchor="start" x="470.0963" y="-1058.6673" font-family="Times,serif" font-size="14.00" fill="#000000">serialize_options</text>
<text text-anchor="start" x="470.0963" y="-1044.6673" font-family="Times,serif" font-size="14.00" fill="#000000">sign_in_params</text>
<text text-anchor="start" x="470.0963" y="-1030.6673" font-family="Times,serif" font-size="14.00" fill="#000000">translation_scope</text>
<polyline fill="none" stroke="#000000" points="462.0963,-1023.8673 630.5309,-1023.8673 "/>
<text text-anchor="start" x="470.0963" y="-1008.6673" font-family="Times,serif" font-size="14.00" fill="#000000">_layout</text>
<text text-anchor="start" x="470.0963" y="-994.6673" font-family="Times,serif" font-size="14.00" fill="#000000">all_signed_out?</text>
<text text-anchor="start" x="470.0963" y="-980.6673" font-family="Times,serif" font-size="14.00" fill="#000000">respond_to_on_destroy</text>
<text text-anchor="start" x="470.0963" y="-966.6673" font-family="Times,serif" font-size="14.00" fill="#000000">verify_signed_out_user</text>
</g>
<!-- Devise::UnlocksController -->
<g id="node19" class="node">
<title>Devise::UnlocksController</title>
<path fill="none" stroke="#000000" d="M853.5665,-376.4855C853.5665,-376.4855 1093.6222,-376.4855 1093.6222,-376.4855 1099.6222,-376.4855 1105.6222,-382.4855 1105.6222,-388.4855 1105.6222,-388.4855 1105.6222,-508.4855 1105.6222,-508.4855 1105.6222,-514.4855 1099.6222,-520.4855 1093.6222,-520.4855 1093.6222,-520.4855 853.5665,-520.4855 853.5665,-520.4855 847.5665,-520.4855 841.5665,-514.4855 841.5665,-508.4855 841.5665,-508.4855 841.5665,-388.4855 841.5665,-388.4855 841.5665,-382.4855 847.5665,-376.4855 853.5665,-376.4855"/>
<text text-anchor="middle" x="973.5944" y="-505.2855" font-family="Times,serif" font-size="14.00" fill="#000000">Devise::UnlocksController</text>
<polyline fill="none" stroke="#000000" points="841.5665,-498.4855 1105.6222,-498.4855 "/>
<text text-anchor="start" x="849.5665" y="-483.2855" font-family="Times,serif" font-size="14.00" fill="#000000">create</text>
<text text-anchor="start" x="849.5665" y="-469.2855" font-family="Times,serif" font-size="14.00" fill="#000000">new</text>
<text text-anchor="start" x="849.5665" y="-455.2855" font-family="Times,serif" font-size="14.00" fill="#000000">show</text>
<polyline fill="none" stroke="#000000" points="841.5665,-448.4855 1105.6222,-448.4855 "/>
<text text-anchor="start" x="849.5665" y="-433.2855" font-family="Times,serif" font-size="14.00" fill="#000000">after_sending_unlock_instructions_path_for</text>
<text text-anchor="start" x="849.5665" y="-419.2855" font-family="Times,serif" font-size="14.00" fill="#000000">after_unlock_path_for</text>
<text text-anchor="start" x="849.5665" y="-405.2855" font-family="Times,serif" font-size="14.00" fill="#000000">translation_scope</text>
<polyline fill="none" stroke="#000000" points="841.5665,-398.4855 1105.6222,-398.4855 "/>
<text text-anchor="start" x="849.5665" y="-383.2855" font-family="Times,serif" font-size="14.00" fill="#000000">_layout</text>
</g>
<!-- Devise::ConfirmationsController -->
<g id="node20" class="node">
<title>Devise::ConfirmationsController</title>
<path fill="none" stroke="#000000" d="M846.0364,-678.9963C846.0364,-678.9963 1130.4095,-678.9963 1130.4095,-678.9963 1136.4095,-678.9963 1142.4095,-684.9963 1142.4095,-690.9963 1142.4095,-690.9963 1142.4095,-810.9963 1142.4095,-810.9963 1142.4095,-816.9963 1136.4095,-822.9963 1130.4095,-822.9963 1130.4095,-822.9963 846.0364,-822.9963 846.0364,-822.9963 840.0364,-822.9963 834.0364,-816.9963 834.0364,-810.9963 834.0364,-810.9963 834.0364,-690.9963 834.0364,-690.9963 834.0364,-684.9963 840.0364,-678.9963 846.0364,-678.9963"/>
<text text-anchor="middle" x="988.2229" y="-807.7963" font-family="Times,serif" font-size="14.00" fill="#000000">Devise::ConfirmationsController</text>
<polyline fill="none" stroke="#000000" points="834.0364,-800.9963 1142.4095,-800.9963 "/>
<text text-anchor="start" x="842.0364" y="-785.7963" font-family="Times,serif" font-size="14.00" fill="#000000">create</text>
<text text-anchor="start" x="842.0364" y="-771.7963" font-family="Times,serif" font-size="14.00" fill="#000000">new</text>
<text text-anchor="start" x="842.0364" y="-757.7963" font-family="Times,serif" font-size="14.00" fill="#000000">show</text>
<polyline fill="none" stroke="#000000" points="834.0364,-750.9963 1142.4095,-750.9963 "/>
<text text-anchor="start" x="842.0364" y="-735.7963" font-family="Times,serif" font-size="14.00" fill="#000000">after_confirmation_path_for</text>
<text text-anchor="start" x="842.0364" y="-721.7963" font-family="Times,serif" font-size="14.00" fill="#000000">after_resending_confirmation_instructions_path_for</text>
<text text-anchor="start" x="842.0364" y="-707.7963" font-family="Times,serif" font-size="14.00" fill="#000000">translation_scope</text>
<polyline fill="none" stroke="#000000" points="834.0364,-700.9963 1142.4095,-700.9963 "/>
<text text-anchor="start" x="842.0364" y="-685.7963" font-family="Times,serif" font-size="14.00" fill="#000000">_layout</text>
</g>
<!-- Devise::RegistrationsController -->
<g id="node21" class="node">
<title>Devise::RegistrationsController</title>
<path fill="none" stroke="#000000" d="M844.6831,-893.0271C844.6831,-893.0271 1023.2905,-893.0271 1023.2905,-893.0271 1029.2905,-893.0271 1035.2905,-899.0271 1035.2905,-905.0271 1035.2905,-905.0271 1035.2905,-1207.0271 1035.2905,-1207.0271 1035.2905,-1213.0271 1029.2905,-1219.0271 1023.2905,-1219.0271 1023.2905,-1219.0271 844.6831,-1219.0271 844.6831,-1219.0271 838.6831,-1219.0271 832.6831,-1213.0271 832.6831,-1207.0271 832.6831,-1207.0271 832.6831,-905.0271 832.6831,-905.0271 832.6831,-899.0271 838.6831,-893.0271 844.6831,-893.0271"/>
<text text-anchor="middle" x="933.9868" y="-1203.8271" font-family="Times,serif" font-size="14.00" fill="#000000">Devise::RegistrationsController</text>
<polyline fill="none" stroke="#000000" points="832.6831,-1197.0271 1035.2905,-1197.0271 "/>
<text text-anchor="start" x="840.6831" y="-1181.8271" font-family="Times,serif" font-size="14.00" fill="#000000">cancel</text>
<text text-anchor="start" x="840.6831" y="-1167.8271" font-family="Times,serif" font-size="14.00" fill="#000000">create</text>
<text text-anchor="start" x="840.6831" y="-1153.8271" font-family="Times,serif" font-size="14.00" fill="#000000">destroy</text>
<text text-anchor="start" x="840.6831" y="-1139.8271" font-family="Times,serif" font-size="14.00" fill="#000000">edit</text>
<text text-anchor="start" x="840.6831" y="-1125.8271" font-family="Times,serif" font-size="14.00" fill="#000000">new</text>
<text text-anchor="start" x="840.6831" y="-1111.8271" font-family="Times,serif" font-size="14.00" fill="#000000">update</text>
<polyline fill="none" stroke="#000000" points="832.6831,-1105.0271 1035.2905,-1105.0271 "/>
<text text-anchor="start" x="840.6831" y="-1089.8271" font-family="Times,serif" font-size="14.00" fill="#000000">update_resource</text>
<text text-anchor="start" x="840.6831" y="-1075.8271" font-family="Times,serif" font-size="14.00" fill="#000000">after_inactive_sign_up_path_for</text>
<text text-anchor="start" x="840.6831" y="-1061.8271" font-family="Times,serif" font-size="14.00" fill="#000000">after_sign_up_path_for</text>
<text text-anchor="start" x="840.6831" y="-1047.8271" font-family="Times,serif" font-size="14.00" fill="#000000">after_update_path_for</text>
<text text-anchor="start" x="840.6831" y="-1033.8271" font-family="Times,serif" font-size="14.00" fill="#000000">authenticate_scope!</text>
<text text-anchor="start" x="840.6831" y="-1019.8271" font-family="Times,serif" font-size="14.00" fill="#000000">build_resource</text>
<text text-anchor="start" x="840.6831" y="-1005.8271" font-family="Times,serif" font-size="14.00" fill="#000000">sign_up</text>
<text text-anchor="start" x="840.6831" y="-991.8271" font-family="Times,serif" font-size="14.00" fill="#000000">sign_up_params</text>
<text text-anchor="start" x="840.6831" y="-977.8271" font-family="Times,serif" font-size="14.00" fill="#000000">translation_scope</text>
<text text-anchor="start" x="840.6831" y="-963.8271" font-family="Times,serif" font-size="14.00" fill="#000000">update_needs_confirmation?</text>
<text text-anchor="start" x="840.6831" y="-949.8271" font-family="Times,serif" font-size="14.00" fill="#000000">account_update_params</text>
<polyline fill="none" stroke="#000000" points="832.6831,-943.0271 1035.2905,-943.0271 "/>
<text text-anchor="start" x="840.6831" y="-927.8271" font-family="Times,serif" font-size="14.00" fill="#000000">_layout</text>
<text text-anchor="start" x="840.6831" y="-913.8271" font-family="Times,serif" font-size="14.00" fill="#000000">set_flash_message_for_update</text>
<text text-anchor="start" x="840.6831" y="-899.8271" font-family="Times,serif" font-size="14.00" fill="#000000">sign_in_after_change_password?</text>
</g>
<!-- DeviseController&#45;&gt;Devise::OmniauthCallbacksController -->
<g id="edge9" class="edge">
<title>DeviseController&#45;&gt;Devise::OmniauthCallbacksController</title>
<path fill="none" stroke="#000000" d="M755.9897,-549.7519C781.1784,-492.6743 809.967,-429.9082 838.3665,-373.2855 869.866,-310.4822 909.1566,-241.06 938.5882,-190.5631"/>
</g>
<!-- DeviseController&#45;&gt;Devise::PasswordsController -->
<g id="edge10" class="edge">
<title>DeviseController&#45;&gt;Devise::PasswordsController</title>
<path fill="none" stroke="#000000" d="M744.5638,-549.4947C746.2669,-541.7704 747.7728,-534.0786 749.0352,-526.4819 766.2585,-422.8366 767.2156,-393.5637 749.0352,-290.0819 742.942,-255.3995 731.2335,-218.7766 719.0399,-186.663"/>
</g>
<!-- DeviseController&#45;&gt;Devise::SessionsController -->
<g id="edge11" class="edge">
<title>DeviseController&#45;&gt;Devise::SessionsController</title>
<path fill="none" stroke="#000000" d="M603.7736,-917.7785C597.9895,-932.0816 592.2939,-946.1658 586.8689,-959.5809"/>
</g>
<!-- DeviseController&#45;&gt;Devise::UnlocksController -->
<g id="edge12" class="edge">
<title>DeviseController&#45;&gt;Devise::UnlocksController</title>
<path fill="none" stroke="#000000" d="M775.7362,-639.5568C815.7334,-600.9316 861.2988,-556.9291 898.6132,-520.8947"/>
</g>
<!-- DeviseController&#45;&gt;Devise::ConfirmationsController -->
<g id="edge13" class="edge">
<title>DeviseController&#45;&gt;Devise::ConfirmationsController</title>
<path fill="none" stroke="#000000" d="M775.8619,-739.1869C794.3212,-740.2134 814.0433,-741.3101 833.7537,-742.4062"/>
</g>
<!-- DeviseController&#45;&gt;Devise::RegistrationsController -->
<g id="edge14" class="edge">
<title>DeviseController&#45;&gt;Devise::RegistrationsController</title>
<path fill="none" stroke="#000000" d="M775.9917,-856.972C794.5383,-880.3385 813.9802,-904.833 832.634,-928.3345"/>
</g>
</g>
</svg>
