<?xml version="1.0" encoding="UTF-8" standalone="no"?>
<!DOCTYPE svg PUBLIC "-//W3C//DTD SVG 1.1//EN"
 "http://www.w3.org/Graphics/SVG/1.1/DTD/svg11.dtd">
<!-- Generated by graphviz version 2.40.1 (20161225.0304)
 -->
<!-- Title: controllers_diagram Pages: 1 -->
<svg width="1562pt" height="1608pt"
 viewBox="0.00 0.00 1562.05 1608.00" xmlns="http://www.w3.org/2000/svg" xmlns:xlink="http://www.w3.org/1999/xlink">
<g id="graph0" class="graph" transform="scale(1 1) rotate(0) translate(4 1604)">
<title>controllers_diagram</title>
<polygon fill="transparent" stroke="transparent" points="-4,4 -4,-1604 1558.0488,-1604 1558.0488,4 -4,4"/>
<!-- _diagram_info -->
<g id="node1" class="node">
<title>_diagram_info</title>
<text text-anchor="start" x="1034" y="-1483.6" font-family="Times,serif" font-size="13.00" fill="#000000">Controllers diagram</text>
<text text-anchor="start" x="1034" y="-1470.6" font-family="Times,serif" font-size="13.00" fill="#000000">Date: Nov 25 2019 &#45; 14:38</text>
<text text-anchor="start" x="1034" y="-1457.6" font-family="Times,serif" font-size="13.00" fill="#000000">Migration version: 20191119050953</text>
<text text-anchor="start" x="1034" y="-1444.6" font-family="Times,serif" font-size="13.00" fill="#000000">Generated by RailRoady 1.5.3</text>
<text text-anchor="start" x="1034" y="-1431.6" font-family="Times,serif" font-size="13.00" fill="#000000">http://railroady.prestonlee.com</text>
</g>
<!-- MessagesController -->
<g id="node2" class="node">
<title>MessagesController</title>
<path fill="none" stroke="#000000" d="M22.068,-496.0775C22.068,-496.0775 126.0475,-496.0775 126.0475,-496.0775 132.0475,-496.0775 138.0475,-502.0775 138.0475,-508.0775 138.0475,-508.0775 138.0475,-616.0775 138.0475,-616.0775 138.0475,-622.0775 132.0475,-628.0775 126.0475,-628.0775 126.0475,-628.0775 22.068,-628.0775 22.068,-628.0775 16.068,-628.0775 10.068,-622.0775 10.068,-616.0775 10.068,-616.0775 10.068,-508.0775 10.068,-508.0775 10.068,-502.0775 16.068,-496.0775 22.068,-496.0775"/>
<text text-anchor="middle" x="74.0577" y="-612.8775" font-family="Times,serif" font-size="14.00" fill="#000000">MessagesController</text>
<polyline fill="none" stroke="#000000" points="10.068,-606.0775 138.0475,-606.0775 "/>
<text text-anchor="start" x="18.068" y="-590.8775" font-family="Times,serif" font-size="14.00" fill="#000000">create</text>
<text text-anchor="start" x="18.068" y="-576.8775" font-family="Times,serif" font-size="14.00" fill="#000000">index</text>
<polyline fill="none" stroke="#000000" points="10.068,-570.0775 138.0475,-570.0775 "/>
<polyline fill="none" stroke="#000000" points="10.068,-546.0775 138.0475,-546.0775 "/>
<text text-anchor="start" x="18.068" y="-530.8775" font-family="Times,serif" font-size="14.00" fill="#000000">_layout</text>
<text text-anchor="start" x="18.068" y="-516.8775" font-family="Times,serif" font-size="14.00" fill="#000000">load_chatroom</text>
<text text-anchor="start" x="18.068" y="-502.8775" font-family="Times,serif" font-size="14.00" fill="#000000">message_params</text>
</g>
<!-- ApplicationController -->
<g id="node3" class="node">
<title>ApplicationController</title>
<path fill="none" stroke="#000000" d="M372.6171,-625.0178C372.6171,-625.0178 546.5487,-625.0178 546.5487,-625.0178 552.5487,-625.0178 558.5487,-631.0178 558.5487,-637.0178 558.5487,-637.0178 558.5487,-801.0178 558.5487,-801.0178 558.5487,-807.0178 552.5487,-813.0178 546.5487,-813.0178 546.5487,-813.0178 372.6171,-813.0178 372.6171,-813.0178 366.6171,-813.0178 360.6171,-807.0178 360.6171,-801.0178 360.6171,-801.0178 360.6171,-637.0178 360.6171,-637.0178 360.6171,-631.0178 366.6171,-625.0178 372.6171,-625.0178"/>
<text text-anchor="middle" x="459.5829" y="-797.8178" font-family="Times,serif" font-size="14.00" fill="#000000">ApplicationController</text>
<polyline fill="none" stroke="#000000" points="360.6171,-791.0178 558.5487,-791.0178 "/>
<text text-anchor="start" x="368.6171" y="-775.8178" font-family="Times,serif" font-size="14.00" fill="#000000">sort_params</text>
<text text-anchor="start" x="368.6171" y="-761.8178" font-family="Times,serif" font-size="14.00" fill="#000000">data_name</text>
<text text-anchor="start" x="368.6171" y="-747.8178" font-family="Times,serif" font-size="14.00" fill="#000000">default_url_options</text>
<text text-anchor="start" x="368.6171" y="-733.8178" font-family="Times,serif" font-size="14.00" fill="#000000">detect_layout</text>
<text text-anchor="start" x="368.6171" y="-719.8178" font-family="Times,serif" font-size="14.00" fill="#000000">f7_request?</text>
<text text-anchor="start" x="368.6171" y="-705.8178" font-family="Times,serif" font-size="14.00" fill="#000000">no_back?</text>
<text text-anchor="start" x="368.6171" y="-691.8178" font-family="Times,serif" font-size="14.00" fill="#000000">rails_routes</text>
<text text-anchor="start" x="368.6171" y="-677.8178" font-family="Times,serif" font-size="14.00" fill="#000000">configure_permitted_parameters</text>
<polyline fill="none" stroke="#000000" points="360.6171,-671.0178 558.5487,-671.0178 "/>
<polyline fill="none" stroke="#000000" points="360.6171,-647.0178 558.5487,-647.0178 "/>
<text text-anchor="start" x="368.6171" y="-631.8178" font-family="Times,serif" font-size="14.00" fill="#000000">_layout</text>
</g>
<!-- ApplicationController&#45;&gt;MessagesController -->
<g id="edge1" class="edge">
<title>ApplicationController&#45;&gt;MessagesController</title>
<path fill="none" stroke="#000000" d="M360.3006,-678.6018C290.358,-650.1294 198.7505,-612.8376 138.2317,-588.2015"/>
</g>
<!-- EventsController -->
<g id="node4" class="node">
<title>EventsController</title>
<path fill="none" stroke="#000000" d="M409.4506,-.5C409.4506,-.5 497.0991,-.5 497.0991,-.5 503.0991,-.5 509.0991,-6.5 509.0991,-12.5 509.0991,-12.5 509.0991,-232.5 509.0991,-232.5 509.0991,-238.5 503.0991,-244.5 497.0991,-244.5 497.0991,-244.5 409.4506,-244.5 409.4506,-244.5 403.4506,-244.5 397.4506,-238.5 397.4506,-232.5 397.4506,-232.5 397.4506,-12.5 397.4506,-12.5 397.4506,-6.5 403.4506,-.5 409.4506,-.5"/>
<text text-anchor="middle" x="453.2748" y="-229.3" font-family="Times,serif" font-size="14.00" fill="#000000">EventsController</text>
<polyline fill="none" stroke="#000000" points="397.4506,-222.5 509.0991,-222.5 "/>
<text text-anchor="start" x="405.4506" y="-207.3" font-family="Times,serif" font-size="14.00" fill="#000000">update</text>
<text text-anchor="start" x="405.4506" y="-193.3" font-family="Times,serif" font-size="14.00" fill="#000000">create</text>
<text text-anchor="start" x="405.4506" y="-179.3" font-family="Times,serif" font-size="14.00" fill="#000000">destroy</text>
<text text-anchor="start" x="405.4506" y="-165.3" font-family="Times,serif" font-size="14.00" fill="#000000">edit</text>
<text text-anchor="start" x="405.4506" y="-151.3" font-family="Times,serif" font-size="14.00" fill="#000000">index</text>
<text text-anchor="start" x="405.4506" y="-137.3" font-family="Times,serif" font-size="14.00" fill="#000000">new</text>
<text text-anchor="start" x="405.4506" y="-123.3" font-family="Times,serif" font-size="14.00" fill="#000000">perform</text>
<text text-anchor="start" x="405.4506" y="-109.3" font-family="Times,serif" font-size="14.00" fill="#000000">show</text>
<text text-anchor="start" x="405.4506" y="-95.3" font-family="Times,serif" font-size="14.00" fill="#000000">check_valid</text>
<polyline fill="none" stroke="#000000" points="397.4506,-88.5 509.0991,-88.5 "/>
<polyline fill="none" stroke="#000000" points="397.4506,-64.5 509.0991,-64.5 "/>
<text text-anchor="start" x="405.4506" y="-49.3" font-family="Times,serif" font-size="14.00" fill="#000000">_layout</text>
<text text-anchor="start" x="405.4506" y="-35.3" font-family="Times,serif" font-size="14.00" fill="#000000">event_params</text>
<text text-anchor="start" x="405.4506" y="-21.3" font-family="Times,serif" font-size="14.00" fill="#000000">load_event</text>
<text text-anchor="start" x="405.4506" y="-7.3" font-family="Times,serif" font-size="14.00" fill="#000000">load_selectors</text>
</g>
<!-- ApplicationController&#45;&gt;EventsController -->
<g id="edge2" class="edge">
<title>ApplicationController&#45;&gt;EventsController</title>
<path fill="none" stroke="#000000" d="M513.273,-624.8224C520.9721,-607.3279 527.6935,-588.8353 531.88,-570.6914 555.5018,-468.3146 550.4515,-437.7037 531.88,-334.2914 526.5419,-304.5674 517.3037,-273.5636 506.9944,-244.739"/>
</g>
<!-- ChatroomsController -->
<g id="node5" class="node">
<title>ChatroomsController</title>
<path fill="none" stroke="#000000" d="M22.263,-1199.2824C22.263,-1199.2824 133.2494,-1199.2824 133.2494,-1199.2824 139.2494,-1199.2824 145.2494,-1205.2824 145.2494,-1211.2824 145.2494,-1211.2824 145.2494,-1333.2824 145.2494,-1333.2824 145.2494,-1339.2824 139.2494,-1345.2824 133.2494,-1345.2824 133.2494,-1345.2824 22.263,-1345.2824 22.263,-1345.2824 16.263,-1345.2824 10.263,-1339.2824 10.263,-1333.2824 10.263,-1333.2824 10.263,-1211.2824 10.263,-1211.2824 10.263,-1205.2824 16.263,-1199.2824 22.263,-1199.2824"/>
<text text-anchor="middle" x="77.7562" y="-1330.0824" font-family="Times,serif" font-size="14.00" fill="#000000">ChatroomsController</text>
<polyline fill="none" stroke="#000000" points="10.263,-1323.2824 145.2494,-1323.2824 "/>
<text text-anchor="start" x="18.263" y="-1308.0824" font-family="Times,serif" font-size="14.00" fill="#000000">destroy</text>
<text text-anchor="start" x="18.263" y="-1294.0824" font-family="Times,serif" font-size="14.00" fill="#000000">edit</text>
<text text-anchor="start" x="18.263" y="-1280.0824" font-family="Times,serif" font-size="14.00" fill="#000000">index</text>
<text text-anchor="start" x="18.263" y="-1266.0824" font-family="Times,serif" font-size="14.00" fill="#000000">show</text>
<text text-anchor="start" x="18.263" y="-1252.0824" font-family="Times,serif" font-size="14.00" fill="#000000">update</text>
<polyline fill="none" stroke="#000000" points="10.263,-1245.2824 145.2494,-1245.2824 "/>
<polyline fill="none" stroke="#000000" points="10.263,-1221.2824 145.2494,-1221.2824 "/>
<text text-anchor="start" x="18.263" y="-1206.0824" font-family="Times,serif" font-size="14.00" fill="#000000">_layout</text>
</g>
<!-- ApplicationController&#45;&gt;ChatroomsController -->
<g id="edge3" class="edge">
<title>ApplicationController&#45;&gt;ChatroomsController</title>
<path fill="none" stroke="#000000" d="M394.5949,-813.185C319.341,-922.2275 196.9673,-1099.5462 128.4127,-1198.8815"/>
</g>
<!-- TinymceAssetsController -->
<g id="node6" class="node">
<title>TinymceAssetsController</title>
<path fill="none" stroke="#000000" d="M400.7114,-941.5755C400.7114,-941.5755 536.0883,-941.5755 536.0883,-941.5755 542.0883,-941.5755 548.0883,-947.5755 548.0883,-953.5755 548.0883,-953.5755 548.0883,-1019.5755 548.0883,-1019.5755 548.0883,-1025.5755 542.0883,-1031.5755 536.0883,-1031.5755 536.0883,-1031.5755 400.7114,-1031.5755 400.7114,-1031.5755 394.7114,-1031.5755 388.7114,-1025.5755 388.7114,-1019.5755 388.7114,-1019.5755 388.7114,-953.5755 388.7114,-953.5755 388.7114,-947.5755 394.7114,-941.5755 400.7114,-941.5755"/>
<text text-anchor="middle" x="468.3999" y="-1016.3755" font-family="Times,serif" font-size="14.00" fill="#000000">TinymceAssetsController</text>
<polyline fill="none" stroke="#000000" points="388.7114,-1009.5755 548.0883,-1009.5755 "/>
<text text-anchor="start" x="396.7114" y="-994.3755" font-family="Times,serif" font-size="14.00" fill="#000000">create</text>
<polyline fill="none" stroke="#000000" points="388.7114,-987.5755 548.0883,-987.5755 "/>
<polyline fill="none" stroke="#000000" points="388.7114,-963.5755 548.0883,-963.5755 "/>
<text text-anchor="start" x="396.7114" y="-948.3755" font-family="Times,serif" font-size="14.00" fill="#000000">_layout</text>
</g>
<!-- ApplicationController&#45;&gt;TinymceAssetsController -->
<g id="edge4" class="edge">
<title>ApplicationController&#45;&gt;TinymceAssetsController</title>
<path fill="none" stroke="#000000" d="M462.6914,-813.3487C464.1243,-856.8293 465.7583,-906.4157 466.9099,-941.3618"/>
</g>
<!-- MapsController -->
<g id="node7" class="node">
<title>MapsController</title>
<path fill="none" stroke="#000000" d="M39.3335,-843.9154C39.3335,-843.9154 119.9888,-843.9154 119.9888,-843.9154 125.9888,-843.9154 131.9888,-849.9154 131.9888,-855.9154 131.9888,-855.9154 131.9888,-921.9154 131.9888,-921.9154 131.9888,-927.9154 125.9888,-933.9154 119.9888,-933.9154 119.9888,-933.9154 39.3335,-933.9154 39.3335,-933.9154 33.3335,-933.9154 27.3335,-927.9154 27.3335,-921.9154 27.3335,-921.9154 27.3335,-855.9154 27.3335,-855.9154 27.3335,-849.9154 33.3335,-843.9154 39.3335,-843.9154"/>
<text text-anchor="middle" x="79.6611" y="-918.7154" font-family="Times,serif" font-size="14.00" fill="#000000">MapsController</text>
<polyline fill="none" stroke="#000000" points="27.3335,-911.9154 131.9888,-911.9154 "/>
<text text-anchor="start" x="35.3335" y="-896.7154" font-family="Times,serif" font-size="14.00" fill="#000000">index</text>
<polyline fill="none" stroke="#000000" points="27.3335,-889.9154 131.9888,-889.9154 "/>
<polyline fill="none" stroke="#000000" points="27.3335,-865.9154 131.9888,-865.9154 "/>
<text text-anchor="start" x="35.3335" y="-850.7154" font-family="Times,serif" font-size="14.00" fill="#000000">_layout</text>
</g>
<!-- ApplicationController&#45;&gt;MapsController -->
<g id="edge5" class="edge">
<title>ApplicationController&#45;&gt;MapsController</title>
<path fill="none" stroke="#000000" d="M360.2592,-763.4345C287.1563,-796.1254 190.6625,-839.2766 131.9888,-865.5149"/>
</g>
<!-- NotificationsController -->
<g id="node8" class="node">
<title>NotificationsController</title>
<path fill="none" stroke="#000000" d="M12,-126.1402C12,-126.1402 133.876,-126.1402 133.876,-126.1402 139.876,-126.1402 145.876,-132.1402 145.876,-138.1402 145.876,-138.1402 145.876,-204.1402 145.876,-204.1402 145.876,-210.1402 139.876,-216.1402 133.876,-216.1402 133.876,-216.1402 12,-216.1402 12,-216.1402 6,-216.1402 0,-210.1402 0,-204.1402 0,-204.1402 0,-138.1402 0,-138.1402 0,-132.1402 6,-126.1402 12,-126.1402"/>
<text text-anchor="middle" x="72.938" y="-200.9402" font-family="Times,serif" font-size="14.00" fill="#000000">NotificationsController</text>
<polyline fill="none" stroke="#000000" points="0,-194.1402 145.876,-194.1402 "/>
<text text-anchor="start" x="8" y="-178.9402" font-family="Times,serif" font-size="14.00" fill="#000000">index</text>
<polyline fill="none" stroke="#000000" points="0,-172.1402 145.876,-172.1402 "/>
<polyline fill="none" stroke="#000000" points="0,-148.1402 145.876,-148.1402 "/>
<text text-anchor="start" x="8" y="-132.9402" font-family="Times,serif" font-size="14.00" fill="#000000">_layout</text>
</g>
<!-- ApplicationController&#45;&gt;NotificationsController -->
<g id="edge6" class="edge">
<title>ApplicationController&#45;&gt;NotificationsController</title>
<path fill="none" stroke="#000000" d="M393.1163,-624.8343C309.0181,-505.6669 167.5776,-305.2451 104.7103,-216.1618"/>
</g>
<!-- BuildingsController -->
<g id="node9" class="node">
<title>BuildingsController</title>
<path fill="none" stroke="#000000" d="M731.9537,-486.3774C731.9537,-486.3774 835.9537,-486.3774 835.9537,-486.3774 841.9537,-486.3774 847.9537,-492.3774 847.9537,-498.3774 847.9537,-498.3774 847.9537,-578.3774 847.9537,-578.3774 847.9537,-584.3774 841.9537,-590.3774 835.9537,-590.3774 835.9537,-590.3774 731.9537,-590.3774 731.9537,-590.3774 725.9537,-590.3774 719.9537,-584.3774 719.9537,-578.3774 719.9537,-578.3774 719.9537,-498.3774 719.9537,-498.3774 719.9537,-492.3774 725.9537,-486.3774 731.9537,-486.3774"/>
<text text-anchor="middle" x="783.9537" y="-575.1774" font-family="Times,serif" font-size="14.00" fill="#000000">BuildingsController</text>
<polyline fill="none" stroke="#000000" points="719.9537,-568.3774 847.9537,-568.3774 "/>
<text text-anchor="start" x="727.9537" y="-553.1774" font-family="Times,serif" font-size="14.00" fill="#000000">show</text>
<polyline fill="none" stroke="#000000" points="719.9537,-546.3774 847.9537,-546.3774 "/>
<polyline fill="none" stroke="#000000" points="719.9537,-522.3774 847.9537,-522.3774 "/>
<text text-anchor="start" x="727.9537" y="-507.1774" font-family="Times,serif" font-size="14.00" fill="#000000">_layout</text>
<text text-anchor="start" x="727.9537" y="-493.1774" font-family="Times,serif" font-size="14.00" fill="#000000">set_building</text>
</g>
<!-- ApplicationController&#45;&gt;BuildingsController -->
<g id="edge7" class="edge">
<title>ApplicationController&#45;&gt;BuildingsController</title>
<path fill="none" stroke="#000000" d="M558.6674,-663.8382C611.0209,-634.6828 673.7673,-599.7397 719.7292,-574.1437"/>
</g>
<!-- UsersController -->
<g id="node10" class="node">
<title>UsersController</title>
<path fill="none" stroke="#000000" d="M387.8382,-337.4914C387.8382,-337.4914 516.68,-337.4914 516.68,-337.4914 522.68,-337.4914 528.68,-343.4914 528.68,-349.4914 528.68,-349.4914 528.68,-555.4914 528.68,-555.4914 528.68,-561.4914 522.68,-567.4914 516.68,-567.4914 516.68,-567.4914 387.8382,-567.4914 387.8382,-567.4914 381.8382,-567.4914 375.8382,-561.4914 375.8382,-555.4914 375.8382,-555.4914 375.8382,-349.4914 375.8382,-349.4914 375.8382,-343.4914 381.8382,-337.4914 387.8382,-337.4914"/>
<text text-anchor="middle" x="452.2591" y="-552.2914" font-family="Times,serif" font-size="14.00" fill="#000000">UsersController</text>
<polyline fill="none" stroke="#000000" points="375.8382,-545.4914 528.68,-545.4914 "/>
<text text-anchor="start" x="383.8382" y="-530.2914" font-family="Times,serif" font-size="14.00" fill="#000000">token</text>
<text text-anchor="start" x="383.8382" y="-516.2914" font-family="Times,serif" font-size="14.00" fill="#000000">confirm_email</text>
<text text-anchor="start" x="383.8382" y="-502.2914" font-family="Times,serif" font-size="14.00" fill="#000000">edit</text>
<text text-anchor="start" x="383.8382" y="-488.2914" font-family="Times,serif" font-size="14.00" fill="#000000">mypage</text>
<text text-anchor="start" x="383.8382" y="-474.2914" font-family="Times,serif" font-size="14.00" fill="#000000">reported_user</text>
<text text-anchor="start" x="383.8382" y="-460.2914" font-family="Times,serif" font-size="14.00" fill="#000000">select_certification</text>
<text text-anchor="start" x="383.8382" y="-446.2914" font-family="Times,serif" font-size="14.00" fill="#000000">submit_student_card</text>
<text text-anchor="start" x="383.8382" y="-432.2914" font-family="Times,serif" font-size="14.00" fill="#000000">submit_student_email</text>
<text text-anchor="start" x="383.8382" y="-418.2914" font-family="Times,serif" font-size="14.00" fill="#000000">check_email</text>
<polyline fill="none" stroke="#000000" points="375.8382,-411.4914 528.68,-411.4914 "/>
<polyline fill="none" stroke="#000000" points="375.8382,-387.4914 528.68,-387.4914 "/>
<text text-anchor="start" x="383.8382" y="-372.2914" font-family="Times,serif" font-size="14.00" fill="#000000">_layout</text>
<text text-anchor="start" x="383.8382" y="-358.2914" font-family="Times,serif" font-size="14.00" fill="#000000">get_student_card_image</text>
<text text-anchor="start" x="383.8382" y="-344.2914" font-family="Times,serif" font-size="14.00" fill="#000000">user_params</text>
</g>
<!-- ApplicationController&#45;&gt;UsersController -->
<g id="edge8" class="edge">
<title>ApplicationController&#45;&gt;UsersController</title>
<path fill="none" stroke="#000000" d="M456.9905,-624.6755C456.4844,-606.2564 455.9483,-586.7499 455.426,-567.7415"/>
</g>
<!-- ReportsController -->
<g id="node11" class="node">
<title>ReportsController</title>
<path fill="none" stroke="#000000" d="M736.3773,-89.6584C736.3773,-89.6584 829.474,-89.6584 829.474,-89.6584 835.474,-89.6584 841.474,-95.6584 841.474,-101.6584 841.474,-101.6584 841.474,-223.6584 841.474,-223.6584 841.474,-229.6584 835.474,-235.6584 829.474,-235.6584 829.474,-235.6584 736.3773,-235.6584 736.3773,-235.6584 730.3773,-235.6584 724.3773,-229.6584 724.3773,-223.6584 724.3773,-223.6584 724.3773,-101.6584 724.3773,-101.6584 724.3773,-95.6584 730.3773,-89.6584 736.3773,-89.6584"/>
<text text-anchor="middle" x="782.9257" y="-220.4584" font-family="Times,serif" font-size="14.00" fill="#000000">ReportsController</text>
<polyline fill="none" stroke="#000000" points="724.3773,-213.6584 841.474,-213.6584 "/>
<text text-anchor="start" x="732.3773" y="-198.4584" font-family="Times,serif" font-size="14.00" fill="#000000">check_valid</text>
<text text-anchor="start" x="732.3773" y="-184.4584" font-family="Times,serif" font-size="14.00" fill="#000000">create</text>
<text text-anchor="start" x="732.3773" y="-170.4584" font-family="Times,serif" font-size="14.00" fill="#000000">new</text>
<polyline fill="none" stroke="#000000" points="724.3773,-163.6584 841.474,-163.6584 "/>
<polyline fill="none" stroke="#000000" points="724.3773,-139.6584 841.474,-139.6584 "/>
<text text-anchor="start" x="732.3773" y="-124.4584" font-family="Times,serif" font-size="14.00" fill="#000000">_layout</text>
<text text-anchor="start" x="732.3773" y="-110.4584" font-family="Times,serif" font-size="14.00" fill="#000000">find_event</text>
<text text-anchor="start" x="732.3773" y="-96.4584" font-family="Times,serif" font-size="14.00" fill="#000000">report_params</text>
</g>
<!-- ApplicationController&#45;&gt;ReportsController -->
<g id="edge9" class="edge">
<title>ApplicationController&#45;&gt;ReportsController</title>
<path fill="none" stroke="#000000" d="M514.2507,-624.9538C578.089,-515.1105 682.3274,-335.7528 740.4175,-235.8"/>
</g>
<!-- DeviseController -->
<g id="node23" class="node">
<title>DeviseController</title>
<path fill="none" stroke="#000000" d="M704.5634,-677.4702C704.5634,-677.4702 875.4393,-677.4702 875.4393,-677.4702 881.4393,-677.4702 887.4393,-683.4702 887.4393,-689.4702 887.4393,-689.4702 887.4393,-1033.4702 887.4393,-1033.4702 887.4393,-1039.4702 881.4393,-1045.4702 875.4393,-1045.4702 875.4393,-1045.4702 704.5634,-1045.4702 704.5634,-1045.4702 698.5634,-1045.4702 692.5634,-1039.4702 692.5634,-1033.4702 692.5634,-1033.4702 692.5634,-689.4702 692.5634,-689.4702 692.5634,-683.4702 698.5634,-677.4702 704.5634,-677.4702"/>
<text text-anchor="middle" x="790.0013" y="-1030.2702" font-family="Times,serif" font-size="14.00" fill="#000000">DeviseController</text>
<polyline fill="none" stroke="#000000" points="692.5634,-1023.4702 887.4393,-1023.4702 "/>
<text text-anchor="start" x="700.5634" y="-1008.2702" font-family="Times,serif" font-size="14.00" fill="#000000">_prefixes</text>
<polyline fill="none" stroke="#000000" points="692.5634,-1001.4702 887.4393,-1001.4702 "/>
<text text-anchor="start" x="700.5634" y="-986.2702" font-family="Times,serif" font-size="14.00" fill="#000000">unknown_action!</text>
<text text-anchor="start" x="700.5634" y="-972.2702" font-family="Times,serif" font-size="14.00" fill="#000000">clean_up_passwords</text>
<text text-anchor="start" x="700.5634" y="-958.2702" font-family="Times,serif" font-size="14.00" fill="#000000">devise_i18n_options</text>
<text text-anchor="start" x="700.5634" y="-944.2702" font-family="Times,serif" font-size="14.00" fill="#000000">devise_mapping</text>
<text text-anchor="start" x="700.5634" y="-930.2702" font-family="Times,serif" font-size="14.00" fill="#000000">find_message</text>
<text text-anchor="start" x="700.5634" y="-916.2702" font-family="Times,serif" font-size="14.00" fill="#000000">navigational_formats</text>
<text text-anchor="start" x="700.5634" y="-902.2702" font-family="Times,serif" font-size="14.00" fill="#000000">require_no_authentication</text>
<text text-anchor="start" x="700.5634" y="-888.2702" font-family="Times,serif" font-size="14.00" fill="#000000">resource</text>
<text text-anchor="start" x="700.5634" y="-874.2702" font-family="Times,serif" font-size="14.00" fill="#000000">resource=</text>
<text text-anchor="start" x="700.5634" y="-860.2702" font-family="Times,serif" font-size="14.00" fill="#000000">resource_class</text>
<text text-anchor="start" x="700.5634" y="-846.2702" font-family="Times,serif" font-size="14.00" fill="#000000">resource_name</text>
<text text-anchor="start" x="700.5634" y="-832.2702" font-family="Times,serif" font-size="14.00" fill="#000000">resource_params</text>
<text text-anchor="start" x="700.5634" y="-818.2702" font-family="Times,serif" font-size="14.00" fill="#000000">respond_with_navigational</text>
<text text-anchor="start" x="700.5634" y="-804.2702" font-family="Times,serif" font-size="14.00" fill="#000000">scope_name</text>
<text text-anchor="start" x="700.5634" y="-790.2702" font-family="Times,serif" font-size="14.00" fill="#000000">set_flash_message</text>
<text text-anchor="start" x="700.5634" y="-776.2702" font-family="Times,serif" font-size="14.00" fill="#000000">set_flash_message!</text>
<text text-anchor="start" x="700.5634" y="-762.2702" font-family="Times,serif" font-size="14.00" fill="#000000">set_minimum_password_length</text>
<text text-anchor="start" x="700.5634" y="-748.2702" font-family="Times,serif" font-size="14.00" fill="#000000">signed_in_resource</text>
<text text-anchor="start" x="700.5634" y="-734.2702" font-family="Times,serif" font-size="14.00" fill="#000000">successfully_sent?</text>
<text text-anchor="start" x="700.5634" y="-720.2702" font-family="Times,serif" font-size="14.00" fill="#000000">translation_scope</text>
<text text-anchor="start" x="700.5634" y="-706.2702" font-family="Times,serif" font-size="14.00" fill="#000000">assert_is_devise_resource!</text>
<polyline fill="none" stroke="#000000" points="692.5634,-699.4702 887.4393,-699.4702 "/>
<text text-anchor="start" x="700.5634" y="-684.2702" font-family="Times,serif" font-size="14.00" fill="#000000">_layout</text>
</g>
<!-- ApplicationController&#45;&gt;DeviseController -->
<g id="edge16" class="edge">
<title>ApplicationController&#45;&gt;DeviseController</title>
<path fill="none" stroke="#000000" d="M558.7193,-761.7582C601.0147,-779.9929 650.2273,-801.2098 692.3577,-819.3734"/>
</g>
<!-- ActiveStorage::DirectUploadsController -->
<g id="node12" class="node">
<title>ActiveStorage::DirectUploadsController</title>
<path fill="none" stroke="#000000" d="M1323,-798.5C1323,-798.5 1542.0488,-798.5 1542.0488,-798.5 1548.0488,-798.5 1554.0488,-804.5 1554.0488,-810.5 1554.0488,-810.5 1554.0488,-904.5 1554.0488,-904.5 1554.0488,-910.5 1548.0488,-916.5 1542.0488,-916.5 1542.0488,-916.5 1323,-916.5 1323,-916.5 1317,-916.5 1311,-910.5 1311,-904.5 1311,-904.5 1311,-810.5 1311,-810.5 1311,-804.5 1317,-798.5 1323,-798.5"/>
<text text-anchor="middle" x="1432.5244" y="-901.3" font-family="Times,serif" font-size="14.00" fill="#000000">ActiveStorage::DirectUploadsController</text>
<polyline fill="none" stroke="#000000" points="1311,-894.5 1554.0488,-894.5 "/>
<text text-anchor="start" x="1319" y="-879.3" font-family="Times,serif" font-size="14.00" fill="#000000">create</text>
<polyline fill="none" stroke="#000000" points="1311,-872.5 1554.0488,-872.5 "/>
<polyline fill="none" stroke="#000000" points="1311,-848.5 1554.0488,-848.5 "/>
<text text-anchor="start" x="1319" y="-833.3" font-family="Times,serif" font-size="14.00" fill="#000000">_layout</text>
<text text-anchor="start" x="1319" y="-819.3" font-family="Times,serif" font-size="14.00" fill="#000000">blob_args</text>
<text text-anchor="start" x="1319" y="-805.3" font-family="Times,serif" font-size="14.00" fill="#000000">direct_upload_json</text>
</g>
<!-- ActiveStorage::BaseController -->
<g id="node13" class="node">
<title>ActiveStorage::BaseController</title>
<path fill="none" stroke="#000000" d="M753,-1425.5C753,-1425.5 917.6211,-1425.5 917.6211,-1425.5 923.6211,-1425.5 929.6211,-1431.5 929.6211,-1437.5 929.6211,-1437.5 929.6211,-1505.5 929.6211,-1505.5 929.6211,-1511.5 923.6211,-1517.5 917.6211,-1517.5 917.6211,-1517.5 753,-1517.5 753,-1517.5 747,-1517.5 741,-1511.5 741,-1505.5 741,-1505.5 741,-1437.5 741,-1437.5 741,-1431.5 747,-1425.5 753,-1425.5"/>
<text text-anchor="middle" x="835.3105" y="-1502.3" font-family="Times,serif" font-size="14.00" fill="#000000">ActiveStorage::BaseController</text>
<polyline fill="none" stroke="#000000" points="741,-1495.5 929.6211,-1495.5 "/>
<polyline fill="none" stroke="#000000" points="741,-1471.5 929.6211,-1471.5 "/>
<polyline fill="none" stroke="#000000" points="741,-1447.5 929.6211,-1447.5 "/>
<text text-anchor="start" x="749" y="-1432.3" font-family="Times,serif" font-size="14.00" fill="#000000">_layout</text>
</g>
<!-- ActiveStorage::BlobsController -->
<g id="node14" class="node">
<title>ActiveStorage::BlobsController</title>
<path fill="none" stroke="#000000" d="M69,-1425.5C69,-1425.5 239.083,-1425.5 239.083,-1425.5 245.083,-1425.5 251.083,-1431.5 251.083,-1437.5 251.083,-1437.5 251.083,-1503.5 251.083,-1503.5 251.083,-1509.5 245.083,-1515.5 239.083,-1515.5 239.083,-1515.5 69,-1515.5 69,-1515.5 63,-1515.5 57,-1509.5 57,-1503.5 57,-1503.5 57,-1437.5 57,-1437.5 57,-1431.5 63,-1425.5 69,-1425.5"/>
<text text-anchor="middle" x="154.0415" y="-1500.3" font-family="Times,serif" font-size="14.00" fill="#000000">ActiveStorage::BlobsController</text>
<polyline fill="none" stroke="#000000" points="57,-1493.5 251.083,-1493.5 "/>
<text text-anchor="start" x="65" y="-1478.3" font-family="Times,serif" font-size="14.00" fill="#000000">show</text>
<polyline fill="none" stroke="#000000" points="57,-1471.5 251.083,-1471.5 "/>
<polyline fill="none" stroke="#000000" points="57,-1447.5 251.083,-1447.5 "/>
<text text-anchor="start" x="65" y="-1432.3" font-family="Times,serif" font-size="14.00" fill="#000000">_layout</text>
</g>
<!-- ActiveStorage::RepresentationsController -->
<g id="node15" class="node">
<title>ActiveStorage::RepresentationsController</title>
<path fill="none" stroke="#000000" d="M1152,-1083.5C1152,-1083.5 1378.8281,-1083.5 1378.8281,-1083.5 1384.8281,-1083.5 1390.8281,-1089.5 1390.8281,-1095.5 1390.8281,-1095.5 1390.8281,-1161.5 1390.8281,-1161.5 1390.8281,-1167.5 1384.8281,-1173.5 1378.8281,-1173.5 1378.8281,-1173.5 1152,-1173.5 1152,-1173.5 1146,-1173.5 1140,-1167.5 1140,-1161.5 1140,-1161.5 1140,-1095.5 1140,-1095.5 1140,-1089.5 1146,-1083.5 1152,-1083.5"/>
<text text-anchor="middle" x="1265.4141" y="-1158.3" font-family="Times,serif" font-size="14.00" fill="#000000">ActiveStorage::RepresentationsController</text>
<polyline fill="none" stroke="#000000" points="1140,-1151.5 1390.8281,-1151.5 "/>
<text text-anchor="start" x="1148" y="-1136.3" font-family="Times,serif" font-size="14.00" fill="#000000">show</text>
<polyline fill="none" stroke="#000000" points="1140,-1129.5 1390.8281,-1129.5 "/>
<polyline fill="none" stroke="#000000" points="1140,-1105.5 1390.8281,-1105.5 "/>
<text text-anchor="start" x="1148" y="-1090.3" font-family="Times,serif" font-size="14.00" fill="#000000">_layout</text>
</g>
<!-- ActiveStorage::DiskController -->
<g id="node16" class="node">
<title>ActiveStorage::DiskController</title>
<path fill="none" stroke="#000000" d="M1323,-1425.5C1323,-1425.5 1486.8555,-1425.5 1486.8555,-1425.5 1492.8555,-1425.5 1498.8555,-1431.5 1498.8555,-1437.5 1498.8555,-1437.5 1498.8555,-1587.5 1498.8555,-1587.5 1498.8555,-1593.5 1492.8555,-1599.5 1486.8555,-1599.5 1486.8555,-1599.5 1323,-1599.5 1323,-1599.5 1317,-1599.5 1311,-1593.5 1311,-1587.5 1311,-1587.5 1311,-1437.5 1311,-1437.5 1311,-1431.5 1317,-1425.5 1323,-1425.5"/>
<text text-anchor="middle" x="1404.9277" y="-1584.3" font-family="Times,serif" font-size="14.00" fill="#000000">ActiveStorage::DiskController</text>
<polyline fill="none" stroke="#000000" points="1311,-1577.5 1498.8555,-1577.5 "/>
<text text-anchor="start" x="1319" y="-1562.3" font-family="Times,serif" font-size="14.00" fill="#000000">show</text>
<text text-anchor="start" x="1319" y="-1548.3" font-family="Times,serif" font-size="14.00" fill="#000000">update</text>
<polyline fill="none" stroke="#000000" points="1311,-1541.5 1498.8555,-1541.5 "/>
<polyline fill="none" stroke="#000000" points="1311,-1517.5 1498.8555,-1517.5 "/>
<text text-anchor="start" x="1319" y="-1502.3" font-family="Times,serif" font-size="14.00" fill="#000000">_layout</text>
<text text-anchor="start" x="1319" y="-1488.3" font-family="Times,serif" font-size="14.00" fill="#000000">acceptable_content?</text>
<text text-anchor="start" x="1319" y="-1474.3" font-family="Times,serif" font-size="14.00" fill="#000000">decode_verified_key</text>
<text text-anchor="start" x="1319" y="-1460.3" font-family="Times,serif" font-size="14.00" fill="#000000">decode_verified_token</text>
<text text-anchor="start" x="1319" y="-1446.3" font-family="Times,serif" font-size="14.00" fill="#000000">disk_service</text>
<text text-anchor="start" x="1319" y="-1432.3" font-family="Times,serif" font-size="14.00" fill="#000000">serve_file</text>
</g>
<!-- Devise::OmniauthCallbacksController -->
<g id="node17" class="node">
<title>Devise::OmniauthCallbacksController</title>
<path fill="none" stroke="#000000" d="M1053.0207,-96.6882C1053.0207,-96.6882 1260.4211,-96.6882 1260.4211,-96.6882 1266.4211,-96.6882 1272.4211,-102.6882 1272.4211,-108.6882 1272.4211,-108.6882 1272.4211,-228.6882 1272.4211,-228.6882 1272.4211,-234.6882 1266.4211,-240.6882 1260.4211,-240.6882 1260.4211,-240.6882 1053.0207,-240.6882 1053.0207,-240.6882 1047.0207,-240.6882 1041.0207,-234.6882 1041.0207,-228.6882 1041.0207,-228.6882 1041.0207,-108.6882 1041.0207,-108.6882 1041.0207,-102.6882 1047.0207,-96.6882 1053.0207,-96.6882"/>
<text text-anchor="middle" x="1156.7209" y="-225.4882" font-family="Times,serif" font-size="14.00" fill="#000000">Devise::OmniauthCallbacksController</text>
<polyline fill="none" stroke="#000000" points="1041.0207,-218.6882 1272.4211,-218.6882 "/>
<text text-anchor="start" x="1049.0207" y="-203.4882" font-family="Times,serif" font-size="14.00" fill="#000000">failure</text>
<text text-anchor="start" x="1049.0207" y="-189.4882" font-family="Times,serif" font-size="14.00" fill="#000000">passthru</text>
<polyline fill="none" stroke="#000000" points="1041.0207,-182.6882 1272.4211,-182.6882 "/>
<text text-anchor="start" x="1049.0207" y="-167.4882" font-family="Times,serif" font-size="14.00" fill="#000000">after_omniauth_failure_path_for</text>
<text text-anchor="start" x="1049.0207" y="-153.4882" font-family="Times,serif" font-size="14.00" fill="#000000">failed_strategy</text>
<text text-anchor="start" x="1049.0207" y="-139.4882" font-family="Times,serif" font-size="14.00" fill="#000000">failure_message</text>
<text text-anchor="start" x="1049.0207" y="-125.4882" font-family="Times,serif" font-size="14.00" fill="#000000">translation_scope</text>
<polyline fill="none" stroke="#000000" points="1041.0207,-118.6882 1272.4211,-118.6882 "/>
<text text-anchor="start" x="1049.0207" y="-103.4882" font-family="Times,serif" font-size="14.00" fill="#000000">_layout</text>
</g>
<!-- Devise::PasswordsController -->
<g id="node18" class="node">
<title>Devise::PasswordsController</title>
<path fill="none" stroke="#000000" d="M321.7968,-1226.0919C321.7968,-1226.0919 610.0595,-1226.0919 610.0595,-1226.0919 616.0595,-1226.0919 622.0595,-1232.0919 622.0595,-1238.0919 622.0595,-1238.0919 622.0595,-1400.0919 622.0595,-1400.0919 622.0595,-1406.0919 616.0595,-1412.0919 610.0595,-1412.0919 610.0595,-1412.0919 321.7968,-1412.0919 321.7968,-1412.0919 315.7968,-1412.0919 309.7968,-1406.0919 309.7968,-1400.0919 309.7968,-1400.0919 309.7968,-1238.0919 309.7968,-1238.0919 309.7968,-1232.0919 315.7968,-1226.0919 321.7968,-1226.0919"/>
<text text-anchor="middle" x="465.9281" y="-1396.8919" font-family="Times,serif" font-size="14.00" fill="#000000">Devise::PasswordsController</text>
<polyline fill="none" stroke="#000000" points="309.7968,-1390.0919 622.0595,-1390.0919 "/>
<text text-anchor="start" x="317.7968" y="-1374.8919" font-family="Times,serif" font-size="14.00" fill="#000000">create</text>
<text text-anchor="start" x="317.7968" y="-1360.8919" font-family="Times,serif" font-size="14.00" fill="#000000">edit</text>
<text text-anchor="start" x="317.7968" y="-1346.8919" font-family="Times,serif" font-size="14.00" fill="#000000">new</text>
<text text-anchor="start" x="317.7968" y="-1332.8919" font-family="Times,serif" font-size="14.00" fill="#000000">update</text>
<polyline fill="none" stroke="#000000" points="309.7968,-1326.0919 622.0595,-1326.0919 "/>
<text text-anchor="start" x="317.7968" y="-1310.8919" font-family="Times,serif" font-size="14.00" fill="#000000">after_resetting_password_path_for</text>
<text text-anchor="start" x="317.7968" y="-1296.8919" font-family="Times,serif" font-size="14.00" fill="#000000">after_sending_reset_password_instructions_path_for</text>
<text text-anchor="start" x="317.7968" y="-1282.8919" font-family="Times,serif" font-size="14.00" fill="#000000">assert_reset_token_passed</text>
<text text-anchor="start" x="317.7968" y="-1268.8919" font-family="Times,serif" font-size="14.00" fill="#000000">translation_scope</text>
<text text-anchor="start" x="317.7968" y="-1254.8919" font-family="Times,serif" font-size="14.00" fill="#000000">unlockable?</text>
<polyline fill="none" stroke="#000000" points="309.7968,-1248.0919 622.0595,-1248.0919 "/>
<text text-anchor="start" x="317.7968" y="-1232.8919" font-family="Times,serif" font-size="14.00" fill="#000000">_layout</text>
</g>
<!-- Devise::SessionsController -->
<g id="node19" class="node">
<title>Devise::SessionsController</title>
<path fill="none" stroke="#000000" d="M1085.8741,-796.7417C1085.8741,-796.7417 1230.3087,-796.7417 1230.3087,-796.7417 1236.3087,-796.7417 1242.3087,-802.7417 1242.3087,-808.7417 1242.3087,-808.7417 1242.3087,-984.7417 1242.3087,-984.7417 1242.3087,-990.7417 1236.3087,-996.7417 1230.3087,-996.7417 1230.3087,-996.7417 1085.8741,-996.7417 1085.8741,-996.7417 1079.8741,-996.7417 1073.8741,-990.7417 1073.8741,-984.7417 1073.8741,-984.7417 1073.8741,-808.7417 1073.8741,-808.7417 1073.8741,-802.7417 1079.8741,-796.7417 1085.8741,-796.7417"/>
<text text-anchor="middle" x="1158.0914" y="-981.5417" font-family="Times,serif" font-size="14.00" fill="#000000">Devise::SessionsController</text>
<polyline fill="none" stroke="#000000" points="1073.8741,-974.7417 1242.3087,-974.7417 "/>
<text text-anchor="start" x="1081.8741" y="-959.5417" font-family="Times,serif" font-size="14.00" fill="#000000">create</text>
<text text-anchor="start" x="1081.8741" y="-945.5417" font-family="Times,serif" font-size="14.00" fill="#000000">destroy</text>
<text text-anchor="start" x="1081.8741" y="-931.5417" font-family="Times,serif" font-size="14.00" fill="#000000">new</text>
<polyline fill="none" stroke="#000000" points="1073.8741,-924.7417 1242.3087,-924.7417 "/>
<text text-anchor="start" x="1081.8741" y="-909.5417" font-family="Times,serif" font-size="14.00" fill="#000000">auth_options</text>
<text text-anchor="start" x="1081.8741" y="-895.5417" font-family="Times,serif" font-size="14.00" fill="#000000">serialize_options</text>
<text text-anchor="start" x="1081.8741" y="-881.5417" font-family="Times,serif" font-size="14.00" fill="#000000">sign_in_params</text>
<text text-anchor="start" x="1081.8741" y="-867.5417" font-family="Times,serif" font-size="14.00" fill="#000000">translation_scope</text>
<polyline fill="none" stroke="#000000" points="1073.8741,-860.7417 1242.3087,-860.7417 "/>
<text text-anchor="start" x="1081.8741" y="-845.5417" font-family="Times,serif" font-size="14.00" fill="#000000">_layout</text>
<text text-anchor="start" x="1081.8741" y="-831.5417" font-family="Times,serif" font-size="14.00" fill="#000000">all_signed_out?</text>
<text text-anchor="start" x="1081.8741" y="-817.5417" font-family="Times,serif" font-size="14.00" fill="#000000">respond_to_on_destroy</text>
<text text-anchor="start" x="1081.8741" y="-803.5417" font-family="Times,serif" font-size="14.00" fill="#000000">verify_signed_out_user</text>
</g>
<!-- Devise::UnlocksController -->
<g id="node20" class="node">
<title>Devise::UnlocksController</title>
<path fill="none" stroke="#000000" d="M1036.2427,-1209.4568C1036.2427,-1209.4568 1276.2983,-1209.4568 1276.2983,-1209.4568 1282.2983,-1209.4568 1288.2983,-1215.4568 1288.2983,-1221.4568 1288.2983,-1221.4568 1288.2983,-1341.4568 1288.2983,-1341.4568 1288.2983,-1347.4568 1282.2983,-1353.4568 1276.2983,-1353.4568 1276.2983,-1353.4568 1036.2427,-1353.4568 1036.2427,-1353.4568 1030.2427,-1353.4568 1024.2427,-1347.4568 1024.2427,-1341.4568 1024.2427,-1341.4568 1024.2427,-1221.4568 1024.2427,-1221.4568 1024.2427,-1215.4568 1030.2427,-1209.4568 1036.2427,-1209.4568"/>
<text text-anchor="middle" x="1156.2705" y="-1338.2568" font-family="Times,serif" font-size="14.00" fill="#000000">Devise::UnlocksController</text>
<polyline fill="none" stroke="#000000" points="1024.2427,-1331.4568 1288.2983,-1331.4568 "/>
<text text-anchor="start" x="1032.2427" y="-1316.2568" font-family="Times,serif" font-size="14.00" fill="#000000">create</text>
<text text-anchor="start" x="1032.2427" y="-1302.2568" font-family="Times,serif" font-size="14.00" fill="#000000">new</text>
<text text-anchor="start" x="1032.2427" y="-1288.2568" font-family="Times,serif" font-size="14.00" fill="#000000">show</text>
<polyline fill="none" stroke="#000000" points="1024.2427,-1281.4568 1288.2983,-1281.4568 "/>
<text text-anchor="start" x="1032.2427" y="-1266.2568" font-family="Times,serif" font-size="14.00" fill="#000000">after_sending_unlock_instructions_path_for</text>
<text text-anchor="start" x="1032.2427" y="-1252.2568" font-family="Times,serif" font-size="14.00" fill="#000000">after_unlock_path_for</text>
<text text-anchor="start" x="1032.2427" y="-1238.2568" font-family="Times,serif" font-size="14.00" fill="#000000">translation_scope</text>
<polyline fill="none" stroke="#000000" points="1024.2427,-1231.4568 1288.2983,-1231.4568 "/>
<text text-anchor="start" x="1032.2427" y="-1216.2568" font-family="Times,serif" font-size="14.00" fill="#000000">_layout</text>
</g>
<!-- Devise::ConfirmationsController -->
<g id="node21" class="node">
<title>Devise::ConfirmationsController</title>
<path fill="none" stroke="#000000" d="M648.0735,-1184.2637C648.0735,-1184.2637 932.4466,-1184.2637 932.4466,-1184.2637 938.4466,-1184.2637 944.4466,-1190.2637 944.4466,-1196.2637 944.4466,-1196.2637 944.4466,-1316.2637 944.4466,-1316.2637 944.4466,-1322.2637 938.4466,-1328.2637 932.4466,-1328.2637 932.4466,-1328.2637 648.0735,-1328.2637 648.0735,-1328.2637 642.0735,-1328.2637 636.0735,-1322.2637 636.0735,-1316.2637 636.0735,-1316.2637 636.0735,-1196.2637 636.0735,-1196.2637 636.0735,-1190.2637 642.0735,-1184.2637 648.0735,-1184.2637"/>
<text text-anchor="middle" x="790.2601" y="-1313.0637" font-family="Times,serif" font-size="14.00" fill="#000000">Devise::ConfirmationsController</text>
<polyline fill="none" stroke="#000000" points="636.0735,-1306.2637 944.4466,-1306.2637 "/>
<text text-anchor="start" x="644.0735" y="-1291.0637" font-family="Times,serif" font-size="14.00" fill="#000000">create</text>
<text text-anchor="start" x="644.0735" y="-1277.0637" font-family="Times,serif" font-size="14.00" fill="#000000">new</text>
<text text-anchor="start" x="644.0735" y="-1263.0637" font-family="Times,serif" font-size="14.00" fill="#000000">show</text>
<polyline fill="none" stroke="#000000" points="636.0735,-1256.2637 944.4466,-1256.2637 "/>
<text text-anchor="start" x="644.0735" y="-1241.0637" font-family="Times,serif" font-size="14.00" fill="#000000">after_confirmation_path_for</text>
<text text-anchor="start" x="644.0735" y="-1227.0637" font-family="Times,serif" font-size="14.00" fill="#000000">after_resending_confirmation_instructions_path_for</text>
<text text-anchor="start" x="644.0735" y="-1213.0637" font-family="Times,serif" font-size="14.00" fill="#000000">translation_scope</text>
<polyline fill="none" stroke="#000000" points="636.0735,-1206.2637 944.4466,-1206.2637 "/>
<text text-anchor="start" x="644.0735" y="-1191.0637" font-family="Times,serif" font-size="14.00" fill="#000000">_layout</text>
</g>
<!-- Devise::RegistrationsController -->
<g id="node22" class="node">
<title>Devise::RegistrationsController</title>
<path fill="none" stroke="#000000" d="M1068.4419,-399.884C1068.4419,-399.884 1247.0494,-399.884 1247.0494,-399.884 1253.0494,-399.884 1259.0494,-405.884 1259.0494,-411.884 1259.0494,-411.884 1259.0494,-713.884 1259.0494,-713.884 1259.0494,-719.884 1253.0494,-725.884 1247.0494,-725.884 1247.0494,-725.884 1068.4419,-725.884 1068.4419,-725.884 1062.4419,-725.884 1056.4419,-719.884 1056.4419,-713.884 1056.4419,-713.884 1056.4419,-411.884 1056.4419,-411.884 1056.4419,-405.884 1062.4419,-399.884 1068.4419,-399.884"/>
<text text-anchor="middle" x="1157.7457" y="-710.684" font-family="Times,serif" font-size="14.00" fill="#000000">Devise::RegistrationsController</text>
<polyline fill="none" stroke="#000000" points="1056.4419,-703.884 1259.0494,-703.884 "/>
<text text-anchor="start" x="1064.4419" y="-688.684" font-family="Times,serif" font-size="14.00" fill="#000000">cancel</text>
<text text-anchor="start" x="1064.4419" y="-674.684" font-family="Times,serif" font-size="14.00" fill="#000000">create</text>
<text text-anchor="start" x="1064.4419" y="-660.684" font-family="Times,serif" font-size="14.00" fill="#000000">destroy</text>
<text text-anchor="start" x="1064.4419" y="-646.684" font-family="Times,serif" font-size="14.00" fill="#000000">edit</text>
<text text-anchor="start" x="1064.4419" y="-632.684" font-family="Times,serif" font-size="14.00" fill="#000000">new</text>
<text text-anchor="start" x="1064.4419" y="-618.684" font-family="Times,serif" font-size="14.00" fill="#000000">update</text>
<polyline fill="none" stroke="#000000" points="1056.4419,-611.884 1259.0494,-611.884 "/>
<text text-anchor="start" x="1064.4419" y="-596.684" font-family="Times,serif" font-size="14.00" fill="#000000">update_resource</text>
<text text-anchor="start" x="1064.4419" y="-582.684" font-family="Times,serif" font-size="14.00" fill="#000000">after_inactive_sign_up_path_for</text>
<text text-anchor="start" x="1064.4419" y="-568.684" font-family="Times,serif" font-size="14.00" fill="#000000">after_sign_up_path_for</text>
<text text-anchor="start" x="1064.4419" y="-554.684" font-family="Times,serif" font-size="14.00" fill="#000000">after_update_path_for</text>
<text text-anchor="start" x="1064.4419" y="-540.684" font-family="Times,serif" font-size="14.00" fill="#000000">authenticate_scope!</text>
<text text-anchor="start" x="1064.4419" y="-526.684" font-family="Times,serif" font-size="14.00" fill="#000000">build_resource</text>
<text text-anchor="start" x="1064.4419" y="-512.684" font-family="Times,serif" font-size="14.00" fill="#000000">sign_up</text>
<text text-anchor="start" x="1064.4419" y="-498.684" font-family="Times,serif" font-size="14.00" fill="#000000">sign_up_params</text>
<text text-anchor="start" x="1064.4419" y="-484.684" font-family="Times,serif" font-size="14.00" fill="#000000">translation_scope</text>
<text text-anchor="start" x="1064.4419" y="-470.684" font-family="Times,serif" font-size="14.00" fill="#000000">update_needs_confirmation?</text>
<text text-anchor="start" x="1064.4419" y="-456.684" font-family="Times,serif" font-size="14.00" fill="#000000">account_update_params</text>
<polyline fill="none" stroke="#000000" points="1056.4419,-449.884 1259.0494,-449.884 "/>
<text text-anchor="start" x="1064.4419" y="-434.684" font-family="Times,serif" font-size="14.00" fill="#000000">_layout</text>
<text text-anchor="start" x="1064.4419" y="-420.684" font-family="Times,serif" font-size="14.00" fill="#000000">set_flash_message_for_update</text>
<text text-anchor="start" x="1064.4419" y="-406.684" font-family="Times,serif" font-size="14.00" fill="#000000">sign_in_after_change_password?</text>
</g>
<!-- DeviseController&#45;&gt;Devise::OmniauthCallbacksController -->
<g id="edge10" class="edge">
<title>DeviseController&#45;&gt;Devise::OmniauthCallbacksController</title>
<path fill="none" stroke="#000000" d="M887.5531,-677.182C963.3034,-534.0796 1064.2814,-343.3188 1118.478,-240.9342"/>
</g>
<!-- DeviseController&#45;&gt;Devise::PasswordsController -->
<g id="edge11" class="edge">
<title>DeviseController&#45;&gt;Devise::PasswordsController</title>
<path fill="none" stroke="#000000" d="M692.549,-999.082C640.6351,-1072.3893 578.1461,-1160.6296 531.9466,-1225.8676"/>
</g>
<!-- DeviseController&#45;&gt;Devise::SessionsController -->
<g id="edge12" class="edge">
<title>DeviseController&#45;&gt;Devise::SessionsController</title>
<path fill="none" stroke="#000000" d="M887.6763,-870.8297C945.6084,-876.381 1018.3059,-883.3471 1073.7307,-888.658"/>
</g>
<!-- DeviseController&#45;&gt;Devise::UnlocksController -->
<g id="edge13" class="edge">
<title>DeviseController&#45;&gt;Devise::UnlocksController</title>
<path fill="none" stroke="#000000" d="M887.6736,-973.4672C952.9443,-1048.3105 1036.8853,-1144.5625 1093.414,-1209.3817"/>
</g>
<!-- DeviseController&#45;&gt;Devise::ConfirmationsController -->
<g id="edge14" class="edge">
<title>DeviseController&#45;&gt;Devise::ConfirmationsController</title>
<path fill="none" stroke="#000000" d="M790.122,-1045.5748C790.1541,-1094.6245 790.187,-1144.7736 790.2126,-1183.8345"/>
</g>
<!-- DeviseController&#45;&gt;Devise::RegistrationsController -->
<g id="edge15" class="edge">
<title>DeviseController&#45;&gt;Devise::RegistrationsController</title>
<path fill="none" stroke="#000000" d="M887.5846,-782.2385C939.6106,-739.9965 1003.5562,-688.0766 1056.173,-645.3549"/>
</g>
</g>
</svg>
