<?xml version="1.0" encoding="UTF-8" standalone="no"?>
<!DOCTYPE svg PUBLIC "-//W3C//DTD SVG 1.1//EN"
 "http://www.w3.org/Graphics/SVG/1.1/DTD/svg11.dtd">
<!-- Generated by graphviz version 2.40.1 (20161225.0304)
 -->
<!-- Title: models_diagram Pages: 1 -->
<svg width="3027pt" height="1192pt"
 viewBox="0.00 0.00 3026.58 1192.00" xmlns="http://www.w3.org/2000/svg" xmlns:xlink="http://www.w3.org/1999/xlink">
<g id="graph0" class="graph" transform="scale(1 1) rotate(0) translate(4 1188)">
<title>models_diagram</title>
<polygon fill="transparent" stroke="transparent" points="-4,4 -4,-1188 3022.5807,-1188 3022.5807,4 -4,4"/>
<!-- _diagram_info -->
<g id="node1" class="node">
<title>_diagram_info</title>
<text text-anchor="start" x="167.0238" y="-1169.6" font-family="Times,serif" font-size="13.00" fill="#000000">Models diagram</text>
<text text-anchor="start" x="167.0238" y="-1156.6" font-family="Times,serif" font-size="13.00" fill="#000000">Date: Dec 16 2019 &#45; 20:55</text>
<text text-anchor="start" x="167.0238" y="-1143.6" font-family="Times,serif" font-size="13.00" fill="#000000">Migration version: 20191216065437</text>
<text text-anchor="start" x="167.0238" y="-1130.6" font-family="Times,serif" font-size="13.00" fill="#000000">Generated by RailRoady 1.5.3</text>
<text text-anchor="start" x="167.0238" y="-1117.6" font-family="Times,serif" font-size="13.00" fill="#000000">http://railroady.prestonlee.com</text>
</g>
<!-- Report -->
<g id="node2" class="node">
<title>Report</title>
<path fill="none" stroke="#000000" d="M45.8492,-380.5C45.8492,-380.5 269.5738,-380.5 269.5738,-380.5 275.5738,-380.5 281.5738,-386.5 281.5738,-392.5 281.5738,-392.5 281.5738,-482.5 281.5738,-482.5 281.5738,-488.5 275.5738,-494.5 269.5738,-494.5 269.5738,-494.5 45.8492,-494.5 45.8492,-494.5 39.8492,-494.5 33.8492,-488.5 33.8492,-482.5 33.8492,-482.5 33.8492,-392.5 33.8492,-392.5 33.8492,-386.5 39.8492,-380.5 45.8492,-380.5"/>
<text text-anchor="middle" x="157.7115" y="-479.3" font-family="Times,serif" font-size="14.00" fill="#000000">Report</text>
<polyline fill="none" stroke="#000000" points="33.8492,-472.5 281.5738,-472.5 "/>
<text text-anchor="start" x="41.8492" y="-457.3" font-family="Times,serif" font-size="14.00" fill="#000000">id :bigint</text>
<text text-anchor="start" x="41.8492" y="-443.3" font-family="Times,serif" font-size="14.00" fill="#000000">event_id :bigint</text>
<text text-anchor="start" x="41.8492" y="-429.3" font-family="Times,serif" font-size="14.00" fill="#000000">user_id :bigint</text>
<text text-anchor="start" x="41.8492" y="-415.3" font-family="Times,serif" font-size="14.00" fill="#000000">content :text</text>
<text text-anchor="start" x="41.8492" y="-401.3" font-family="Times,serif" font-size="14.00" fill="#000000">created_at :timestamp without time zone</text>
<text text-anchor="start" x="41.8492" y="-387.3" font-family="Times,serif" font-size="14.00" fill="#000000">updated_at :timestamp without time zone</text>
</g>
<!-- Identity -->
<g id="node3" class="node">
<title>Identity</title>
<path fill="none" stroke="#000000" d="M577.8492,-380.5C577.8492,-380.5 801.5738,-380.5 801.5738,-380.5 807.5738,-380.5 813.5738,-386.5 813.5738,-392.5 813.5738,-392.5 813.5738,-482.5 813.5738,-482.5 813.5738,-488.5 807.5738,-494.5 801.5738,-494.5 801.5738,-494.5 577.8492,-494.5 577.8492,-494.5 571.8492,-494.5 565.8492,-488.5 565.8492,-482.5 565.8492,-482.5 565.8492,-392.5 565.8492,-392.5 565.8492,-386.5 571.8492,-380.5 577.8492,-380.5"/>
<text text-anchor="middle" x="689.7115" y="-479.3" font-family="Times,serif" font-size="14.00" fill="#000000">Identity</text>
<polyline fill="none" stroke="#000000" points="565.8492,-472.5 813.5738,-472.5 "/>
<text text-anchor="start" x="573.8492" y="-457.3" font-family="Times,serif" font-size="14.00" fill="#000000">id :bigint</text>
<text text-anchor="start" x="573.8492" y="-443.3" font-family="Times,serif" font-size="14.00" fill="#000000">user_id :bigint</text>
<text text-anchor="start" x="573.8492" y="-429.3" font-family="Times,serif" font-size="14.00" fill="#000000">provider :character varying</text>
<text text-anchor="start" x="573.8492" y="-415.3" font-family="Times,serif" font-size="14.00" fill="#000000">uid :character varying</text>
<text text-anchor="start" x="573.8492" y="-401.3" font-family="Times,serif" font-size="14.00" fill="#000000">created_at :timestamp without time zone</text>
<text text-anchor="start" x="573.8492" y="-387.3" font-family="Times,serif" font-size="14.00" fill="#000000">updated_at :timestamp without time zone</text>
</g>
<!-- Push -->
<g id="node4" class="node">
<title>Push</title>
<path fill="none" stroke="#000000" d="M1435.8492,-380.5C1435.8492,-380.5 1659.5738,-380.5 1659.5738,-380.5 1665.5738,-380.5 1671.5738,-386.5 1671.5738,-392.5 1671.5738,-392.5 1671.5738,-482.5 1671.5738,-482.5 1671.5738,-488.5 1665.5738,-494.5 1659.5738,-494.5 1659.5738,-494.5 1435.8492,-494.5 1435.8492,-494.5 1429.8492,-494.5 1423.8492,-488.5 1423.8492,-482.5 1423.8492,-482.5 1423.8492,-392.5 1423.8492,-392.5 1423.8492,-386.5 1429.8492,-380.5 1435.8492,-380.5"/>
<text text-anchor="middle" x="1547.7115" y="-479.3" font-family="Times,serif" font-size="14.00" fill="#000000">Push</text>
<polyline fill="none" stroke="#000000" points="1423.8492,-472.5 1671.5738,-472.5 "/>
<text text-anchor="start" x="1431.8492" y="-457.3" font-family="Times,serif" font-size="14.00" fill="#000000">id :bigint</text>
<text text-anchor="start" x="1431.8492" y="-443.3" font-family="Times,serif" font-size="14.00" fill="#000000">user_id :bigint</text>
<text text-anchor="start" x="1431.8492" y="-429.3" font-family="Times,serif" font-size="14.00" fill="#000000">title :character varying</text>
<text text-anchor="start" x="1431.8492" y="-415.3" font-family="Times,serif" font-size="14.00" fill="#000000">body :text</text>
<text text-anchor="start" x="1431.8492" y="-401.3" font-family="Times,serif" font-size="14.00" fill="#000000">created_at :timestamp without time zone</text>
<text text-anchor="start" x="1431.8492" y="-387.3" font-family="Times,serif" font-size="14.00" fill="#000000">updated_at :timestamp without time zone</text>
</g>
<!-- Message -->
<g id="node5" class="node">
<title>Message</title>
<path fill="none" stroke="#000000" d="M726.8492,-.5C726.8492,-.5 950.5738,-.5 950.5738,-.5 956.5738,-.5 962.5738,-6.5 962.5738,-12.5 962.5738,-12.5 962.5738,-116.5 962.5738,-116.5 962.5738,-122.5 956.5738,-128.5 950.5738,-128.5 950.5738,-128.5 726.8492,-128.5 726.8492,-128.5 720.8492,-128.5 714.8492,-122.5 714.8492,-116.5 714.8492,-116.5 714.8492,-12.5 714.8492,-12.5 714.8492,-6.5 720.8492,-.5 726.8492,-.5"/>
<text text-anchor="middle" x="838.7115" y="-113.3" font-family="Times,serif" font-size="14.00" fill="#000000">Message</text>
<polyline fill="none" stroke="#000000" points="714.8492,-106.5 962.5738,-106.5 "/>
<text text-anchor="start" x="722.8492" y="-91.3" font-family="Times,serif" font-size="14.00" fill="#000000">id :bigint</text>
<text text-anchor="start" x="722.8492" y="-77.3" font-family="Times,serif" font-size="14.00" fill="#000000">content :character varying</text>
<text text-anchor="start" x="722.8492" y="-63.3" font-family="Times,serif" font-size="14.00" fill="#000000">sender_id :bigint</text>
<text text-anchor="start" x="722.8492" y="-49.3" font-family="Times,serif" font-size="14.00" fill="#000000">chatroom_id :bigint</text>
<text text-anchor="start" x="722.8492" y="-35.3" font-family="Times,serif" font-size="14.00" fill="#000000">created_at :timestamp without time zone</text>
<text text-anchor="start" x="722.8492" y="-21.3" font-family="Times,serif" font-size="14.00" fill="#000000">updated_at :timestamp without time zone</text>
<text text-anchor="start" x="722.8492" y="-7.3" font-family="Times,serif" font-size="14.00" fill="#000000">receiver_id :bigint</text>
</g>
<!-- Building -->
<g id="node6" class="node">
<title>Building</title>
<path fill="none" stroke="#000000" d="M159.8492,-763.5C159.8492,-763.5 383.5738,-763.5 383.5738,-763.5 389.5738,-763.5 395.5738,-769.5 395.5738,-775.5 395.5738,-775.5 395.5738,-879.5 395.5738,-879.5 395.5738,-885.5 389.5738,-891.5 383.5738,-891.5 383.5738,-891.5 159.8492,-891.5 159.8492,-891.5 153.8492,-891.5 147.8492,-885.5 147.8492,-879.5 147.8492,-879.5 147.8492,-775.5 147.8492,-775.5 147.8492,-769.5 153.8492,-763.5 159.8492,-763.5"/>
<text text-anchor="middle" x="271.7115" y="-876.3" font-family="Times,serif" font-size="14.00" fill="#000000">Building</text>
<polyline fill="none" stroke="#000000" points="147.8492,-869.5 395.5738,-869.5 "/>
<text text-anchor="start" x="155.8492" y="-854.3" font-family="Times,serif" font-size="14.00" fill="#000000">id :bigint</text>
<text text-anchor="start" x="155.8492" y="-840.3" font-family="Times,serif" font-size="14.00" fill="#000000">name :character varying</text>
<text text-anchor="start" x="155.8492" y="-826.3" font-family="Times,serif" font-size="14.00" fill="#000000">lat :double precision</text>
<text text-anchor="start" x="155.8492" y="-812.3" font-family="Times,serif" font-size="14.00" fill="#000000">lng :double precision</text>
<text text-anchor="start" x="155.8492" y="-798.3" font-family="Times,serif" font-size="14.00" fill="#000000">created_at :timestamp without time zone</text>
<text text-anchor="start" x="155.8492" y="-784.3" font-family="Times,serif" font-size="14.00" fill="#000000">updated_at :timestamp without time zone</text>
<text text-anchor="start" x="155.8492" y="-770.3" font-family="Times,serif" font-size="14.00" fill="#000000">events_count :integer</text>
</g>
<!-- Event -->
<g id="node9" class="node">
<title>Event</title>
<path fill="none" stroke="#000000" d="M311.8492,-331.5C311.8492,-331.5 535.5738,-331.5 535.5738,-331.5 541.5738,-331.5 547.5738,-337.5 547.5738,-343.5 547.5738,-343.5 547.5738,-531.5 547.5738,-531.5 547.5738,-537.5 541.5738,-543.5 535.5738,-543.5 535.5738,-543.5 311.8492,-543.5 311.8492,-543.5 305.8492,-543.5 299.8492,-537.5 299.8492,-531.5 299.8492,-531.5 299.8492,-343.5 299.8492,-343.5 299.8492,-337.5 305.8492,-331.5 311.8492,-331.5"/>
<text text-anchor="middle" x="423.7115" y="-528.3" font-family="Times,serif" font-size="14.00" fill="#000000">Event</text>
<polyline fill="none" stroke="#000000" points="299.8492,-521.5 547.5738,-521.5 "/>
<text text-anchor="start" x="307.8492" y="-506.3" font-family="Times,serif" font-size="14.00" fill="#000000">building_id :bigint</text>
<text text-anchor="start" x="307.8492" y="-492.3" font-family="Times,serif" font-size="14.00" fill="#000000">user_id :bigint</text>
<text text-anchor="start" x="307.8492" y="-478.3" font-family="Times,serif" font-size="14.00" fill="#000000">title :character varying</text>
<text text-anchor="start" x="307.8492" y="-464.3" font-family="Times,serif" font-size="14.00" fill="#000000">place :character varying</text>
<text text-anchor="start" x="307.8492" y="-450.3" font-family="Times,serif" font-size="14.00" fill="#000000">detail_place :character varying</text>
<text text-anchor="start" x="307.8492" y="-436.3" font-family="Times,serif" font-size="14.00" fill="#000000">time_limit :timestamp without time zone</text>
<text text-anchor="start" x="307.8492" y="-422.3" font-family="Times,serif" font-size="14.00" fill="#000000">content :text</text>
<text text-anchor="start" x="307.8492" y="-408.3" font-family="Times,serif" font-size="14.00" fill="#000000">state :integer</text>
<text text-anchor="start" x="307.8492" y="-394.3" font-family="Times,serif" font-size="14.00" fill="#000000">reward :integer</text>
<text text-anchor="start" x="307.8492" y="-380.3" font-family="Times,serif" font-size="14.00" fill="#000000">created_at :timestamp without time zone</text>
<text text-anchor="start" x="307.8492" y="-366.3" font-family="Times,serif" font-size="14.00" fill="#000000">updated_at :timestamp without time zone</text>
<text text-anchor="start" x="307.8492" y="-352.3" font-family="Times,serif" font-size="14.00" fill="#000000">performer_id :bigint</text>
<text text-anchor="start" x="307.8492" y="-338.3" font-family="Times,serif" font-size="14.00" fill="#000000">id :bigint</text>
</g>
<!-- Building&#45;&gt;Event -->
<g id="edge5" class="edge">
<title>Building&#45;&gt;Event</title>
<path fill="none" stroke="#8c3161" d="M299.7276,-755.6167C321.8116,-698.9538 353.0423,-618.8225 378.6336,-553.1605"/>
<ellipse fill="none" stroke="#8c3161" cx="298.2638" cy="-759.3725" rx="4" ry="4"/>
<polygon fill="#8c3161" stroke="#8c3161" points="378.7352,-552.8996 386.5595,-545.2164 380.551,-548.2409 382.3667,-543.5822 382.3667,-543.5822 382.3667,-543.5822 380.551,-548.2409 378.1739,-541.9481 378.7352,-552.8996 378.7352,-552.8996"/>
</g>
<!-- AdminUser -->
<g id="node7" class="node">
<title>AdminUser</title>
<path fill="none" stroke="#000000" d="M502.0768,-756.5C502.0768,-756.5 797.3463,-756.5 797.3463,-756.5 803.3463,-756.5 809.3463,-762.5 809.3463,-768.5 809.3463,-768.5 809.3463,-886.5 809.3463,-886.5 809.3463,-892.5 803.3463,-898.5 797.3463,-898.5 797.3463,-898.5 502.0768,-898.5 502.0768,-898.5 496.0768,-898.5 490.0768,-892.5 490.0768,-886.5 490.0768,-886.5 490.0768,-768.5 490.0768,-768.5 490.0768,-762.5 496.0768,-756.5 502.0768,-756.5"/>
<text text-anchor="middle" x="649.7115" y="-883.3" font-family="Times,serif" font-size="14.00" fill="#000000">AdminUser</text>
<polyline fill="none" stroke="#000000" points="490.0768,-876.5 809.3463,-876.5 "/>
<text text-anchor="start" x="498.0768" y="-861.3" font-family="Times,serif" font-size="14.00" fill="#000000">updated_at :timestamp without time zone</text>
<text text-anchor="start" x="498.0768" y="-847.3" font-family="Times,serif" font-size="14.00" fill="#000000">email :character varying</text>
<text text-anchor="start" x="498.0768" y="-833.3" font-family="Times,serif" font-size="14.00" fill="#000000">encrypted_password :character varying</text>
<text text-anchor="start" x="498.0768" y="-819.3" font-family="Times,serif" font-size="14.00" fill="#000000">reset_password_token :character varying</text>
<text text-anchor="start" x="498.0768" y="-805.3" font-family="Times,serif" font-size="14.00" fill="#000000">reset_password_sent_at :timestamp without time zone</text>
<text text-anchor="start" x="498.0768" y="-791.3" font-family="Times,serif" font-size="14.00" fill="#000000">remember_created_at :timestamp without time zone</text>
<text text-anchor="start" x="498.0768" y="-777.3" font-family="Times,serif" font-size="14.00" fill="#000000">created_at :timestamp without time zone</text>
<text text-anchor="start" x="498.0768" y="-763.3" font-family="Times,serif" font-size="14.00" fill="#000000">id :bigint</text>
</g>
<!-- ApplicationRecord -->
<g id="node8" class="node">
<title>ApplicationRecord</title>
<ellipse fill="none" stroke="#000000" cx="461.7115" cy="-1147.5" rx="77.2916" ry="18"/>
<text text-anchor="middle" x="461.7115" y="-1143.3" font-family="Times,serif" font-size="14.00" fill="#000000">ApplicationRecord</text>
</g>
<!-- ApplicationRecord&#45;&gt;Report -->
<g id="edge1" class="edge">
<title>ApplicationRecord&#45;&gt;Report</title>
<path fill="none" stroke="#000000" d="M428.5063,-1131.1399C412.8235,-1124.0068 393.6474,-1116.1211 375.7115,-1111 324.4553,-1096.3651 173.3749,-1114.4948 138.7115,-1074 -3.8127,-907.4988 85.8033,-617.1594 133.4884,-494.6395"/>
</g>
<!-- ApplicationRecord&#45;&gt;Identity -->
<g id="edge2" class="edge">
<title>ApplicationRecord&#45;&gt;Identity</title>
<path fill="none" stroke="#000000" d="M461.2251,-1129.4446C458.9038,-1037.9373 450.2779,-627.8975 480.7115,-581 501.1622,-549.486 524.9646,-564.087 556.7115,-544 579.7091,-529.4489 603.3542,-511.6019 624.2112,-494.7072"/>
</g>
<!-- ApplicationRecord&#45;&gt;Push -->
<g id="edge3" class="edge">
<title>ApplicationRecord&#45;&gt;Push</title>
<path fill="none" stroke="#000000" d="M511.947,-1133.7367C543.9578,-1125.5943 586.4594,-1115.9353 624.7115,-1111 680.8392,-1103.7584 1603.4278,-1114.7375 1642.7115,-1074 1718.7591,-995.1382 1674.29,-685.9058 1642.7115,-581 1633.3675,-549.9584 1614.8791,-519.4524 1596.6761,-494.6041"/>
</g>
<!-- ApplicationRecord&#45;&gt;Message -->
<g id="edge4" class="edge">
<title>ApplicationRecord&#45;&gt;Message</title>
<path fill="none" stroke="#000000" d="M429.4689,-1130.959C413.6721,-1123.6038 394.1261,-1115.5856 375.7115,-1111 306.6765,-1093.8087 108.9735,-1123.3315 57.7115,-1074 -22.9654,-996.3613 5.7115,-939.4667 5.7115,-827.5 5.7115,-827.5 5.7115,-827.5 5.7115,-223.5 5.7115,-152.232 482.239,-97.8129 714.4531,-75.5252"/>
</g>
<!-- ApplicationRecord&#45;&gt;Building -->
<g id="edge6" class="edge">
<title>ApplicationRecord&#45;&gt;Building</title>
<path fill="none" stroke="#000000" d="M442.5156,-1129.9817C432.041,-1119.8169 419.2943,-1106.4049 409.7115,-1093 363.7913,-1028.764 323.751,-947.2092 298.7968,-891.5473"/>
</g>
<!-- ApplicationRecord&#45;&gt;AdminUser -->
<g id="edge7" class="edge">
<title>ApplicationRecord&#45;&gt;AdminUser</title>
<path fill="none" stroke="#000000" d="M472.3579,-1129.3785C497.9522,-1085.8138 564.0571,-973.2948 607.9308,-898.6161"/>
</g>
<!-- ApplicationRecord&#45;&gt;Event -->
<g id="edge13" class="edge">
<title>ApplicationRecord&#45;&gt;Event</title>
<path fill="none" stroke="#000000" d="M456.0575,-1129.5311C453.0062,-1118.9999 449.5062,-1105.3749 447.7115,-1093 419.8447,-900.8476 418.4515,-673.8836 420.6293,-543.7125"/>
</g>
<!-- User -->
<g id="node10" class="node">
<title>User</title>
<path fill="none" stroke="#000000" d="M839.0768,-581.5C839.0768,-581.5 1134.3463,-581.5 1134.3463,-581.5 1140.3463,-581.5 1146.3463,-587.5 1146.3463,-593.5 1146.3463,-593.5 1146.3463,-1061.5 1146.3463,-1061.5 1146.3463,-1067.5 1140.3463,-1073.5 1134.3463,-1073.5 1134.3463,-1073.5 839.0768,-1073.5 839.0768,-1073.5 833.0768,-1073.5 827.0768,-1067.5 827.0768,-1061.5 827.0768,-1061.5 827.0768,-593.5 827.0768,-593.5 827.0768,-587.5 833.0768,-581.5 839.0768,-581.5"/>
<text text-anchor="middle" x="986.7115" y="-1058.3" font-family="Times,serif" font-size="14.00" fill="#000000">User</text>
<polyline fill="none" stroke="#000000" points="827.0768,-1051.5 1146.3463,-1051.5 "/>
<text text-anchor="start" x="835.0768" y="-1036.3" font-family="Times,serif" font-size="14.00" fill="#000000">account_type :integer</text>
<text text-anchor="start" x="835.0768" y="-1022.3" font-family="Times,serif" font-size="14.00" fill="#000000">name :character varying</text>
<text text-anchor="start" x="835.0768" y="-1008.3" font-family="Times,serif" font-size="14.00" fill="#000000">email :character varying</text>
<text text-anchor="start" x="835.0768" y="-994.3" font-family="Times,serif" font-size="14.00" fill="#000000">encrypted_password :character varying</text>
<text text-anchor="start" x="835.0768" y="-980.3" font-family="Times,serif" font-size="14.00" fill="#000000">phone :character varying</text>
<text text-anchor="start" x="835.0768" y="-966.3" font-family="Times,serif" font-size="14.00" fill="#000000">thumbnail :character varying</text>
<text text-anchor="start" x="835.0768" y="-952.3" font-family="Times,serif" font-size="14.00" fill="#000000">address1 :character varying</text>
<text text-anchor="start" x="835.0768" y="-938.3" font-family="Times,serif" font-size="14.00" fill="#000000">address2 :character varying</text>
<text text-anchor="start" x="835.0768" y="-924.3" font-family="Times,serif" font-size="14.00" fill="#000000">zipcode :character varying</text>
<text text-anchor="start" x="835.0768" y="-910.3" font-family="Times,serif" font-size="14.00" fill="#000000">gender :integer</text>
<text text-anchor="start" x="835.0768" y="-896.3" font-family="Times,serif" font-size="14.00" fill="#000000">customs_number :character varying</text>
<text text-anchor="start" x="835.0768" y="-882.3" font-family="Times,serif" font-size="14.00" fill="#000000">role :integer</text>
<text text-anchor="start" x="835.0768" y="-868.3" font-family="Times,serif" font-size="14.00" fill="#000000">accept_sms :boolean</text>
<text text-anchor="start" x="835.0768" y="-854.3" font-family="Times,serif" font-size="14.00" fill="#000000">accept_email :boolean</text>
<text text-anchor="start" x="835.0768" y="-840.3" font-family="Times,serif" font-size="14.00" fill="#000000">reset_password_token :character varying</text>
<text text-anchor="start" x="835.0768" y="-826.3" font-family="Times,serif" font-size="14.00" fill="#000000">reset_password_sent_at :timestamp without time zone</text>
<text text-anchor="start" x="835.0768" y="-812.3" font-family="Times,serif" font-size="14.00" fill="#000000">remember_created_at :timestamp without time zone</text>
<text text-anchor="start" x="835.0768" y="-798.3" font-family="Times,serif" font-size="14.00" fill="#000000">sign_in_count :integer</text>
<text text-anchor="start" x="835.0768" y="-784.3" font-family="Times,serif" font-size="14.00" fill="#000000">current_sign_in_at :timestamp without time zone</text>
<text text-anchor="start" x="835.0768" y="-770.3" font-family="Times,serif" font-size="14.00" fill="#000000">last_sign_in_at :timestamp without time zone</text>
<text text-anchor="start" x="835.0768" y="-756.3" font-family="Times,serif" font-size="14.00" fill="#000000">current_sign_in_ip :inet</text>
<text text-anchor="start" x="835.0768" y="-742.3" font-family="Times,serif" font-size="14.00" fill="#000000">last_sign_in_ip :inet</text>
<text text-anchor="start" x="835.0768" y="-728.3" font-family="Times,serif" font-size="14.00" fill="#000000">created_at :timestamp without time zone</text>
<text text-anchor="start" x="835.0768" y="-714.3" font-family="Times,serif" font-size="14.00" fill="#000000">updated_at :timestamp without time zone</text>
<text text-anchor="start" x="835.0768" y="-700.3" font-family="Times,serif" font-size="14.00" fill="#000000">student_card_image :character varying</text>
<text text-anchor="start" x="835.0768" y="-686.3" font-family="Times,serif" font-size="14.00" fill="#000000">certification_state :integer</text>
<text text-anchor="start" x="835.0768" y="-672.3" font-family="Times,serif" font-size="14.00" fill="#000000">status :integer</text>
<text text-anchor="start" x="835.0768" y="-658.3" font-family="Times,serif" font-size="14.00" fill="#000000">device_token :character varying</text>
<text text-anchor="start" x="835.0768" y="-644.3" font-family="Times,serif" font-size="14.00" fill="#000000">device_type :integer</text>
<text text-anchor="start" x="835.0768" y="-630.3" font-family="Times,serif" font-size="14.00" fill="#000000">blacklist :boolean</text>
<text text-anchor="start" x="835.0768" y="-616.3" font-family="Times,serif" font-size="14.00" fill="#000000">student_email :character varying</text>
<text text-anchor="start" x="835.0768" y="-602.3" font-family="Times,serif" font-size="14.00" fill="#000000">certification_token :character varying</text>
<text text-anchor="start" x="835.0768" y="-588.3" font-family="Times,serif" font-size="14.00" fill="#000000">id :bigint</text>
</g>
<!-- ApplicationRecord&#45;&gt;User -->
<g id="edge26" class="edge">
<title>ApplicationRecord&#45;&gt;User</title>
<path fill="none" stroke="#000000" d="M516.6953,-1134.7301C548.2513,-1127.5161 588.6488,-1118.4747 624.7115,-1111 710.6611,-1093.1853 745.3145,-1122.1412 818.7115,-1074 821.5264,-1072.1537 824.3066,-1070.2423 827.0521,-1068.2703"/>
</g>
<!-- Chatroom -->
<g id="node11" class="node">
<title>Chatroom</title>
<path fill="none" stroke="#000000" d="M1038.8492,-166.5C1038.8492,-166.5 1262.5738,-166.5 1262.5738,-166.5 1268.5738,-166.5 1274.5738,-172.5 1274.5738,-178.5 1274.5738,-178.5 1274.5738,-268.5 1274.5738,-268.5 1274.5738,-274.5 1268.5738,-280.5 1262.5738,-280.5 1262.5738,-280.5 1038.8492,-280.5 1038.8492,-280.5 1032.8492,-280.5 1026.8492,-274.5 1026.8492,-268.5 1026.8492,-268.5 1026.8492,-178.5 1026.8492,-178.5 1026.8492,-172.5 1032.8492,-166.5 1038.8492,-166.5"/>
<text text-anchor="middle" x="1150.7115" y="-265.3" font-family="Times,serif" font-size="14.00" fill="#000000">Chatroom</text>
<polyline fill="none" stroke="#000000" points="1026.8492,-258.5 1274.5738,-258.5 "/>
<text text-anchor="start" x="1034.8492" y="-243.3" font-family="Times,serif" font-size="14.00" fill="#000000">id :bigint</text>
<text text-anchor="start" x="1034.8492" y="-229.3" font-family="Times,serif" font-size="14.00" fill="#000000">event_id :bigint</text>
<text text-anchor="start" x="1034.8492" y="-215.3" font-family="Times,serif" font-size="14.00" fill="#000000">created_at :timestamp without time zone</text>
<text text-anchor="start" x="1034.8492" y="-201.3" font-family="Times,serif" font-size="14.00" fill="#000000">updated_at :timestamp without time zone</text>
<text text-anchor="start" x="1034.8492" y="-187.3" font-family="Times,serif" font-size="14.00" fill="#000000">request_user_id :bigint</text>
<text text-anchor="start" x="1034.8492" y="-173.3" font-family="Times,serif" font-size="14.00" fill="#000000">perform_user_id :bigint</text>
</g>
<!-- ApplicationRecord&#45;&gt;Chatroom -->
<g id="edge30" class="edge">
<title>ApplicationRecord&#45;&gt;Chatroom</title>
<path fill="none" stroke="#000000" d="M511.5588,-1133.6067C543.5997,-1125.358 586.2753,-1115.631 624.7115,-1111 682.8273,-1103.998 1639.2807,-1118.1537 1677.7115,-1074 1704.8119,-1042.864 1706.838,-362.9577 1680.7115,-331 1630.4233,-269.4877 1414.9682,-242.3231 1274.7216,-230.9763"/>
</g>
<!-- Event&#45;&gt;Chatroom -->
<g id="edge8" class="edge">
<title>Event&#45;&gt;Chatroom</title>
<path fill="none" stroke="#03c3bf" d="M555.2858,-331.546C555.7607,-331.3616 556.2359,-331.1796 556.7115,-331 636.4222,-300.8983 857.2683,-334.5177 939.7115,-313 953.1739,-309.4863 955.0502,-304.768 967.7115,-299 984.2683,-291.4574 1001.8028,-283.8057 1019.2027,-276.4127"/>
<ellipse fill="none" stroke="#03c3bf" cx="551.3246" cy="-333.1946" rx="4" ry="4"/>
<ellipse fill="#03c3bf" stroke="#03c3bf" cx="1022.9648" cy="-274.8204" rx="4" ry="4"/>
</g>
<!-- ActsAsTaggableOn::Tagging -->
<g id="node21" class="node">
<title>ActsAsTaggableOn::Tagging</title>
<ellipse fill="none" stroke="#000000" cx="557.7115" cy="-223.5" rx="113.0056" ry="18"/>
<text text-anchor="middle" x="557.7115" y="-219.3" font-family="Times,serif" font-size="14.00" fill="#000000">ActsAsTaggableOn::Tagging</text>
</g>
<!-- Event&#45;&gt;ActsAsTaggableOn::Tagging -->
<g id="edge9" class="edge">
<title>Event&#45;&gt;ActsAsTaggableOn::Tagging</title>
<path fill="none" stroke="#a290ef" d="M457.0182,-324.0604C461.2704,-315.3001 466.007,-306.8299 471.2701,-299 484.8349,-278.82 505.1093,-260.7232 522.6144,-247.3091"/>
<ellipse fill="none" stroke="#a290ef" cx="455.2496" cy="-327.8542" rx="4" ry="4"/>
<polygon fill="#a290ef" stroke="#a290ef" points="522.9209,-247.081 533.63,-244.7218 526.9324,-244.0963 530.9438,-241.1115 530.9438,-241.1115 530.9438,-241.1115 526.9324,-244.0963 528.2575,-237.5013 522.9209,-247.081 522.9209,-247.081"/>
<text text-anchor="middle" x="495.4322" y="-301.8" font-family="Times,serif" font-size="14.00" fill="#000000">taggings</text>
</g>
<!-- Event&#45;&gt;ActsAsTaggableOn::Tagging -->
<g id="edge11" class="edge">
<title>Event&#45;&gt;ActsAsTaggableOn::Tagging</title>
<path fill="none" stroke="#4c4612" d="M511.7212,-324.4634C514.1355,-320.6359 516.4728,-316.8089 518.7115,-313 530.3785,-293.1502 540.6451,-269.1653 547.7124,-251.0231"/>
<ellipse fill="none" stroke="#4c4612" cx="509.459" cy="-327.9842" rx="4" ry="4"/>
<polygon fill="#4c4612" stroke="#4c4612" points="547.7388,-250.9537 555.5034,-243.2102 549.5184,-246.2811 551.2981,-241.6086 551.2981,-241.6086 551.2981,-241.6086 549.5184,-246.2811 547.0928,-240.0069 547.7388,-250.9537 547.7388,-250.9537"/>
<text text-anchor="middle" x="562.484" y="-301.8" font-family="Times,serif" font-size="14.00" fill="#000000">tag_taggings</text>
</g>
<!-- ActsAsTaggableOn::Tag -->
<g id="node22" class="node">
<title>ActsAsTaggableOn::Tag</title>
<ellipse fill="none" stroke="#000000" cx="329.7115" cy="-223.5" rx="97.0617" ry="18"/>
<text text-anchor="middle" x="329.7115" y="-219.3" font-family="Times,serif" font-size="14.00" fill="#000000">ActsAsTaggableOn::Tag</text>
</g>
<!-- Event&#45;&gt;ActsAsTaggableOn::Tag -->
<g id="edge10" class="edge">
<title>Event&#45;&gt;ActsAsTaggableOn::Tag</title>
<path fill="none" stroke="#9c4d26" d="M373.0216,-322.0996C361.2999,-295.414 349.8862,-269.4295 341.7209,-250.8405"/>
<polygon fill="#9c4d26" stroke="#9c4d26" points="373.1029,-322.2847 373.0046,-333.2502 375.1138,-326.8626 377.1246,-331.4404 377.1246,-331.4404 377.1246,-331.4404 375.1138,-326.8626 381.2447,-329.6306 373.1029,-322.2847 373.1029,-322.2847"/>
<polygon fill="#9c4d26" stroke="#9c4d26" points="341.672,-250.729 341.7703,-239.7635 339.6611,-246.1511 337.6503,-241.5733 337.6503,-241.5733 337.6503,-241.5733 339.6611,-246.1511 333.5302,-243.3831 341.672,-250.729 341.672,-250.729"/>
<text text-anchor="middle" x="395.9254" y="-301.8" font-family="Times,serif" font-size="14.00" fill="#000000">base_tags</text>
</g>
<!-- Event&#45;&gt;ActsAsTaggableOn::Tag -->
<g id="edge12" class="edge">
<title>Event&#45;&gt;ActsAsTaggableOn::Tag</title>
<path fill="none" stroke="#3cd089" d="M342.7918,-322.1859C341.4969,-319.1313 340.2824,-316.067 339.1598,-313 331.9656,-293.3451 329.7134,-269.7537 329.201,-251.7273"/>
<polygon fill="#3cd089" stroke="#3cd089" points="342.7966,-322.1966 342.8031,-333.1625 344.8511,-326.755 346.9056,-331.3134 346.9056,-331.3134 346.9056,-331.3134 344.8511,-326.755 351.0082,-329.4643 342.7966,-322.1966 342.7966,-322.1966"/>
<polygon fill="#3cd089" stroke="#3cd089" points="329.1992,-251.5677 333.5767,-241.5135 329.1381,-246.5681 329.0771,-241.5684 329.0771,-241.5684 329.0771,-241.5684 329.1381,-246.5681 324.5774,-241.6234 329.1992,-251.5677 329.1992,-251.5677"/>
<text text-anchor="middle" x="350.9874" y="-301.8" font-family="Times,serif" font-size="14.00" fill="#000000">tags</text>
</g>
<!-- User&#45;&gt;Report -->
<g id="edge25" class="edge">
<title>User&#45;&gt;Report</title>
<path fill="none" stroke="#3a1f84" d="M820.0246,-581.7605C819.5878,-581.5054 819.1501,-581.2519 818.7115,-581 716.7117,-522.4275 400.2628,-586.8164 290.7115,-544 265.6705,-534.2131 241.6458,-517.9513 221.0721,-501.0459"/>
<ellipse fill="none" stroke="#3a1f84" cx="823.6085" cy="-583.9504" rx="4" ry="4"/>
<polygon fill="#3a1f84" stroke="#3a1f84" points="221.0078,-500.9917 216.261,-491.1064 217.1844,-497.7696 213.3611,-494.5474 213.3611,-494.5474 213.3611,-494.5474 217.1844,-497.7696 210.4612,-497.9884 221.0078,-500.9917 221.0078,-500.9917"/>
</g>
<!-- User&#45;&gt;Identity -->
<g id="edge14" class="edge">
<title>User&#45;&gt;Identity</title>
<path fill="none" stroke="#cac296" d="M821.7702,-584.9136C820.7501,-583.6034 819.7305,-582.2988 818.7115,-581 797.7238,-554.2479 773.0999,-526.1512 751.0225,-501.9815"/>
<ellipse fill="none" stroke="#cac296" cx="824.426" cy="-588.3456" rx="4" ry="4"/>
<polygon fill="#cac296" stroke="#cac296" points="751.0212,-501.9801 747.5749,-491.5698 747.6403,-498.2963 744.2595,-494.6125 744.2595,-494.6125 744.2595,-494.6125 747.6403,-498.2963 740.9441,-497.6553 751.0212,-501.9801 751.0212,-501.9801"/>
</g>
<!-- User&#45;&gt;Push -->
<g id="edge24" class="edge">
<title>User&#45;&gt;Push</title>
<path fill="none" stroke="#567372" d="M1153.4374,-719.4605C1232.0238,-667.5979 1326.5664,-603.8441 1409.7115,-544 1428.7322,-530.3098 1448.8727,-515.1571 1467.7153,-500.6794"/>
<ellipse fill="none" stroke="#567372" cx="1149.7056" cy="-721.9213" rx="4" ry="4"/>
<polygon fill="#567372" stroke="#567372" points="1467.7836,-500.6268 1478.4512,-498.0865 1471.7439,-497.5745 1475.7042,-494.5222 1475.7042,-494.5222 1475.7042,-494.5222 1471.7439,-497.5745 1472.9571,-490.958 1467.7836,-500.6268 1467.7836,-500.6268"/>
</g>
<!-- User&#45;&gt;Message -->
<g id="edge20" class="edge">
<title>User&#45;&gt;Message</title>
<path fill="none" stroke="#040c7d" d="M871.8501,-573.4639C843.1366,-487.9325 821.1056,-390.865 823.9869,-299 825.6692,-245.3642 829.5108,-184.9294 832.8482,-138.8464"/>
<ellipse fill="none" stroke="#040c7d" cx="873.182" cy="-577.3885" rx="4" ry="4"/>
<polygon fill="#040c7d" stroke="#040c7d" points="832.8647,-138.6193 838.0836,-128.9749 833.2302,-133.6327 833.5956,-128.646 833.5956,-128.646 833.5956,-128.646 833.2302,-133.6327 829.1077,-128.3171 832.8647,-138.6193 832.8647,-138.6193"/>
<text text-anchor="middle" x="895.0738" y="-301.8" font-family="Times,serif" font-size="14.00" fill="#000000">message_sender_relation</text>
</g>
<!-- User&#45;&gt;Message -->
<g id="edge22" class="edge">
<title>User&#45;&gt;Message</title>
<path fill="none" stroke="#b3ed09" d="M999.1179,-573.0373C997.3997,-484.9296 988.6469,-386.3928 964.7115,-299 948.9171,-241.3312 916.9063,-182.0594 889.1037,-137.5334"/>
<ellipse fill="none" stroke="#b3ed09" cx="999.19" cy="-577.2586" rx="4" ry="4"/>
<polygon fill="#b3ed09" stroke="#b3ed09" points="888.9462,-137.284 887.4098,-126.4263 886.2758,-133.0569 883.6054,-128.8297 883.6054,-128.8297 883.6054,-128.8297 886.2758,-133.0569 879.8009,-131.2331 888.9462,-137.284 888.9462,-137.284"/>
<text text-anchor="middle" x="1043.3395" y="-301.8" font-family="Times,serif" font-size="14.00" fill="#000000">message_receiver_relation</text>
</g>
<!-- User&#45;&gt;Event -->
<g id="edge15" class="edge">
<title>User&#45;&gt;Event</title>
<path fill="none" stroke="#d616a8" d="M819.9974,-581.806C819.5696,-581.5358 819.141,-581.2671 818.7115,-581 721.5826,-520.587 667.6674,-586.8098 557.2377,-543.7753"/>
<ellipse fill="none" stroke="#d616a8" cx="823.5127" cy="-584.1173" rx="4" ry="4"/>
<polygon fill="#d616a8" stroke="#d616a8" points="557.034,-543.6914 549.5026,-535.721 552.4111,-541.7865 547.7882,-539.8816 547.7882,-539.8816 547.7882,-539.8816 552.4111,-541.7865 546.0737,-544.0422 557.034,-543.6914 557.034,-543.6914"/>
</g>
<!-- User&#45;&gt;User -->
<g id="edge17" class="edge">
<title>User&#45;&gt;User</title>
<path fill="none" stroke="#17776f" d="M1156.3384,-834.03C1161.4506,-832.2568 1164.3463,-830.0801 1164.3463,-827.5 1164.3463,-824.9199 1161.4506,-822.7432 1156.3384,-820.97"/>
<polygon fill="#17776f" stroke="#17776f" points="1156.2762,-834.0456 1145.4806,-832.1203 1151.4271,-835.265 1146.5781,-836.4844 1146.5781,-836.4844 1146.5781,-836.4844 1151.4271,-835.265 1147.6755,-840.8485 1156.2762,-834.0456 1156.2762,-834.0456"/>
<polygon fill="#17776f" stroke="#17776f" points="1156.2762,-820.9544 1147.6755,-814.1515 1151.4271,-819.735 1146.5781,-818.5156 1146.5781,-818.5156 1146.5781,-818.5156 1151.4271,-819.735 1145.4806,-822.8797 1156.2762,-820.9544 1156.2762,-820.9544"/>
<text text-anchor="middle" x="1217.2189" y="-823.3" font-family="Times,serif" font-size="14.00" fill="#000000">request_chatrooms</text>
</g>
<!-- User&#45;&gt;User -->
<g id="edge19" class="edge">
<title>User&#45;&gt;User</title>
<path fill="none" stroke="#2d9bf7" d="M1156.8471,-852.2388C1217.8462,-851.8951 1270.0914,-843.6488 1270.0914,-827.5 1270.0914,-811.3512 1217.8462,-803.1049 1156.8471,-802.7612"/>
<polygon fill="#2d9bf7" stroke="#2d9bf7" points="1156.5857,-852.2385 1146.5928,-847.7227 1151.5857,-852.2306 1146.5857,-852.2227 1146.5857,-852.2227 1146.5857,-852.2227 1151.5857,-852.2306 1146.5786,-856.7227 1156.5857,-852.2385 1156.5857,-852.2385"/>
<polygon fill="#2d9bf7" stroke="#2d9bf7" points="1156.5857,-802.7615 1146.5786,-798.2773 1151.5857,-802.7694 1146.5857,-802.7773 1146.5857,-802.7773 1146.5857,-802.7773 1151.5857,-802.7694 1146.5928,-807.2773 1156.5857,-802.7615 1156.5857,-802.7615"/>
<text text-anchor="middle" x="1325.295" y="-823.3" font-family="Times,serif" font-size="14.00" fill="#000000">perform_chatrooms</text>
</g>
<!-- User&#45;&gt;User -->
<g id="edge21" class="edge">
<title>User&#45;&gt;User</title>
<path fill="none" stroke="#bfc7aa" d="M1156.6422,-863.1702C1264.7673,-869.0394 1380.4987,-857.1493 1380.4987,-827.5 1380.4987,-797.8507 1264.7673,-785.9606 1156.6422,-791.8298"/>
<polygon fill="#bfc7aa" stroke="#bfc7aa" points="1156.5239,-863.1633 1146.8092,-858.0766 1151.5328,-862.866 1146.5416,-862.5686 1146.5416,-862.5686 1146.5416,-862.5686 1151.5328,-862.866 1146.274,-867.0607 1156.5239,-863.1633 1156.5239,-863.1633"/>
<polygon fill="#bfc7aa" stroke="#bfc7aa" points="1156.5239,-791.8367 1146.274,-787.9393 1151.5328,-792.134 1146.5416,-792.4314 1146.5416,-792.4314 1146.5416,-792.4314 1151.5328,-792.134 1146.8092,-796.9234 1156.5239,-791.8367 1156.5239,-791.8367"/>
<text text-anchor="middle" x="1428.7057" y="-823.3" font-family="Times,serif" font-size="14.00" fill="#000000">sender_messages</text>
</g>
<!-- User&#45;&gt;User -->
<g id="edge23" class="edge">
<title>User&#45;&gt;User</title>
<path fill="none" stroke="#cd42e0" d="M1156.9197,-872.3488C1300.6663,-885.5652 1476.9127,-870.6156 1476.9127,-827.5 1476.9127,-784.3844 1300.6663,-769.4348 1156.9197,-782.6512"/>
<polygon fill="#cd42e0" stroke="#cd42e0" points="1156.5821,-872.3161 1147.0644,-866.8697 1151.6056,-871.8323 1146.629,-871.3486 1146.629,-871.3486 1146.629,-871.3486 1151.6056,-871.8323 1146.1936,-875.8275 1156.5821,-872.3161 1156.5821,-872.3161"/>
<polygon fill="#cd42e0" stroke="#cd42e0" points="1156.5821,-782.6839 1146.1936,-779.1725 1151.6056,-783.1677 1146.629,-783.6514 1146.629,-783.6514 1146.629,-783.6514 1151.6056,-783.1677 1147.0644,-788.1303 1156.5821,-782.6839 1156.5821,-782.6839"/>
<text text-anchor="middle" x="1529.3854" y="-823.3" font-family="Times,serif" font-size="14.00" fill="#000000">receiver_messages</text>
</g>
<!-- User&#45;&gt;Chatroom -->
<g id="edge16" class="edge">
<title>User&#45;&gt;Chatroom</title>
<path fill="none" stroke="#8b1f68" d="M1151.5133,-668.6259C1181.0715,-630.8334 1207.5741,-588.4642 1223.7115,-544 1256.0079,-455.0128 1251.531,-421.4868 1223.7115,-331 1219.2793,-316.5836 1212.1834,-302.3654 1204.1173,-289.225"/>
<ellipse fill="none" stroke="#8b1f68" cx="1148.8379" cy="-672.0031" rx="4" ry="4"/>
<polygon fill="#8b1f68" stroke="#8b1f68" points="1204.0863,-289.1765 1202.4849,-278.3282 1201.3906,-284.9654 1198.6949,-280.7543 1198.6949,-280.7543 1198.6949,-280.7543 1201.3906,-284.9654 1194.9049,-283.1804 1204.0863,-289.1765 1204.0863,-289.1765"/>
<text text-anchor="middle" x="1321.7394" y="-433.3" font-family="Times,serif" font-size="14.00" fill="#000000">chatroom_request_relation</text>
</g>
<!-- User&#45;&gt;Chatroom -->
<g id="edge18" class="edge">
<title>User&#45;&gt;Chatroom</title>
<path fill="none" stroke="#1b413a" d="M1001.1908,-573.3038C1012.1452,-470.6737 1031.3511,-367.7978 1064.9938,-331 1087.1684,-306.7457 1114.5516,-337.2678 1136.7115,-313 1142.5045,-306.656 1146.4627,-298.9444 1149.1054,-290.7376"/>
<ellipse fill="none" stroke="#1b413a" cx="1000.7679" cy="-577.3451" rx="4" ry="4"/>
<polygon fill="#1b413a" stroke="#1b413a" points="1149.1378,-290.6118 1155.992,-282.052 1150.3861,-285.7701 1151.6345,-280.9284 1151.6345,-280.9284 1151.6345,-280.9284 1150.3861,-285.7701 1147.277,-279.8049 1149.1378,-290.6118 1149.1378,-290.6118"/>
<text text-anchor="middle" x="1143.0704" y="-433.3" font-family="Times,serif" font-size="14.00" fill="#000000">chatroom_perform_relation</text>
</g>
<!-- Chatroom&#45;&gt;Message -->
<g id="edge27" class="edge">
<title>Chatroom&#45;&gt;Message</title>
<path fill="none" stroke="#bc1222" d="M1031.6599,-162.7756C1021.1938,-157.4396 1010.7635,-152.1228 1000.7115,-147 991.346,-142.227 981.6754,-137.2997 971.9377,-132.3388"/>
<ellipse fill="none" stroke="#bc1222" cx="1035.3436" cy="-164.6537" rx="4" ry="4"/>
<polygon fill="#bc1222" stroke="#bc1222" points="971.8934,-132.3162 965.0256,-123.7673 967.4381,-130.0466 962.9829,-127.777 962.9829,-127.777 962.9829,-127.777 967.4381,-130.0466 960.9403,-131.7867 971.8934,-132.3162 971.8934,-132.3162"/>
</g>
<!-- Sender -->
<g id="node23" class="node">
<title>Sender</title>
<ellipse fill="none" stroke="#000000" cx="1103.7115" cy="-64.5" rx="34.8285" ry="18"/>
<text text-anchor="middle" x="1103.7115" y="-60.3" font-family="Times,serif" font-size="14.00" fill="#000000">Sender</text>
</g>
<!-- Chatroom&#45;&gt;Sender -->
<g id="edge28" class="edge">
<title>Chatroom&#45;&gt;Sender</title>
<path fill="none" stroke="#5f9b70" d="M1130.8392,-156.2722C1124.1749,-133.7272 1117.1119,-109.833 1111.8638,-92.0789"/>
<polygon fill="#5f9b70" stroke="#5f9b70" points="1130.9087,-156.5075 1129.4281,-167.373 1132.3261,-161.3024 1133.7435,-166.0974 1133.7435,-166.0974 1133.7435,-166.0974 1132.3261,-161.3024 1138.0589,-164.8217 1130.9087,-156.5075 1130.9087,-156.5075"/>
<polygon fill="#5f9b70" stroke="#5f9b70" points="1111.8351,-91.9816 1113.3157,-81.1161 1110.4177,-87.1867 1109.0003,-82.3918 1109.0003,-82.3918 1109.0003,-82.3918 1110.4177,-87.1867 1104.6849,-83.6674 1111.8351,-91.9816 1111.8351,-91.9816"/>
</g>
<!-- Receiver -->
<g id="node24" class="node">
<title>Receiver</title>
<ellipse fill="none" stroke="#000000" cx="1197.7115" cy="-64.5" rx="41.5593" ry="18"/>
<text text-anchor="middle" x="1197.7115" y="-60.3" font-family="Times,serif" font-size="14.00" fill="#000000">Receiver</text>
</g>
<!-- Chatroom&#45;&gt;Receiver -->
<g id="edge29" class="edge">
<title>Chatroom&#45;&gt;Receiver</title>
<path fill="none" stroke="#24b9cd" d="M1170.5839,-156.2722C1177.2481,-133.7272 1184.3112,-109.833 1189.5593,-92.0789"/>
<polygon fill="#24b9cd" stroke="#24b9cd" points="1170.5144,-156.5075 1163.3642,-164.8217 1169.097,-161.3024 1167.6796,-166.0974 1167.6796,-166.0974 1167.6796,-166.0974 1169.097,-161.3024 1171.995,-167.373 1170.5144,-156.5075 1170.5144,-156.5075"/>
<polygon fill="#24b9cd" stroke="#24b9cd" points="1189.588,-91.9816 1196.7382,-83.6674 1191.0054,-87.1867 1192.4228,-82.3918 1192.4228,-82.3918 1192.4228,-82.3918 1191.0054,-87.1867 1188.1074,-81.1161 1189.588,-91.9816 1189.588,-91.9816"/>
</g>
<!-- ActiveStorage::Variant -->
<g id="node12" class="node">
<title>ActiveStorage::Variant</title>
<polygon fill="none" stroke="#000000" points="633.5665,-1125.5 633.5665,-1169.5 777.8566,-1169.5 777.8566,-1125.5 633.5665,-1125.5"/>
<text text-anchor="middle" x="705.7115" y="-1154.3" font-family="Times,serif" font-size="14.00" fill="#000000">ActiveStorage::Variant</text>
<polyline fill="none" stroke="#000000" points="633.5665,-1147.5 777.8566,-1147.5 "/>
<text text-anchor="middle" x="705.7115" y="-1132.3" font-family="Times,serif" font-size="14.00" fill="#000000"> </text>
</g>
<!-- ActiveStorage::Filename -->
<g id="node13" class="node">
<title>ActiveStorage::Filename</title>
<polygon fill="none" stroke="#000000" points="1097.7321,-1125.5 1097.7321,-1169.5 1253.691,-1169.5 1253.691,-1125.5 1097.7321,-1125.5"/>
<text text-anchor="middle" x="1175.7115" y="-1154.3" font-family="Times,serif" font-size="14.00" fill="#000000">ActiveStorage::Filename</text>
<polyline fill="none" stroke="#000000" points="1097.7321,-1147.5 1253.691,-1147.5 "/>
<text text-anchor="middle" x="1175.7115" y="-1132.3" font-family="Times,serif" font-size="14.00" fill="#000000"> </text>
</g>
<!-- ActiveStorage::Variation -->
<g id="node14" class="node">
<title>ActiveStorage::Variation</title>
<polygon fill="none" stroke="#000000" points="1423.1217,-1125.5 1423.1217,-1169.5 1578.3014,-1169.5 1578.3014,-1125.5 1423.1217,-1125.5"/>
<text text-anchor="middle" x="1500.7115" y="-1154.3" font-family="Times,serif" font-size="14.00" fill="#000000">ActiveStorage::Variation</text>
<polyline fill="none" stroke="#000000" points="1423.1217,-1147.5 1578.3014,-1147.5 "/>
<text text-anchor="middle" x="1500.7115" y="-1132.3" font-family="Times,serif" font-size="14.00" fill="#000000"> </text>
</g>
<!-- ActiveStorage::Current -->
<g id="node15" class="node">
<title>ActiveStorage::Current</title>
<polygon fill="none" stroke="#000000" points="1727.3976,-805.5 1727.3976,-849.5 1874.0255,-849.5 1874.0255,-805.5 1727.3976,-805.5"/>
<text text-anchor="middle" x="1800.7115" y="-834.3" font-family="Times,serif" font-size="14.00" fill="#000000">ActiveStorage::Current</text>
<polyline fill="none" stroke="#000000" points="1727.3976,-827.5 1874.0255,-827.5 "/>
<text text-anchor="middle" x="1800.7115" y="-812.3" font-family="Times,serif" font-size="14.00" fill="#000000"> </text>
</g>
<!-- ActiveStorage::Filename::Parameters -->
<g id="node16" class="node">
<title>ActiveStorage::Filename::Parameters</title>
<polygon fill="none" stroke="#000000" points="1947.7457,-1125.5 1947.7457,-1169.5 2173.6774,-1169.5 2173.6774,-1125.5 1947.7457,-1125.5"/>
<text text-anchor="middle" x="2060.7115" y="-1154.3" font-family="Times,serif" font-size="14.00" fill="#000000">ActiveStorage::Filename::Parameters</text>
<polyline fill="none" stroke="#000000" points="1947.7457,-1147.5 2173.6774,-1147.5 "/>
<text text-anchor="middle" x="2060.7115" y="-1132.3" font-family="Times,serif" font-size="14.00" fill="#000000"> </text>
</g>
<!-- ActiveStorage::Blob::Identifiable -->
<g id="node17" class="node">
<title>ActiveStorage::Blob::Identifiable</title>
<polygon fill="none" stroke="#000000" stroke-dasharray="1,5" points="2393.8398,-1165.5 2191.5833,-1165.5 2191.5833,-1129.5 2393.8398,-1129.5 2393.8398,-1165.5"/>
<text text-anchor="middle" x="2292.7115" y="-1143.3" font-family="Times,serif" font-size="14.00" fill="#000000">ActiveStorage::Blob::Identifiable</text>
</g>
<!-- ActiveStorage::Blob::Analyzable -->
<g id="node18" class="node">
<title>ActiveStorage::Blob::Analyzable</title>
<polygon fill="none" stroke="#000000" stroke-dasharray="1,5" points="2614.8262,-1165.5 2412.5969,-1165.5 2412.5969,-1129.5 2614.8262,-1129.5 2614.8262,-1165.5"/>
<text text-anchor="middle" x="2513.7115" y="-1143.3" font-family="Times,serif" font-size="14.00" fill="#000000">ActiveStorage::Blob::Analyzable</text>
</g>
<!-- ActiveStorage::Blob::Representable -->
<g id="node19" class="node">
<title>ActiveStorage::Blob::Representable</title>
<polygon fill="none" stroke="#000000" stroke-dasharray="1,5" points="2850.8776,-1165.5 2632.5455,-1165.5 2632.5455,-1129.5 2850.8776,-1129.5 2850.8776,-1165.5"/>
<text text-anchor="middle" x="2741.7115" y="-1143.3" font-family="Times,serif" font-size="14.00" fill="#000000">ActiveStorage::Blob::Representable</text>
</g>
<!-- ActiveStorage::Preview -->
<g id="node20" class="node">
<title>ActiveStorage::Preview</title>
<polygon fill="none" stroke="#000000" points="2868.8424,-1125.5 2868.8424,-1169.5 3018.5807,-1169.5 3018.5807,-1125.5 2868.8424,-1125.5"/>
<text text-anchor="middle" x="2943.7115" y="-1154.3" font-family="Times,serif" font-size="14.00" fill="#000000">ActiveStorage::Preview</text>
<polyline fill="none" stroke="#000000" points="2868.8424,-1147.5 3018.5807,-1147.5 "/>
<text text-anchor="middle" x="2943.7115" y="-1132.3" font-family="Times,serif" font-size="14.00" fill="#000000"> </text>
</g>
<!-- ActiveSupport::CurrentAttributes -->
<g id="node25" class="node">
<title>ActiveSupport::CurrentAttributes</title>
<ellipse fill="none" stroke="#000000" cx="1800.7115" cy="-1147.5" rx="128.9682" ry="18"/>
<text text-anchor="middle" x="1800.7115" y="-1143.3" font-family="Times,serif" font-size="14.00" fill="#000000">ActiveSupport::CurrentAttributes</text>
</g>
<!-- ActiveSupport::CurrentAttributes&#45;&gt;ActiveStorage::Current -->
<g id="edge31" class="edge">
<title>ActiveSupport::CurrentAttributes&#45;&gt;ActiveStorage::Current</title>
<path fill="none" stroke="#000000" d="M1800.7115,-1129.3785C1800.7115,-1074.3772 1800.7115,-909.466 1800.7115,-849.558"/>
</g>
</g>
</svg>
