<?xml version="1.0" encoding="UTF-8" standalone="no"?>
<!DOCTYPE svg PUBLIC "-//W3C//DTD SVG 1.1//EN"
 "http://www.w3.org/Graphics/SVG/1.1/DTD/svg11.dtd">
<!-- Generated by graphviz version 2.40.1 (20161225.0304)
 -->
<!-- Title: models_diagram Pages: 1 -->
<svg width="2740pt" height="313pt"
 viewBox="0.00 0.00 2740.15 313.00" xmlns="http://www.w3.org/2000/svg" xmlns:xlink="http://www.w3.org/1999/xlink">
<g id="graph0" class="graph" transform="scale(1 1) rotate(0) translate(4 309)">
<title>models_diagram</title>
<polygon fill="transparent" stroke="transparent" points="-4,4 -4,-309 2736.1497,-309 2736.1497,4 -4,4"/>
<!-- _diagram_info -->
<g id="node1" class="node">
<title>_diagram_info</title>
<text text-anchor="start" x="69.5929" y="-290.6" font-family="Times,serif" font-size="13.00" fill="#000000">Models diagram</text>
<text text-anchor="start" x="69.5929" y="-277.6" font-family="Times,serif" font-size="13.00" fill="#000000">Date: Nov 04 2019 &#45; 14:31</text>
<text text-anchor="start" x="69.5929" y="-264.6" font-family="Times,serif" font-size="13.00" fill="#000000">Migration version: 20191014104536</text>
<text text-anchor="start" x="69.5929" y="-251.6" font-family="Times,serif" font-size="13.00" fill="#000000">Generated by RailRoady 1.5.3</text>
<text text-anchor="start" x="69.5929" y="-238.6" font-family="Times,serif" font-size="13.00" fill="#000000">http://railroady.prestonlee.com</text>
</g>
<!-- Report -->
<g id="node2" class="node">
<title>Report</title>
<ellipse fill="none" stroke="#000000" cx="193.2806" cy="-177" rx="34.3527" ry="18"/>
<text text-anchor="middle" x="193.2806" y="-172.8" font-family="Times,serif" font-size="14.00" fill="#000000">Report</text>
</g>
<!-- Message -->
<g id="node3" class="node">
<title>Message</title>
<ellipse fill="none" stroke="#000000" cx="497.2806" cy="-18" rx="41.1007" ry="18"/>
<text text-anchor="middle" x="497.2806" y="-13.8" font-family="Times,serif" font-size="14.00" fill="#000000">Message</text>
</g>
<!-- AdminUser -->
<g id="node4" class="node">
<title>AdminUser</title>
<ellipse fill="none" stroke="#000000" cx="334.2806" cy="-177" rx="51.2415" ry="18"/>
<text text-anchor="middle" x="334.2806" y="-172.8" font-family="Times,serif" font-size="14.00" fill="#000000">AdminUser</text>
</g>
<!-- ApplicationRecord -->
<g id="node5" class="node">
<title>ApplicationRecord</title>
<ellipse fill="none" stroke="#000000" cx="364.2806" cy="-268.5" rx="77.2916" ry="18"/>
<text text-anchor="middle" x="364.2806" y="-264.3" font-family="Times,serif" font-size="14.00" fill="#000000">ApplicationRecord</text>
</g>
<!-- ApplicationRecord&#45;&gt;Report -->
<g id="edge1" class="edge">
<title>ApplicationRecord&#45;&gt;Report</title>
<path fill="none" stroke="#000000" d="M327.1747,-252.5927C293.9191,-238.2487 249.1833,-218.7038 241.2806,-214 230.7926,-207.7574 219.9539,-199.5752 211.2357,-192.4929"/>
</g>
<!-- ApplicationRecord&#45;&gt;Message -->
<g id="edge2" class="edge">
<title>ApplicationRecord&#45;&gt;Message</title>
<path fill="none" stroke="#000000" d="M401.8323,-252.5292C446.8566,-230.7936 518.8216,-187.0075 539.2806,-122 544.0838,-106.738 543.6507,-101.3916 539.2806,-86 533.8989,-67.0455 521.565,-48.1965 511.6474,-35.1679"/>
</g>
<!-- ApplicationRecord&#45;&gt;AdminUser -->
<g id="edge3" class="edge">
<title>ApplicationRecord&#45;&gt;AdminUser</title>
<path fill="none" stroke="#000000" d="M358.3536,-250.4225C353.0942,-234.3813 345.451,-211.0697 340.1953,-195.0399"/>
</g>
<!-- Event -->
<g id="node6" class="node">
<title>Event</title>
<ellipse fill="none" stroke="#000000" cx="255.2806" cy="-104" rx="30.9706" ry="18"/>
<text text-anchor="middle" x="255.2806" y="-99.8" font-family="Times,serif" font-size="14.00" fill="#000000">Event</text>
</g>
<!-- ApplicationRecord&#45;&gt;Event -->
<g id="edge8" class="edge">
<title>ApplicationRecord&#45;&gt;Event</title>
<path fill="none" stroke="#000000" d="M334.6224,-251.771C314.4859,-238.8569 288.944,-219.138 274.2806,-195 260.5384,-172.3785 256.6058,-141.3944 255.554,-122.0461"/>
</g>
<!-- User -->
<g id="node7" class="node">
<title>User</title>
<ellipse fill="none" stroke="#000000" cx="430.2806" cy="-177" rx="27" ry="18"/>
<text text-anchor="middle" x="430.2806" y="-172.8" font-family="Times,serif" font-size="14.00" fill="#000000">User</text>
</g>
<!-- ApplicationRecord&#45;&gt;User -->
<g id="edge12" class="edge">
<title>ApplicationRecord&#45;&gt;User</title>
<path fill="none" stroke="#000000" d="M377.3201,-250.4225C389.2665,-233.8605 406.8031,-209.5483 418.3775,-193.5021"/>
</g>
<!-- Chatroom -->
<g id="node8" class="node">
<title>Chatroom</title>
<ellipse fill="none" stroke="#000000" cx="485.2806" cy="-104" rx="45.4527" ry="18"/>
<text text-anchor="middle" x="485.2806" y="-99.8" font-family="Times,serif" font-size="14.00" fill="#000000">Chatroom</text>
</g>
<!-- ApplicationRecord&#45;&gt;Chatroom -->
<g id="edge14" class="edge">
<title>ApplicationRecord&#45;&gt;Chatroom</title>
<path fill="none" stroke="#000000" d="M398.8573,-252.1478C421.5136,-239.6441 449.8716,-220.2592 466.2806,-195 480.6997,-172.8039 484.4419,-141.7001 485.2694,-122.2109"/>
</g>
<!-- ActsAsTaggableOn::Tagging -->
<g id="node20" class="node">
<title>ActsAsTaggableOn::Tagging</title>
<ellipse fill="none" stroke="#000000" cx="325.2806" cy="-18" rx="113.0056" ry="18"/>
<text text-anchor="middle" x="325.2806" y="-13.8" font-family="Times,serif" font-size="14.00" fill="#000000">ActsAsTaggableOn::Tagging</text>
</g>
<!-- Event&#45;&gt;ActsAsTaggableOn::Tagging -->
<g id="edge4" class="edge">
<title>Event&#45;&gt;ActsAsTaggableOn::Tagging</title>
<path fill="none" stroke="#bae212" d="M250.5353,-77.8793C250.324,-69.7189 251.5156,-61.0228 255.8392,-54 259.1563,-48.612 263.5663,-43.9927 268.5614,-40.0409"/>
<ellipse fill="none" stroke="#bae212" cx="250.8727" cy="-82.1094" rx="4" ry="4"/>
<polygon fill="#bae212" stroke="#bae212" points="268.5782,-40.0294 279.3684,-38.0743 272.6989,-37.1975 276.8197,-34.3656 276.8197,-34.3656 276.8197,-34.3656 272.6989,-37.1975 274.271,-30.657 268.5782,-40.0294 268.5782,-40.0294"/>
<text text-anchor="middle" x="280.0013" y="-56.8" font-family="Times,serif" font-size="14.00" fill="#000000">taggings</text>
</g>
<!-- Event&#45;&gt;ActsAsTaggableOn::Tagging -->
<g id="edge6" class="edge">
<title>Event&#45;&gt;ActsAsTaggableOn::Tagging</title>
<path fill="none" stroke="#23b72f" d="M284.1764,-86.0819C291.0537,-80.8627 297.9379,-74.7312 303.2806,-68 308.504,-61.4191 312.7469,-53.4049 316.0624,-45.7376"/>
<ellipse fill="none" stroke="#23b72f" cx="280.6061" cy="-88.6499" rx="4" ry="4"/>
<polygon fill="#23b72f" stroke="#23b72f" points="316.0982,-45.6467 323.9556,-37.9974 317.9341,-40.9959 319.7699,-36.3452 319.7699,-36.3452 319.7699,-36.3452 317.9341,-40.9959 315.5842,-34.6929 316.0982,-45.6467 316.0982,-45.6467"/>
<text text-anchor="middle" x="348.0531" y="-56.8" font-family="Times,serif" font-size="14.00" fill="#000000">tag_taggings</text>
</g>
<!-- ActsAsTaggableOn::Tag -->
<g id="node21" class="node">
<title>ActsAsTaggableOn::Tag</title>
<ellipse fill="none" stroke="#000000" cx="97.2806" cy="-18" rx="97.0617" ry="18"/>
<text text-anchor="middle" x="97.2806" y="-13.8" font-family="Times,serif" font-size="14.00" fill="#000000">ActsAsTaggableOn::Tag</text>
</g>
<!-- Event&#45;&gt;ActsAsTaggableOn::Tag -->
<g id="edge5" class="edge">
<title>Event&#45;&gt;ActsAsTaggableOn::Tag</title>
<path fill="none" stroke="#42fafe" d="M223.7792,-86.8536C199.0571,-73.3974 164.4648,-54.5686 137.7016,-40.0013"/>
<polygon fill="#42fafe" stroke="#42fafe" points="223.8598,-86.8975 230.4917,-95.6307 228.2514,-89.2879 232.643,-91.6783 232.643,-91.6783 232.643,-91.6783 228.2514,-89.2879 234.7944,-87.7259 223.8598,-86.8975 223.8598,-86.8975"/>
<polygon fill="#42fafe" stroke="#42fafe" points="137.3739,-39.823 130.7421,-31.0898 132.9823,-37.4326 128.5907,-35.0422 128.5907,-35.0422 128.5907,-35.0422 132.9823,-37.4326 126.4394,-38.9947 137.3739,-39.823 137.3739,-39.823"/>
<text text-anchor="middle" x="213.4945" y="-56.8" font-family="Times,serif" font-size="14.00" fill="#000000">base_tags</text>
</g>
<!-- Event&#45;&gt;ActsAsTaggableOn::Tag -->
<g id="edge7" class="edge">
<title>Event&#45;&gt;ActsAsTaggableOn::Tag</title>
<path fill="none" stroke="#b8c23d" d="M215.7107,-97.1889C192.4908,-91.873 163.362,-82.8267 140.7288,-68 131.1062,-61.6963 122.3697,-52.6847 115.2962,-44.0439"/>
<polygon fill="#b8c23d" stroke="#b8c23d" points="215.8136,-97.2109 224.6459,-103.7102 220.7022,-98.2607 225.5907,-99.3105 225.5907,-99.3105 225.5907,-99.3105 220.7022,-98.2607 226.5355,-94.9107 215.8136,-97.2109 215.8136,-97.2109"/>
<polygon fill="#b8c23d" stroke="#b8c23d" points="115.1703,-43.8813 112.6076,-33.2191 112.1097,-39.9275 109.0492,-35.9736 109.0492,-35.9736 109.0492,-35.9736 112.1097,-39.9275 105.4907,-38.7281 115.1703,-43.8813 115.1703,-43.8813"/>
<text text-anchor="middle" x="152.5565" y="-56.8" font-family="Times,serif" font-size="14.00" fill="#000000">tags</text>
</g>
<!-- User&#45;&gt;Message -->
<g id="edge10" class="edge">
<title>User&#45;&gt;Message</title>
<path fill="none" stroke="#6c2075" d="M425.5847,-151.0181C423.3571,-132.2394 422.7748,-106.6497 431.2806,-86 438.7708,-67.8158 453.6567,-51.787 467.3983,-39.8655"/>
<ellipse fill="none" stroke="#6c2075" cx="426.1534" cy="-155.1619" rx="4" ry="4"/>
<polygon fill="#6c2075" stroke="#6c2075" points="467.5868,-39.7096 478.1605,-36.8032 471.4395,-36.5227 475.2923,-33.3357 475.2923,-33.3357 475.2923,-33.3357 471.4395,-36.5227 472.424,-29.8683 467.5868,-39.7096 467.5868,-39.7096"/>
</g>
<!-- User&#45;&gt;Event -->
<g id="edge9" class="edge">
<title>User&#45;&gt;Event</title>
<path fill="none" stroke="#0966b2" d="M401.5017,-162.335C399.0713,-161.1806 396.6411,-160.0548 394.2806,-159 359.6259,-143.5153 319.1992,-127.7719 290.907,-117.1196"/>
<ellipse fill="none" stroke="#0966b2" cx="405.1258" cy="-164.0943" rx="4" ry="4"/>
<polygon fill="#0966b2" stroke="#0966b2" points="290.8001,-117.0796 283.0132,-109.3586 286.1176,-115.3262 281.4351,-113.5729 281.4351,-113.5729 281.4351,-113.5729 286.1176,-115.3262 279.8571,-117.7871 290.8001,-117.0796 290.8001,-117.0796"/>
</g>
<!-- User&#45;&gt;Chatroom -->
<g id="edge11" class="edge">
<title>User&#45;&gt;Chatroom</title>
<path fill="none" stroke="#7aa2c1" d="M448.6382,-152.6345C454.1717,-145.29 460.2624,-137.2059 465.8625,-129.7731"/>
<polygon fill="#7aa2c1" stroke="#7aa2c1" points="448.5044,-152.8121 438.8928,-158.091 445.4956,-156.8055 442.4869,-160.7989 442.4869,-160.7989 442.4869,-160.7989 445.4956,-156.8055 446.081,-163.5068 448.5044,-152.8121 448.5044,-152.8121"/>
<polygon fill="#7aa2c1" stroke="#7aa2c1" points="466.1307,-129.4171 475.7423,-124.1381 469.1395,-125.4237 472.1482,-121.4302 472.1482,-121.4302 472.1482,-121.4302 469.1395,-125.4237 468.5541,-118.7223 466.1307,-129.4171 466.1307,-129.4171"/>
</g>
<!-- Chatroom&#45;&gt;Message -->
<g id="edge13" class="edge">
<title>Chatroom&#45;&gt;Message</title>
<path fill="none" stroke="#026e36" d="M488.9387,-77.7834C490.3313,-67.8033 491.9235,-56.3925 493.341,-46.2334"/>
<ellipse fill="none" stroke="#026e36" cx="488.3783" cy="-81.8" rx="4" ry="4"/>
<polygon fill="#026e36" stroke="#026e36" points="493.3573,-46.1161 499.1962,-36.834 494.0484,-41.1641 494.7394,-36.2121 494.7394,-36.2121 494.7394,-36.2121 494.0484,-41.1641 490.2826,-35.5902 493.3573,-46.1161 493.3573,-46.1161"/>
</g>
<!-- ActiveStorage::Variant -->
<g id="node9" class="node">
<title>ActiveStorage::Variant</title>
<polygon fill="none" stroke="#000000" points="604.5709,-286.5 459.9903,-286.5 459.9903,-250.5 604.5709,-250.5 604.5709,-286.5"/>
<text text-anchor="middle" x="532.2806" y="-264.3" font-family="Times,serif" font-size="14.00" fill="#000000">ActiveStorage::Variant</text>
</g>
<!-- ActiveStorage::Blob -->
<g id="node10" class="node">
<title>ActiveStorage::Blob</title>
<ellipse fill="none" stroke="#000000" cx="705.2806" cy="-268.5" rx="82.6131" ry="18"/>
<text text-anchor="middle" x="705.2806" y="-264.3" font-family="Times,serif" font-size="14.00" fill="#000000">ActiveStorage::Blob</text>
</g>
<!-- ActiveStorage::Filename -->
<g id="node11" class="node">
<title>ActiveStorage::Filename</title>
<polygon fill="none" stroke="#000000" points="962.2396,-286.5 806.3216,-286.5 806.3216,-250.5 962.2396,-250.5 962.2396,-286.5"/>
<text text-anchor="middle" x="884.2806" y="-264.3" font-family="Times,serif" font-size="14.00" fill="#000000">ActiveStorage::Filename</text>
</g>
<!-- ActiveStorage::Variation -->
<g id="node12" class="node">
<title>ActiveStorage::Variation</title>
<polygon fill="none" stroke="#000000" points="1135.9604,-286.5 980.6008,-286.5 980.6008,-250.5 1135.9604,-250.5 1135.9604,-286.5"/>
<text text-anchor="middle" x="1058.2806" y="-264.3" font-family="Times,serif" font-size="14.00" fill="#000000">ActiveStorage::Variation</text>
</g>
<!-- ActiveStorage::Attachment -->
<g id="node13" class="node">
<title>ActiveStorage::Attachment</title>
<ellipse fill="none" stroke="#000000" cx="1260.2806" cy="-268.5" rx="106.7251" ry="18"/>
<text text-anchor="middle" x="1260.2806" y="-264.3" font-family="Times,serif" font-size="14.00" fill="#000000">ActiveStorage::Attachment</text>
</g>
<!-- ActiveStorage::Current -->
<g id="node14" class="node">
<title>ActiveStorage::Current</title>
<polygon fill="none" stroke="#000000" points="1587.409,-195 1441.1522,-195 1441.1522,-159 1587.409,-159 1587.409,-195"/>
<text text-anchor="middle" x="1514.2806" y="-172.8" font-family="Times,serif" font-size="14.00" fill="#000000">ActiveStorage::Current</text>
</g>
<!-- ActiveStorage::Filename::Parameters -->
<g id="node15" class="node">
<title>ActiveStorage::Filename::Parameters</title>
<polygon fill="none" stroke="#000000" points="1887.2122,-286.5 1661.3489,-286.5 1661.3489,-250.5 1887.2122,-250.5 1887.2122,-286.5"/>
<text text-anchor="middle" x="1774.2806" y="-264.3" font-family="Times,serif" font-size="14.00" fill="#000000">ActiveStorage::Filename::Parameters</text>
</g>
<!-- ActiveStorage::Blob::Identifiable -->
<g id="node16" class="node">
<title>ActiveStorage::Blob::Identifiable</title>
<polygon fill="none" stroke="#000000" stroke-dasharray="1,5" points="2107.4089,-286.5 1905.1523,-286.5 1905.1523,-250.5 2107.4089,-250.5 2107.4089,-286.5"/>
<text text-anchor="middle" x="2006.2806" y="-264.3" font-family="Times,serif" font-size="14.00" fill="#000000">ActiveStorage::Blob::Identifiable</text>
</g>
<!-- ActiveStorage::Blob::Analyzable -->
<g id="node17" class="node">
<title>ActiveStorage::Blob::Analyzable</title>
<polygon fill="none" stroke="#000000" stroke-dasharray="1,5" points="2328.3952,-286.5 2126.166,-286.5 2126.166,-250.5 2328.3952,-250.5 2328.3952,-286.5"/>
<text text-anchor="middle" x="2227.2806" y="-264.3" font-family="Times,serif" font-size="14.00" fill="#000000">ActiveStorage::Blob::Analyzable</text>
</g>
<!-- ActiveStorage::Blob::Representable -->
<g id="node18" class="node">
<title>ActiveStorage::Blob::Representable</title>
<polygon fill="none" stroke="#000000" stroke-dasharray="1,5" points="2564.4467,-286.5 2346.1145,-286.5 2346.1145,-250.5 2564.4467,-250.5 2564.4467,-286.5"/>
<text text-anchor="middle" x="2455.2806" y="-264.3" font-family="Times,serif" font-size="14.00" fill="#000000">ActiveStorage::Blob::Representable</text>
</g>
<!-- ActiveStorage::Preview -->
<g id="node19" class="node">
<title>ActiveStorage::Preview</title>
<polygon fill="none" stroke="#000000" points="2732.0191,-286.5 2582.5421,-286.5 2582.5421,-250.5 2732.0191,-250.5 2732.0191,-286.5"/>
<text text-anchor="middle" x="2657.2806" y="-264.3" font-family="Times,serif" font-size="14.00" fill="#000000">ActiveStorage::Preview</text>
</g>
<!-- ActiveSupport::CurrentAttributes -->
<g id="node22" class="node">
<title>ActiveSupport::CurrentAttributes</title>
<ellipse fill="none" stroke="#000000" cx="1514.2806" cy="-268.5" rx="128.9682" ry="18"/>
<text text-anchor="middle" x="1514.2806" y="-264.3" font-family="Times,serif" font-size="14.00" fill="#000000">ActiveSupport::CurrentAttributes</text>
</g>
<!-- ActiveSupport::CurrentAttributes&#45;&gt;ActiveStorage::Current -->
<g id="edge15" class="edge">
<title>ActiveSupport::CurrentAttributes&#45;&gt;ActiveStorage::Current</title>
<path fill="none" stroke="#000000" d="M1514.2806,-250.4225C1514.2806,-234.3813 1514.2806,-211.0697 1514.2806,-195.0399"/>
</g>
</g>
</svg>
