<?xml version="1.0" encoding="UTF-8" standalone="no"?>
<!DOCTYPE svg PUBLIC "-//W3C//DTD SVG 1.1//EN"
 "http://www.w3.org/Graphics/SVG/1.1/DTD/svg11.dtd">
<!-- Generated by graphviz version 2.40.1 (20161225.0304)
 -->
<!-- Title: models_diagram Pages: 1 -->
<svg width="2621pt" height="1136pt"
 viewBox="0.00 0.00 2620.73 1136.00" xmlns="http://www.w3.org/2000/svg" xmlns:xlink="http://www.w3.org/1999/xlink">
<g id="graph0" class="graph" transform="scale(1 1) rotate(0) translate(4 1132)">
<title>models_diagram</title>
<polygon fill="transparent" stroke="transparent" points="-4,4 -4,-1132 2616.7314,-1132 2616.7314,4 -4,4"/>
<!-- _diagram_info -->
<g id="node1" class="node">
<title>_diagram_info</title>
<text text-anchor="start" x="357.4126" y="-1113.6" font-family="Times,serif" font-size="13.00" fill="#000000">Models diagram</text>
<text text-anchor="start" x="357.4126" y="-1100.6" font-family="Times,serif" font-size="13.00" fill="#000000">Date: Nov 11 2019 &#45; 14:43</text>
<text text-anchor="start" x="357.4126" y="-1087.6" font-family="Times,serif" font-size="13.00" fill="#000000">Migration version: 20191109183306</text>
<text text-anchor="start" x="357.4126" y="-1074.6" font-family="Times,serif" font-size="13.00" fill="#000000">Generated by RailRoady 1.5.3</text>
<text text-anchor="start" x="357.4126" y="-1061.6" font-family="Times,serif" font-size="13.00" fill="#000000">http://railroady.prestonlee.com</text>
</g>
<!-- Report -->
<g id="node2" class="node">
<title>Report</title>
<path fill="none" stroke="#000000" d="M12,-735.5C12,-735.5 235.7246,-735.5 235.7246,-735.5 241.7246,-735.5 247.7246,-741.5 247.7246,-747.5 247.7246,-747.5 247.7246,-837.5 247.7246,-837.5 247.7246,-843.5 241.7246,-849.5 235.7246,-849.5 235.7246,-849.5 12,-849.5 12,-849.5 6,-849.5 0,-843.5 0,-837.5 0,-837.5 0,-747.5 0,-747.5 0,-741.5 6,-735.5 12,-735.5"/>
<text text-anchor="middle" x="123.8623" y="-834.3" font-family="Times,serif" font-size="14.00" fill="#000000">Report</text>
<polyline fill="none" stroke="#000000" points="0,-827.5 247.7246,-827.5 "/>
<text text-anchor="start" x="8" y="-812.3" font-family="Times,serif" font-size="14.00" fill="#000000">id :bigint</text>
<text text-anchor="start" x="8" y="-798.3" font-family="Times,serif" font-size="14.00" fill="#000000">event_id :bigint</text>
<text text-anchor="start" x="8" y="-784.3" font-family="Times,serif" font-size="14.00" fill="#000000">user_id :bigint</text>
<text text-anchor="start" x="8" y="-770.3" font-family="Times,serif" font-size="14.00" fill="#000000">content :text</text>
<text text-anchor="start" x="8" y="-756.3" font-family="Times,serif" font-size="14.00" fill="#000000">created_at :timestamp without time zone</text>
<text text-anchor="start" x="8" y="-742.3" font-family="Times,serif" font-size="14.00" fill="#000000">updated_at :timestamp without time zone</text>
</g>
<!-- Message -->
<g id="node3" class="node">
<title>Message</title>
<path fill="none" stroke="#000000" d="M255,-.5C255,-.5 478.7246,-.5 478.7246,-.5 484.7246,-.5 490.7246,-6.5 490.7246,-12.5 490.7246,-12.5 490.7246,-102.5 490.7246,-102.5 490.7246,-108.5 484.7246,-114.5 478.7246,-114.5 478.7246,-114.5 255,-114.5 255,-114.5 249,-114.5 243,-108.5 243,-102.5 243,-102.5 243,-12.5 243,-12.5 243,-6.5 249,-.5 255,-.5"/>
<text text-anchor="middle" x="366.8623" y="-99.3" font-family="Times,serif" font-size="14.00" fill="#000000">Message</text>
<polyline fill="none" stroke="#000000" points="243,-92.5 490.7246,-92.5 "/>
<text text-anchor="start" x="251" y="-77.3" font-family="Times,serif" font-size="14.00" fill="#000000">id :bigint</text>
<text text-anchor="start" x="251" y="-63.3" font-family="Times,serif" font-size="14.00" fill="#000000">content :character varying</text>
<text text-anchor="start" x="251" y="-49.3" font-family="Times,serif" font-size="14.00" fill="#000000">user_id :bigint</text>
<text text-anchor="start" x="251" y="-35.3" font-family="Times,serif" font-size="14.00" fill="#000000">chatroom_id :bigint</text>
<text text-anchor="start" x="251" y="-21.3" font-family="Times,serif" font-size="14.00" fill="#000000">created_at :timestamp without time zone</text>
<text text-anchor="start" x="251" y="-7.3" font-family="Times,serif" font-size="14.00" fill="#000000">updated_at :timestamp without time zone</text>
</g>
<!-- Building -->
<g id="node4" class="node">
<title>Building</title>
<path fill="none" stroke="#000000" d="M692,-728.5C692,-728.5 915.7246,-728.5 915.7246,-728.5 921.7246,-728.5 927.7246,-734.5 927.7246,-740.5 927.7246,-740.5 927.7246,-844.5 927.7246,-844.5 927.7246,-850.5 921.7246,-856.5 915.7246,-856.5 915.7246,-856.5 692,-856.5 692,-856.5 686,-856.5 680,-850.5 680,-844.5 680,-844.5 680,-740.5 680,-740.5 680,-734.5 686,-728.5 692,-728.5"/>
<text text-anchor="middle" x="803.8623" y="-841.3" font-family="Times,serif" font-size="14.00" fill="#000000">Building</text>
<polyline fill="none" stroke="#000000" points="680,-834.5 927.7246,-834.5 "/>
<text text-anchor="start" x="688" y="-819.3" font-family="Times,serif" font-size="14.00" fill="#000000">id :bigint</text>
<text text-anchor="start" x="688" y="-805.3" font-family="Times,serif" font-size="14.00" fill="#000000">name :character varying</text>
<text text-anchor="start" x="688" y="-791.3" font-family="Times,serif" font-size="14.00" fill="#000000">lat :double precision</text>
<text text-anchor="start" x="688" y="-777.3" font-family="Times,serif" font-size="14.00" fill="#000000">lng :double precision</text>
<text text-anchor="start" x="688" y="-763.3" font-family="Times,serif" font-size="14.00" fill="#000000">created_at :timestamp without time zone</text>
<text text-anchor="start" x="688" y="-749.3" font-family="Times,serif" font-size="14.00" fill="#000000">updated_at :timestamp without time zone</text>
<text text-anchor="start" x="688" y="-735.3" font-family="Times,serif" font-size="14.00" fill="#000000">events_count :integer</text>
</g>
<!-- Event -->
<g id="node7" class="node">
<title>Event</title>
<path fill="none" stroke="#000000" d="M692,-317.5C692,-317.5 915.7246,-317.5 915.7246,-317.5 921.7246,-317.5 927.7246,-323.5 927.7246,-329.5 927.7246,-329.5 927.7246,-517.5 927.7246,-517.5 927.7246,-523.5 921.7246,-529.5 915.7246,-529.5 915.7246,-529.5 692,-529.5 692,-529.5 686,-529.5 680,-523.5 680,-517.5 680,-517.5 680,-329.5 680,-329.5 680,-323.5 686,-317.5 692,-317.5"/>
<text text-anchor="middle" x="803.8623" y="-514.3" font-family="Times,serif" font-size="14.00" fill="#000000">Event</text>
<polyline fill="none" stroke="#000000" points="680,-507.5 927.7246,-507.5 "/>
<text text-anchor="start" x="688" y="-492.3" font-family="Times,serif" font-size="14.00" fill="#000000">building_id :bigint</text>
<text text-anchor="start" x="688" y="-478.3" font-family="Times,serif" font-size="14.00" fill="#000000">user_id :bigint</text>
<text text-anchor="start" x="688" y="-464.3" font-family="Times,serif" font-size="14.00" fill="#000000">title :character varying</text>
<text text-anchor="start" x="688" y="-450.3" font-family="Times,serif" font-size="14.00" fill="#000000">place :character varying</text>
<text text-anchor="start" x="688" y="-436.3" font-family="Times,serif" font-size="14.00" fill="#000000">detail_place :character varying</text>
<text text-anchor="start" x="688" y="-422.3" font-family="Times,serif" font-size="14.00" fill="#000000">time_limit :timestamp without time zone</text>
<text text-anchor="start" x="688" y="-408.3" font-family="Times,serif" font-size="14.00" fill="#000000">content :text</text>
<text text-anchor="start" x="688" y="-394.3" font-family="Times,serif" font-size="14.00" fill="#000000">state :integer</text>
<text text-anchor="start" x="688" y="-380.3" font-family="Times,serif" font-size="14.00" fill="#000000">reward :integer</text>
<text text-anchor="start" x="688" y="-366.3" font-family="Times,serif" font-size="14.00" fill="#000000">created_at :timestamp without time zone</text>
<text text-anchor="start" x="688" y="-352.3" font-family="Times,serif" font-size="14.00" fill="#000000">updated_at :timestamp without time zone</text>
<text text-anchor="start" x="688" y="-338.3" font-family="Times,serif" font-size="14.00" fill="#000000">performer_id :bigint</text>
<text text-anchor="start" x="688" y="-324.3" font-family="Times,serif" font-size="14.00" fill="#000000">id :bigint</text>
</g>
<!-- Building&#45;&gt;Event -->
<g id="edge3" class="edge">
<title>Building&#45;&gt;Event</title>
<path fill="none" stroke="#98de1b" d="M803.8623,-720.0356C803.8623,-668.7275 803.8623,-598.8159 803.8623,-539.7613"/>
<ellipse fill="none" stroke="#98de1b" cx="803.8624" cy="-724.2251" rx="4" ry="4"/>
<polygon fill="#98de1b" stroke="#98de1b" points="803.8624,-539.6268 808.3623,-529.6268 803.8624,-534.6268 803.8623,-529.6268 803.8623,-529.6268 803.8623,-529.6268 803.8624,-534.6268 799.3623,-529.6269 803.8624,-539.6268 803.8624,-539.6268"/>
</g>
<!-- AdminUser -->
<g id="node5" class="node">
<title>AdminUser</title>
<path fill="none" stroke="#000000" d="M996.2275,-721.5C996.2275,-721.5 1291.4971,-721.5 1291.4971,-721.5 1297.4971,-721.5 1303.4971,-727.5 1303.4971,-733.5 1303.4971,-733.5 1303.4971,-851.5 1303.4971,-851.5 1303.4971,-857.5 1297.4971,-863.5 1291.4971,-863.5 1291.4971,-863.5 996.2275,-863.5 996.2275,-863.5 990.2275,-863.5 984.2275,-857.5 984.2275,-851.5 984.2275,-851.5 984.2275,-733.5 984.2275,-733.5 984.2275,-727.5 990.2275,-721.5 996.2275,-721.5"/>
<text text-anchor="middle" x="1143.8623" y="-848.3" font-family="Times,serif" font-size="14.00" fill="#000000">AdminUser</text>
<polyline fill="none" stroke="#000000" points="984.2275,-841.5 1303.4971,-841.5 "/>
<text text-anchor="start" x="992.2275" y="-826.3" font-family="Times,serif" font-size="14.00" fill="#000000">updated_at :timestamp without time zone</text>
<text text-anchor="start" x="992.2275" y="-812.3" font-family="Times,serif" font-size="14.00" fill="#000000">email :character varying</text>
<text text-anchor="start" x="992.2275" y="-798.3" font-family="Times,serif" font-size="14.00" fill="#000000">encrypted_password :character varying</text>
<text text-anchor="start" x="992.2275" y="-784.3" font-family="Times,serif" font-size="14.00" fill="#000000">reset_password_token :character varying</text>
<text text-anchor="start" x="992.2275" y="-770.3" font-family="Times,serif" font-size="14.00" fill="#000000">reset_password_sent_at :timestamp without time zone</text>
<text text-anchor="start" x="992.2275" y="-756.3" font-family="Times,serif" font-size="14.00" fill="#000000">remember_created_at :timestamp without time zone</text>
<text text-anchor="start" x="992.2275" y="-742.3" font-family="Times,serif" font-size="14.00" fill="#000000">created_at :timestamp without time zone</text>
<text text-anchor="start" x="992.2275" y="-728.3" font-family="Times,serif" font-size="14.00" fill="#000000">id :bigint</text>
</g>
<!-- ApplicationRecord -->
<g id="node6" class="node">
<title>ApplicationRecord</title>
<ellipse fill="none" stroke="#000000" cx="651.8623" cy="-1091.5" rx="77.2916" ry="18"/>
<text text-anchor="middle" x="651.8623" y="-1087.3" font-family="Times,serif" font-size="14.00" fill="#000000">ApplicationRecord</text>
</g>
<!-- ApplicationRecord&#45;&gt;Report -->
<g id="edge1" class="edge">
<title>ApplicationRecord&#45;&gt;Report</title>
<path fill="none" stroke="#000000" d="M619.6873,-1074.9289C603.6439,-1067.4707 583.6888,-1059.3741 564.8623,-1055 499.1603,-1039.735 319.0778,-1072.7235 261.8623,-1037 194.6762,-995.0512 157.181,-907.842 138.7543,-849.7342"/>
</g>
<!-- ApplicationRecord&#45;&gt;Message -->
<g id="edge2" class="edge">
<title>ApplicationRecord&#45;&gt;Message</title>
<path fill="none" stroke="#000000" d="M618.7077,-1075.1842C602.7722,-1067.9715 583.1908,-1060.0078 564.8623,-1055 506.4428,-1039.0385 336.5546,-1061.9244 294.8623,-1018 225.621,-945.0517 275.8623,-893.0773 275.8623,-792.5 275.8623,-792.5 275.8623,-792.5 275.8623,-209.5 275.8623,-174.8988 293.4361,-141.3547 313.1381,-114.6208"/>
</g>
<!-- ApplicationRecord&#45;&gt;Building -->
<g id="edge4" class="edge">
<title>ApplicationRecord&#45;&gt;Building</title>
<path fill="none" stroke="#000000" d="M661.1418,-1073.2463C682.5411,-1031.1515 736.1981,-925.6027 771.2807,-856.5914"/>
</g>
<!-- ApplicationRecord&#45;&gt;AdminUser -->
<g id="edge5" class="edge">
<title>ApplicationRecord&#45;&gt;AdminUser</title>
<path fill="none" stroke="#000000" d="M684.464,-1075.0879C700.7053,-1067.6674 720.8847,-1059.5565 739.8623,-1055 789.7129,-1043.0309 925.2496,-1062.2597 969.8623,-1037 1037.8676,-998.4954 1085.9174,-921.1709 1114.0492,-863.7382"/>
</g>
<!-- ApplicationRecord&#45;&gt;Event -->
<g id="edge11" class="edge">
<title>ApplicationRecord&#45;&gt;Event</title>
<path fill="none" stroke="#000000" d="M686.3719,-1075.2348C702.3639,-1068.2078 721.7911,-1060.3812 739.8623,-1055 825.2437,-1029.5754 879.979,-1086.5615 936.8623,-1018 968.8591,-979.4341 955.157,-613.6522 936.8623,-567 931.7778,-554.0344 924.9105,-541.5411 916.9619,-529.7013"/>
</g>
<!-- User -->
<g id="node8" class="node">
<title>User</title>
<path fill="none" stroke="#000000" d="M316.2275,-567.5C316.2275,-567.5 611.4971,-567.5 611.4971,-567.5 617.4971,-567.5 623.4971,-573.5 623.4971,-579.5 623.4971,-579.5 623.4971,-1005.5 623.4971,-1005.5 623.4971,-1011.5 617.4971,-1017.5 611.4971,-1017.5 611.4971,-1017.5 316.2275,-1017.5 316.2275,-1017.5 310.2275,-1017.5 304.2275,-1011.5 304.2275,-1005.5 304.2275,-1005.5 304.2275,-579.5 304.2275,-579.5 304.2275,-573.5 310.2275,-567.5 316.2275,-567.5"/>
<text text-anchor="middle" x="463.8623" y="-1002.3" font-family="Times,serif" font-size="14.00" fill="#000000">User</text>
<polyline fill="none" stroke="#000000" points="304.2275,-995.5 623.4971,-995.5 "/>
<text text-anchor="start" x="312.2275" y="-980.3" font-family="Times,serif" font-size="14.00" fill="#000000">blacklist :boolean</text>
<text text-anchor="start" x="312.2275" y="-966.3" font-family="Times,serif" font-size="14.00" fill="#000000">name :character varying</text>
<text text-anchor="start" x="312.2275" y="-952.3" font-family="Times,serif" font-size="14.00" fill="#000000">email :character varying</text>
<text text-anchor="start" x="312.2275" y="-938.3" font-family="Times,serif" font-size="14.00" fill="#000000">encrypted_password :character varying</text>
<text text-anchor="start" x="312.2275" y="-924.3" font-family="Times,serif" font-size="14.00" fill="#000000">phone :character varying</text>
<text text-anchor="start" x="312.2275" y="-910.3" font-family="Times,serif" font-size="14.00" fill="#000000">thumbnail :character varying</text>
<text text-anchor="start" x="312.2275" y="-896.3" font-family="Times,serif" font-size="14.00" fill="#000000">address1 :character varying</text>
<text text-anchor="start" x="312.2275" y="-882.3" font-family="Times,serif" font-size="14.00" fill="#000000">address2 :character varying</text>
<text text-anchor="start" x="312.2275" y="-868.3" font-family="Times,serif" font-size="14.00" fill="#000000">zipcode :character varying</text>
<text text-anchor="start" x="312.2275" y="-854.3" font-family="Times,serif" font-size="14.00" fill="#000000">gender :integer</text>
<text text-anchor="start" x="312.2275" y="-840.3" font-family="Times,serif" font-size="14.00" fill="#000000">customs_number :character varying</text>
<text text-anchor="start" x="312.2275" y="-826.3" font-family="Times,serif" font-size="14.00" fill="#000000">role :integer</text>
<text text-anchor="start" x="312.2275" y="-812.3" font-family="Times,serif" font-size="14.00" fill="#000000">accept_sms :boolean</text>
<text text-anchor="start" x="312.2275" y="-798.3" font-family="Times,serif" font-size="14.00" fill="#000000">accept_email :boolean</text>
<text text-anchor="start" x="312.2275" y="-784.3" font-family="Times,serif" font-size="14.00" fill="#000000">reset_password_token :character varying</text>
<text text-anchor="start" x="312.2275" y="-770.3" font-family="Times,serif" font-size="14.00" fill="#000000">reset_password_sent_at :timestamp without time zone</text>
<text text-anchor="start" x="312.2275" y="-756.3" font-family="Times,serif" font-size="14.00" fill="#000000">remember_created_at :timestamp without time zone</text>
<text text-anchor="start" x="312.2275" y="-742.3" font-family="Times,serif" font-size="14.00" fill="#000000">sign_in_count :integer</text>
<text text-anchor="start" x="312.2275" y="-728.3" font-family="Times,serif" font-size="14.00" fill="#000000">current_sign_in_at :timestamp without time zone</text>
<text text-anchor="start" x="312.2275" y="-714.3" font-family="Times,serif" font-size="14.00" fill="#000000">last_sign_in_at :timestamp without time zone</text>
<text text-anchor="start" x="312.2275" y="-700.3" font-family="Times,serif" font-size="14.00" fill="#000000">current_sign_in_ip :inet</text>
<text text-anchor="start" x="312.2275" y="-686.3" font-family="Times,serif" font-size="14.00" fill="#000000">last_sign_in_ip :inet</text>
<text text-anchor="start" x="312.2275" y="-672.3" font-family="Times,serif" font-size="14.00" fill="#000000">created_at :timestamp without time zone</text>
<text text-anchor="start" x="312.2275" y="-658.3" font-family="Times,serif" font-size="14.00" fill="#000000">updated_at :timestamp without time zone</text>
<text text-anchor="start" x="312.2275" y="-644.3" font-family="Times,serif" font-size="14.00" fill="#000000">student_card_image :character varying</text>
<text text-anchor="start" x="312.2275" y="-630.3" font-family="Times,serif" font-size="14.00" fill="#000000">certification_state :integer</text>
<text text-anchor="start" x="312.2275" y="-616.3" font-family="Times,serif" font-size="14.00" fill="#000000">status :integer</text>
<text text-anchor="start" x="312.2275" y="-602.3" font-family="Times,serif" font-size="14.00" fill="#000000">device_token :character varying</text>
<text text-anchor="start" x="312.2275" y="-588.3" font-family="Times,serif" font-size="14.00" fill="#000000">device_type :integer</text>
<text text-anchor="start" x="312.2275" y="-574.3" font-family="Times,serif" font-size="14.00" fill="#000000">id :bigint</text>
</g>
<!-- ApplicationRecord&#45;&gt;User -->
<g id="edge15" class="edge">
<title>ApplicationRecord&#45;&gt;User</title>
<path fill="none" stroke="#000000" d="M640.3851,-1073.2463C632.0541,-1059.9966 619.7704,-1040.4603 605.4945,-1017.7555"/>
</g>
<!-- Chatroom -->
<g id="node9" class="node">
<title>Chatroom</title>
<path fill="none" stroke="#000000" d="M407,-152.5C407,-152.5 630.7246,-152.5 630.7246,-152.5 636.7246,-152.5 642.7246,-158.5 642.7246,-164.5 642.7246,-164.5 642.7246,-254.5 642.7246,-254.5 642.7246,-260.5 636.7246,-266.5 630.7246,-266.5 630.7246,-266.5 407,-266.5 407,-266.5 401,-266.5 395,-260.5 395,-254.5 395,-254.5 395,-164.5 395,-164.5 395,-158.5 401,-152.5 407,-152.5"/>
<text text-anchor="middle" x="518.8623" y="-251.3" font-family="Times,serif" font-size="14.00" fill="#000000">Chatroom</text>
<polyline fill="none" stroke="#000000" points="395,-244.5 642.7246,-244.5 "/>
<text text-anchor="start" x="403" y="-229.3" font-family="Times,serif" font-size="14.00" fill="#000000">id :bigint</text>
<text text-anchor="start" x="403" y="-215.3" font-family="Times,serif" font-size="14.00" fill="#000000">event_id :bigint</text>
<text text-anchor="start" x="403" y="-201.3" font-family="Times,serif" font-size="14.00" fill="#000000">created_at :timestamp without time zone</text>
<text text-anchor="start" x="403" y="-187.3" font-family="Times,serif" font-size="14.00" fill="#000000">updated_at :timestamp without time zone</text>
<text text-anchor="start" x="403" y="-173.3" font-family="Times,serif" font-size="14.00" fill="#000000">request_user_id :bigint</text>
<text text-anchor="start" x="403" y="-159.3" font-family="Times,serif" font-size="14.00" fill="#000000">perform_user_id :bigint</text>
</g>
<!-- ApplicationRecord&#45;&gt;Chatroom -->
<g id="edge17" class="edge">
<title>ApplicationRecord&#45;&gt;Chatroom</title>
<path fill="none" stroke="#000000" d="M652.9838,-1073.1964C656.7594,-1005.442 666.9477,-762.6926 632.8623,-567 613.8867,-458.0563 569.9521,-336.404 542.5017,-266.7976"/>
</g>
<!-- Event&#45;&gt;Chatroom -->
<g id="edge6" class="edge">
<title>Event&#45;&gt;Chatroom</title>
<path fill="none" stroke="#084995" d="M699.0661,-311.8344C688.2363,-302.3054 677.0792,-293.1929 665.8623,-285 659.2594,-280.1772 652.3047,-275.4925 645.1585,-270.9749"/>
<ellipse fill="none" stroke="#084995" cx="702.0618" cy="-314.5057" rx="4" ry="4"/>
<ellipse fill="#084995" stroke="#084995" cx="641.3551" cy="-268.6199" rx="4" ry="4"/>
</g>
<!-- ActsAsTaggableOn::Tagging -->
<g id="node19" class="node">
<title>ActsAsTaggableOn::Tagging</title>
<ellipse fill="none" stroke="#000000" cx="985.8623" cy="-209.5" rx="113.0056" ry="18"/>
<text text-anchor="middle" x="985.8623" y="-205.3" font-family="Times,serif" font-size="14.00" fill="#000000">ActsAsTaggableOn::Tagging</text>
</g>
<!-- Event&#45;&gt;ActsAsTaggableOn::Tagging -->
<g id="edge7" class="edge">
<title>Event&#45;&gt;ActsAsTaggableOn::Tagging</title>
<path fill="none" stroke="#da05f1" d="M885.6427,-310.8446C892.833,-301.957 900.1456,-293.2405 907.4209,-285 923.1871,-267.1421 942.4414,-248.5686 957.928,-234.3122"/>
<ellipse fill="none" stroke="#da05f1" cx="882.9337" cy="-314.2218" rx="4" ry="4"/>
<polygon fill="#da05f1" stroke="#da05f1" points="958.2547,-234.0144 968.6764,-230.6028 961.9497,-230.6459 965.6447,-227.2773 965.6447,-227.2773 965.6447,-227.2773 961.9497,-230.6459 962.613,-223.9518 958.2547,-234.0144 958.2547,-234.0144"/>
<text text-anchor="middle" x="931.583" y="-287.8" font-family="Times,serif" font-size="14.00" fill="#000000">taggings</text>
</g>
<!-- Event&#45;&gt;ActsAsTaggableOn::Tagging -->
<g id="edge9" class="edge">
<title>Event&#45;&gt;ActsAsTaggableOn::Tagging</title>
<path fill="none" stroke="#f8206e" d="M933.9288,-325.0687C941.5242,-316.7172 948.6042,-308.0044 954.8623,-299 967.7093,-280.5152 975.6811,-256.207 980.318,-237.5893"/>
<ellipse fill="none" stroke="#f8206e" cx="930.757" cy="-328.4616" rx="4" ry="4"/>
<polygon fill="#f8206e" stroke="#f8206e" points="980.3658,-237.382 987.0021,-228.6521 981.4917,-232.5104 982.6176,-227.6388 982.6176,-227.6388 982.6176,-227.6388 981.4917,-232.5104 978.2332,-226.6255 980.3658,-237.382 980.3658,-237.382"/>
<text text-anchor="middle" x="998.6348" y="-287.8" font-family="Times,serif" font-size="14.00" fill="#000000">tag_taggings</text>
</g>
<!-- ActsAsTaggableOn::Tag -->
<g id="node20" class="node">
<title>ActsAsTaggableOn::Tag</title>
<ellipse fill="none" stroke="#000000" cx="757.8623" cy="-209.5" rx="97.0617" ry="18"/>
<text text-anchor="middle" x="757.8623" y="-205.3" font-family="Times,serif" font-size="14.00" fill="#000000">ActsAsTaggableOn::Tag</text>
</g>
<!-- Event&#45;&gt;ActsAsTaggableOn::Tag -->
<g id="edge8" class="edge">
<title>Event&#45;&gt;ActsAsTaggableOn::Tag</title>
<path fill="none" stroke="#08850a" d="M786.724,-307.3184C785.2007,-299.7414 783.5796,-292.2479 781.8623,-285 778.0602,-268.9535 772.555,-251.3766 767.7761,-237.2227"/>
<polygon fill="#08850a" stroke="#08850a" points="786.7589,-307.498 784.253,-318.1737 787.7145,-312.4058 788.6701,-317.3137 788.6701,-317.3137 788.6701,-317.3137 787.7145,-312.4058 793.0871,-316.4536 786.7589,-307.498 786.7589,-307.498"/>
<polygon fill="#08850a" stroke="#08850a" points="767.7157,-237.0472 768.7141,-226.1269 766.0875,-232.3197 764.4593,-227.5922 764.4593,-227.5922 764.4593,-227.5922 766.0875,-232.3197 760.2046,-229.0576 767.7157,-237.0472 767.7157,-237.0472"/>
<text text-anchor="middle" x="812.0762" y="-287.8" font-family="Times,serif" font-size="14.00" fill="#000000">base_tags</text>
</g>
<!-- Event&#45;&gt;ActsAsTaggableOn::Tag -->
<g id="edge10" class="edge">
<title>Event&#45;&gt;ActsAsTaggableOn::Tag</title>
<path fill="none" stroke="#cd0d3e" d="M757.0892,-307.543C756.4386,-304.6827 755.8433,-301.8322 755.3105,-299 754.1604,-292.885 755.2054,-291.2213 755.3105,-285 755.5736,-269.4301 756.1416,-252.0617 756.675,-237.9125"/>
<polygon fill="#cd0d3e" stroke="#cd0d3e" points="757.1,-307.5869 755.1355,-318.3754 758.3018,-312.4403 759.5036,-317.2938 759.5036,-317.2938 759.5036,-317.2938 758.3018,-312.4403 763.8717,-316.2121 757.1,-307.5869 757.1,-307.5869"/>
<polygon fill="#cd0d3e" stroke="#cd0d3e" points="756.6795,-237.7955 761.5672,-227.9792 756.875,-232.7994 757.0706,-227.8032 757.0706,-227.8032 757.0706,-227.8032 756.875,-232.7994 752.574,-227.6272 756.6795,-237.7955 756.6795,-237.7955"/>
<text text-anchor="middle" x="767.1382" y="-287.8" font-family="Times,serif" font-size="14.00" fill="#000000">tags</text>
</g>
<!-- User&#45;&gt;Message -->
<g id="edge13" class="edge">
<title>User&#45;&gt;Message</title>
<path fill="none" stroke="#c72302" d="M426.3339,-559.2734C412.4486,-468.2358 397.3169,-362.8839 385.8623,-267 380.2113,-219.6967 375.386,-166.2051 372.0122,-125.1137"/>
<ellipse fill="none" stroke="#c72302" cx="426.9404" cy="-563.2423" rx="4" ry="4"/>
<polygon fill="#c72302" stroke="#c72302" points="371.996,-124.9124 375.6714,-114.5808 371.5911,-119.9288 371.1862,-114.9453 371.1862,-114.9453 371.1862,-114.9453 371.5911,-119.9288 366.7009,-115.3097 371.996,-124.9124 371.996,-124.9124"/>
</g>
<!-- User&#45;&gt;Event -->
<g id="edge12" class="edge">
<title>User&#45;&gt;Event</title>
<path fill="none" stroke="#bb6dc6" d="M629.2871,-612.1365C643.3411,-596.8602 657.3436,-581.6563 670.8623,-567 679.8505,-557.2555 689.1893,-547.147 698.5628,-537.0119"/>
<ellipse fill="none" stroke="#bb6dc6" cx="626.3966" cy="-615.2788" rx="4" ry="4"/>
<polygon fill="#bb6dc6" stroke="#bb6dc6" points="698.599,-536.9728 708.6931,-532.688 701.9944,-533.3025 705.3898,-529.6322 705.3898,-529.6322 705.3898,-529.6322 701.9944,-533.3025 702.0865,-526.5763 698.599,-536.9728 698.599,-536.9728"/>
</g>
<!-- User&#45;&gt;Chatroom -->
<g id="edge14" class="edge">
<title>User&#45;&gt;Chatroom</title>
<path fill="none" stroke="#dc5cab" d="M486.0937,-556.8474C495.6291,-455.7716 506.0426,-345.3891 512.5136,-276.7965"/>
<polygon fill="#dc5cab" stroke="#dc5cab" points="486.0661,-557.1412 480.6466,-566.6743 485.5964,-562.1191 485.1267,-567.097 485.1267,-567.097 485.1267,-567.097 485.5964,-562.1191 489.6068,-567.5197 486.0661,-557.1412 486.0661,-557.1412"/>
<polygon fill="#dc5cab" stroke="#dc5cab" points="512.539,-276.5261 517.9584,-266.993 513.0087,-271.5482 513.4783,-266.5703 513.4783,-266.5703 513.4783,-266.5703 513.0087,-271.5482 508.9982,-266.1476 512.539,-276.5261 512.539,-276.5261"/>
</g>
<!-- Chatroom&#45;&gt;Message -->
<g id="edge16" class="edge">
<title>Chatroom&#45;&gt;Message</title>
<path fill="none" stroke="#b676cb" d="M455.9789,-146.6166C447.8571,-138.4948 439.5292,-130.1669 431.3816,-122.0193"/>
<ellipse fill="none" stroke="#b676cb" cx="459.0022" cy="-149.6399" rx="4" ry="4"/>
<polygon fill="#b676cb" stroke="#b676cb" points="431.0318,-121.6695 427.1427,-111.4164 427.4963,-118.134 423.9607,-114.5984 423.9607,-114.5984 423.9607,-114.5984 427.4963,-118.134 420.7787,-117.7804 431.0318,-121.6695 431.0318,-121.6695"/>
</g>
<!-- ActiveStorage::Variant -->
<g id="node10" class="node">
<title>ActiveStorage::Variant</title>
<polygon fill="none" stroke="#000000" points="748.7173,-1069.5 748.7173,-1113.5 893.0073,-1113.5 893.0073,-1069.5 748.7173,-1069.5"/>
<text text-anchor="middle" x="820.8623" y="-1098.3" font-family="Times,serif" font-size="14.00" fill="#000000">ActiveStorage::Variant</text>
<polyline fill="none" stroke="#000000" points="748.7173,-1091.5 893.0073,-1091.5 "/>
<text text-anchor="middle" x="820.8623" y="-1076.3" font-family="Times,serif" font-size="14.00" fill="#000000"> </text>
</g>
<!-- ActiveStorage::Filename -->
<g id="node11" class="node">
<title>ActiveStorage::Filename</title>
<polygon fill="none" stroke="#000000" points="914.8828,-1069.5 914.8828,-1113.5 1070.8418,-1113.5 1070.8418,-1069.5 914.8828,-1069.5"/>
<text text-anchor="middle" x="992.8623" y="-1098.3" font-family="Times,serif" font-size="14.00" fill="#000000">ActiveStorage::Filename</text>
<polyline fill="none" stroke="#000000" points="914.8828,-1091.5 1070.8418,-1091.5 "/>
<text text-anchor="middle" x="992.8623" y="-1076.3" font-family="Times,serif" font-size="14.00" fill="#000000"> </text>
</g>
<!-- ActiveStorage::Variation -->
<g id="node12" class="node">
<title>ActiveStorage::Variation</title>
<polygon fill="none" stroke="#000000" points="1091.2725,-1069.5 1091.2725,-1113.5 1246.4521,-1113.5 1246.4521,-1069.5 1091.2725,-1069.5"/>
<text text-anchor="middle" x="1168.8623" y="-1098.3" font-family="Times,serif" font-size="14.00" fill="#000000">ActiveStorage::Variation</text>
<polyline fill="none" stroke="#000000" points="1091.2725,-1091.5 1246.4521,-1091.5 "/>
<text text-anchor="middle" x="1168.8623" y="-1076.3" font-family="Times,serif" font-size="14.00" fill="#000000"> </text>
</g>
<!-- ActiveStorage::Current -->
<g id="node13" class="node">
<title>ActiveStorage::Current</title>
<polygon fill="none" stroke="#000000" points="1321.5483,-770.5 1321.5483,-814.5 1468.1763,-814.5 1468.1763,-770.5 1321.5483,-770.5"/>
<text text-anchor="middle" x="1394.8623" y="-799.3" font-family="Times,serif" font-size="14.00" fill="#000000">ActiveStorage::Current</text>
<polyline fill="none" stroke="#000000" points="1321.5483,-792.5 1468.1763,-792.5 "/>
<text text-anchor="middle" x="1394.8623" y="-777.3" font-family="Times,serif" font-size="14.00" fill="#000000"> </text>
</g>
<!-- ActiveStorage::Filename::Parameters -->
<g id="node14" class="node">
<title>ActiveStorage::Filename::Parameters</title>
<polygon fill="none" stroke="#000000" points="1541.8965,-1069.5 1541.8965,-1113.5 1767.8281,-1113.5 1767.8281,-1069.5 1541.8965,-1069.5"/>
<text text-anchor="middle" x="1654.8623" y="-1098.3" font-family="Times,serif" font-size="14.00" fill="#000000">ActiveStorage::Filename::Parameters</text>
<polyline fill="none" stroke="#000000" points="1541.8965,-1091.5 1767.8281,-1091.5 "/>
<text text-anchor="middle" x="1654.8623" y="-1076.3" font-family="Times,serif" font-size="14.00" fill="#000000"> </text>
</g>
<!-- ActiveStorage::Blob::Identifiable -->
<g id="node15" class="node">
<title>ActiveStorage::Blob::Identifiable</title>
<polygon fill="none" stroke="#000000" stroke-dasharray="1,5" points="1987.9906,-1109.5 1785.734,-1109.5 1785.734,-1073.5 1987.9906,-1073.5 1987.9906,-1109.5"/>
<text text-anchor="middle" x="1886.8623" y="-1087.3" font-family="Times,serif" font-size="14.00" fill="#000000">ActiveStorage::Blob::Identifiable</text>
</g>
<!-- ActiveStorage::Blob::Analyzable -->
<g id="node16" class="node">
<title>ActiveStorage::Blob::Analyzable</title>
<polygon fill="none" stroke="#000000" stroke-dasharray="1,5" points="2208.9769,-1109.5 2006.7477,-1109.5 2006.7477,-1073.5 2208.9769,-1073.5 2208.9769,-1109.5"/>
<text text-anchor="middle" x="2107.8623" y="-1087.3" font-family="Times,serif" font-size="14.00" fill="#000000">ActiveStorage::Blob::Analyzable</text>
</g>
<!-- ActiveStorage::Blob::Representable -->
<g id="node17" class="node">
<title>ActiveStorage::Blob::Representable</title>
<polygon fill="none" stroke="#000000" stroke-dasharray="1,5" points="2445.0284,-1109.5 2226.6962,-1109.5 2226.6962,-1073.5 2445.0284,-1073.5 2445.0284,-1109.5"/>
<text text-anchor="middle" x="2335.8623" y="-1087.3" font-family="Times,serif" font-size="14.00" fill="#000000">ActiveStorage::Blob::Representable</text>
</g>
<!-- ActiveStorage::Preview -->
<g id="node18" class="node">
<title>ActiveStorage::Preview</title>
<polygon fill="none" stroke="#000000" points="2462.9932,-1069.5 2462.9932,-1113.5 2612.7314,-1113.5 2612.7314,-1069.5 2462.9932,-1069.5"/>
<text text-anchor="middle" x="2537.8623" y="-1098.3" font-family="Times,serif" font-size="14.00" fill="#000000">ActiveStorage::Preview</text>
<polyline fill="none" stroke="#000000" points="2462.9932,-1091.5 2612.7314,-1091.5 "/>
<text text-anchor="middle" x="2537.8623" y="-1076.3" font-family="Times,serif" font-size="14.00" fill="#000000"> </text>
</g>
<!-- ActiveSupport::CurrentAttributes -->
<g id="node21" class="node">
<title>ActiveSupport::CurrentAttributes</title>
<ellipse fill="none" stroke="#000000" cx="1394.8623" cy="-1091.5" rx="128.9682" ry="18"/>
<text text-anchor="middle" x="1394.8623" y="-1087.3" font-family="Times,serif" font-size="14.00" fill="#000000">ActiveSupport::CurrentAttributes</text>
</g>
<!-- ActiveSupport::CurrentAttributes&#45;&gt;ActiveStorage::Current -->
<g id="edge18" class="edge">
<title>ActiveSupport::CurrentAttributes&#45;&gt;ActiveStorage::Current</title>
<path fill="none" stroke="#000000" d="M1394.8623,-1073.2463C1394.8623,-1021.1349 1394.8623,-871.7787 1394.8623,-814.8809"/>
</g>
</g>
</svg>
