<?xml version="1.0" encoding="UTF-8" standalone="no"?>
<!DOCTYPE svg PUBLIC "-//W3C//DTD SVG 1.1//EN"
 "http://www.w3.org/Graphics/SVG/1.1/DTD/svg11.dtd">
<!-- Generated by graphviz version 2.40.1 (20161225.0304)
 -->
<!-- Title: models_diagram Pages: 1 -->
<svg width="2584pt" height="956pt"
 viewBox="0.00 0.00 2584.15 956.00" xmlns="http://www.w3.org/2000/svg" xmlns:xlink="http://www.w3.org/1999/xlink">
<g id="graph0" class="graph" transform="scale(1 1) rotate(0) translate(4 952)">
<title>models_diagram</title>
<polygon fill="transparent" stroke="transparent" points="-4,4 -4,-952 2580.1497,-952 2580.1497,4 -4,4"/>
<!-- _diagram_info -->
<g id="node1" class="node">
<title>_diagram_info</title>
<text text-anchor="start" x="328.5929" y="-933.6" font-family="Times,serif" font-size="13.00" fill="#000000">Models diagram</text>
<text text-anchor="start" x="328.5929" y="-920.6" font-family="Times,serif" font-size="13.00" fill="#000000">Date: Nov 04 2019 &#45; 14:31</text>
<text text-anchor="start" x="328.5929" y="-907.6" font-family="Times,serif" font-size="13.00" fill="#000000">Migration version: 20191014104536</text>
<text text-anchor="start" x="328.5929" y="-894.6" font-family="Times,serif" font-size="13.00" fill="#000000">Generated by RailRoady 1.5.3</text>
<text text-anchor="start" x="328.5929" y="-881.6" font-family="Times,serif" font-size="13.00" fill="#000000">http://railroady.prestonlee.com</text>
</g>
<!-- Message -->
<g id="node2" class="node">
<title>Message</title>
<path fill="none" stroke="#000000" d="M624.4183,-.5C624.4183,-.5 848.1429,-.5 848.1429,-.5 854.1429,-.5 860.1429,-6.5 860.1429,-12.5 860.1429,-12.5 860.1429,-102.5 860.1429,-102.5 860.1429,-108.5 854.1429,-114.5 848.1429,-114.5 848.1429,-114.5 624.4183,-114.5 624.4183,-114.5 618.4183,-114.5 612.4183,-108.5 612.4183,-102.5 612.4183,-102.5 612.4183,-12.5 612.4183,-12.5 612.4183,-6.5 618.4183,-.5 624.4183,-.5"/>
<text text-anchor="middle" x="736.2806" y="-99.3" font-family="Times,serif" font-size="14.00" fill="#000000">Message</text>
<polyline fill="none" stroke="#000000" points="612.4183,-92.5 860.1429,-92.5 "/>
<text text-anchor="start" x="620.4183" y="-77.3" font-family="Times,serif" font-size="14.00" fill="#000000">id :bigint</text>
<text text-anchor="start" x="620.4183" y="-63.3" font-family="Times,serif" font-size="14.00" fill="#000000">content :character varying</text>
<text text-anchor="start" x="620.4183" y="-49.3" font-family="Times,serif" font-size="14.00" fill="#000000">user_id :bigint</text>
<text text-anchor="start" x="620.4183" y="-35.3" font-family="Times,serif" font-size="14.00" fill="#000000">chatroom_id :bigint</text>
<text text-anchor="start" x="620.4183" y="-21.3" font-family="Times,serif" font-size="14.00" fill="#000000">created_at :timestamp without time zone</text>
<text text-anchor="start" x="620.4183" y="-7.3" font-family="Times,serif" font-size="14.00" fill="#000000">updated_at :timestamp without time zone</text>
</g>
<!-- AdminUser -->
<g id="node3" class="node">
<title>AdminUser</title>
<path fill="none" stroke="#000000" d="M138.6458,-548.5C138.6458,-548.5 433.9154,-548.5 433.9154,-548.5 439.9154,-548.5 445.9154,-554.5 445.9154,-560.5 445.9154,-560.5 445.9154,-678.5 445.9154,-678.5 445.9154,-684.5 439.9154,-690.5 433.9154,-690.5 433.9154,-690.5 138.6458,-690.5 138.6458,-690.5 132.6458,-690.5 126.6458,-684.5 126.6458,-678.5 126.6458,-678.5 126.6458,-560.5 126.6458,-560.5 126.6458,-554.5 132.6458,-548.5 138.6458,-548.5"/>
<text text-anchor="middle" x="286.2806" y="-675.3" font-family="Times,serif" font-size="14.00" fill="#000000">AdminUser</text>
<polyline fill="none" stroke="#000000" points="126.6458,-668.5 445.9154,-668.5 "/>
<text text-anchor="start" x="134.6458" y="-653.3" font-family="Times,serif" font-size="14.00" fill="#000000">updated_at :timestamp without time zone</text>
<text text-anchor="start" x="134.6458" y="-639.3" font-family="Times,serif" font-size="14.00" fill="#000000">email :character varying</text>
<text text-anchor="start" x="134.6458" y="-625.3" font-family="Times,serif" font-size="14.00" fill="#000000">encrypted_password :character varying</text>
<text text-anchor="start" x="134.6458" y="-611.3" font-family="Times,serif" font-size="14.00" fill="#000000">reset_password_token :character varying</text>
<text text-anchor="start" x="134.6458" y="-597.3" font-family="Times,serif" font-size="14.00" fill="#000000">reset_password_sent_at :timestamp without time zone</text>
<text text-anchor="start" x="134.6458" y="-583.3" font-family="Times,serif" font-size="14.00" fill="#000000">remember_created_at :timestamp without time zone</text>
<text text-anchor="start" x="134.6458" y="-569.3" font-family="Times,serif" font-size="14.00" fill="#000000">created_at :timestamp without time zone</text>
<text text-anchor="start" x="134.6458" y="-555.3" font-family="Times,serif" font-size="14.00" fill="#000000">id :bigint</text>
</g>
<!-- ApplicationRecord -->
<g id="node4" class="node">
<title>ApplicationRecord</title>
<ellipse fill="none" stroke="#000000" cx="623.2806" cy="-911.5" rx="77.2916" ry="18"/>
<text text-anchor="middle" x="623.2806" y="-907.3" font-family="Times,serif" font-size="14.00" fill="#000000">ApplicationRecord</text>
</g>
<!-- ApplicationRecord&#45;&gt;Message -->
<g id="edge1" class="edge">
<title>ApplicationRecord&#45;&gt;Message</title>
<path fill="none" stroke="#000000" d="M659.3559,-895.3856C674.8833,-888.7058 693.3299,-881.1079 710.2806,-875 763.5866,-855.7921 796.7797,-882.1606 832.2806,-838 1019.9714,-604.5262 998.3694,-435.322 869.2806,-165 860.1329,-145.844 845.7202,-129.0027 829.697,-114.6774"/>
</g>
<!-- ApplicationRecord&#45;&gt;AdminUser -->
<g id="edge2" class="edge">
<title>ApplicationRecord&#45;&gt;AdminUser</title>
<path fill="none" stroke="#000000" d="M586.143,-895.6212C537.2428,-874.6743 457.0786,-840.184 454.2806,-838 402.4156,-797.5159 357.7993,-737.4863 327.6072,-690.5864"/>
</g>
<!-- Event -->
<g id="node5" class="node">
<title>Event</title>
<path fill="none" stroke="#000000" d="M113.4183,-165.5C113.4183,-165.5 337.1429,-165.5 337.1429,-165.5 343.1429,-165.5 349.1429,-171.5 349.1429,-177.5 349.1429,-177.5 349.1429,-351.5 349.1429,-351.5 349.1429,-357.5 343.1429,-363.5 337.1429,-363.5 337.1429,-363.5 113.4183,-363.5 113.4183,-363.5 107.4183,-363.5 101.4183,-357.5 101.4183,-351.5 101.4183,-351.5 101.4183,-177.5 101.4183,-177.5 101.4183,-171.5 107.4183,-165.5 113.4183,-165.5"/>
<text text-anchor="middle" x="225.2806" y="-348.3" font-family="Times,serif" font-size="14.00" fill="#000000">Event</text>
<polyline fill="none" stroke="#000000" points="101.4183,-341.5 349.1429,-341.5 "/>
<text text-anchor="start" x="109.4183" y="-326.3" font-family="Times,serif" font-size="14.00" fill="#000000">performer_id :bigint</text>
<text text-anchor="start" x="109.4183" y="-312.3" font-family="Times,serif" font-size="14.00" fill="#000000">user_id :bigint</text>
<text text-anchor="start" x="109.4183" y="-298.3" font-family="Times,serif" font-size="14.00" fill="#000000">title :character varying</text>
<text text-anchor="start" x="109.4183" y="-284.3" font-family="Times,serif" font-size="14.00" fill="#000000">place :character varying</text>
<text text-anchor="start" x="109.4183" y="-270.3" font-family="Times,serif" font-size="14.00" fill="#000000">detail_place :character varying</text>
<text text-anchor="start" x="109.4183" y="-256.3" font-family="Times,serif" font-size="14.00" fill="#000000">time_limit :timestamp without time zone</text>
<text text-anchor="start" x="109.4183" y="-242.3" font-family="Times,serif" font-size="14.00" fill="#000000">content :text</text>
<text text-anchor="start" x="109.4183" y="-228.3" font-family="Times,serif" font-size="14.00" fill="#000000">state :integer</text>
<text text-anchor="start" x="109.4183" y="-214.3" font-family="Times,serif" font-size="14.00" fill="#000000">reward :integer</text>
<text text-anchor="start" x="109.4183" y="-200.3" font-family="Times,serif" font-size="14.00" fill="#000000">created_at :timestamp without time zone</text>
<text text-anchor="start" x="109.4183" y="-186.3" font-family="Times,serif" font-size="14.00" fill="#000000">updated_at :timestamp without time zone</text>
<text text-anchor="start" x="109.4183" y="-172.3" font-family="Times,serif" font-size="14.00" fill="#000000">id :bigint</text>
</g>
<!-- ApplicationRecord&#45;&gt;Event -->
<g id="edge7" class="edge">
<title>ApplicationRecord&#45;&gt;Event</title>
<path fill="none" stroke="#000000" d="M591.0357,-894.9682C575.2384,-887.6151 555.6926,-879.596 537.2806,-875 446.3752,-852.308 180.5591,-907.0981 117.2806,-838 -13.8909,-694.7649 53.4853,-584.446 117.2806,-401 121.7472,-388.1562 127.9806,-375.6101 135.2216,-363.6538"/>
</g>
<!-- User -->
<g id="node6" class="node">
<title>User</title>
<path fill="none" stroke="#000000" d="M475.6458,-401.5C475.6458,-401.5 770.9154,-401.5 770.9154,-401.5 776.9154,-401.5 782.9154,-407.5 782.9154,-413.5 782.9154,-413.5 782.9154,-825.5 782.9154,-825.5 782.9154,-831.5 776.9154,-837.5 770.9154,-837.5 770.9154,-837.5 475.6458,-837.5 475.6458,-837.5 469.6458,-837.5 463.6458,-831.5 463.6458,-825.5 463.6458,-825.5 463.6458,-413.5 463.6458,-413.5 463.6458,-407.5 469.6458,-401.5 475.6458,-401.5"/>
<text text-anchor="middle" x="623.2806" y="-822.3" font-family="Times,serif" font-size="14.00" fill="#000000">User</text>
<polyline fill="none" stroke="#000000" points="463.6458,-815.5 782.9154,-815.5 "/>
<text text-anchor="start" x="471.6458" y="-800.3" font-family="Times,serif" font-size="14.00" fill="#000000">device_type :integer</text>
<text text-anchor="start" x="471.6458" y="-786.3" font-family="Times,serif" font-size="14.00" fill="#000000">name :character varying</text>
<text text-anchor="start" x="471.6458" y="-772.3" font-family="Times,serif" font-size="14.00" fill="#000000">email :character varying</text>
<text text-anchor="start" x="471.6458" y="-758.3" font-family="Times,serif" font-size="14.00" fill="#000000">encrypted_password :character varying</text>
<text text-anchor="start" x="471.6458" y="-744.3" font-family="Times,serif" font-size="14.00" fill="#000000">phone :character varying</text>
<text text-anchor="start" x="471.6458" y="-730.3" font-family="Times,serif" font-size="14.00" fill="#000000">thumbnail :character varying</text>
<text text-anchor="start" x="471.6458" y="-716.3" font-family="Times,serif" font-size="14.00" fill="#000000">address1 :character varying</text>
<text text-anchor="start" x="471.6458" y="-702.3" font-family="Times,serif" font-size="14.00" fill="#000000">address2 :character varying</text>
<text text-anchor="start" x="471.6458" y="-688.3" font-family="Times,serif" font-size="14.00" fill="#000000">zipcode :character varying</text>
<text text-anchor="start" x="471.6458" y="-674.3" font-family="Times,serif" font-size="14.00" fill="#000000">gender :integer</text>
<text text-anchor="start" x="471.6458" y="-660.3" font-family="Times,serif" font-size="14.00" fill="#000000">customs_number :character varying</text>
<text text-anchor="start" x="471.6458" y="-646.3" font-family="Times,serif" font-size="14.00" fill="#000000">role :integer</text>
<text text-anchor="start" x="471.6458" y="-632.3" font-family="Times,serif" font-size="14.00" fill="#000000">accept_sms :boolean</text>
<text text-anchor="start" x="471.6458" y="-618.3" font-family="Times,serif" font-size="14.00" fill="#000000">accept_email :boolean</text>
<text text-anchor="start" x="471.6458" y="-604.3" font-family="Times,serif" font-size="14.00" fill="#000000">reset_password_token :character varying</text>
<text text-anchor="start" x="471.6458" y="-590.3" font-family="Times,serif" font-size="14.00" fill="#000000">reset_password_sent_at :timestamp without time zone</text>
<text text-anchor="start" x="471.6458" y="-576.3" font-family="Times,serif" font-size="14.00" fill="#000000">remember_created_at :timestamp without time zone</text>
<text text-anchor="start" x="471.6458" y="-562.3" font-family="Times,serif" font-size="14.00" fill="#000000">sign_in_count :integer</text>
<text text-anchor="start" x="471.6458" y="-548.3" font-family="Times,serif" font-size="14.00" fill="#000000">current_sign_in_at :timestamp without time zone</text>
<text text-anchor="start" x="471.6458" y="-534.3" font-family="Times,serif" font-size="14.00" fill="#000000">last_sign_in_at :timestamp without time zone</text>
<text text-anchor="start" x="471.6458" y="-520.3" font-family="Times,serif" font-size="14.00" fill="#000000">current_sign_in_ip :inet</text>
<text text-anchor="start" x="471.6458" y="-506.3" font-family="Times,serif" font-size="14.00" fill="#000000">last_sign_in_ip :inet</text>
<text text-anchor="start" x="471.6458" y="-492.3" font-family="Times,serif" font-size="14.00" fill="#000000">created_at :timestamp without time zone</text>
<text text-anchor="start" x="471.6458" y="-478.3" font-family="Times,serif" font-size="14.00" fill="#000000">updated_at :timestamp without time zone</text>
<text text-anchor="start" x="471.6458" y="-464.3" font-family="Times,serif" font-size="14.00" fill="#000000">student_card_image :character varying</text>
<text text-anchor="start" x="471.6458" y="-450.3" font-family="Times,serif" font-size="14.00" fill="#000000">certification_state :integer</text>
<text text-anchor="start" x="471.6458" y="-436.3" font-family="Times,serif" font-size="14.00" fill="#000000">status :integer</text>
<text text-anchor="start" x="471.6458" y="-422.3" font-family="Times,serif" font-size="14.00" fill="#000000">device_token :character varying</text>
<text text-anchor="start" x="471.6458" y="-408.3" font-family="Times,serif" font-size="14.00" fill="#000000">id :bigint</text>
</g>
<!-- ApplicationRecord&#45;&gt;User -->
<g id="edge11" class="edge">
<title>ApplicationRecord&#45;&gt;User</title>
<path fill="none" stroke="#000000" d="M623.2806,-893.2341C623.2806,-879.937 623.2806,-860.328 623.2806,-837.6082"/>
</g>
<!-- Chatroom -->
<g id="node7" class="node">
<title>Chatroom</title>
<path fill="none" stroke="#000000" d="M624.4183,-207.5C624.4183,-207.5 848.1429,-207.5 848.1429,-207.5 854.1429,-207.5 860.1429,-213.5 860.1429,-219.5 860.1429,-219.5 860.1429,-309.5 860.1429,-309.5 860.1429,-315.5 854.1429,-321.5 848.1429,-321.5 848.1429,-321.5 624.4183,-321.5 624.4183,-321.5 618.4183,-321.5 612.4183,-315.5 612.4183,-309.5 612.4183,-309.5 612.4183,-219.5 612.4183,-219.5 612.4183,-213.5 618.4183,-207.5 624.4183,-207.5"/>
<text text-anchor="middle" x="736.2806" y="-306.3" font-family="Times,serif" font-size="14.00" fill="#000000">Chatroom</text>
<polyline fill="none" stroke="#000000" points="612.4183,-299.5 860.1429,-299.5 "/>
<text text-anchor="start" x="620.4183" y="-284.3" font-family="Times,serif" font-size="14.00" fill="#000000">id :bigint</text>
<text text-anchor="start" x="620.4183" y="-270.3" font-family="Times,serif" font-size="14.00" fill="#000000">event_id :bigint</text>
<text text-anchor="start" x="620.4183" y="-256.3" font-family="Times,serif" font-size="14.00" fill="#000000">created_at :timestamp without time zone</text>
<text text-anchor="start" x="620.4183" y="-242.3" font-family="Times,serif" font-size="14.00" fill="#000000">updated_at :timestamp without time zone</text>
<text text-anchor="start" x="620.4183" y="-228.3" font-family="Times,serif" font-size="14.00" fill="#000000">request_user_id :bigint</text>
<text text-anchor="start" x="620.4183" y="-214.3" font-family="Times,serif" font-size="14.00" fill="#000000">perform_user_id :bigint</text>
</g>
<!-- ApplicationRecord&#45;&gt;Chatroom -->
<g id="edge13" class="edge">
<title>ApplicationRecord&#45;&gt;Chatroom</title>
<path fill="none" stroke="#000000" d="M661.0749,-895.6674C710.2937,-874.9631 790.3401,-840.9601 792.2806,-838 898.2734,-676.3194 812.3304,-431.9308 763.8299,-321.8372"/>
</g>
<!-- ActsAsTaggableOn::Tagging -->
<g id="node17" class="node">
<title>ActsAsTaggableOn::Tagging</title>
<ellipse fill="none" stroke="#000000" cx="325.2806" cy="-57.5" rx="113.0056" ry="18"/>
<text text-anchor="middle" x="325.2806" y="-53.3" font-family="Times,serif" font-size="14.00" fill="#000000">ActsAsTaggableOn::Tagging</text>
</g>
<!-- Event&#45;&gt;ActsAsTaggableOn::Tagging -->
<g id="edge3" class="edge">
<title>Event&#45;&gt;ActsAsTaggableOn::Tagging</title>
<path fill="none" stroke="#1f4f63" d="M243.1447,-157.8411C246.169,-149.2226 249.705,-140.8294 253.8392,-133 264.0058,-113.7461 280.4588,-95.8702 295.0142,-82.3503"/>
<ellipse fill="none" stroke="#1f4f63" cx="241.8756" cy="-161.6678" rx="4" ry="4"/>
<polygon fill="#1f4f63" stroke="#1f4f63" points="295.415,-81.9901 305.861,-78.6535 299.1341,-78.6482 302.8532,-75.3063 302.8532,-75.3063 302.8532,-75.3063 299.1341,-78.6482 299.8455,-71.9591 295.415,-81.9901 295.415,-81.9901"/>
<text text-anchor="middle" x="278.0013" y="-135.8" font-family="Times,serif" font-size="14.00" fill="#000000">taggings</text>
</g>
<!-- Event&#45;&gt;ActsAsTaggableOn::Tagging -->
<g id="edge5" class="edge">
<title>Event&#45;&gt;ActsAsTaggableOn::Tagging</title>
<path fill="none" stroke="#bbcf42" d="M296.0156,-158.1929C297.8656,-154.4576 299.6277,-150.7206 301.2806,-147 310.0707,-127.2136 316.2517,-103.4949 320.1375,-85.4473"/>
<ellipse fill="none" stroke="#bbcf42" cx="294.1726" cy="-161.8061" rx="4" ry="4"/>
<polygon fill="#bbcf42" stroke="#bbcf42" points="320.1582,-85.3461 326.5713,-76.451 321.1604,-80.4476 322.1626,-75.549 322.1626,-75.549 322.1626,-75.549 321.1604,-80.4476 317.7539,-74.647 320.1582,-85.3461 320.1582,-85.3461"/>
<text text-anchor="middle" x="342.0531" y="-135.8" font-family="Times,serif" font-size="14.00" fill="#000000">tag_taggings</text>
</g>
<!-- ActsAsTaggableOn::Tag -->
<g id="node18" class="node">
<title>ActsAsTaggableOn::Tag</title>
<ellipse fill="none" stroke="#000000" cx="97.2806" cy="-57.5" rx="97.0617" ry="18"/>
<text text-anchor="middle" x="97.2806" y="-53.3" font-family="Times,serif" font-size="14.00" fill="#000000">ActsAsTaggableOn::Tag</text>
</g>
<!-- Event&#45;&gt;ActsAsTaggableOn::Tag -->
<g id="edge4" class="edge">
<title>Event&#45;&gt;ActsAsTaggableOn::Tag</title>
<path fill="none" stroke="#7f65f1" d="M158.4436,-156.4121C141.8138,-129.5185 125.4398,-103.0388 113.8248,-84.2551"/>
<polygon fill="#7f65f1" stroke="#7f65f1" points="158.6456,-156.7388 160.0776,-167.6108 161.2753,-160.9914 163.9049,-165.2441 163.9049,-165.2441 163.9049,-165.2441 161.2753,-160.9914 167.7323,-162.8774 158.6456,-156.7388 158.6456,-156.7388"/>
<polygon fill="#7f65f1" stroke="#7f65f1" points="113.7843,-84.1895 112.3523,-73.3175 111.1546,-79.9369 108.5249,-75.6842 108.5249,-75.6842 108.5249,-75.6842 111.1546,-79.9369 104.6976,-78.0509 113.7843,-84.1895 113.7843,-84.1895"/>
<text text-anchor="middle" x="177.4945" y="-135.8" font-family="Times,serif" font-size="14.00" fill="#000000">base_tags</text>
</g>
<!-- Event&#45;&gt;ActsAsTaggableOn::Tag -->
<g id="edge6" class="edge">
<title>Event&#45;&gt;ActsAsTaggableOn::Tag</title>
<path fill="none" stroke="#d7e916" d="M125.2782,-156.7776C123.3285,-153.5413 121.4732,-150.2797 119.7288,-147 109.5418,-127.8467 103.8507,-103.9123 100.7497,-85.6148"/>
<polygon fill="#d7e916" stroke="#d7e916" points="125.3081,-156.8251 126.8432,-167.683 127.978,-161.0526 130.648,-165.2801 130.648,-165.2801 130.648,-165.2801 127.978,-161.0526 134.4527,-162.8772 125.3081,-156.8251 125.3081,-156.8251"/>
<polygon fill="#d7e916" stroke="#d7e916" points="100.7254,-85.456 103.6566,-74.8891 99.967,-80.5138 99.2087,-75.5717 99.2087,-75.5717 99.2087,-75.5717 99.967,-80.5138 94.7607,-76.2542 100.7254,-85.456 100.7254,-85.456"/>
<text text-anchor="middle" x="131.5565" y="-135.8" font-family="Times,serif" font-size="14.00" fill="#000000">tags</text>
</g>
<!-- User&#45;&gt;Message -->
<g id="edge9" class="edge">
<title>User&#45;&gt;Message</title>
<path fill="none" stroke="#13defe" d="M571.6743,-393.2007C565.0581,-317.503 569.9901,-234.7128 603.2806,-165 610.999,-148.8371 622.4656,-134.3221 635.4853,-121.5759"/>
<ellipse fill="none" stroke="#13defe" cx="572.0715" cy="-397.4634" rx="4" ry="4"/>
<polygon fill="#13defe" stroke="#13defe" points="635.5593,-121.5067 645.9374,-117.9646 639.2118,-118.0921 642.8642,-114.6774 642.8642,-114.6774 642.8642,-114.6774 639.2118,-118.0921 639.7911,-111.3902 635.5593,-121.5067 635.5593,-121.5067"/>
</g>
<!-- User&#45;&gt;Event -->
<g id="edge8" class="edge">
<title>User&#45;&gt;Event</title>
<path fill="none" stroke="#be169a" d="M457.6183,-403.0881C456.8402,-402.3881 456.061,-401.692 455.2806,-401 426.2598,-375.2648 391.6886,-351.7906 358.2794,-331.8421"/>
<ellipse fill="none" stroke="#be169a" cx="460.6107" cy="-405.8284" rx="4" ry="4"/>
<polygon fill="#be169a" stroke="#be169a" points="357.9693,-331.6593 351.6414,-322.7034 353.6624,-329.1195 349.3555,-326.5796 349.3555,-326.5796 349.3555,-326.5796 353.6624,-329.1195 347.0697,-330.4558 357.9693,-331.6593 357.9693,-331.6593"/>
</g>
<!-- User&#45;&gt;Chatroom -->
<g id="edge10" class="edge">
<title>User&#45;&gt;Chatroom</title>
<path fill="none" stroke="#6fc9d4" d="M695.7219,-391.9189C702.6898,-370.0287 709.3053,-349.2453 715.095,-331.0564"/>
<polygon fill="#6fc9d4" stroke="#6fc9d4" points="695.7059,-391.9694 688.3847,-400.1334 694.1893,-396.7339 692.6727,-401.4983 692.6727,-401.4983 692.6727,-401.4983 694.1893,-396.7339 696.9607,-402.8633 695.7059,-391.9694 695.7059,-391.9694"/>
<polygon fill="#6fc9d4" stroke="#6fc9d4" points="715.1007,-331.0385 722.4219,-322.8745 716.6173,-326.274 718.1339,-321.5096 718.1339,-321.5096 718.1339,-321.5096 716.6173,-326.274 713.8459,-320.1446 715.1007,-331.0385 715.1007,-331.0385"/>
</g>
<!-- Chatroom&#45;&gt;Message -->
<g id="edge12" class="edge">
<title>Chatroom&#45;&gt;Message</title>
<path fill="none" stroke="#797a17" d="M736.2806,-199.1272C736.2806,-175.4412 736.2806,-148.6581 736.2806,-124.8084"/>
<ellipse fill="none" stroke="#797a17" cx="736.2806" cy="-203.3884" rx="4" ry="4"/>
<polygon fill="#797a17" stroke="#797a17" points="736.2807,-124.7842 740.7806,-114.7842 736.2806,-119.7842 736.2806,-114.7842 736.2806,-114.7842 736.2806,-114.7842 736.2806,-119.7842 731.7806,-114.7843 736.2807,-124.7842 736.2807,-124.7842"/>
</g>
<!-- ActiveStorage::Variant -->
<g id="node8" class="node">
<title>ActiveStorage::Variant</title>
<polygon fill="none" stroke="#000000" points="719.1356,-889.5 719.1356,-933.5 863.4256,-933.5 863.4256,-889.5 719.1356,-889.5"/>
<text text-anchor="middle" x="791.2806" y="-918.3" font-family="Times,serif" font-size="14.00" fill="#000000">ActiveStorage::Variant</text>
<polyline fill="none" stroke="#000000" points="719.1356,-911.5 863.4256,-911.5 "/>
<text text-anchor="middle" x="791.2806" y="-896.3" font-family="Times,serif" font-size="14.00" fill="#000000"> </text>
</g>
<!-- ActiveStorage::Filename -->
<g id="node9" class="node">
<title>ActiveStorage::Filename</title>
<polygon fill="none" stroke="#000000" points="881.3011,-889.5 881.3011,-933.5 1037.2601,-933.5 1037.2601,-889.5 881.3011,-889.5"/>
<text text-anchor="middle" x="959.2806" y="-918.3" font-family="Times,serif" font-size="14.00" fill="#000000">ActiveStorage::Filename</text>
<polyline fill="none" stroke="#000000" points="881.3011,-911.5 1037.2601,-911.5 "/>
<text text-anchor="middle" x="959.2806" y="-896.3" font-family="Times,serif" font-size="14.00" fill="#000000"> </text>
</g>
<!-- ActiveStorage::Variation -->
<g id="node10" class="node">
<title>ActiveStorage::Variation</title>
<polygon fill="none" stroke="#000000" points="1055.6908,-889.5 1055.6908,-933.5 1210.8704,-933.5 1210.8704,-889.5 1055.6908,-889.5"/>
<text text-anchor="middle" x="1133.2806" y="-918.3" font-family="Times,serif" font-size="14.00" fill="#000000">ActiveStorage::Variation</text>
<polyline fill="none" stroke="#000000" points="1055.6908,-911.5 1210.8704,-911.5 "/>
<text text-anchor="middle" x="1133.2806" y="-896.3" font-family="Times,serif" font-size="14.00" fill="#000000"> </text>
</g>
<!-- ActiveStorage::Current -->
<g id="node11" class="node">
<title>ActiveStorage::Current</title>
<polygon fill="none" stroke="#000000" points="1284.9666,-597.5 1284.9666,-641.5 1431.5946,-641.5 1431.5946,-597.5 1284.9666,-597.5"/>
<text text-anchor="middle" x="1358.2806" y="-626.3" font-family="Times,serif" font-size="14.00" fill="#000000">ActiveStorage::Current</text>
<polyline fill="none" stroke="#000000" points="1284.9666,-619.5 1431.5946,-619.5 "/>
<text text-anchor="middle" x="1358.2806" y="-604.3" font-family="Times,serif" font-size="14.00" fill="#000000"> </text>
</g>
<!-- ActiveStorage::Filename::Parameters -->
<g id="node12" class="node">
<title>ActiveStorage::Filename::Parameters</title>
<polygon fill="none" stroke="#000000" points="1505.3148,-889.5 1505.3148,-933.5 1731.2464,-933.5 1731.2464,-889.5 1505.3148,-889.5"/>
<text text-anchor="middle" x="1618.2806" y="-918.3" font-family="Times,serif" font-size="14.00" fill="#000000">ActiveStorage::Filename::Parameters</text>
<polyline fill="none" stroke="#000000" points="1505.3148,-911.5 1731.2464,-911.5 "/>
<text text-anchor="middle" x="1618.2806" y="-896.3" font-family="Times,serif" font-size="14.00" fill="#000000"> </text>
</g>
<!-- ActiveStorage::Blob::Identifiable -->
<g id="node13" class="node">
<title>ActiveStorage::Blob::Identifiable</title>
<polygon fill="none" stroke="#000000" stroke-dasharray="1,5" points="1951.4089,-929.5 1749.1523,-929.5 1749.1523,-893.5 1951.4089,-893.5 1951.4089,-929.5"/>
<text text-anchor="middle" x="1850.2806" y="-907.3" font-family="Times,serif" font-size="14.00" fill="#000000">ActiveStorage::Blob::Identifiable</text>
</g>
<!-- ActiveStorage::Blob::Analyzable -->
<g id="node14" class="node">
<title>ActiveStorage::Blob::Analyzable</title>
<polygon fill="none" stroke="#000000" stroke-dasharray="1,5" points="2172.3952,-929.5 1970.166,-929.5 1970.166,-893.5 2172.3952,-893.5 2172.3952,-929.5"/>
<text text-anchor="middle" x="2071.2806" y="-907.3" font-family="Times,serif" font-size="14.00" fill="#000000">ActiveStorage::Blob::Analyzable</text>
</g>
<!-- ActiveStorage::Blob::Representable -->
<g id="node15" class="node">
<title>ActiveStorage::Blob::Representable</title>
<polygon fill="none" stroke="#000000" stroke-dasharray="1,5" points="2408.4467,-929.5 2190.1145,-929.5 2190.1145,-893.5 2408.4467,-893.5 2408.4467,-929.5"/>
<text text-anchor="middle" x="2299.2806" y="-907.3" font-family="Times,serif" font-size="14.00" fill="#000000">ActiveStorage::Blob::Representable</text>
</g>
<!-- ActiveStorage::Preview -->
<g id="node16" class="node">
<title>ActiveStorage::Preview</title>
<polygon fill="none" stroke="#000000" points="2426.4115,-889.5 2426.4115,-933.5 2576.1497,-933.5 2576.1497,-889.5 2426.4115,-889.5"/>
<text text-anchor="middle" x="2501.2806" y="-918.3" font-family="Times,serif" font-size="14.00" fill="#000000">ActiveStorage::Preview</text>
<polyline fill="none" stroke="#000000" points="2426.4115,-911.5 2576.1497,-911.5 "/>
<text text-anchor="middle" x="2501.2806" y="-896.3" font-family="Times,serif" font-size="14.00" fill="#000000"> </text>
</g>
<!-- ActiveSupport::CurrentAttributes -->
<g id="node19" class="node">
<title>ActiveSupport::CurrentAttributes</title>
<ellipse fill="none" stroke="#000000" cx="1358.2806" cy="-911.5" rx="128.9682" ry="18"/>
<text text-anchor="middle" x="1358.2806" y="-907.3" font-family="Times,serif" font-size="14.00" fill="#000000">ActiveSupport::CurrentAttributes</text>
</g>
<!-- ActiveSupport::CurrentAttributes&#45;&gt;ActiveStorage::Current -->
<g id="edge14" class="edge">
<title>ActiveSupport::CurrentAttributes&#45;&gt;ActiveStorage::Current</title>
<path fill="none" stroke="#000000" d="M1358.2806,-893.2341C1358.2806,-842.0434 1358.2806,-697.3057 1358.2806,-641.6684"/>
</g>
</g>
</svg>
