<?xml version="1.0" encoding="UTF-8" standalone="no"?>
<!DOCTYPE svg PUBLIC "-//W3C//DTD SVG 1.1//EN"
 "http://www.w3.org/Graphics/SVG/1.1/DTD/svg11.dtd">
<!-- Generated by graphviz version 2.40.1 (20161225.0304)
 -->
<!-- Title: models_diagram Pages: 1 -->
<svg width="2739pt" height="1357pt"
 viewBox="0.00 0.00 2738.73 1357.00" xmlns="http://www.w3.org/2000/svg" xmlns:xlink="http://www.w3.org/1999/xlink">
<g id="graph0" class="graph" transform="scale(1 1) rotate(0) translate(4 1353)">
<title>models_diagram</title>
<polygon fill="transparent" stroke="transparent" points="-4,4 -4,-1353 2734.7314,-1353 2734.7314,4 -4,4"/>
<!-- _diagram_info -->
<g id="node1" class="node">
<title>_diagram_info</title>
<text text-anchor="start" x="292.6506" y="-1334.6" font-family="Times,serif" font-size="13.00" fill="#000000">Models diagram</text>
<text text-anchor="start" x="292.6506" y="-1321.6" font-family="Times,serif" font-size="13.00" fill="#000000">Date: Nov 18 2019 &#45; 14:16</text>
<text text-anchor="start" x="292.6506" y="-1308.6" font-family="Times,serif" font-size="13.00" fill="#000000">Migration version: 20191114143358</text>
<text text-anchor="start" x="292.6506" y="-1295.6" font-family="Times,serif" font-size="13.00" fill="#000000">Generated by RailRoady 1.5.3</text>
<text text-anchor="start" x="292.6506" y="-1282.6" font-family="Times,serif" font-size="13.00" fill="#000000">http://railroady.prestonlee.com</text>
</g>
<!-- Report -->
<g id="node2" class="node">
<title>Report</title>
<path fill="none" stroke="#000000" d="M12,-1110.5C12,-1110.5 235.7246,-1110.5 235.7246,-1110.5 241.7246,-1110.5 247.7246,-1116.5 247.7246,-1122.5 247.7246,-1122.5 247.7246,-1212.5 247.7246,-1212.5 247.7246,-1218.5 241.7246,-1224.5 235.7246,-1224.5 235.7246,-1224.5 12,-1224.5 12,-1224.5 6,-1224.5 0,-1218.5 0,-1212.5 0,-1212.5 0,-1122.5 0,-1122.5 0,-1116.5 6,-1110.5 12,-1110.5"/>
<text text-anchor="middle" x="123.8623" y="-1209.3" font-family="Times,serif" font-size="14.00" fill="#000000">Report</text>
<polyline fill="none" stroke="#000000" points="0,-1202.5 247.7246,-1202.5 "/>
<text text-anchor="start" x="8" y="-1187.3" font-family="Times,serif" font-size="14.00" fill="#000000">id :bigint</text>
<text text-anchor="start" x="8" y="-1173.3" font-family="Times,serif" font-size="14.00" fill="#000000">event_id :bigint</text>
<text text-anchor="start" x="8" y="-1159.3" font-family="Times,serif" font-size="14.00" fill="#000000">user_id :bigint</text>
<text text-anchor="start" x="8" y="-1145.3" font-family="Times,serif" font-size="14.00" fill="#000000">content :text</text>
<text text-anchor="start" x="8" y="-1131.3" font-family="Times,serif" font-size="14.00" fill="#000000">created_at :timestamp without time zone</text>
<text text-anchor="start" x="8" y="-1117.3" font-family="Times,serif" font-size="14.00" fill="#000000">updated_at :timestamp without time zone</text>
</g>
<!-- Message -->
<g id="node3" class="node">
<title>Message</title>
<path fill="none" stroke="#000000" d="M218,-.5C218,-.5 441.7246,-.5 441.7246,-.5 447.7246,-.5 453.7246,-6.5 453.7246,-12.5 453.7246,-12.5 453.7246,-102.5 453.7246,-102.5 453.7246,-108.5 447.7246,-114.5 441.7246,-114.5 441.7246,-114.5 218,-114.5 218,-114.5 212,-114.5 206,-108.5 206,-102.5 206,-102.5 206,-12.5 206,-12.5 206,-6.5 212,-.5 218,-.5"/>
<text text-anchor="middle" x="329.8623" y="-99.3" font-family="Times,serif" font-size="14.00" fill="#000000">Message</text>
<polyline fill="none" stroke="#000000" points="206,-92.5 453.7246,-92.5 "/>
<text text-anchor="start" x="214" y="-77.3" font-family="Times,serif" font-size="14.00" fill="#000000">id :bigint</text>
<text text-anchor="start" x="214" y="-63.3" font-family="Times,serif" font-size="14.00" fill="#000000">content :character varying</text>
<text text-anchor="start" x="214" y="-49.3" font-family="Times,serif" font-size="14.00" fill="#000000">user_id :bigint</text>
<text text-anchor="start" x="214" y="-35.3" font-family="Times,serif" font-size="14.00" fill="#000000">chatroom_id :bigint</text>
<text text-anchor="start" x="214" y="-21.3" font-family="Times,serif" font-size="14.00" fill="#000000">created_at :timestamp without time zone</text>
<text text-anchor="start" x="214" y="-7.3" font-family="Times,serif" font-size="14.00" fill="#000000">updated_at :timestamp without time zone</text>
</g>
<!-- Building -->
<g id="node4" class="node">
<title>Building</title>
<path fill="none" stroke="#000000" d="M475,-1103.5C475,-1103.5 698.7246,-1103.5 698.7246,-1103.5 704.7246,-1103.5 710.7246,-1109.5 710.7246,-1115.5 710.7246,-1115.5 710.7246,-1219.5 710.7246,-1219.5 710.7246,-1225.5 704.7246,-1231.5 698.7246,-1231.5 698.7246,-1231.5 475,-1231.5 475,-1231.5 469,-1231.5 463,-1225.5 463,-1219.5 463,-1219.5 463,-1115.5 463,-1115.5 463,-1109.5 469,-1103.5 475,-1103.5"/>
<text text-anchor="middle" x="586.8623" y="-1216.3" font-family="Times,serif" font-size="14.00" fill="#000000">Building</text>
<polyline fill="none" stroke="#000000" points="463,-1209.5 710.7246,-1209.5 "/>
<text text-anchor="start" x="471" y="-1194.3" font-family="Times,serif" font-size="14.00" fill="#000000">id :bigint</text>
<text text-anchor="start" x="471" y="-1180.3" font-family="Times,serif" font-size="14.00" fill="#000000">name :character varying</text>
<text text-anchor="start" x="471" y="-1166.3" font-family="Times,serif" font-size="14.00" fill="#000000">lat :double precision</text>
<text text-anchor="start" x="471" y="-1152.3" font-family="Times,serif" font-size="14.00" fill="#000000">lng :double precision</text>
<text text-anchor="start" x="471" y="-1138.3" font-family="Times,serif" font-size="14.00" fill="#000000">created_at :timestamp without time zone</text>
<text text-anchor="start" x="471" y="-1124.3" font-family="Times,serif" font-size="14.00" fill="#000000">updated_at :timestamp without time zone</text>
<text text-anchor="start" x="471" y="-1110.3" font-family="Times,serif" font-size="14.00" fill="#000000">events_count :integer</text>
</g>
<!-- Event -->
<g id="node7" class="node">
<title>Event</title>
<path fill="none" stroke="#000000" d="M627,-846.5C627,-846.5 850.7246,-846.5 850.7246,-846.5 856.7246,-846.5 862.7246,-852.5 862.7246,-858.5 862.7246,-858.5 862.7246,-1046.5 862.7246,-1046.5 862.7246,-1052.5 856.7246,-1058.5 850.7246,-1058.5 850.7246,-1058.5 627,-1058.5 627,-1058.5 621,-1058.5 615,-1052.5 615,-1046.5 615,-1046.5 615,-858.5 615,-858.5 615,-852.5 621,-846.5 627,-846.5"/>
<text text-anchor="middle" x="738.8623" y="-1043.3" font-family="Times,serif" font-size="14.00" fill="#000000">Event</text>
<polyline fill="none" stroke="#000000" points="615,-1036.5 862.7246,-1036.5 "/>
<text text-anchor="start" x="623" y="-1021.3" font-family="Times,serif" font-size="14.00" fill="#000000">building_id :bigint</text>
<text text-anchor="start" x="623" y="-1007.3" font-family="Times,serif" font-size="14.00" fill="#000000">user_id :bigint</text>
<text text-anchor="start" x="623" y="-993.3" font-family="Times,serif" font-size="14.00" fill="#000000">title :character varying</text>
<text text-anchor="start" x="623" y="-979.3" font-family="Times,serif" font-size="14.00" fill="#000000">place :character varying</text>
<text text-anchor="start" x="623" y="-965.3" font-family="Times,serif" font-size="14.00" fill="#000000">detail_place :character varying</text>
<text text-anchor="start" x="623" y="-951.3" font-family="Times,serif" font-size="14.00" fill="#000000">time_limit :timestamp without time zone</text>
<text text-anchor="start" x="623" y="-937.3" font-family="Times,serif" font-size="14.00" fill="#000000">content :text</text>
<text text-anchor="start" x="623" y="-923.3" font-family="Times,serif" font-size="14.00" fill="#000000">state :integer</text>
<text text-anchor="start" x="623" y="-909.3" font-family="Times,serif" font-size="14.00" fill="#000000">reward :integer</text>
<text text-anchor="start" x="623" y="-895.3" font-family="Times,serif" font-size="14.00" fill="#000000">created_at :timestamp without time zone</text>
<text text-anchor="start" x="623" y="-881.3" font-family="Times,serif" font-size="14.00" fill="#000000">updated_at :timestamp without time zone</text>
<text text-anchor="start" x="623" y="-867.3" font-family="Times,serif" font-size="14.00" fill="#000000">performer_id :bigint</text>
<text text-anchor="start" x="623" y="-853.3" font-family="Times,serif" font-size="14.00" fill="#000000">id :bigint</text>
</g>
<!-- Building&#45;&gt;Event -->
<g id="edge3" class="edge">
<title>Building&#45;&gt;Event</title>
<path fill="none" stroke="#8f4dea" d="M636.9946,-1096.5892C643.7282,-1087.0648 650.7693,-1077.1052 657.8689,-1067.0631"/>
<ellipse fill="none" stroke="#8f4dea" cx="634.5706" cy="-1100.0179" rx="4" ry="4"/>
<polygon fill="#8f4dea" stroke="#8f4dea" points="658.0679,-1066.7815 667.5152,-1061.2138 660.9543,-1062.6988 663.8408,-1058.616 663.8408,-1058.616 663.8408,-1058.616 660.9543,-1062.6988 660.1663,-1056.0182 658.0679,-1066.7815 658.0679,-1066.7815"/>
</g>
<!-- AdminUser -->
<g id="node5" class="node">
<title>AdminUser</title>
<path fill="none" stroke="#000000" d="M1114.2275,-1096.5C1114.2275,-1096.5 1409.4971,-1096.5 1409.4971,-1096.5 1415.4971,-1096.5 1421.4971,-1102.5 1421.4971,-1108.5 1421.4971,-1108.5 1421.4971,-1226.5 1421.4971,-1226.5 1421.4971,-1232.5 1415.4971,-1238.5 1409.4971,-1238.5 1409.4971,-1238.5 1114.2275,-1238.5 1114.2275,-1238.5 1108.2275,-1238.5 1102.2275,-1232.5 1102.2275,-1226.5 1102.2275,-1226.5 1102.2275,-1108.5 1102.2275,-1108.5 1102.2275,-1102.5 1108.2275,-1096.5 1114.2275,-1096.5"/>
<text text-anchor="middle" x="1261.8623" y="-1223.3" font-family="Times,serif" font-size="14.00" fill="#000000">AdminUser</text>
<polyline fill="none" stroke="#000000" points="1102.2275,-1216.5 1421.4971,-1216.5 "/>
<text text-anchor="start" x="1110.2275" y="-1201.3" font-family="Times,serif" font-size="14.00" fill="#000000">updated_at :timestamp without time zone</text>
<text text-anchor="start" x="1110.2275" y="-1187.3" font-family="Times,serif" font-size="14.00" fill="#000000">email :character varying</text>
<text text-anchor="start" x="1110.2275" y="-1173.3" font-family="Times,serif" font-size="14.00" fill="#000000">encrypted_password :character varying</text>
<text text-anchor="start" x="1110.2275" y="-1159.3" font-family="Times,serif" font-size="14.00" fill="#000000">reset_password_token :character varying</text>
<text text-anchor="start" x="1110.2275" y="-1145.3" font-family="Times,serif" font-size="14.00" fill="#000000">reset_password_sent_at :timestamp without time zone</text>
<text text-anchor="start" x="1110.2275" y="-1131.3" font-family="Times,serif" font-size="14.00" fill="#000000">remember_created_at :timestamp without time zone</text>
<text text-anchor="start" x="1110.2275" y="-1117.3" font-family="Times,serif" font-size="14.00" fill="#000000">created_at :timestamp without time zone</text>
<text text-anchor="start" x="1110.2275" y="-1103.3" font-family="Times,serif" font-size="14.00" fill="#000000">id :bigint</text>
</g>
<!-- ApplicationRecord -->
<g id="node6" class="node">
<title>ApplicationRecord</title>
<ellipse fill="none" stroke="#000000" cx="586.8623" cy="-1312.5" rx="77.2916" ry="18"/>
<text text-anchor="middle" x="586.8623" y="-1308.3" font-family="Times,serif" font-size="14.00" fill="#000000">ApplicationRecord</text>
</g>
<!-- ApplicationRecord&#45;&gt;Report -->
<g id="edge1" class="edge">
<title>ApplicationRecord&#45;&gt;Report</title>
<path fill="none" stroke="#000000" d="M554.6559,-1296.0613C538.6052,-1288.6345 518.6528,-1280.526 499.8623,-1276 396.7318,-1251.1596 362.2882,-1292.17 261.8623,-1258 239.0785,-1250.2478 216.3886,-1237.8392 196.1841,-1224.6646"/>
</g>
<!-- ApplicationRecord&#45;&gt;Message -->
<g id="edge2" class="edge">
<title>ApplicationRecord&#45;&gt;Message</title>
<path fill="none" stroke="#000000" d="M549.76,-1296.4909C534.3851,-1289.9726 516.3282,-1282.4661 499.8623,-1276 396.8974,-1235.5659 275.8623,-1278.1196 275.8623,-1167.5 275.8623,-1167.5 275.8623,-1167.5 275.8623,-391.5 275.8623,-284.3813 282.0768,-257.0827 302.8623,-152 305.2792,-139.7809 308.5133,-126.8464 311.9018,-114.5979"/>
</g>
<!-- ApplicationRecord&#45;&gt;Building -->
<g id="edge4" class="edge">
<title>ApplicationRecord&#45;&gt;Building</title>
<path fill="none" stroke="#000000" d="M586.8623,-1294.4288C586.8623,-1278.5621 586.8623,-1254.4989 586.8623,-1231.5748"/>
</g>
<!-- ApplicationRecord&#45;&gt;AdminUser -->
<g id="edge5" class="edge">
<title>ApplicationRecord&#45;&gt;AdminUser</title>
<path fill="none" stroke="#000000" d="M625.7416,-1296.8363C646.7393,-1289.1162 673.3223,-1280.5139 697.8623,-1276 868.5172,-1244.6098 920.3049,-1303.0884 1087.8623,-1258 1105.6177,-1253.2222 1123.6246,-1246.4332 1140.9869,-1238.6942"/>
</g>
<!-- ApplicationRecord&#45;&gt;Event -->
<g id="edge11" class="edge">
<title>ApplicationRecord&#45;&gt;Event</title>
<path fill="none" stroke="#000000" d="M636.1033,-1298.5366C665.616,-1287.4364 700.9732,-1268.7256 719.8623,-1239 753.415,-1186.1984 758.6366,-1116.3127 755.2411,-1058.783"/>
</g>
<!-- User -->
<g id="node8" class="node">
<title>User</title>
<path fill="none" stroke="#000000" d="M370.2275,-152.5C370.2275,-152.5 665.4971,-152.5 665.4971,-152.5 671.4971,-152.5 677.4971,-158.5 677.4971,-164.5 677.4971,-164.5 677.4971,-618.5 677.4971,-618.5 677.4971,-624.5 671.4971,-630.5 665.4971,-630.5 665.4971,-630.5 370.2275,-630.5 370.2275,-630.5 364.2275,-630.5 358.2275,-624.5 358.2275,-618.5 358.2275,-618.5 358.2275,-164.5 358.2275,-164.5 358.2275,-158.5 364.2275,-152.5 370.2275,-152.5"/>
<text text-anchor="middle" x="517.8623" y="-615.3" font-family="Times,serif" font-size="14.00" fill="#000000">User</text>
<polyline fill="none" stroke="#000000" points="358.2275,-608.5 677.4971,-608.5 "/>
<text text-anchor="start" x="366.2275" y="-593.3" font-family="Times,serif" font-size="14.00" fill="#000000">certification_token :character varying</text>
<text text-anchor="start" x="366.2275" y="-579.3" font-family="Times,serif" font-size="14.00" fill="#000000">name :character varying</text>
<text text-anchor="start" x="366.2275" y="-565.3" font-family="Times,serif" font-size="14.00" fill="#000000">email :character varying</text>
<text text-anchor="start" x="366.2275" y="-551.3" font-family="Times,serif" font-size="14.00" fill="#000000">encrypted_password :character varying</text>
<text text-anchor="start" x="366.2275" y="-537.3" font-family="Times,serif" font-size="14.00" fill="#000000">phone :character varying</text>
<text text-anchor="start" x="366.2275" y="-523.3" font-family="Times,serif" font-size="14.00" fill="#000000">thumbnail :character varying</text>
<text text-anchor="start" x="366.2275" y="-509.3" font-family="Times,serif" font-size="14.00" fill="#000000">address1 :character varying</text>
<text text-anchor="start" x="366.2275" y="-495.3" font-family="Times,serif" font-size="14.00" fill="#000000">address2 :character varying</text>
<text text-anchor="start" x="366.2275" y="-481.3" font-family="Times,serif" font-size="14.00" fill="#000000">zipcode :character varying</text>
<text text-anchor="start" x="366.2275" y="-467.3" font-family="Times,serif" font-size="14.00" fill="#000000">gender :integer</text>
<text text-anchor="start" x="366.2275" y="-453.3" font-family="Times,serif" font-size="14.00" fill="#000000">customs_number :character varying</text>
<text text-anchor="start" x="366.2275" y="-439.3" font-family="Times,serif" font-size="14.00" fill="#000000">role :integer</text>
<text text-anchor="start" x="366.2275" y="-425.3" font-family="Times,serif" font-size="14.00" fill="#000000">accept_sms :boolean</text>
<text text-anchor="start" x="366.2275" y="-411.3" font-family="Times,serif" font-size="14.00" fill="#000000">accept_email :boolean</text>
<text text-anchor="start" x="366.2275" y="-397.3" font-family="Times,serif" font-size="14.00" fill="#000000">reset_password_token :character varying</text>
<text text-anchor="start" x="366.2275" y="-383.3" font-family="Times,serif" font-size="14.00" fill="#000000">reset_password_sent_at :timestamp without time zone</text>
<text text-anchor="start" x="366.2275" y="-369.3" font-family="Times,serif" font-size="14.00" fill="#000000">remember_created_at :timestamp without time zone</text>
<text text-anchor="start" x="366.2275" y="-355.3" font-family="Times,serif" font-size="14.00" fill="#000000">sign_in_count :integer</text>
<text text-anchor="start" x="366.2275" y="-341.3" font-family="Times,serif" font-size="14.00" fill="#000000">current_sign_in_at :timestamp without time zone</text>
<text text-anchor="start" x="366.2275" y="-327.3" font-family="Times,serif" font-size="14.00" fill="#000000">last_sign_in_at :timestamp without time zone</text>
<text text-anchor="start" x="366.2275" y="-313.3" font-family="Times,serif" font-size="14.00" fill="#000000">current_sign_in_ip :inet</text>
<text text-anchor="start" x="366.2275" y="-299.3" font-family="Times,serif" font-size="14.00" fill="#000000">last_sign_in_ip :inet</text>
<text text-anchor="start" x="366.2275" y="-285.3" font-family="Times,serif" font-size="14.00" fill="#000000">created_at :timestamp without time zone</text>
<text text-anchor="start" x="366.2275" y="-271.3" font-family="Times,serif" font-size="14.00" fill="#000000">updated_at :timestamp without time zone</text>
<text text-anchor="start" x="366.2275" y="-257.3" font-family="Times,serif" font-size="14.00" fill="#000000">student_card_image :character varying</text>
<text text-anchor="start" x="366.2275" y="-243.3" font-family="Times,serif" font-size="14.00" fill="#000000">certification_state :integer</text>
<text text-anchor="start" x="366.2275" y="-229.3" font-family="Times,serif" font-size="14.00" fill="#000000">status :integer</text>
<text text-anchor="start" x="366.2275" y="-215.3" font-family="Times,serif" font-size="14.00" fill="#000000">device_token :character varying</text>
<text text-anchor="start" x="366.2275" y="-201.3" font-family="Times,serif" font-size="14.00" fill="#000000">device_type :integer</text>
<text text-anchor="start" x="366.2275" y="-187.3" font-family="Times,serif" font-size="14.00" fill="#000000">blacklist :boolean</text>
<text text-anchor="start" x="366.2275" y="-173.3" font-family="Times,serif" font-size="14.00" fill="#000000">student_email :character varying</text>
<text text-anchor="start" x="366.2275" y="-159.3" font-family="Times,serif" font-size="14.00" fill="#000000">id :bigint</text>
</g>
<!-- ApplicationRecord&#45;&gt;User -->
<g id="edge15" class="edge">
<title>ApplicationRecord&#45;&gt;User</title>
<path fill="none" stroke="#000000" d="M630.7675,-1297.6508C651.1216,-1290.8729 675.6676,-1282.8489 697.8623,-1276 864.0589,-1224.7147 1073.8623,-1341.4296 1073.8623,-1167.5 1073.8623,-1167.5 1073.8623,-1167.5 1073.8623,-738.5 1073.8623,-550.3294 841.8374,-460.4669 677.562,-420.4248"/>
</g>
<!-- Chatroom -->
<g id="node9" class="node">
<title>Chatroom</title>
<path fill="none" stroke="#000000" d="M316,-681.5C316,-681.5 539.7246,-681.5 539.7246,-681.5 545.7246,-681.5 551.7246,-687.5 551.7246,-693.5 551.7246,-693.5 551.7246,-783.5 551.7246,-783.5 551.7246,-789.5 545.7246,-795.5 539.7246,-795.5 539.7246,-795.5 316,-795.5 316,-795.5 310,-795.5 304,-789.5 304,-783.5 304,-783.5 304,-693.5 304,-693.5 304,-687.5 310,-681.5 316,-681.5"/>
<text text-anchor="middle" x="427.8623" y="-780.3" font-family="Times,serif" font-size="14.00" fill="#000000">Chatroom</text>
<polyline fill="none" stroke="#000000" points="304,-773.5 551.7246,-773.5 "/>
<text text-anchor="start" x="312" y="-758.3" font-family="Times,serif" font-size="14.00" fill="#000000">id :bigint</text>
<text text-anchor="start" x="312" y="-744.3" font-family="Times,serif" font-size="14.00" fill="#000000">event_id :bigint</text>
<text text-anchor="start" x="312" y="-730.3" font-family="Times,serif" font-size="14.00" fill="#000000">created_at :timestamp without time zone</text>
<text text-anchor="start" x="312" y="-716.3" font-family="Times,serif" font-size="14.00" fill="#000000">updated_at :timestamp without time zone</text>
<text text-anchor="start" x="312" y="-702.3" font-family="Times,serif" font-size="14.00" fill="#000000">request_user_id :bigint</text>
<text text-anchor="start" x="312" y="-688.3" font-family="Times,serif" font-size="14.00" fill="#000000">perform_user_id :bigint</text>
</g>
<!-- ApplicationRecord&#45;&gt;Chatroom -->
<g id="edge19" class="edge">
<title>ApplicationRecord&#45;&gt;Chatroom</title>
<path fill="none" stroke="#000000" d="M549.1704,-1296.646C513.9022,-1280.9798 465.0188,-1256.8378 453.8623,-1239 366.8913,-1099.945 393.902,-894.3096 414.1924,-795.5365"/>
</g>
<!-- Event&#45;&gt;Chatroom -->
<g id="edge6" class="edge">
<title>Event&#45;&gt;Chatroom</title>
<path fill="none" stroke="#da582c" d="M607.6359,-862.2028C577.2896,-841.3213 545.6787,-819.5698 517.5809,-800.2356"/>
<ellipse fill="none" stroke="#da582c" cx="611.3108" cy="-864.7315" rx="4" ry="4"/>
<ellipse fill="#da582c" stroke="#da582c" cx="514.1886" cy="-797.9014" rx="4" ry="4"/>
</g>
<!-- ActsAsTaggableOn::Tagging -->
<g id="node19" class="node">
<title>ActsAsTaggableOn::Tagging</title>
<ellipse fill="none" stroke="#000000" cx="682.8623" cy="-738.5" rx="113.0056" ry="18"/>
<text text-anchor="middle" x="682.8623" y="-734.3" font-family="Times,serif" font-size="14.00" fill="#000000">ActsAsTaggableOn::Tagging</text>
</g>
<!-- Event&#45;&gt;ActsAsTaggableOn::Tagging -->
<g id="edge7" class="edge">
<title>Event&#45;&gt;ActsAsTaggableOn::Tagging</title>
<path fill="none" stroke="#e8a198" d="M672.5317,-838.5996C671.3818,-835.0685 670.3391,-831.5312 669.4209,-828 664.1322,-807.6609 668.0388,-784.1442 672.976,-766.3221"/>
<ellipse fill="none" stroke="#e8a198" cx="673.9001" cy="-842.5368" rx="4" ry="4"/>
<polygon fill="#e8a198" stroke="#e8a198" points="673.0364,-766.1229 680.2464,-757.8606 674.4884,-761.3383 675.9403,-756.5538 675.9403,-756.5538 675.9403,-756.5538 674.4884,-761.3383 671.6342,-755.247 673.0364,-766.1229 673.0364,-766.1229"/>
<text text-anchor="middle" x="693.583" y="-816.8" font-family="Times,serif" font-size="14.00" fill="#000000">taggings</text>
</g>
<!-- Event&#45;&gt;ActsAsTaggableOn::Tagging -->
<g id="edge9" class="edge">
<title>Event&#45;&gt;ActsAsTaggableOn::Tagging</title>
<path fill="none" stroke="#f51d75" d="M723.2227,-838.3688C721.3255,-830.0642 719.2127,-821.8667 716.8623,-814 711.9138,-797.437 704.1123,-779.7756 697.2299,-765.7022"/>
<ellipse fill="none" stroke="#f51d75" cx="724.1186" cy="-842.4496" rx="4" ry="4"/>
<polygon fill="#f51d75" stroke="#f51d75" points="697.1427,-765.5282 696.6806,-754.572 694.9005,-761.0591 692.6584,-756.5899 692.6584,-756.5899 692.6584,-756.5899 694.9005,-761.0591 688.6362,-758.6078 697.1427,-765.5282 697.1427,-765.5282"/>
<text text-anchor="middle" x="756.6348" y="-816.8" font-family="Times,serif" font-size="14.00" fill="#000000">tag_taggings</text>
</g>
<!-- ActsAsTaggableOn::Tag -->
<g id="node20" class="node">
<title>ActsAsTaggableOn::Tag</title>
<ellipse fill="none" stroke="#000000" cx="910.8623" cy="-738.5" rx="97.0617" ry="18"/>
<text text-anchor="middle" x="910.8623" y="-734.3" font-family="Times,serif" font-size="14.00" fill="#000000">ActsAsTaggableOn::Tag</text>
</g>
<!-- Event&#45;&gt;ActsAsTaggableOn::Tag -->
<g id="edge8" class="edge">
<title>Event&#45;&gt;ActsAsTaggableOn::Tag</title>
<path fill="none" stroke="#34f8a3" d="M815.162,-838.1998C821.5,-829.8711 827.9625,-821.7189 834.4346,-814 849.5375,-795.9875 868.2935,-777.4116 883.4452,-763.1927"/>
<polygon fill="#34f8a3" stroke="#34f8a3" points="815.1347,-838.2362 805.5298,-843.5274 812.131,-842.2335 809.1273,-846.2307 809.1273,-846.2307 809.1273,-846.2307 812.131,-842.2335 812.7248,-848.9341 815.1347,-838.2362 815.1347,-838.2362"/>
<polygon fill="#34f8a3" stroke="#34f8a3" points="883.6715,-762.9827 894.0626,-759.4789 887.3366,-759.5815 891.0016,-756.1804 891.0016,-756.1804 891.0016,-756.1804 887.3366,-759.5815 887.9405,-752.8818 883.6715,-762.9827 883.6715,-762.9827"/>
<text text-anchor="middle" x="862.0762" y="-816.8" font-family="Times,serif" font-size="14.00" fill="#000000">base_tags</text>
</g>
<!-- Event&#45;&gt;ActsAsTaggableOn::Tag -->
<g id="edge10" class="edge">
<title>Event&#45;&gt;ActsAsTaggableOn::Tag</title>
<path fill="none" stroke="#4b480f" d="M869.6271,-853.9494C876.7121,-845.671 883.2234,-837.0035 888.8623,-828 900.4888,-809.4361 905.9718,-785.1335 908.5571,-766.5379"/>
<polygon fill="#4b480f" stroke="#4b480f" points="869.6114,-853.967 859.6043,-858.4514 866.2895,-857.7041 862.9677,-861.4411 862.9677,-861.4411 862.9677,-861.4411 866.2895,-857.7041 866.331,-864.4308 869.6114,-853.967 869.6114,-853.967"/>
<polygon fill="#4b480f" stroke="#4b480f" points="908.5578,-766.5311 914.2108,-757.1347 909.1502,-761.5664 909.7425,-756.6016 909.7425,-756.6016 909.7425,-756.6016 909.1502,-761.5664 905.2742,-756.0684 908.5578,-766.5311 908.5578,-766.5311"/>
<text text-anchor="middle" x="907.1382" y="-816.8" font-family="Times,serif" font-size="14.00" fill="#000000">tags</text>
</g>
<!-- User&#45;&gt;Message -->
<g id="edge13" class="edge">
<title>User&#45;&gt;Message</title>
<path fill="none" stroke="#65bc0c" d="M379.1838,-145.1244C374.9955,-137.6834 370.9613,-130.5163 367.1283,-123.7065"/>
<ellipse fill="none" stroke="#65bc0c" cx="381.2706" cy="-148.8318" rx="4" ry="4"/>
<polygon fill="#65bc0c" stroke="#65bc0c" points="366.9355,-123.3641 365.9519,-112.4424 364.483,-119.0069 362.0304,-114.6497 362.0304,-114.6497 362.0304,-114.6497 364.483,-119.0069 358.1089,-116.857 366.9355,-123.3641 366.9355,-123.3641"/>
</g>
<!-- User&#45;&gt;Event -->
<g id="edge12" class="edge">
<title>User&#45;&gt;Event</title>
<path fill="none" stroke="#a7f8c0" d="M685.2452,-439.6054C800.8517,-482.5481 946.0612,-558.0702 1016.8623,-681 1042.3713,-725.2904 1042.658,-751.876 1016.8623,-796 985.2189,-850.1267 927.202,-886.9856 872.3233,-911.2645"/>
<ellipse fill="none" stroke="#a7f8c0" cx="681.429" cy="-438.2033" rx="4" ry="4"/>
<polygon fill="#a7f8c0" stroke="#a7f8c0" points="872.0197,-911.3953 861.0552,-911.2202 867.4279,-913.3741 862.8361,-915.3528 862.8361,-915.3528 862.8361,-915.3528 867.4279,-913.3741 864.617,-919.4855 872.0197,-911.3953 872.0197,-911.3953"/>
</g>
<!-- User&#45;&gt;Chatroom -->
<g id="edge14" class="edge">
<title>User&#45;&gt;Chatroom</title>
<path fill="none" stroke="#a38d11" d="M478.3577,-640.4686C475.9997,-648.1119 473.5039,-655.6395 470.8623,-663 469.7668,-666.0525 468.552,-669.1249 467.2457,-672.1921"/>
<polygon fill="#a38d11" stroke="#a38d11" points="478.4052,-640.3096 485.5825,-632.0188 479.8382,-635.5193 481.2713,-630.7291 481.2713,-630.7291 481.2713,-630.7291 479.8382,-635.5193 476.9601,-629.4393 478.4052,-640.3096 478.4052,-640.3096"/>
<polygon fill="#a38d11" stroke="#a38d11" points="467.2191,-672.2507 458.9835,-679.4913 465.1496,-676.8023 463.08,-681.3539 463.08,-681.3539 463.08,-681.3539 465.1496,-676.8023 467.1764,-683.2165 467.2191,-672.2507 467.2191,-672.2507"/>
</g>
<!-- Chatroom&#45;&gt;Message -->
<g id="edge16" class="edge">
<title>Chatroom&#45;&gt;Message</title>
<path fill="none" stroke="#219d4e" d="M371.6003,-674.7494C362.387,-661.1317 354.139,-646.2341 348.8623,-631 288.4719,-456.6475 305.5215,-234.3799 319.5664,-124.7979"/>
<ellipse fill="none" stroke="#219d4e" cx="373.9025" cy="-678.0475" rx="4" ry="4"/>
<polygon fill="#219d4e" stroke="#219d4e" points="319.5681,-124.7841 325.3322,-115.4554 320.2193,-119.8267 320.8705,-114.8693 320.8705,-114.8693 320.8705,-114.8693 320.2193,-119.8267 316.4089,-114.2832 319.5681,-124.7841 319.5681,-124.7841"/>
</g>
<!-- Chatroom&#45;&gt;User -->
<g id="edge17" class="edge">
<title>Chatroom&#45;&gt;User</title>
<path fill="none" stroke="#5c63ef" d="M422.6268,-671.2138C422.9271,-663.6885 423.6229,-656.1593 424.876,-649 425.3587,-646.2421 425.8684,-643.4748 426.4036,-640.6999"/>
<polygon fill="#5c63ef" stroke="#5c63ef" points="422.6229,-671.4395 417.948,-681.359 422.5351,-676.4388 422.4473,-681.438 422.4473,-681.438 422.4473,-681.438 422.5351,-676.4388 426.9466,-681.5171 422.6229,-671.4395 422.6229,-671.4395"/>
<polygon fill="#5c63ef" stroke="#5c63ef" points="426.4597,-640.4233 432.8604,-631.5193 427.4551,-635.5234 428.4505,-630.6235 428.4505,-630.6235 428.4505,-630.6235 427.4551,-635.5234 424.0405,-629.7276 426.4597,-640.4233 426.4597,-640.4233"/>
<text text-anchor="middle" x="446.8555" y="-651.8" font-family="Times,serif" font-size="14.00" fill="#000000">senders</text>
</g>
<!-- Chatroom&#45;&gt;User -->
<g id="edge18" class="edge">
<title>Chatroom&#45;&gt;User</title>
<path fill="none" stroke="#9ee368" d="M482.625,-672.1608C484.1785,-669.1379 485.602,-666.0791 486.8623,-663 489.8634,-655.668 492.6048,-648.1373 495.1078,-640.4651"/>
<polygon fill="#9ee368" stroke="#9ee368" points="482.4997,-672.3843 473.6829,-678.9047 480.0537,-676.7452 477.6077,-681.1061 477.6077,-681.1061 477.6077,-681.1061 480.0537,-676.7452 481.5325,-683.3074 482.4997,-672.3843 482.4997,-672.3843"/>
<polygon fill="#9ee368" stroke="#9ee368" points="495.1826,-640.2243 502.4492,-632.0117 496.6674,-635.4499 498.1522,-630.6754 498.1522,-630.6754 498.1522,-630.6754 496.6674,-635.4499 493.8552,-629.3391 495.1826,-640.2243 495.1826,-640.2243"/>
<text text-anchor="middle" x="518.1211" y="-651.8" font-family="Times,serif" font-size="14.00" fill="#000000">receivers</text>
</g>
<!-- ActiveStorage::Variant -->
<g id="node10" class="node">
<title>ActiveStorage::Variant</title>
<polygon fill="none" stroke="#000000" points="706.7173,-1290.5 706.7173,-1334.5 851.0073,-1334.5 851.0073,-1290.5 706.7173,-1290.5"/>
<text text-anchor="middle" x="778.8623" y="-1319.3" font-family="Times,serif" font-size="14.00" fill="#000000">ActiveStorage::Variant</text>
<polyline fill="none" stroke="#000000" points="706.7173,-1312.5 851.0073,-1312.5 "/>
<text text-anchor="middle" x="778.8623" y="-1297.3" font-family="Times,serif" font-size="14.00" fill="#000000"> </text>
</g>
<!-- ActiveStorage::Filename -->
<g id="node11" class="node">
<title>ActiveStorage::Filename</title>
<polygon fill="none" stroke="#000000" points="963.8828,-1290.5 963.8828,-1334.5 1119.8418,-1334.5 1119.8418,-1290.5 963.8828,-1290.5"/>
<text text-anchor="middle" x="1041.8623" y="-1319.3" font-family="Times,serif" font-size="14.00" fill="#000000">ActiveStorage::Filename</text>
<polyline fill="none" stroke="#000000" points="963.8828,-1312.5 1119.8418,-1312.5 "/>
<text text-anchor="middle" x="1041.8623" y="-1297.3" font-family="Times,serif" font-size="14.00" fill="#000000"> </text>
</g>
<!-- ActiveStorage::Variation -->
<g id="node12" class="node">
<title>ActiveStorage::Variation</title>
<polygon fill="none" stroke="#000000" points="1186.2725,-1290.5 1186.2725,-1334.5 1341.4521,-1334.5 1341.4521,-1290.5 1186.2725,-1290.5"/>
<text text-anchor="middle" x="1263.8623" y="-1319.3" font-family="Times,serif" font-size="14.00" fill="#000000">ActiveStorage::Variation</text>
<polyline fill="none" stroke="#000000" points="1186.2725,-1312.5 1341.4521,-1312.5 "/>
<text text-anchor="middle" x="1263.8623" y="-1297.3" font-family="Times,serif" font-size="14.00" fill="#000000"> </text>
</g>
<!-- ActiveStorage::Current -->
<g id="node13" class="node">
<title>ActiveStorage::Current</title>
<polygon fill="none" stroke="#000000" points="1439.5483,-1145.5 1439.5483,-1189.5 1586.1763,-1189.5 1586.1763,-1145.5 1439.5483,-1145.5"/>
<text text-anchor="middle" x="1512.8623" y="-1174.3" font-family="Times,serif" font-size="14.00" fill="#000000">ActiveStorage::Current</text>
<polyline fill="none" stroke="#000000" points="1439.5483,-1167.5 1586.1763,-1167.5 "/>
<text text-anchor="middle" x="1512.8623" y="-1152.3" font-family="Times,serif" font-size="14.00" fill="#000000"> </text>
</g>
<!-- ActiveStorage::Filename::Parameters -->
<g id="node14" class="node">
<title>ActiveStorage::Filename::Parameters</title>
<polygon fill="none" stroke="#000000" points="1659.8965,-1290.5 1659.8965,-1334.5 1885.8281,-1334.5 1885.8281,-1290.5 1659.8965,-1290.5"/>
<text text-anchor="middle" x="1772.8623" y="-1319.3" font-family="Times,serif" font-size="14.00" fill="#000000">ActiveStorage::Filename::Parameters</text>
<polyline fill="none" stroke="#000000" points="1659.8965,-1312.5 1885.8281,-1312.5 "/>
<text text-anchor="middle" x="1772.8623" y="-1297.3" font-family="Times,serif" font-size="14.00" fill="#000000"> </text>
</g>
<!-- ActiveStorage::Blob::Identifiable -->
<g id="node15" class="node">
<title>ActiveStorage::Blob::Identifiable</title>
<polygon fill="none" stroke="#000000" stroke-dasharray="1,5" points="2105.9906,-1330.5 1903.734,-1330.5 1903.734,-1294.5 2105.9906,-1294.5 2105.9906,-1330.5"/>
<text text-anchor="middle" x="2004.8623" y="-1308.3" font-family="Times,serif" font-size="14.00" fill="#000000">ActiveStorage::Blob::Identifiable</text>
</g>
<!-- ActiveStorage::Blob::Analyzable -->
<g id="node16" class="node">
<title>ActiveStorage::Blob::Analyzable</title>
<polygon fill="none" stroke="#000000" stroke-dasharray="1,5" points="2326.9769,-1330.5 2124.7477,-1330.5 2124.7477,-1294.5 2326.9769,-1294.5 2326.9769,-1330.5"/>
<text text-anchor="middle" x="2225.8623" y="-1308.3" font-family="Times,serif" font-size="14.00" fill="#000000">ActiveStorage::Blob::Analyzable</text>
</g>
<!-- ActiveStorage::Blob::Representable -->
<g id="node17" class="node">
<title>ActiveStorage::Blob::Representable</title>
<polygon fill="none" stroke="#000000" stroke-dasharray="1,5" points="2563.0284,-1330.5 2344.6962,-1330.5 2344.6962,-1294.5 2563.0284,-1294.5 2563.0284,-1330.5"/>
<text text-anchor="middle" x="2453.8623" y="-1308.3" font-family="Times,serif" font-size="14.00" fill="#000000">ActiveStorage::Blob::Representable</text>
</g>
<!-- ActiveStorage::Preview -->
<g id="node18" class="node">
<title>ActiveStorage::Preview</title>
<polygon fill="none" stroke="#000000" points="2580.9932,-1290.5 2580.9932,-1334.5 2730.7314,-1334.5 2730.7314,-1290.5 2580.9932,-1290.5"/>
<text text-anchor="middle" x="2655.8623" y="-1319.3" font-family="Times,serif" font-size="14.00" fill="#000000">ActiveStorage::Preview</text>
<polyline fill="none" stroke="#000000" points="2580.9932,-1312.5 2730.7314,-1312.5 "/>
<text text-anchor="middle" x="2655.8623" y="-1297.3" font-family="Times,serif" font-size="14.00" fill="#000000"> </text>
</g>
<!-- ActiveSupport::CurrentAttributes -->
<g id="node21" class="node">
<title>ActiveSupport::CurrentAttributes</title>
<ellipse fill="none" stroke="#000000" cx="1512.8623" cy="-1312.5" rx="128.9682" ry="18"/>
<text text-anchor="middle" x="1512.8623" y="-1308.3" font-family="Times,serif" font-size="14.00" fill="#000000">ActiveSupport::CurrentAttributes</text>
</g>
<!-- ActiveSupport::CurrentAttributes&#45;&gt;ActiveStorage::Current -->
<g id="edge20" class="edge">
<title>ActiveSupport::CurrentAttributes&#45;&gt;ActiveStorage::Current</title>
<path fill="none" stroke="#000000" d="M1512.8623,-1294.4288C1512.8623,-1267.8577 1512.8623,-1218.3004 1512.8623,-1189.6"/>
</g>
</g>
</svg>
