<?xml version="1.0" encoding="UTF-8" standalone="no"?>
<!DOCTYPE svg PUBLIC "-//W3C//DTD SVG 1.1//EN"
 "http://www.w3.org/Graphics/SVG/1.1/DTD/svg11.dtd">
<!-- Generated by graphviz version 2.40.1 (20161225.0304)
 -->
<!-- Title: models_diagram Pages: 1 -->
<svg width="2778pt" height="386pt"
 viewBox="0.00 0.00 2777.87 386.00" xmlns="http://www.w3.org/2000/svg" xmlns:xlink="http://www.w3.org/1999/xlink">
<g id="graph0" class="graph" transform="scale(1 1) rotate(0) translate(4 382)">
<title>models_diagram</title>
<polygon fill="transparent" stroke="transparent" points="-4,4 -4,-382 2773.8691,-382 2773.8691,4 -4,4"/>
<!-- _diagram_info -->
<g id="node1" class="node">
<title>_diagram_info</title>
<text text-anchor="start" x="107.7883" y="-363.6" font-family="Times,serif" font-size="13.00" fill="#000000">Models diagram</text>
<text text-anchor="start" x="107.7883" y="-350.6" font-family="Times,serif" font-size="13.00" fill="#000000">Date: Dec 14 2019 &#45; 21:45</text>
<text text-anchor="start" x="107.7883" y="-337.6" font-family="Times,serif" font-size="13.00" fill="#000000">Migration version: 20191119050953</text>
<text text-anchor="start" x="107.7883" y="-324.6" font-family="Times,serif" font-size="13.00" fill="#000000">Generated by RailRoady 1.5.3</text>
<text text-anchor="start" x="107.7883" y="-311.6" font-family="Times,serif" font-size="13.00" fill="#000000">http://railroady.prestonlee.com</text>
</g>
<!-- Report -->
<g id="node2" class="node">
<title>Report</title>
<ellipse fill="none" stroke="#000000" cx="600" cy="-177" rx="34.3527" ry="18"/>
<text text-anchor="middle" x="600" y="-172.8" font-family="Times,serif" font-size="14.00" fill="#000000">Report</text>
</g>
<!-- Push -->
<g id="node3" class="node">
<title>Push</title>
<ellipse fill="none" stroke="#000000" cx="411" cy="-177" rx="27.1216" ry="18"/>
<text text-anchor="middle" x="411" y="-172.8" font-family="Times,serif" font-size="14.00" fill="#000000">Push</text>
</g>
<!-- Message -->
<g id="node4" class="node">
<title>Message</title>
<ellipse fill="none" stroke="#000000" cx="473" cy="-18" rx="41.1007" ry="18"/>
<text text-anchor="middle" x="473" y="-13.8" font-family="Times,serif" font-size="14.00" fill="#000000">Message</text>
</g>
<!-- Building -->
<g id="node5" class="node">
<title>Building</title>
<ellipse fill="none" stroke="#000000" cx="244" cy="-250" rx="41.1266" ry="18"/>
<text text-anchor="middle" x="244" y="-245.8" font-family="Times,serif" font-size="14.00" fill="#000000">Building</text>
</g>
<!-- Event -->
<g id="node8" class="node">
<title>Event</title>
<ellipse fill="none" stroke="#000000" cx="311" cy="-177" rx="30.9706" ry="18"/>
<text text-anchor="middle" x="311" y="-172.8" font-family="Times,serif" font-size="14.00" fill="#000000">Event</text>
</g>
<!-- Building&#45;&gt;Event -->
<g id="edge4" class="edge">
<title>Building&#45;&gt;Event</title>
<path fill="none" stroke="#7ad004" d="M264.9645,-227.1581C272.7349,-218.6918 281.5568,-209.0799 289.3842,-200.5515"/>
<ellipse fill="none" stroke="#7ad004" cx="262.2443" cy="-230.1219" rx="4" ry="4"/>
<polygon fill="#7ad004" stroke="#7ad004" points="289.4725,-200.4553 299.5497,-196.1308 292.8534,-196.7716 296.2344,-193.0879 296.2344,-193.0879 296.2344,-193.0879 292.8534,-196.7716 292.9191,-190.0451 289.4725,-200.4553 289.4725,-200.4553"/>
</g>
<!-- AdminUser -->
<g id="node6" class="node">
<title>AdminUser</title>
<ellipse fill="none" stroke="#000000" cx="442" cy="-250" rx="51.2415" ry="18"/>
<text text-anchor="middle" x="442" y="-245.8" font-family="Times,serif" font-size="14.00" fill="#000000">AdminUser</text>
</g>
<!-- ApplicationRecord -->
<g id="node7" class="node">
<title>ApplicationRecord</title>
<ellipse fill="none" stroke="#000000" cx="402" cy="-341.5" rx="77.2916" ry="18"/>
<text text-anchor="middle" x="402" y="-337.3" font-family="Times,serif" font-size="14.00" fill="#000000">ApplicationRecord</text>
</g>
<!-- ApplicationRecord&#45;&gt;Report -->
<g id="edge1" class="edge">
<title>ApplicationRecord&#45;&gt;Report</title>
<path fill="none" stroke="#000000" d="M439.8397,-325.5653C490.117,-304.3599 572.8054,-269.3549 574,-268 592.0386,-247.5417 597.6157,-215.3524 599.3075,-195.2478"/>
</g>
<!-- ApplicationRecord&#45;&gt;Push -->
<g id="edge2" class="edge">
<title>ApplicationRecord&#45;&gt;Push</title>
<path fill="none" stroke="#000000" d="M394.0731,-323.527C385.5168,-301.7134 374.1075,-263.8902 382,-232 385.4232,-218.1684 393.0264,-203.9778 399.5889,-193.4759"/>
</g>
<!-- ApplicationRecord&#45;&gt;Message -->
<g id="edge3" class="edge">
<title>ApplicationRecord&#45;&gt;Message</title>
<path fill="none" stroke="#000000" d="M367.9318,-325.1145C352.1315,-318.0632 332.9192,-310.2509 315,-305 246.8084,-285.0179 0,-321.059 0,-250 0,-250 0,-250 0,-91 0,-79.3678 8.4731,-77.949 19,-73 91.9292,-38.7138 334.6722,-24.2194 432.0571,-19.6874"/>
</g>
<!-- ApplicationRecord&#45;&gt;Building -->
<g id="edge5" class="edge">
<title>ApplicationRecord&#45;&gt;Building</title>
<path fill="none" stroke="#000000" d="M369.0406,-325.1817C348.5812,-314.7781 321.9127,-300.7169 299,-287 287.8423,-280.3204 275.8186,-272.3286 265.8674,-265.4844"/>
</g>
<!-- ApplicationRecord&#45;&gt;AdminUser -->
<g id="edge6" class="edge">
<title>ApplicationRecord&#45;&gt;AdminUser</title>
<path fill="none" stroke="#000000" d="M409.9027,-323.4225C416.9153,-307.3813 427.1061,-284.0697 434.1137,-268.0399"/>
</g>
<!-- ApplicationRecord&#45;&gt;Event -->
<g id="edge12" class="edge">
<title>ApplicationRecord&#45;&gt;Event</title>
<path fill="none" stroke="#000000" d="M392.0882,-323.5825C374.4914,-291.7729 338.0141,-225.8332 320.6249,-194.3989"/>
</g>
<!-- User -->
<g id="node9" class="node">
<title>User</title>
<ellipse fill="none" stroke="#000000" cx="538" cy="-250" rx="27" ry="18"/>
<text text-anchor="middle" x="538" y="-245.8" font-family="Times,serif" font-size="14.00" fill="#000000">User</text>
</g>
<!-- ApplicationRecord&#45;&gt;User -->
<g id="edge18" class="edge">
<title>ApplicationRecord&#45;&gt;User</title>
<path fill="none" stroke="#000000" d="M427.5806,-324.2895C454.0497,-306.4813 494.796,-279.0674 518.686,-262.9944"/>
</g>
<!-- Chatroom -->
<g id="node10" class="node">
<title>Chatroom</title>
<ellipse fill="none" stroke="#000000" cx="567" cy="-91" rx="45.4527" ry="18"/>
<text text-anchor="middle" x="567" y="-86.8" font-family="Times,serif" font-size="14.00" fill="#000000">Chatroom</text>
</g>
<!-- ApplicationRecord&#45;&gt;Chatroom -->
<g id="edge22" class="edge">
<title>ApplicationRecord&#45;&gt;Chatroom</title>
<path fill="none" stroke="#000000" d="M438.1096,-325.48C453.6428,-318.8161 472.0845,-311.2045 489,-305 537.0304,-287.3827 558.36,-300.3412 598,-268 638.6094,-234.8678 664.3924,-206.8459 643,-159 632.8105,-136.2103 610.79,-117.8964 593.0622,-106.0414"/>
</g>
<!-- Event&#45;&gt;Chatroom -->
<g id="edge7" class="edge">
<title>Event&#45;&gt;Chatroom</title>
<path fill="none" stroke="#cdd099" d="M345.6806,-165.3495C392.0025,-149.7882 474.0367,-122.2299 524.1663,-105.3895"/>
<ellipse fill="none" stroke="#cdd099" cx="341.7044" cy="-166.6852" rx="4" ry="4"/>
<ellipse fill="#cdd099" stroke="#cdd099" cx="528.1357" cy="-104.056" rx="4" ry="4"/>
</g>
<!-- ActsAsTaggableOn::Tagging -->
<g id="node22" class="node">
<title>ActsAsTaggableOn::Tagging</title>
<ellipse fill="none" stroke="#000000" cx="141" cy="-91" rx="113.0056" ry="18"/>
<text text-anchor="middle" x="141" y="-86.8" font-family="Times,serif" font-size="14.00" fill="#000000">ActsAsTaggableOn::Tagging</text>
</g>
<!-- Event&#45;&gt;ActsAsTaggableOn::Tagging -->
<g id="edge8" class="edge">
<title>Event&#45;&gt;ActsAsTaggableOn::Tagging</title>
<path fill="none" stroke="#c2bb61" d="M272.1998,-174.1415C227.7215,-169.9758 158.8424,-160.5024 142.5586,-141 137.5272,-134.9741 135.8546,-126.97 135.796,-119.1359"/>
<ellipse fill="none" stroke="#c2bb61" cx="276.2186" cy="-174.5017" rx="4" ry="4"/>
<polygon fill="#c2bb61" stroke="#c2bb61" points="135.7991,-119.0911 140.9911,-109.4322 136.1506,-114.1035 136.5022,-109.1158 136.5022,-109.1158 136.5022,-109.1158 136.1506,-114.1035 132.0133,-108.7994 135.7991,-119.0911 135.7991,-119.0911"/>
<text text-anchor="middle" x="166.7207" y="-129.8" font-family="Times,serif" font-size="14.00" fill="#000000">taggings</text>
</g>
<!-- Event&#45;&gt;ActsAsTaggableOn::Tagging -->
<g id="edge10" class="edge">
<title>Event&#45;&gt;ActsAsTaggableOn::Tagging</title>
<path fill="none" stroke="#b20793" d="M278.6995,-163.0842C264.1371,-156.6311 246.8004,-148.6982 231.4551,-141 214.428,-132.4582 195.9669,-122.402 180.1895,-113.5566"/>
<ellipse fill="none" stroke="#b20793" cx="282.3758" cy="-164.7029" rx="4" ry="4"/>
<polygon fill="#b20793" stroke="#b20793" points="179.9512,-113.4222 173.4522,-104.5896 175.5962,-110.9656 171.2413,-108.509 171.2413,-108.509 171.2413,-108.509 175.5962,-110.9656 169.0304,-112.4285 179.9512,-113.4222 179.9512,-113.4222"/>
<text text-anchor="middle" x="267.7725" y="-129.8" font-family="Times,serif" font-size="14.00" fill="#000000">tag_taggings</text>
</g>
<!-- ActsAsTaggableOn::Tag -->
<g id="node23" class="node">
<title>ActsAsTaggableOn::Tag</title>
<ellipse fill="none" stroke="#000000" cx="369" cy="-91" rx="97.0617" ry="18"/>
<text text-anchor="middle" x="369" y="-86.8" font-family="Times,serif" font-size="14.00" fill="#000000">ActsAsTaggableOn::Tag</text>
</g>
<!-- Event&#45;&gt;ActsAsTaggableOn::Tag -->
<g id="edge9" class="edge">
<title>Event&#45;&gt;ActsAsTaggableOn::Tag</title>
<path fill="none" stroke="#cfd337" d="M305.8683,-148.6664C305.7959,-141.2345 306.9476,-133.4908 310.5723,-127 313.3316,-122.0588 317.0785,-117.7119 321.3514,-113.9088"/>
<polygon fill="#cfd337" stroke="#cfd337" points="305.8811,-148.832 302.169,-159.1505 306.2683,-153.817 306.6555,-158.802 306.6555,-158.802 306.6555,-158.802 306.2683,-153.817 311.142,-158.4535 305.8811,-148.832 305.8811,-148.832"/>
<polygon fill="#cfd337" stroke="#cfd337" points="321.5814,-113.7321 332.2529,-111.2081 325.5463,-110.6859 329.5113,-107.6397 329.5113,-107.6397 329.5113,-107.6397 325.5463,-110.6859 326.7697,-104.0712 321.5814,-113.7321 321.5814,-113.7321"/>
<text text-anchor="middle" x="338.2139" y="-129.8" font-family="Times,serif" font-size="14.00" fill="#000000">base_tags</text>
</g>
<!-- Event&#45;&gt;ActsAsTaggableOn::Tag -->
<g id="edge11" class="edge">
<title>Event&#45;&gt;ActsAsTaggableOn::Tag</title>
<path fill="none" stroke="#edf5ba" d="M344.7521,-161.2203C352.6617,-155.9128 360.1788,-149.2038 365,-141 368.7786,-134.5703 370.4767,-126.8468 371.0635,-119.4148"/>
<polygon fill="#edf5ba" stroke="#edf5ba" points="344.6831,-161.262 333.797,-162.5825 340.4037,-163.8479 336.1244,-166.4339 336.1244,-166.4339 336.1244,-166.4339 340.4037,-163.8479 338.4518,-170.2853 344.6831,-161.262 344.6831,-161.262"/>
<polygon fill="#edf5ba" stroke="#edf5ba" points="371.0662,-119.2658 375.7532,-109.3521 371.1601,-114.2667 371.254,-109.2676 371.254,-109.2676 371.254,-109.2676 371.1601,-114.2667 366.7547,-109.1831 371.0662,-119.2658 371.0662,-119.2658"/>
<text text-anchor="middle" x="382.2759" y="-129.8" font-family="Times,serif" font-size="14.00" fill="#000000">tags</text>
</g>
<!-- User&#45;&gt;Report -->
<g id="edge17" class="edge">
<title>User&#45;&gt;Report</title>
<path fill="none" stroke="#0c3cad" d="M556.7381,-227.9374C563.848,-219.5661 571.9837,-209.9869 579.2671,-201.4113"/>
<ellipse fill="none" stroke="#0c3cad" cx="554.0425" cy="-231.1113" rx="4" ry="4"/>
<polygon fill="#0c3cad" stroke="#0c3cad" points="579.4541,-201.1911 589.3575,-196.4822 582.6909,-197.3801 585.9276,-193.5691 585.9276,-193.5691 585.9276,-193.5691 582.6909,-197.3801 582.4977,-190.656 579.4541,-201.1911 579.4541,-201.1911"/>
</g>
<!-- User&#45;&gt;Push -->
<g id="edge16" class="edge">
<title>User&#45;&gt;Push</title>
<path fill="none" stroke="#fb9906" d="M510.3049,-234.0808C489.6777,-222.2242 461.5626,-206.0636 440.5124,-193.9638"/>
<ellipse fill="none" stroke="#fb9906" cx="513.8447" cy="-236.1154" rx="4" ry="4"/>
<polygon fill="#fb9906" stroke="#fb9906" points="440.3484,-193.8696 433.9211,-184.9847 436.0134,-191.3778 431.6785,-188.8861 431.6785,-188.8861 431.6785,-188.8861 436.0134,-191.3778 429.436,-192.7875 440.3484,-193.8696 440.3484,-193.8696"/>
</g>
<!-- User&#45;&gt;Message -->
<g id="edge14" class="edge">
<title>User&#45;&gt;Message</title>
<path fill="none" stroke="#90c3c5" d="M530.7785,-224.225C518.4421,-180.1934 493.4157,-90.8684 480.736,-45.6116"/>
<ellipse fill="none" stroke="#90c3c5" cx="531.9283" cy="-228.3289" rx="4" ry="4"/>
<polygon fill="#90c3c5" stroke="#90c3c5" points="480.7074,-45.5093 482.3427,-34.6661 479.3585,-40.6947 478.0095,-35.8801 478.0095,-35.8801 478.0095,-35.8801 479.3585,-40.6947 473.6764,-37.0942 480.7074,-45.5093 480.7074,-45.5093"/>
</g>
<!-- User&#45;&gt;Event -->
<g id="edge13" class="edge">
<title>User&#45;&gt;Event</title>
<path fill="none" stroke="#b82ba1" d="M509.5256,-235.1718C507.0062,-234.0404 504.4737,-232.9652 502,-232 494.733,-229.1646 402.4173,-202.8882 348.8404,-187.7044"/>
<ellipse fill="none" stroke="#b82ba1" cx="513.3539" cy="-236.9755" rx="4" ry="4"/>
<polygon fill="#b82ba1" stroke="#b82ba1" points="348.6188,-187.6417 340.2239,-180.5865 343.8081,-186.2789 338.9974,-184.9161 338.9974,-184.9161 338.9974,-184.9161 343.8081,-186.2789 337.7709,-189.2458 348.6188,-187.6417 348.6188,-187.6417"/>
</g>
<!-- User&#45;&gt;Chatroom -->
<g id="edge15" class="edge">
<title>User&#45;&gt;Chatroom</title>
<path fill="none" stroke="#421873" d="M543.1316,-221.8644C548.4203,-192.8682 556.6164,-147.9309 561.8951,-118.9887"/>
<polygon fill="#421873" stroke="#421873" points="543.0647,-222.232 536.8433,-231.2623 542.1675,-227.1509 541.2703,-232.0698 541.2703,-232.0698 541.2703,-232.0698 542.1675,-227.1509 545.6973,-232.8772 543.0647,-222.232 543.0647,-222.232"/>
<polygon fill="#421873" stroke="#421873" points="561.9028,-118.9464 568.1241,-109.9161 562.8,-114.0275 563.6972,-109.1087 563.6972,-109.1087 563.6972,-109.1087 562.8,-114.0275 559.2702,-108.3012 561.9028,-118.9464 561.9028,-118.9464"/>
</g>
<!-- Chatroom&#45;&gt;Message -->
<g id="edge19" class="edge">
<title>Chatroom&#45;&gt;Message</title>
<path fill="none" stroke="#9a427f" d="M539.6142,-69.7323C527.6391,-60.4325 513.5939,-49.525 501.4954,-40.1294"/>
<ellipse fill="none" stroke="#9a427f" cx="542.9791" cy="-72.3455" rx="4" ry="4"/>
<polygon fill="#9a427f" stroke="#9a427f" points="501.378,-40.0382 496.24,-30.3505 497.4289,-36.9714 493.4799,-33.9046 493.4799,-33.9046 493.4799,-33.9046 497.4289,-36.9714 490.7198,-37.4587 501.378,-40.0382 501.378,-40.0382"/>
</g>
<!-- Sender -->
<g id="node24" class="node">
<title>Sender</title>
<ellipse fill="none" stroke="#000000" cx="567" cy="-18" rx="34.8285" ry="18"/>
<text text-anchor="middle" x="567" y="-13.8" font-family="Times,serif" font-size="14.00" fill="#000000">Sender</text>
</g>
<!-- Chatroom&#45;&gt;Sender -->
<g id="edge20" class="edge">
<title>Chatroom&#45;&gt;Sender</title>
<path fill="none" stroke="#b25946" d="M567,-62.8688C567,-57.3894 567,-51.6439 567,-46.1634"/>
<polygon fill="#b25946" stroke="#b25946" points="567.0001,-62.9551 562.5,-72.955 567,-67.9551 567,-72.9551 567,-72.9551 567,-72.9551 567,-67.9551 571.5,-72.9551 567.0001,-62.9551 567.0001,-62.9551"/>
<polygon fill="#b25946" stroke="#b25946" points="567.0001,-46.0904 571.5,-36.0903 567,-41.0904 567,-36.0904 567,-36.0904 567,-36.0904 567,-41.0904 562.5,-36.0904 567.0001,-46.0904 567.0001,-46.0904"/>
</g>
<!-- Receiver -->
<g id="node25" class="node">
<title>Receiver</title>
<ellipse fill="none" stroke="#000000" cx="661" cy="-18" rx="41.5593" ry="18"/>
<text text-anchor="middle" x="661" y="-13.8" font-family="Times,serif" font-size="14.00" fill="#000000">Receiver</text>
</g>
<!-- Chatroom&#45;&gt;Receiver -->
<g id="edge21" class="edge">
<title>Chatroom&#45;&gt;Receiver</title>
<path fill="none" stroke="#70f804" d="M595.9911,-68.4857C607.5914,-59.4769 620.9161,-49.129 632.47,-40.1563"/>
<polygon fill="#70f804" stroke="#70f804" points="595.7597,-68.6653 585.1015,-71.2448 591.8107,-71.7321 587.8616,-74.7989 587.8616,-74.7989 587.8616,-74.7989 591.8107,-71.7321 590.6218,-78.3531 595.7597,-68.6653 595.7597,-68.6653"/>
<polygon fill="#70f804" stroke="#70f804" points="632.622,-40.0382 643.2802,-37.4587 636.5711,-36.9714 640.5201,-33.9046 640.5201,-33.9046 640.5201,-33.9046 636.5711,-36.9714 637.76,-30.3505 632.622,-40.0382 632.622,-40.0382"/>
</g>
<!-- ActiveStorage::Variant -->
<g id="node11" class="node">
<title>ActiveStorage::Variant</title>
<polygon fill="none" stroke="#000000" points="642.2903,-359.5 497.7097,-359.5 497.7097,-323.5 642.2903,-323.5 642.2903,-359.5"/>
<text text-anchor="middle" x="570" y="-337.3" font-family="Times,serif" font-size="14.00" fill="#000000">ActiveStorage::Variant</text>
</g>
<!-- ActiveStorage::Blob -->
<g id="node12" class="node">
<title>ActiveStorage::Blob</title>
<ellipse fill="none" stroke="#000000" cx="743" cy="-341.5" rx="82.6131" ry="18"/>
<text text-anchor="middle" x="743" y="-337.3" font-family="Times,serif" font-size="14.00" fill="#000000">ActiveStorage::Blob</text>
</g>
<!-- ActiveStorage::Filename -->
<g id="node13" class="node">
<title>ActiveStorage::Filename</title>
<polygon fill="none" stroke="#000000" points="999.959,-359.5 844.041,-359.5 844.041,-323.5 999.959,-323.5 999.959,-359.5"/>
<text text-anchor="middle" x="922" y="-337.3" font-family="Times,serif" font-size="14.00" fill="#000000">ActiveStorage::Filename</text>
</g>
<!-- ActiveStorage::Variation -->
<g id="node14" class="node">
<title>ActiveStorage::Variation</title>
<polygon fill="none" stroke="#000000" points="1173.6798,-359.5 1018.3202,-359.5 1018.3202,-323.5 1173.6798,-323.5 1173.6798,-359.5"/>
<text text-anchor="middle" x="1096" y="-337.3" font-family="Times,serif" font-size="14.00" fill="#000000">ActiveStorage::Variation</text>
</g>
<!-- ActiveStorage::Attachment -->
<g id="node15" class="node">
<title>ActiveStorage::Attachment</title>
<ellipse fill="none" stroke="#000000" cx="1298" cy="-341.5" rx="106.7251" ry="18"/>
<text text-anchor="middle" x="1298" y="-337.3" font-family="Times,serif" font-size="14.00" fill="#000000">ActiveStorage::Attachment</text>
</g>
<!-- ActiveStorage::Current -->
<g id="node16" class="node">
<title>ActiveStorage::Current</title>
<polygon fill="none" stroke="#000000" points="1625.1284,-268 1478.8716,-268 1478.8716,-232 1625.1284,-232 1625.1284,-268"/>
<text text-anchor="middle" x="1552" y="-245.8" font-family="Times,serif" font-size="14.00" fill="#000000">ActiveStorage::Current</text>
</g>
<!-- ActiveStorage::Filename::Parameters -->
<g id="node17" class="node">
<title>ActiveStorage::Filename::Parameters</title>
<polygon fill="none" stroke="#000000" points="1924.9317,-359.5 1699.0683,-359.5 1699.0683,-323.5 1924.9317,-323.5 1924.9317,-359.5"/>
<text text-anchor="middle" x="1812" y="-337.3" font-family="Times,serif" font-size="14.00" fill="#000000">ActiveStorage::Filename::Parameters</text>
</g>
<!-- ActiveStorage::Blob::Identifiable -->
<g id="node18" class="node">
<title>ActiveStorage::Blob::Identifiable</title>
<polygon fill="none" stroke="#000000" stroke-dasharray="1,5" points="2145.1283,-359.5 1942.8717,-359.5 1942.8717,-323.5 2145.1283,-323.5 2145.1283,-359.5"/>
<text text-anchor="middle" x="2044" y="-337.3" font-family="Times,serif" font-size="14.00" fill="#000000">ActiveStorage::Blob::Identifiable</text>
</g>
<!-- ActiveStorage::Blob::Analyzable -->
<g id="node19" class="node">
<title>ActiveStorage::Blob::Analyzable</title>
<polygon fill="none" stroke="#000000" stroke-dasharray="1,5" points="2366.1146,-359.5 2163.8854,-359.5 2163.8854,-323.5 2366.1146,-323.5 2366.1146,-359.5"/>
<text text-anchor="middle" x="2265" y="-337.3" font-family="Times,serif" font-size="14.00" fill="#000000">ActiveStorage::Blob::Analyzable</text>
</g>
<!-- ActiveStorage::Blob::Representable -->
<g id="node20" class="node">
<title>ActiveStorage::Blob::Representable</title>
<polygon fill="none" stroke="#000000" stroke-dasharray="1,5" points="2602.1661,-359.5 2383.8339,-359.5 2383.8339,-323.5 2602.1661,-323.5 2602.1661,-359.5"/>
<text text-anchor="middle" x="2493" y="-337.3" font-family="Times,serif" font-size="14.00" fill="#000000">ActiveStorage::Blob::Representable</text>
</g>
<!-- ActiveStorage::Preview -->
<g id="node21" class="node">
<title>ActiveStorage::Preview</title>
<polygon fill="none" stroke="#000000" points="2769.7385,-359.5 2620.2615,-359.5 2620.2615,-323.5 2769.7385,-323.5 2769.7385,-359.5"/>
<text text-anchor="middle" x="2695" y="-337.3" font-family="Times,serif" font-size="14.00" fill="#000000">ActiveStorage::Preview</text>
</g>
<!-- ActiveSupport::CurrentAttributes -->
<g id="node26" class="node">
<title>ActiveSupport::CurrentAttributes</title>
<ellipse fill="none" stroke="#000000" cx="1552" cy="-341.5" rx="128.9682" ry="18"/>
<text text-anchor="middle" x="1552" y="-337.3" font-family="Times,serif" font-size="14.00" fill="#000000">ActiveSupport::CurrentAttributes</text>
</g>
<!-- ActiveSupport::CurrentAttributes&#45;&gt;ActiveStorage::Current -->
<g id="edge23" class="edge">
<title>ActiveSupport::CurrentAttributes&#45;&gt;ActiveStorage::Current</title>
<path fill="none" stroke="#000000" d="M1552,-323.4225C1552,-307.3813 1552,-284.0697 1552,-268.0399"/>
</g>
</g>
</svg>
