<?xml version="1.0" encoding="UTF-8" standalone="no"?>
<!DOCTYPE svg PUBLIC "-//W3C//DTD SVG 1.1//EN"
 "http://www.w3.org/Graphics/SVG/1.1/DTD/svg11.dtd">
<!-- Generated by graphviz version 2.40.1 (20161225.0304)
 -->
<!-- Title: models_diagram Pages: 1 -->
<svg width="2678pt" height="386pt"
 viewBox="0.00 0.00 2678.32 386.00" xmlns="http://www.w3.org/2000/svg" xmlns:xlink="http://www.w3.org/1999/xlink">
<g id="graph0" class="graph" transform="scale(1 1) rotate(0) translate(4 382)">
<title>models_diagram</title>
<polygon fill="transparent" stroke="transparent" points="-4,4 -4,-382 2674.3188,-382 2674.3188,4 -4,4"/>
<!-- _diagram_info -->
<g id="node1" class="node">
<title>_diagram_info</title>
<text text-anchor="start" x="8" y="-363.6" font-family="Times,serif" font-size="13.00" fill="#000000">Models diagram</text>
<text text-anchor="start" x="8" y="-350.6" font-family="Times,serif" font-size="13.00" fill="#000000">Date: Nov 11 2019 &#45; 14:43</text>
<text text-anchor="start" x="8" y="-337.6" font-family="Times,serif" font-size="13.00" fill="#000000">Migration version: 20191109183306</text>
<text text-anchor="start" x="8" y="-324.6" font-family="Times,serif" font-size="13.00" fill="#000000">Generated by RailRoady 1.5.3</text>
<text text-anchor="start" x="8" y="-311.6" font-family="Times,serif" font-size="13.00" fill="#000000">http://railroady.prestonlee.com</text>
</g>
<!-- Report -->
<g id="node2" class="node">
<title>Report</title>
<ellipse fill="none" stroke="#000000" cx="114.4497" cy="-250" rx="34.3527" ry="18"/>
<text text-anchor="middle" x="114.4497" y="-245.8" font-family="Times,serif" font-size="14.00" fill="#000000">Report</text>
</g>
<!-- Message -->
<g id="node3" class="node">
<title>Message</title>
<ellipse fill="none" stroke="#000000" cx="214.4497" cy="-18" rx="41.1007" ry="18"/>
<text text-anchor="middle" x="214.4497" y="-13.8" font-family="Times,serif" font-size="14.00" fill="#000000">Message</text>
</g>
<!-- Building -->
<g id="node4" class="node">
<title>Building</title>
<ellipse fill="none" stroke="#000000" cx="371.4497" cy="-250" rx="41.1266" ry="18"/>
<text text-anchor="middle" x="371.4497" y="-245.8" font-family="Times,serif" font-size="14.00" fill="#000000">Building</text>
</g>
<!-- Event -->
<g id="node7" class="node">
<title>Event</title>
<ellipse fill="none" stroke="#000000" cx="426.4497" cy="-177" rx="30.9706" ry="18"/>
<text text-anchor="middle" x="426.4497" y="-172.8" font-family="Times,serif" font-size="14.00" fill="#000000">Event</text>
</g>
<!-- Building&#45;&gt;Event -->
<g id="edge3" class="edge">
<title>Building&#45;&gt;Event</title>
<path fill="none" stroke="#deb3ab" d="M389.5187,-226.0175C395.3761,-218.2431 401.8831,-209.6066 407.7831,-201.7756"/>
<ellipse fill="none" stroke="#deb3ab" cx="386.891" cy="-229.5053" rx="4" ry="4"/>
<polygon fill="#deb3ab" stroke="#deb3ab" points="407.8701,-201.6602 417.4817,-196.3812 410.8789,-197.6668 413.8876,-193.6733 413.8876,-193.6733 413.8876,-193.6733 410.8789,-197.6668 410.2935,-190.9654 407.8701,-201.6602 407.8701,-201.6602"/>
</g>
<!-- AdminUser -->
<g id="node5" class="node">
<title>AdminUser</title>
<ellipse fill="none" stroke="#000000" cx="519.4497" cy="-250" rx="51.2415" ry="18"/>
<text text-anchor="middle" x="519.4497" y="-245.8" font-family="Times,serif" font-size="14.00" fill="#000000">AdminUser</text>
</g>
<!-- ApplicationRecord -->
<g id="node6" class="node">
<title>ApplicationRecord</title>
<ellipse fill="none" stroke="#000000" cx="302.4497" cy="-341.5" rx="77.2916" ry="18"/>
<text text-anchor="middle" x="302.4497" y="-337.3" font-family="Times,serif" font-size="14.00" fill="#000000">ApplicationRecord</text>
</g>
<!-- ApplicationRecord&#45;&gt;Report -->
<g id="edge1" class="edge">
<title>ApplicationRecord&#45;&gt;Report</title>
<path fill="none" stroke="#000000" d="M265.8493,-325.4761C250.3947,-318.8845 232.1443,-311.3281 215.4497,-305 192.1878,-296.1825 184.3754,-298.7527 162.4497,-287 151.507,-281.1344 140.4538,-272.815 131.717,-265.5501"/>
</g>
<!-- ApplicationRecord&#45;&gt;Message -->
<g id="edge2" class="edge">
<title>ApplicationRecord&#45;&gt;Message</title>
<path fill="none" stroke="#000000" d="M269.0148,-325.0674C231.6867,-305.5959 176.4497,-272.9117 176.4497,-250 176.4497,-250 176.4497,-250 176.4497,-91 176.4497,-69.9968 188.9793,-49.0444 199.6491,-35.0097"/>
</g>
<!-- ApplicationRecord&#45;&gt;Building -->
<g id="edge4" class="edge">
<title>ApplicationRecord&#45;&gt;Building</title>
<path fill="none" stroke="#000000" d="M316.0819,-323.4225C328.4142,-307.0688 346.4448,-283.1587 358.546,-267.1115"/>
</g>
<!-- ApplicationRecord&#45;&gt;AdminUser -->
<g id="edge5" class="edge">
<title>ApplicationRecord&#45;&gt;AdminUser</title>
<path fill="none" stroke="#000000" d="M338.0314,-325.3671C353.6335,-318.6081 372.2713,-310.9551 389.4497,-305 417.7723,-295.1817 426.7683,-298.5024 454.4497,-287 468.3592,-281.2202 483.0091,-273.0815 494.8726,-265.9082"/>
</g>
<!-- ApplicationRecord&#45;&gt;Event -->
<g id="edge11" class="edge">
<title>ApplicationRecord&#45;&gt;Event</title>
<path fill="none" stroke="#000000" d="M346.1462,-326.5201C372.7636,-314.9395 404.7646,-296.0767 421.4497,-268 434.7062,-245.6929 433.0298,-214.6203 430.1128,-195.1679"/>
</g>
<!-- User -->
<g id="node8" class="node">
<title>User</title>
<ellipse fill="none" stroke="#000000" cx="247.4497" cy="-250" rx="27" ry="18"/>
<text text-anchor="middle" x="247.4497" y="-245.8" font-family="Times,serif" font-size="14.00" fill="#000000">User</text>
</g>
<!-- ApplicationRecord&#45;&gt;User -->
<g id="edge15" class="edge">
<title>ApplicationRecord&#45;&gt;User</title>
<path fill="none" stroke="#000000" d="M291.5835,-323.4225C281.6908,-306.9647 267.1979,-282.8538 257.5516,-266.8058"/>
</g>
<!-- Chatroom -->
<g id="node9" class="node">
<title>Chatroom</title>
<ellipse fill="none" stroke="#000000" cx="287.4497" cy="-91" rx="45.4527" ry="18"/>
<text text-anchor="middle" x="287.4497" y="-86.8" font-family="Times,serif" font-size="14.00" fill="#000000">Chatroom</text>
</g>
<!-- ApplicationRecord&#45;&gt;Chatroom -->
<g id="edge17" class="edge">
<title>ApplicationRecord&#45;&gt;Chatroom</title>
<path fill="none" stroke="#000000" d="M301.3709,-323.4847C298.61,-277.3777 291.3111,-155.485 288.5389,-109.1887"/>
</g>
<!-- Event&#45;&gt;Chatroom -->
<g id="edge6" class="edge">
<title>Event&#45;&gt;Chatroom</title>
<path fill="none" stroke="#6595f2" d="M397.9321,-159.356C375.1271,-145.2464 343.1635,-125.4704 319.4803,-110.8175"/>
<ellipse fill="none" stroke="#6595f2" cx="401.634" cy="-161.6464" rx="4" ry="4"/>
<ellipse fill="#6595f2" stroke="#6595f2" cx="315.8171" cy="-108.551" rx="4" ry="4"/>
</g>
<!-- ActsAsTaggableOn::Tagging -->
<g id="node21" class="node">
<title>ActsAsTaggableOn::Tagging</title>
<ellipse fill="none" stroke="#000000" cx="676.4497" cy="-91" rx="113.0056" ry="18"/>
<text text-anchor="middle" x="676.4497" y="-86.8" font-family="Times,serif" font-size="14.00" fill="#000000">ActsAsTaggableOn::Tagging</text>
</g>
<!-- Event&#45;&gt;ActsAsTaggableOn::Tagging -->
<g id="edge7" class="edge">
<title>Event&#45;&gt;ActsAsTaggableOn::Tagging</title>
<path fill="none" stroke="#3371b2" d="M460.9496,-165.1321C501.7485,-151.0972 570.2704,-127.5257 619.0923,-110.731"/>
<ellipse fill="none" stroke="#3371b2" cx="456.9865" cy="-166.4953" rx="4" ry="4"/>
<polygon fill="#3371b2" stroke="#3371b2" points="619.1238,-110.7202 630.0438,-111.7225 623.8519,-109.0937 628.5799,-107.4672 628.5799,-107.4672 628.5799,-107.4672 623.8519,-109.0937 627.1161,-103.2119 619.1238,-110.7202 619.1238,-110.7202"/>
<text text-anchor="middle" x="590.1704" y="-129.8" font-family="Times,serif" font-size="14.00" fill="#000000">taggings</text>
</g>
<!-- Event&#45;&gt;ActsAsTaggableOn::Tagging -->
<g id="edge9" class="edge">
<title>Event&#45;&gt;ActsAsTaggableOn::Tagging</title>
<path fill="none" stroke="#cd33c6" d="M464.5795,-172.1653C512.291,-165.7121 590.957,-153.6233 617.4497,-141 630.2657,-134.8934 642.5598,-125.3017 652.5769,-116.1455"/>
<ellipse fill="none" stroke="#cd33c6" cx="460.5907" cy="-172.6981" rx="4" ry="4"/>
<polygon fill="#cd33c6" stroke="#cd33c6" points="652.8573,-115.8777 663.1969,-112.2247 656.473,-112.4241 660.0887,-108.9706 660.0887,-108.9706 660.0887,-108.9706 656.473,-112.4241 656.9805,-105.7165 652.8573,-115.8777 652.8573,-115.8777"/>
<text text-anchor="middle" x="675.2222" y="-129.8" font-family="Times,serif" font-size="14.00" fill="#000000">tag_taggings</text>
</g>
<!-- ActsAsTaggableOn::Tag -->
<g id="node22" class="node">
<title>ActsAsTaggableOn::Tag</title>
<ellipse fill="none" stroke="#000000" cx="448.4497" cy="-91" rx="97.0617" ry="18"/>
<text text-anchor="middle" x="448.4497" y="-86.8" font-family="Times,serif" font-size="14.00" fill="#000000">ActsAsTaggableOn::Tag</text>
</g>
<!-- Event&#45;&gt;ActsAsTaggableOn::Tag -->
<g id="edge8" class="edge">
<title>Event&#45;&gt;ActsAsTaggableOn::Tag</title>
<path fill="none" stroke="#734174" d="M434.2682,-149.2344C435.0188,-146.4561 435.7575,-143.6748 436.4497,-141 438.3044,-133.8336 440.2166,-126.0638 441.9545,-118.8334"/>
<polygon fill="#734174" stroke="#734174" points="434.2101,-149.446 427.2206,-157.8957 432.8849,-154.2672 431.5597,-159.0884 431.5597,-159.0884 431.5597,-159.0884 432.8849,-154.2672 435.8988,-160.281 434.2101,-149.446 434.2101,-149.446"/>
<polygon fill="#734174" stroke="#734174" points="441.9578,-118.8189 448.649,-110.131 443.1144,-113.9545 444.271,-109.0901 444.271,-109.0901 444.271,-109.0901 443.1144,-113.9545 439.8931,-108.0491 441.9578,-118.8189 441.9578,-118.8189"/>
<text text-anchor="middle" x="467.6636" y="-129.8" font-family="Times,serif" font-size="14.00" fill="#000000">base_tags</text>
</g>
<!-- Event&#45;&gt;ActsAsTaggableOn::Tag -->
<g id="edge10" class="edge">
<title>Event&#45;&gt;ActsAsTaggableOn::Tag</title>
<path fill="none" stroke="#477299" d="M410.4607,-150.7154C407.6914,-142.9687 406.6191,-134.548 409.8979,-127 411.5809,-123.1259 413.9089,-119.4791 416.5949,-116.1036"/>
<polygon fill="#477299" stroke="#477299" points="410.5609,-150.9373 410.5751,-161.9032 412.6186,-155.4943 414.6764,-160.0512 414.6764,-160.0512 414.6764,-160.0512 412.6186,-155.4943 418.7776,-158.1993 410.5609,-150.9373 410.5609,-150.9373"/>
<polygon fill="#477299" stroke="#477299" points="416.6021,-116.0957 426.6868,-111.7887 419.9894,-112.4179 423.3768,-108.7401 423.3768,-108.7401 423.3768,-108.7401 419.9894,-112.4179 420.0667,-105.6915 416.6021,-116.0957 416.6021,-116.0957"/>
<text text-anchor="middle" x="421.7256" y="-129.8" font-family="Times,serif" font-size="14.00" fill="#000000">tags</text>
</g>
<!-- User&#45;&gt;Message -->
<g id="edge13" class="edge">
<title>User&#45;&gt;Message</title>
<path fill="none" stroke="#01794a" d="M243.7255,-223.818C237.4665,-179.8148 224.8919,-91.4116 218.4514,-46.1332"/>
<ellipse fill="none" stroke="#01794a" cx="244.2969" cy="-227.8352" rx="4" ry="4"/>
<polygon fill="#01794a" stroke="#01794a" points="218.4355,-46.0204 221.4823,-35.4863 217.7313,-41.0703 217.0271,-36.1201 217.0271,-36.1201 217.0271,-36.1201 217.7313,-41.0703 212.572,-36.7538 218.4355,-46.0204 218.4355,-46.0204"/>
</g>
<!-- User&#45;&gt;Event -->
<g id="edge12" class="edge">
<title>User&#45;&gt;Event</title>
<path fill="none" stroke="#cd226b" d="M277.9806,-237.5489C309.5994,-224.654 358.9121,-204.5432 391.9293,-191.0782"/>
<ellipse fill="none" stroke="#cd226b" cx="274.1882" cy="-239.0954" rx="4" ry="4"/>
<polygon fill="#cd226b" stroke="#cd226b" points="391.9382,-191.0746 402.8972,-191.4651 396.568,-189.1864 401.1978,-187.2983 401.1978,-187.2983 401.1978,-187.2983 396.568,-189.1864 399.4985,-183.1314 391.9382,-191.0746 391.9382,-191.0746"/>
</g>
<!-- User&#45;&gt;Chatroom -->
<g id="edge14" class="edge">
<title>User&#45;&gt;Chatroom</title>
<path fill="none" stroke="#95f84f" d="M254.4213,-222.2879C261.7081,-193.3228 273.0798,-148.1203 280.3968,-119.0351"/>
<polygon fill="#95f84f" stroke="#95f84f" points="254.4002,-222.3719 247.5964,-230.9719 253.1804,-227.2208 251.9605,-232.0698 251.9605,-232.0698 251.9605,-232.0698 253.1804,-227.2208 256.3245,-233.1677 254.4002,-222.3719 254.4002,-222.3719"/>
<polygon fill="#95f84f" stroke="#95f84f" points="280.4543,-118.8065 287.2581,-110.2066 281.6742,-113.9576 282.8941,-109.1087 282.8941,-109.1087 282.8941,-109.1087 281.6742,-113.9576 278.53,-108.0108 280.4543,-118.8065 280.4543,-118.8065"/>
</g>
<!-- Chatroom&#45;&gt;Message -->
<g id="edge16" class="edge">
<title>Chatroom&#45;&gt;Message</title>
<path fill="none" stroke="#37846d" d="M264.6937,-68.244C256.2684,-59.8187 246.6989,-50.2492 238.1884,-41.7386"/>
<ellipse fill="none" stroke="#37846d" cx="267.6901" cy="-71.2404" rx="4" ry="4"/>
<polygon fill="#37846d" stroke="#37846d" points="238.1085,-41.6587 234.2194,-31.4057 234.5729,-38.1232 231.0374,-34.5877 231.0374,-34.5877 231.0374,-34.5877 234.5729,-38.1232 227.8554,-37.7696 238.1085,-41.6587 238.1085,-41.6587"/>
</g>
<!-- ActiveStorage::Variant -->
<g id="node10" class="node">
<title>ActiveStorage::Variant</title>
<polygon fill="none" stroke="#000000" points="542.74,-359.5 398.1594,-359.5 398.1594,-323.5 542.74,-323.5 542.74,-359.5"/>
<text text-anchor="middle" x="470.4497" y="-337.3" font-family="Times,serif" font-size="14.00" fill="#000000">ActiveStorage::Variant</text>
</g>
<!-- ActiveStorage::Blob -->
<g id="node11" class="node">
<title>ActiveStorage::Blob</title>
<ellipse fill="none" stroke="#000000" cx="643.4497" cy="-341.5" rx="82.6131" ry="18"/>
<text text-anchor="middle" x="643.4497" y="-337.3" font-family="Times,serif" font-size="14.00" fill="#000000">ActiveStorage::Blob</text>
</g>
<!-- ActiveStorage::Filename -->
<g id="node12" class="node">
<title>ActiveStorage::Filename</title>
<polygon fill="none" stroke="#000000" points="900.4087,-359.5 744.4907,-359.5 744.4907,-323.5 900.4087,-323.5 900.4087,-359.5"/>
<text text-anchor="middle" x="822.4497" y="-337.3" font-family="Times,serif" font-size="14.00" fill="#000000">ActiveStorage::Filename</text>
</g>
<!-- ActiveStorage::Variation -->
<g id="node13" class="node">
<title>ActiveStorage::Variation</title>
<polygon fill="none" stroke="#000000" points="1074.1295,-359.5 918.7699,-359.5 918.7699,-323.5 1074.1295,-323.5 1074.1295,-359.5"/>
<text text-anchor="middle" x="996.4497" y="-337.3" font-family="Times,serif" font-size="14.00" fill="#000000">ActiveStorage::Variation</text>
</g>
<!-- ActiveStorage::Attachment -->
<g id="node14" class="node">
<title>ActiveStorage::Attachment</title>
<ellipse fill="none" stroke="#000000" cx="1198.4497" cy="-341.5" rx="106.7251" ry="18"/>
<text text-anchor="middle" x="1198.4497" y="-337.3" font-family="Times,serif" font-size="14.00" fill="#000000">ActiveStorage::Attachment</text>
</g>
<!-- ActiveStorage::Current -->
<g id="node15" class="node">
<title>ActiveStorage::Current</title>
<polygon fill="none" stroke="#000000" points="1525.5781,-268 1379.3213,-268 1379.3213,-232 1525.5781,-232 1525.5781,-268"/>
<text text-anchor="middle" x="1452.4497" y="-245.8" font-family="Times,serif" font-size="14.00" fill="#000000">ActiveStorage::Current</text>
</g>
<!-- ActiveStorage::Filename::Parameters -->
<g id="node16" class="node">
<title>ActiveStorage::Filename::Parameters</title>
<polygon fill="none" stroke="#000000" points="1825.3814,-359.5 1599.5181,-359.5 1599.5181,-323.5 1825.3814,-323.5 1825.3814,-359.5"/>
<text text-anchor="middle" x="1712.4497" y="-337.3" font-family="Times,serif" font-size="14.00" fill="#000000">ActiveStorage::Filename::Parameters</text>
</g>
<!-- ActiveStorage::Blob::Identifiable -->
<g id="node17" class="node">
<title>ActiveStorage::Blob::Identifiable</title>
<polygon fill="none" stroke="#000000" stroke-dasharray="1,5" points="2045.578,-359.5 1843.3214,-359.5 1843.3214,-323.5 2045.578,-323.5 2045.578,-359.5"/>
<text text-anchor="middle" x="1944.4497" y="-337.3" font-family="Times,serif" font-size="14.00" fill="#000000">ActiveStorage::Blob::Identifiable</text>
</g>
<!-- ActiveStorage::Blob::Analyzable -->
<g id="node18" class="node">
<title>ActiveStorage::Blob::Analyzable</title>
<polygon fill="none" stroke="#000000" stroke-dasharray="1,5" points="2266.5643,-359.5 2064.3351,-359.5 2064.3351,-323.5 2266.5643,-323.5 2266.5643,-359.5"/>
<text text-anchor="middle" x="2165.4497" y="-337.3" font-family="Times,serif" font-size="14.00" fill="#000000">ActiveStorage::Blob::Analyzable</text>
</g>
<!-- ActiveStorage::Blob::Representable -->
<g id="node19" class="node">
<title>ActiveStorage::Blob::Representable</title>
<polygon fill="none" stroke="#000000" stroke-dasharray="1,5" points="2502.6158,-359.5 2284.2836,-359.5 2284.2836,-323.5 2502.6158,-323.5 2502.6158,-359.5"/>
<text text-anchor="middle" x="2393.4497" y="-337.3" font-family="Times,serif" font-size="14.00" fill="#000000">ActiveStorage::Blob::Representable</text>
</g>
<!-- ActiveStorage::Preview -->
<g id="node20" class="node">
<title>ActiveStorage::Preview</title>
<polygon fill="none" stroke="#000000" points="2670.1882,-359.5 2520.7112,-359.5 2520.7112,-323.5 2670.1882,-323.5 2670.1882,-359.5"/>
<text text-anchor="middle" x="2595.4497" y="-337.3" font-family="Times,serif" font-size="14.00" fill="#000000">ActiveStorage::Preview</text>
</g>
<!-- ActiveSupport::CurrentAttributes -->
<g id="node23" class="node">
<title>ActiveSupport::CurrentAttributes</title>
<ellipse fill="none" stroke="#000000" cx="1452.4497" cy="-341.5" rx="128.9682" ry="18"/>
<text text-anchor="middle" x="1452.4497" y="-337.3" font-family="Times,serif" font-size="14.00" fill="#000000">ActiveSupport::CurrentAttributes</text>
</g>
<!-- ActiveSupport::CurrentAttributes&#45;&gt;ActiveStorage::Current -->
<g id="edge18" class="edge">
<title>ActiveSupport::CurrentAttributes&#45;&gt;ActiveStorage::Current</title>
<path fill="none" stroke="#000000" d="M1452.4497,-323.4225C1452.4497,-307.3813 1452.4497,-284.0697 1452.4497,-268.0399"/>
</g>
</g>
</svg>
