<?xml version="1.0" encoding="UTF-8" standalone="no"?>
<!DOCTYPE svg PUBLIC "-//W3C//DTD SVG 1.1//EN"
 "http://www.w3.org/Graphics/SVG/1.1/DTD/svg11.dtd">
<!-- Generated by graphviz version 2.40.1 (20161225.0304)
 -->
<!-- Title: models_diagram Pages: 1 -->
<svg width="2678pt" height="386pt"
 viewBox="0.00 0.00 2678.08 386.00" xmlns="http://www.w3.org/2000/svg" xmlns:xlink="http://www.w3.org/1999/xlink">
<g id="graph0" class="graph" transform="scale(1 1) rotate(0) translate(4 382)">
<title>models_diagram</title>
<polygon fill="transparent" stroke="transparent" points="-4,4 -4,-382 2674.0808,-382 2674.0808,4 -4,4"/>
<!-- _diagram_info -->
<g id="node1" class="node">
<title>_diagram_info</title>
<text text-anchor="start" x="8" y="-363.6" font-family="Times,serif" font-size="13.00" fill="#000000">Models diagram</text>
<text text-anchor="start" x="8" y="-350.6" font-family="Times,serif" font-size="13.00" fill="#000000">Date: Nov 25 2019 &#45; 14:38</text>
<text text-anchor="start" x="8" y="-337.6" font-family="Times,serif" font-size="13.00" fill="#000000">Migration version: 20191119050953</text>
<text text-anchor="start" x="8" y="-324.6" font-family="Times,serif" font-size="13.00" fill="#000000">Generated by RailRoady 1.5.3</text>
<text text-anchor="start" x="8" y="-311.6" font-family="Times,serif" font-size="13.00" fill="#000000">http://railroady.prestonlee.com</text>
</g>
<!-- Report -->
<g id="node2" class="node">
<title>Report</title>
<ellipse fill="none" stroke="#000000" cx="82.2117" cy="-250" rx="34.3527" ry="18"/>
<text text-anchor="middle" x="82.2117" y="-245.8" font-family="Times,serif" font-size="14.00" fill="#000000">Report</text>
</g>
<!-- Push -->
<g id="node3" class="node">
<title>Push</title>
<ellipse fill="none" stroke="#000000" cx="275.2117" cy="-177" rx="27.1216" ry="18"/>
<text text-anchor="middle" x="275.2117" y="-172.8" font-family="Times,serif" font-size="14.00" fill="#000000">Push</text>
</g>
<!-- Message -->
<g id="node4" class="node">
<title>Message</title>
<ellipse fill="none" stroke="#000000" cx="154.2117" cy="-18" rx="41.1007" ry="18"/>
<text text-anchor="middle" x="154.2117" y="-13.8" font-family="Times,serif" font-size="14.00" fill="#000000">Message</text>
</g>
<!-- Building -->
<g id="node5" class="node">
<title>Building</title>
<ellipse fill="none" stroke="#000000" cx="394.2117" cy="-250" rx="41.1266" ry="18"/>
<text text-anchor="middle" x="394.2117" y="-245.8" font-family="Times,serif" font-size="14.00" fill="#000000">Building</text>
</g>
<!-- Event -->
<g id="node8" class="node">
<title>Event</title>
<ellipse fill="none" stroke="#000000" cx="458.2117" cy="-177" rx="30.9706" ry="18"/>
<text text-anchor="middle" x="458.2117" y="-172.8" font-family="Times,serif" font-size="14.00" fill="#000000">Event</text>
</g>
<!-- Building&#45;&gt;Event -->
<g id="edge4" class="edge">
<title>Building&#45;&gt;Event</title>
<path fill="none" stroke="#2cd4ab" d="M414.5072,-226.8504C421.8095,-218.5213 430.0549,-209.1163 437.4004,-200.7378"/>
<ellipse fill="none" stroke="#2cd4ab" cx="411.6924" cy="-230.0611" rx="4" ry="4"/>
<polygon fill="#2cd4ab" stroke="#2cd4ab" points="437.5148,-200.6073 447.4909,-196.0545 440.811,-196.8476 444.1072,-193.0879 444.1072,-193.0879 444.1072,-193.0879 440.811,-196.8476 440.7235,-190.1214 437.5148,-200.6073 437.5148,-200.6073"/>
</g>
<!-- AdminUser -->
<g id="node6" class="node">
<title>AdminUser</title>
<ellipse fill="none" stroke="#000000" cx="542.2117" cy="-250" rx="51.2415" ry="18"/>
<text text-anchor="middle" x="542.2117" y="-245.8" font-family="Times,serif" font-size="14.00" fill="#000000">AdminUser</text>
</g>
<!-- ApplicationRecord -->
<g id="node7" class="node">
<title>ApplicationRecord</title>
<ellipse fill="none" stroke="#000000" cx="302.2117" cy="-341.5" rx="77.2916" ry="18"/>
<text text-anchor="middle" x="302.2117" y="-337.3" font-family="Times,serif" font-size="14.00" fill="#000000">ApplicationRecord</text>
</g>
<!-- ApplicationRecord&#45;&gt;Report -->
<g id="edge1" class="edge">
<title>ApplicationRecord&#45;&gt;Report</title>
<path fill="none" stroke="#000000" d="M267.637,-325.2258C251.8989,-318.2808 232.8777,-310.5221 215.2117,-305 178.3548,-293.4792 165.2684,-303.1921 130.2117,-287 118.9402,-281.7939 107.8614,-273.526 99.1924,-266.1251"/>
</g>
<!-- ApplicationRecord&#45;&gt;Push -->
<g id="edge2" class="edge">
<title>ApplicationRecord&#45;&gt;Push</title>
<path fill="none" stroke="#000000" d="M299.219,-323.2671C294.0154,-291.5632 283.3608,-226.6493 278.1766,-195.0639"/>
</g>
<!-- ApplicationRecord&#45;&gt;Message -->
<g id="edge3" class="edge">
<title>ApplicationRecord&#45;&gt;Message</title>
<path fill="none" stroke="#000000" d="M267.5379,-325.3091C221.028,-303.05 144.2117,-264.1454 144.2117,-250 144.2117,-250 144.2117,-250 144.2117,-91 144.2117,-72.1958 147.5089,-50.917 150.3168,-36.2057"/>
</g>
<!-- ApplicationRecord&#45;&gt;Building -->
<g id="edge5" class="edge">
<title>ApplicationRecord&#45;&gt;Building</title>
<path fill="none" stroke="#000000" d="M319.9502,-323.8579C336.5546,-307.3437 361.1801,-282.852 377.4578,-266.6628"/>
</g>
<!-- ApplicationRecord&#45;&gt;AdminUser -->
<g id="edge6" class="edge">
<title>ApplicationRecord&#45;&gt;AdminUser</title>
<path fill="none" stroke="#000000" d="M336.7686,-325.1685C352.5032,-318.2125 371.5267,-310.4609 389.2117,-305 427.3555,-293.2216 439.8445,-301.0491 477.2117,-287 491.5537,-281.6078 506.4843,-273.3254 518.4137,-265.9628"/>
</g>
<!-- ApplicationRecord&#45;&gt;Event -->
<g id="edge12" class="edge">
<title>ApplicationRecord&#45;&gt;Event</title>
<path fill="none" stroke="#000000" d="M341.6756,-325.8534C379.026,-310.2384 431.2558,-286.0367 444.2117,-268 459.5984,-246.5791 460.9666,-214.9678 459.995,-195.2009"/>
</g>
<!-- User -->
<g id="node9" class="node">
<title>User</title>
<ellipse fill="none" stroke="#000000" cx="225.2117" cy="-250" rx="27" ry="18"/>
<text text-anchor="middle" x="225.2117" y="-245.8" font-family="Times,serif" font-size="14.00" fill="#000000">User</text>
</g>
<!-- ApplicationRecord&#45;&gt;User -->
<g id="edge17" class="edge">
<title>ApplicationRecord&#45;&gt;User</title>
<path fill="none" stroke="#000000" d="M286.9989,-323.4225C272.8862,-306.6522 252.0863,-281.9355 238.5924,-265.9005"/>
</g>
<!-- Chatroom -->
<g id="node10" class="node">
<title>Chatroom</title>
<ellipse fill="none" stroke="#000000" cx="255.2117" cy="-91" rx="45.4527" ry="18"/>
<text text-anchor="middle" x="255.2117" y="-86.8" font-family="Times,serif" font-size="14.00" fill="#000000">Chatroom</text>
</g>
<!-- ApplicationRecord&#45;&gt;Chatroom -->
<g id="edge21" class="edge">
<title>ApplicationRecord&#45;&gt;Chatroom</title>
<path fill="none" stroke="#000000" d="M307.5445,-323.4718C316.5128,-289.9357 331.7259,-216.1801 311.2117,-159 303.9297,-138.7028 287.6812,-120.1358 274.5523,-107.5504"/>
</g>
<!-- Event&#45;&gt;Chatroom -->
<g id="edge7" class="edge">
<title>Event&#45;&gt;Chatroom</title>
<path fill="none" stroke="#43d4c7" d="M426.0144,-162.5816C403.2397,-152.4556 371.9452,-138.6881 344.2117,-127 328.2548,-120.2751 310.5917,-113.0795 295.2351,-106.9028"/>
<ellipse fill="none" stroke="#43d4c7" cx="429.7398" cy="-164.2405" rx="4" ry="4"/>
<ellipse fill="#43d4c7" stroke="#43d4c7" cx="291.1484" cy="-105.2631" rx="4" ry="4"/>
</g>
<!-- ActsAsTaggableOn::Tagging -->
<g id="node22" class="node">
<title>ActsAsTaggableOn::Tagging</title>
<ellipse fill="none" stroke="#000000" cx="644.2117" cy="-91" rx="113.0056" ry="18"/>
<text text-anchor="middle" x="644.2117" y="-86.8" font-family="Times,serif" font-size="14.00" fill="#000000">ActsAsTaggableOn::Tagging</text>
</g>
<!-- Event&#45;&gt;ActsAsTaggableOn::Tagging -->
<g id="edge8" class="edge">
<title>Event&#45;&gt;ActsAsTaggableOn::Tagging</title>
<path fill="none" stroke="#02cd1b" d="M489.4949,-161.7403C510.2109,-151.7093 538.0237,-138.3833 562.7703,-127 573.4154,-122.1033 584.8964,-116.9503 595.7851,-112.1221"/>
<ellipse fill="none" stroke="#02cd1b" cx="485.8016" cy="-163.5315" rx="4" ry="4"/>
<polygon fill="#02cd1b" stroke="#02cd1b" points="596.0186,-112.019 606.9843,-112.0934 600.5921,-109.9982 605.1655,-107.9773 605.1655,-107.9773 605.1655,-107.9773 600.5921,-109.9982 603.3468,-103.8612 596.0186,-112.019 596.0186,-112.019"/>
<text text-anchor="middle" x="586.9324" y="-129.8" font-family="Times,serif" font-size="14.00" fill="#000000">taggings</text>
</g>
<!-- Event&#45;&gt;ActsAsTaggableOn::Tagging -->
<g id="edge10" class="edge">
<title>Event&#45;&gt;ActsAsTaggableOn::Tagging</title>
<path fill="none" stroke="#05c9f7" d="M496.008,-171.2622C534.7749,-164.8188 591.9144,-153.601 610.2117,-141 618.6816,-135.1669 625.6481,-126.4758 631.0216,-117.9684"/>
<ellipse fill="none" stroke="#05c9f7" cx="491.9828" cy="-171.9191" rx="4" ry="4"/>
<polygon fill="#05c9f7" stroke="#05c9f7" points="631.0313,-117.9515 639.9354,-111.551 633.536,-113.6241 636.0408,-109.2967 636.0408,-109.2967 636.0408,-109.2967 633.536,-113.6241 632.1461,-107.0424 631.0313,-117.9515 631.0313,-117.9515"/>
<text text-anchor="middle" x="660.9841" y="-129.8" font-family="Times,serif" font-size="14.00" fill="#000000">tag_taggings</text>
</g>
<!-- ActsAsTaggableOn::Tag -->
<g id="node23" class="node">
<title>ActsAsTaggableOn::Tag</title>
<ellipse fill="none" stroke="#000000" cx="416.2117" cy="-91" rx="97.0617" ry="18"/>
<text text-anchor="middle" x="416.2117" y="-86.8" font-family="Times,serif" font-size="14.00" fill="#000000">ActsAsTaggableOn::Tag</text>
</g>
<!-- Event&#45;&gt;ActsAsTaggableOn::Tag -->
<g id="edge9" class="edge">
<title>Event&#45;&gt;ActsAsTaggableOn::Tag</title>
<path fill="none" stroke="#a2119d" d="M447.5359,-149.7785C444.4013,-142.3058 440.8362,-134.2635 437.2117,-127 435.7255,-124.0218 434.0954,-120.9515 432.4211,-117.9185"/>
<polygon fill="#a2119d" stroke="#a2119d" points="447.5881,-149.9063 447.213,-160.8658 449.4828,-154.5334 451.3774,-159.1606 451.3774,-159.1606 451.3774,-159.1606 449.4828,-154.5334 455.5418,-157.4554 447.5881,-149.9063 447.5881,-149.9063"/>
<polygon fill="#a2119d" stroke="#a2119d" points="432.3221,-117.745 431.2733,-106.8293 429.8436,-113.4025 427.3651,-109.06 427.3651,-109.06 427.3651,-109.06 429.8436,-113.4025 423.4569,-111.2907 432.3221,-117.745 432.3221,-117.745"/>
<text text-anchor="middle" x="471.4255" y="-129.8" font-family="Times,serif" font-size="14.00" fill="#000000">base_tags</text>
</g>
<!-- Event&#45;&gt;ActsAsTaggableOn::Tag -->
<g id="edge11" class="edge">
<title>Event&#45;&gt;ActsAsTaggableOn::Tag</title>
<path fill="none" stroke="#7e01db" d="M426.4397,-159.4878C420.0815,-154.4064 414.2577,-148.2363 410.6599,-141 407.2917,-134.2254 406.8386,-126.3105 407.7135,-118.8028"/>
<polygon fill="#7e01db" stroke="#7e01db" points="426.5082,-159.5366 432.0401,-169.005 430.58,-162.4385 434.6518,-165.3403 434.6518,-165.3403 434.6518,-165.3403 430.58,-162.4385 437.2634,-161.6757 426.5082,-159.5366 426.5082,-159.5366"/>
<polygon fill="#7e01db" stroke="#7e01db" points="407.7163,-118.7874 414.0017,-109.8015 408.6485,-113.875 409.5806,-108.9626 409.5806,-108.9626 409.5806,-108.9626 408.6485,-113.875 405.1595,-108.1237 407.7163,-118.7874 407.7163,-118.7874"/>
<text text-anchor="middle" x="422.4875" y="-129.8" font-family="Times,serif" font-size="14.00" fill="#000000">tags</text>
</g>
<!-- User&#45;&gt;Push -->
<g id="edge16" class="edge">
<title>User&#45;&gt;Push</title>
<path fill="none" stroke="#b88c8d" d="M241.2085,-226.6447C246.6377,-218.718 252.7208,-209.8367 258.2244,-201.8013"/>
<ellipse fill="none" stroke="#b88c8d" cx="238.8178" cy="-230.135" rx="4" ry="4"/>
<polygon fill="#b88c8d" stroke="#b88c8d" points="258.2599,-201.7496 267.6234,-196.0422 261.0853,-197.6244 263.9108,-193.4993 263.9108,-193.4993 263.9108,-193.4993 261.0853,-197.6244 260.1982,-190.9564 258.2599,-201.7496 258.2599,-201.7496"/>
</g>
<!-- User&#45;&gt;Message -->
<g id="edge14" class="edge">
<title>User&#45;&gt;Message</title>
<path fill="none" stroke="#7fe59e" d="M217.4136,-224.5191C203.9727,-180.5994 176.5517,-90.9982 162.6685,-45.6335"/>
<ellipse fill="none" stroke="#7fe59e" cx="218.5877" cy="-228.3557" rx="4" ry="4"/>
<polygon fill="#7fe59e" stroke="#7fe59e" points="162.6101,-45.4424 163.9866,-34.5632 161.1468,-40.6613 159.6836,-35.8801 159.6836,-35.8801 159.6836,-35.8801 161.1468,-40.6613 155.3806,-37.197 162.6101,-45.4424 162.6101,-45.4424"/>
</g>
<!-- User&#45;&gt;Event -->
<g id="edge13" class="edge">
<title>User&#45;&gt;Event</title>
<path fill="none" stroke="#e1e023" d="M257.5933,-239.8547C300.4936,-226.4138 375.9938,-202.7593 421.1328,-188.617"/>
<ellipse fill="none" stroke="#e1e023" cx="253.5234" cy="-241.1298" rx="4" ry="4"/>
<polygon fill="#e1e023" stroke="#e1e023" points="421.2836,-188.5698 432.1717,-189.8742 426.0549,-187.0749 430.8262,-185.58 430.8262,-185.58 430.8262,-185.58 426.0549,-187.0749 429.4808,-181.2858 421.2836,-188.5698 421.2836,-188.5698"/>
</g>
<!-- User&#45;&gt;Chatroom -->
<g id="edge15" class="edge">
<title>User&#45;&gt;Chatroom</title>
<path fill="none" stroke="#d3aed9" d="M228.9869,-221.6684C231.5304,-203.6607 235.1538,-179.8889 239.2117,-159 241.7696,-145.8324 245.1038,-131.35 248.066,-119.1467"/>
<polygon fill="#d3aed9" stroke="#d3aed9" points="228.9559,-221.8931 223.1264,-231.1811 228.2699,-226.8458 227.5838,-231.7986 227.5838,-231.7986 227.5838,-231.7986 228.2699,-226.8458 232.0413,-232.416 228.9559,-221.8931 228.9559,-221.8931"/>
<polygon fill="#d3aed9" stroke="#d3aed9" points="248.1494,-118.8085 254.9136,-110.1774 249.347,-113.954 250.5446,-109.0995 250.5446,-109.0995 250.5446,-109.0995 249.347,-113.954 246.1756,-108.0217 248.1494,-118.8085 248.1494,-118.8085"/>
</g>
<!-- Chatroom&#45;&gt;Message -->
<g id="edge18" class="edge">
<title>Chatroom&#45;&gt;Message</title>
<path fill="none" stroke="#a618f7" d="M226.6212,-70.3356C213.3606,-60.7512 197.5997,-49.3597 184.1735,-39.6556"/>
<ellipse fill="none" stroke="#a618f7" cx="230.0543" cy="-72.8169" rx="4" ry="4"/>
<polygon fill="#a618f7" stroke="#a618f7" points="183.8421,-39.4161 178.3735,-29.9111 179.7898,-36.4872 175.7374,-33.5582 175.7374,-33.5582 175.7374,-33.5582 179.7898,-36.4872 173.1014,-37.2053 183.8421,-39.4161 183.8421,-39.4161"/>
</g>
<!-- Sender -->
<g id="node24" class="node">
<title>Sender</title>
<ellipse fill="none" stroke="#000000" cx="349.2117" cy="-18" rx="34.8285" ry="18"/>
<text text-anchor="middle" x="349.2117" y="-13.8" font-family="Times,serif" font-size="14.00" fill="#000000">Sender</text>
</g>
<!-- Chatroom&#45;&gt;Sender -->
<g id="edge19" class="edge">
<title>Chatroom&#45;&gt;Sender</title>
<path fill="none" stroke="#1c5402" d="M284.3785,-68.3492C296.2365,-59.1403 309.8726,-48.5506 321.5701,-39.4663"/>
<polygon fill="#1c5402" stroke="#1c5402" points="283.9714,-68.6653 273.3132,-71.2448 280.0223,-71.7321 276.0733,-74.7989 276.0733,-74.7989 276.0733,-74.7989 280.0223,-71.7321 278.8334,-78.3531 283.9714,-68.6653 283.9714,-68.6653"/>
<polygon fill="#1c5402" stroke="#1c5402" points="321.7939,-39.2925 332.4521,-36.713 325.743,-36.2257 329.692,-33.1589 329.692,-33.1589 329.692,-33.1589 325.743,-36.2257 326.9319,-29.6048 321.7939,-39.2925 321.7939,-39.2925"/>
</g>
<!-- Receiver -->
<g id="node25" class="node">
<title>Receiver</title>
<ellipse fill="none" stroke="#000000" cx="255.2117" cy="-18" rx="41.5593" ry="18"/>
<text text-anchor="middle" x="255.2117" y="-13.8" font-family="Times,serif" font-size="14.00" fill="#000000">Receiver</text>
</g>
<!-- Chatroom&#45;&gt;Receiver -->
<g id="edge20" class="edge">
<title>Chatroom&#45;&gt;Receiver</title>
<path fill="none" stroke="#ae8ae8" d="M255.2117,-62.8688C255.2117,-57.3894 255.2117,-51.6439 255.2117,-46.1634"/>
<polygon fill="#ae8ae8" stroke="#ae8ae8" points="255.2118,-62.9551 250.7117,-72.955 255.2117,-67.9551 255.2117,-72.9551 255.2117,-72.9551 255.2117,-72.9551 255.2117,-67.9551 259.7117,-72.9551 255.2118,-62.9551 255.2118,-62.9551"/>
<polygon fill="#ae8ae8" stroke="#ae8ae8" points="255.2118,-46.0904 259.7117,-36.0903 255.2117,-41.0904 255.2117,-36.0904 255.2117,-36.0904 255.2117,-36.0904 255.2117,-41.0904 250.7117,-36.0904 255.2118,-46.0904 255.2118,-46.0904"/>
</g>
<!-- ActiveStorage::Variant -->
<g id="node11" class="node">
<title>ActiveStorage::Variant</title>
<polygon fill="none" stroke="#000000" points="542.502,-359.5 397.9213,-359.5 397.9213,-323.5 542.502,-323.5 542.502,-359.5"/>
<text text-anchor="middle" x="470.2117" y="-337.3" font-family="Times,serif" font-size="14.00" fill="#000000">ActiveStorage::Variant</text>
</g>
<!-- ActiveStorage::Blob -->
<g id="node12" class="node">
<title>ActiveStorage::Blob</title>
<ellipse fill="none" stroke="#000000" cx="643.2117" cy="-341.5" rx="82.6131" ry="18"/>
<text text-anchor="middle" x="643.2117" y="-337.3" font-family="Times,serif" font-size="14.00" fill="#000000">ActiveStorage::Blob</text>
</g>
<!-- ActiveStorage::Filename -->
<g id="node13" class="node">
<title>ActiveStorage::Filename</title>
<polygon fill="none" stroke="#000000" points="900.1707,-359.5 744.2527,-359.5 744.2527,-323.5 900.1707,-323.5 900.1707,-359.5"/>
<text text-anchor="middle" x="822.2117" y="-337.3" font-family="Times,serif" font-size="14.00" fill="#000000">ActiveStorage::Filename</text>
</g>
<!-- ActiveStorage::Variation -->
<g id="node14" class="node">
<title>ActiveStorage::Variation</title>
<polygon fill="none" stroke="#000000" points="1073.8915,-359.5 918.5319,-359.5 918.5319,-323.5 1073.8915,-323.5 1073.8915,-359.5"/>
<text text-anchor="middle" x="996.2117" y="-337.3" font-family="Times,serif" font-size="14.00" fill="#000000">ActiveStorage::Variation</text>
</g>
<!-- ActiveStorage::Attachment -->
<g id="node15" class="node">
<title>ActiveStorage::Attachment</title>
<ellipse fill="none" stroke="#000000" cx="1198.2117" cy="-341.5" rx="106.7251" ry="18"/>
<text text-anchor="middle" x="1198.2117" y="-337.3" font-family="Times,serif" font-size="14.00" fill="#000000">ActiveStorage::Attachment</text>
</g>
<!-- ActiveStorage::Current -->
<g id="node16" class="node">
<title>ActiveStorage::Current</title>
<polygon fill="none" stroke="#000000" points="1525.3401,-268 1379.0833,-268 1379.0833,-232 1525.3401,-232 1525.3401,-268"/>
<text text-anchor="middle" x="1452.2117" y="-245.8" font-family="Times,serif" font-size="14.00" fill="#000000">ActiveStorage::Current</text>
</g>
<!-- ActiveStorage::Filename::Parameters -->
<g id="node17" class="node">
<title>ActiveStorage::Filename::Parameters</title>
<polygon fill="none" stroke="#000000" points="1825.1433,-359.5 1599.28,-359.5 1599.28,-323.5 1825.1433,-323.5 1825.1433,-359.5"/>
<text text-anchor="middle" x="1712.2117" y="-337.3" font-family="Times,serif" font-size="14.00" fill="#000000">ActiveStorage::Filename::Parameters</text>
</g>
<!-- ActiveStorage::Blob::Identifiable -->
<g id="node18" class="node">
<title>ActiveStorage::Blob::Identifiable</title>
<polygon fill="none" stroke="#000000" stroke-dasharray="1,5" points="2045.3399,-359.5 1843.0834,-359.5 1843.0834,-323.5 2045.3399,-323.5 2045.3399,-359.5"/>
<text text-anchor="middle" x="1944.2117" y="-337.3" font-family="Times,serif" font-size="14.00" fill="#000000">ActiveStorage::Blob::Identifiable</text>
</g>
<!-- ActiveStorage::Blob::Analyzable -->
<g id="node19" class="node">
<title>ActiveStorage::Blob::Analyzable</title>
<polygon fill="none" stroke="#000000" stroke-dasharray="1,5" points="2266.3263,-359.5 2064.097,-359.5 2064.097,-323.5 2266.3263,-323.5 2266.3263,-359.5"/>
<text text-anchor="middle" x="2165.2117" y="-337.3" font-family="Times,serif" font-size="14.00" fill="#000000">ActiveStorage::Blob::Analyzable</text>
</g>
<!-- ActiveStorage::Blob::Representable -->
<g id="node20" class="node">
<title>ActiveStorage::Blob::Representable</title>
<polygon fill="none" stroke="#000000" stroke-dasharray="1,5" points="2502.3777,-359.5 2284.0456,-359.5 2284.0456,-323.5 2502.3777,-323.5 2502.3777,-359.5"/>
<text text-anchor="middle" x="2393.2117" y="-337.3" font-family="Times,serif" font-size="14.00" fill="#000000">ActiveStorage::Blob::Representable</text>
</g>
<!-- ActiveStorage::Preview -->
<g id="node21" class="node">
<title>ActiveStorage::Preview</title>
<polygon fill="none" stroke="#000000" points="2669.9502,-359.5 2520.4732,-359.5 2520.4732,-323.5 2669.9502,-323.5 2669.9502,-359.5"/>
<text text-anchor="middle" x="2595.2117" y="-337.3" font-family="Times,serif" font-size="14.00" fill="#000000">ActiveStorage::Preview</text>
</g>
<!-- ActiveSupport::CurrentAttributes -->
<g id="node26" class="node">
<title>ActiveSupport::CurrentAttributes</title>
<ellipse fill="none" stroke="#000000" cx="1452.2117" cy="-341.5" rx="128.9682" ry="18"/>
<text text-anchor="middle" x="1452.2117" y="-337.3" font-family="Times,serif" font-size="14.00" fill="#000000">ActiveSupport::CurrentAttributes</text>
</g>
<!-- ActiveSupport::CurrentAttributes&#45;&gt;ActiveStorage::Current -->
<g id="edge22" class="edge">
<title>ActiveSupport::CurrentAttributes&#45;&gt;ActiveStorage::Current</title>
<path fill="none" stroke="#000000" d="M1452.2117,-323.4225C1452.2117,-307.3813 1452.2117,-284.0697 1452.2117,-268.0399"/>
</g>
</g>
</svg>
