<?xml version="1.0" encoding="UTF-8" standalone="no"?>
<!DOCTYPE svg PUBLIC "-//W3C//DTD SVG 1.1//EN"
 "http://www.w3.org/Graphics/SVG/1.1/DTD/svg11.dtd">
<!-- Generated by graphviz version 2.40.1 (20161225.0304)
 -->
<!-- Title: models_diagram Pages: 1 -->
<svg width="2511pt" height="1178pt"
 viewBox="0.00 0.00 2511.30 1178.00" xmlns="http://www.w3.org/2000/svg" xmlns:xlink="http://www.w3.org/1999/xlink">
<g id="graph0" class="graph" transform="scale(1 1) rotate(0) translate(4 1174)">
<title>models_diagram</title>
<polygon fill="transparent" stroke="transparent" points="-4,4 -4,-1174 2507.3,-1174 2507.3,4 -4,4"/>
<!-- _diagram_info -->
<g id="node1" class="node">
<title>_diagram_info</title>
<text text-anchor="start" x="79.2192" y="-1155.6" font-family="Times,serif" font-size="13.00" fill="#000000">Models diagram</text>
<text text-anchor="start" x="79.2192" y="-1142.6" font-family="Times,serif" font-size="13.00" fill="#000000">Date: Dec 14 2019 &#45; 21:45</text>
<text text-anchor="start" x="79.2192" y="-1129.6" font-family="Times,serif" font-size="13.00" fill="#000000">Migration version: 20191119050953</text>
<text text-anchor="start" x="79.2192" y="-1116.6" font-family="Times,serif" font-size="13.00" fill="#000000">Generated by RailRoady 1.5.3</text>
<text text-anchor="start" x="79.2192" y="-1103.6" font-family="Times,serif" font-size="13.00" fill="#000000">http://railroady.prestonlee.com</text>
</g>
<!-- Report -->
<g id="node2" class="node">
<title>Report</title>
<path fill="none" stroke="#000000" d="M920.5686,-380.5C920.5686,-380.5 1144.2932,-380.5 1144.2932,-380.5 1150.2932,-380.5 1156.2932,-386.5 1156.2932,-392.5 1156.2932,-392.5 1156.2932,-482.5 1156.2932,-482.5 1156.2932,-488.5 1150.2932,-494.5 1144.2932,-494.5 1144.2932,-494.5 920.5686,-494.5 920.5686,-494.5 914.5686,-494.5 908.5686,-488.5 908.5686,-482.5 908.5686,-482.5 908.5686,-392.5 908.5686,-392.5 908.5686,-386.5 914.5686,-380.5 920.5686,-380.5"/>
<text text-anchor="middle" x="1032.4309" y="-479.3" font-family="Times,serif" font-size="14.00" fill="#000000">Report</text>
<polyline fill="none" stroke="#000000" points="908.5686,-472.5 1156.2932,-472.5 "/>
<text text-anchor="start" x="916.5686" y="-457.3" font-family="Times,serif" font-size="14.00" fill="#000000">id :bigint</text>
<text text-anchor="start" x="916.5686" y="-443.3" font-family="Times,serif" font-size="14.00" fill="#000000">event_id :bigint</text>
<text text-anchor="start" x="916.5686" y="-429.3" font-family="Times,serif" font-size="14.00" fill="#000000">user_id :bigint</text>
<text text-anchor="start" x="916.5686" y="-415.3" font-family="Times,serif" font-size="14.00" fill="#000000">content :text</text>
<text text-anchor="start" x="916.5686" y="-401.3" font-family="Times,serif" font-size="14.00" fill="#000000">created_at :timestamp without time zone</text>
<text text-anchor="start" x="916.5686" y="-387.3" font-family="Times,serif" font-size="14.00" fill="#000000">updated_at :timestamp without time zone</text>
</g>
<!-- Push -->
<g id="node3" class="node">
<title>Push</title>
<path fill="none" stroke="#000000" d="M477.5686,-380.5C477.5686,-380.5 701.2932,-380.5 701.2932,-380.5 707.2932,-380.5 713.2932,-386.5 713.2932,-392.5 713.2932,-392.5 713.2932,-482.5 713.2932,-482.5 713.2932,-488.5 707.2932,-494.5 701.2932,-494.5 701.2932,-494.5 477.5686,-494.5 477.5686,-494.5 471.5686,-494.5 465.5686,-488.5 465.5686,-482.5 465.5686,-482.5 465.5686,-392.5 465.5686,-392.5 465.5686,-386.5 471.5686,-380.5 477.5686,-380.5"/>
<text text-anchor="middle" x="589.4309" y="-479.3" font-family="Times,serif" font-size="14.00" fill="#000000">Push</text>
<polyline fill="none" stroke="#000000" points="465.5686,-472.5 713.2932,-472.5 "/>
<text text-anchor="start" x="473.5686" y="-457.3" font-family="Times,serif" font-size="14.00" fill="#000000">id :bigint</text>
<text text-anchor="start" x="473.5686" y="-443.3" font-family="Times,serif" font-size="14.00" fill="#000000">user_id :bigint</text>
<text text-anchor="start" x="473.5686" y="-429.3" font-family="Times,serif" font-size="14.00" fill="#000000">title :character varying</text>
<text text-anchor="start" x="473.5686" y="-415.3" font-family="Times,serif" font-size="14.00" fill="#000000">body :text</text>
<text text-anchor="start" x="473.5686" y="-401.3" font-family="Times,serif" font-size="14.00" fill="#000000">created_at :timestamp without time zone</text>
<text text-anchor="start" x="473.5686" y="-387.3" font-family="Times,serif" font-size="14.00" fill="#000000">updated_at :timestamp without time zone</text>
</g>
<!-- Message -->
<g id="node4" class="node">
<title>Message</title>
<path fill="none" stroke="#000000" d="M604.5686,-.5C604.5686,-.5 828.2932,-.5 828.2932,-.5 834.2932,-.5 840.2932,-6.5 840.2932,-12.5 840.2932,-12.5 840.2932,-116.5 840.2932,-116.5 840.2932,-122.5 834.2932,-128.5 828.2932,-128.5 828.2932,-128.5 604.5686,-128.5 604.5686,-128.5 598.5686,-128.5 592.5686,-122.5 592.5686,-116.5 592.5686,-116.5 592.5686,-12.5 592.5686,-12.5 592.5686,-6.5 598.5686,-.5 604.5686,-.5"/>
<text text-anchor="middle" x="716.4309" y="-113.3" font-family="Times,serif" font-size="14.00" fill="#000000">Message</text>
<polyline fill="none" stroke="#000000" points="592.5686,-106.5 840.2932,-106.5 "/>
<text text-anchor="start" x="600.5686" y="-91.3" font-family="Times,serif" font-size="14.00" fill="#000000">id :bigint</text>
<text text-anchor="start" x="600.5686" y="-77.3" font-family="Times,serif" font-size="14.00" fill="#000000">content :character varying</text>
<text text-anchor="start" x="600.5686" y="-63.3" font-family="Times,serif" font-size="14.00" fill="#000000">sender_id :bigint</text>
<text text-anchor="start" x="600.5686" y="-49.3" font-family="Times,serif" font-size="14.00" fill="#000000">chatroom_id :bigint</text>
<text text-anchor="start" x="600.5686" y="-35.3" font-family="Times,serif" font-size="14.00" fill="#000000">created_at :timestamp without time zone</text>
<text text-anchor="start" x="600.5686" y="-21.3" font-family="Times,serif" font-size="14.00" fill="#000000">updated_at :timestamp without time zone</text>
<text text-anchor="start" x="600.5686" y="-7.3" font-family="Times,serif" font-size="14.00" fill="#000000">receiver_id :bigint</text>
</g>
<!-- Building -->
<g id="node5" class="node">
<title>Building</title>
<path fill="none" stroke="#000000" d="M59.5686,-756.5C59.5686,-756.5 283.2932,-756.5 283.2932,-756.5 289.2932,-756.5 295.2932,-762.5 295.2932,-768.5 295.2932,-768.5 295.2932,-872.5 295.2932,-872.5 295.2932,-878.5 289.2932,-884.5 283.2932,-884.5 283.2932,-884.5 59.5686,-884.5 59.5686,-884.5 53.5686,-884.5 47.5686,-878.5 47.5686,-872.5 47.5686,-872.5 47.5686,-768.5 47.5686,-768.5 47.5686,-762.5 53.5686,-756.5 59.5686,-756.5"/>
<text text-anchor="middle" x="171.4309" y="-869.3" font-family="Times,serif" font-size="14.00" fill="#000000">Building</text>
<polyline fill="none" stroke="#000000" points="47.5686,-862.5 295.2932,-862.5 "/>
<text text-anchor="start" x="55.5686" y="-847.3" font-family="Times,serif" font-size="14.00" fill="#000000">id :bigint</text>
<text text-anchor="start" x="55.5686" y="-833.3" font-family="Times,serif" font-size="14.00" fill="#000000">name :character varying</text>
<text text-anchor="start" x="55.5686" y="-819.3" font-family="Times,serif" font-size="14.00" fill="#000000">lat :double precision</text>
<text text-anchor="start" x="55.5686" y="-805.3" font-family="Times,serif" font-size="14.00" fill="#000000">lng :double precision</text>
<text text-anchor="start" x="55.5686" y="-791.3" font-family="Times,serif" font-size="14.00" fill="#000000">created_at :timestamp without time zone</text>
<text text-anchor="start" x="55.5686" y="-777.3" font-family="Times,serif" font-size="14.00" fill="#000000">updated_at :timestamp without time zone</text>
<text text-anchor="start" x="55.5686" y="-763.3" font-family="Times,serif" font-size="14.00" fill="#000000">events_count :integer</text>
</g>
<!-- Event -->
<g id="node8" class="node">
<title>Event</title>
<path fill="none" stroke="#000000" d="M211.5686,-331.5C211.5686,-331.5 435.2932,-331.5 435.2932,-331.5 441.2932,-331.5 447.2932,-337.5 447.2932,-343.5 447.2932,-343.5 447.2932,-531.5 447.2932,-531.5 447.2932,-537.5 441.2932,-543.5 435.2932,-543.5 435.2932,-543.5 211.5686,-543.5 211.5686,-543.5 205.5686,-543.5 199.5686,-537.5 199.5686,-531.5 199.5686,-531.5 199.5686,-343.5 199.5686,-343.5 199.5686,-337.5 205.5686,-331.5 211.5686,-331.5"/>
<text text-anchor="middle" x="323.4309" y="-528.3" font-family="Times,serif" font-size="14.00" fill="#000000">Event</text>
<polyline fill="none" stroke="#000000" points="199.5686,-521.5 447.2932,-521.5 "/>
<text text-anchor="start" x="207.5686" y="-506.3" font-family="Times,serif" font-size="14.00" fill="#000000">building_id :bigint</text>
<text text-anchor="start" x="207.5686" y="-492.3" font-family="Times,serif" font-size="14.00" fill="#000000">user_id :bigint</text>
<text text-anchor="start" x="207.5686" y="-478.3" font-family="Times,serif" font-size="14.00" fill="#000000">title :character varying</text>
<text text-anchor="start" x="207.5686" y="-464.3" font-family="Times,serif" font-size="14.00" fill="#000000">place :character varying</text>
<text text-anchor="start" x="207.5686" y="-450.3" font-family="Times,serif" font-size="14.00" fill="#000000">detail_place :character varying</text>
<text text-anchor="start" x="207.5686" y="-436.3" font-family="Times,serif" font-size="14.00" fill="#000000">time_limit :timestamp without time zone</text>
<text text-anchor="start" x="207.5686" y="-422.3" font-family="Times,serif" font-size="14.00" fill="#000000">content :text</text>
<text text-anchor="start" x="207.5686" y="-408.3" font-family="Times,serif" font-size="14.00" fill="#000000">state :integer</text>
<text text-anchor="start" x="207.5686" y="-394.3" font-family="Times,serif" font-size="14.00" fill="#000000">reward :integer</text>
<text text-anchor="start" x="207.5686" y="-380.3" font-family="Times,serif" font-size="14.00" fill="#000000">created_at :timestamp without time zone</text>
<text text-anchor="start" x="207.5686" y="-366.3" font-family="Times,serif" font-size="14.00" fill="#000000">updated_at :timestamp without time zone</text>
<text text-anchor="start" x="207.5686" y="-352.3" font-family="Times,serif" font-size="14.00" fill="#000000">performer_id :bigint</text>
<text text-anchor="start" x="207.5686" y="-338.3" font-family="Times,serif" font-size="14.00" fill="#000000">id :bigint</text>
</g>
<!-- Building&#45;&gt;Event -->
<g id="edge4" class="edge">
<title>Building&#45;&gt;Event</title>
<path fill="none" stroke="#488609" d="M199.8966,-748.7739C221.6746,-693.899 252.1531,-617.1013 277.3865,-553.5197"/>
<ellipse fill="none" stroke="#488609" cx="198.3478" cy="-752.6765" rx="4" ry="4"/>
<polygon fill="#488609" stroke="#488609" points="277.5404,-553.1319 285.4119,-545.4971 279.3848,-548.4845 281.2292,-543.8371 281.2292,-543.8371 281.2292,-543.8371 279.3848,-548.4845 277.0465,-542.1771 277.5404,-553.1319 277.5404,-553.1319"/>
</g>
<!-- AdminUser -->
<g id="node6" class="node">
<title>AdminUser</title>
<path fill="none" stroke="#000000" d="M401.7961,-749.5C401.7961,-749.5 697.0656,-749.5 697.0656,-749.5 703.0656,-749.5 709.0656,-755.5 709.0656,-761.5 709.0656,-761.5 709.0656,-879.5 709.0656,-879.5 709.0656,-885.5 703.0656,-891.5 697.0656,-891.5 697.0656,-891.5 401.7961,-891.5 401.7961,-891.5 395.7961,-891.5 389.7961,-885.5 389.7961,-879.5 389.7961,-879.5 389.7961,-761.5 389.7961,-761.5 389.7961,-755.5 395.7961,-749.5 401.7961,-749.5"/>
<text text-anchor="middle" x="549.4309" y="-876.3" font-family="Times,serif" font-size="14.00" fill="#000000">AdminUser</text>
<polyline fill="none" stroke="#000000" points="389.7961,-869.5 709.0656,-869.5 "/>
<text text-anchor="start" x="397.7961" y="-854.3" font-family="Times,serif" font-size="14.00" fill="#000000">updated_at :timestamp without time zone</text>
<text text-anchor="start" x="397.7961" y="-840.3" font-family="Times,serif" font-size="14.00" fill="#000000">email :character varying</text>
<text text-anchor="start" x="397.7961" y="-826.3" font-family="Times,serif" font-size="14.00" fill="#000000">encrypted_password :character varying</text>
<text text-anchor="start" x="397.7961" y="-812.3" font-family="Times,serif" font-size="14.00" fill="#000000">reset_password_token :character varying</text>
<text text-anchor="start" x="397.7961" y="-798.3" font-family="Times,serif" font-size="14.00" fill="#000000">reset_password_sent_at :timestamp without time zone</text>
<text text-anchor="start" x="397.7961" y="-784.3" font-family="Times,serif" font-size="14.00" fill="#000000">remember_created_at :timestamp without time zone</text>
<text text-anchor="start" x="397.7961" y="-770.3" font-family="Times,serif" font-size="14.00" fill="#000000">created_at :timestamp without time zone</text>
<text text-anchor="start" x="397.7961" y="-756.3" font-family="Times,serif" font-size="14.00" fill="#000000">id :bigint</text>
</g>
<!-- ApplicationRecord -->
<g id="node7" class="node">
<title>ApplicationRecord</title>
<ellipse fill="none" stroke="#000000" cx="373.4309" cy="-1133.5" rx="77.2916" ry="18"/>
<text text-anchor="middle" x="373.4309" y="-1129.3" font-family="Times,serif" font-size="14.00" fill="#000000">ApplicationRecord</text>
</g>
<!-- ApplicationRecord&#45;&gt;Report -->
<g id="edge1" class="edge">
<title>ApplicationRecord&#45;&gt;Report</title>
<path fill="none" stroke="#000000" d="M407.899,-1117.1752C425.3428,-1109.6791 447.0849,-1101.4774 467.4309,-1097 531.3637,-1082.9308 1010.6189,-1107.7204 1055.4309,-1060 1202.0124,-903.9049 1108.0919,-616.8864 1058.0101,-494.8437"/>
</g>
<!-- ApplicationRecord&#45;&gt;Push -->
<g id="edge2" class="edge">
<title>ApplicationRecord&#45;&gt;Push</title>
<path fill="none" stroke="#000000" d="M371.205,-1115.4495C361.1106,-1030.6603 322.567,-672.2367 380.4309,-581 400.5517,-549.2745 424.6839,-564.087 456.4309,-544 479.4284,-529.4489 503.0735,-511.6019 523.9305,-494.7072"/>
</g>
<!-- ApplicationRecord&#45;&gt;Message -->
<g id="edge3" class="edge">
<title>ApplicationRecord&#45;&gt;Message</title>
<path fill="none" stroke="#000000" d="M339.8361,-1117.0959C323.9703,-1109.9535 304.5715,-1102.0727 286.4309,-1097 232.7684,-1081.9941 76.4505,-1100.7351 38.4309,-1060 -34.4264,-981.9389 19.4309,-927.2789 19.4309,-820.5 19.4309,-820.5 19.4309,-820.5 19.4309,-223.5 19.4309,-107.3744 391.8367,-76.061 592.223,-67.6174"/>
</g>
<!-- ApplicationRecord&#45;&gt;Building -->
<g id="edge5" class="edge">
<title>ApplicationRecord&#45;&gt;Building</title>
<path fill="none" stroke="#000000" d="M348.9834,-1116.2157C336.1502,-1106.3227 320.7799,-1093.0954 309.4309,-1079 261.0953,-1018.9675 221.6386,-939.4563 197.48,-884.5461"/>
</g>
<!-- ApplicationRecord&#45;&gt;AdminUser -->
<g id="edge6" class="edge">
<title>ApplicationRecord&#45;&gt;AdminUser</title>
<path fill="none" stroke="#000000" d="M383.6541,-1115.3189C407.6077,-1072.7197 468.4251,-964.5614 509.3497,-891.7807"/>
</g>
<!-- ApplicationRecord&#45;&gt;Event -->
<g id="edge12" class="edge">
<title>ApplicationRecord&#45;&gt;Event</title>
<path fill="none" stroke="#000000" d="M362.5678,-1115.5342C356.9347,-1105.2294 350.5869,-1091.8265 347.4309,-1079 302.1624,-895.0234 306.4326,-672.5027 314.4104,-543.7591"/>
</g>
<!-- User -->
<g id="node9" class="node">
<title>User</title>
<path fill="none" stroke="#000000" d="M738.7961,-581.5C738.7961,-581.5 1034.0656,-581.5 1034.0656,-581.5 1040.0656,-581.5 1046.0656,-587.5 1046.0656,-593.5 1046.0656,-593.5 1046.0656,-1047.5 1046.0656,-1047.5 1046.0656,-1053.5 1040.0656,-1059.5 1034.0656,-1059.5 1034.0656,-1059.5 738.7961,-1059.5 738.7961,-1059.5 732.7961,-1059.5 726.7961,-1053.5 726.7961,-1047.5 726.7961,-1047.5 726.7961,-593.5 726.7961,-593.5 726.7961,-587.5 732.7961,-581.5 738.7961,-581.5"/>
<text text-anchor="middle" x="886.4309" y="-1044.3" font-family="Times,serif" font-size="14.00" fill="#000000">User</text>
<polyline fill="none" stroke="#000000" points="726.7961,-1037.5 1046.0656,-1037.5 "/>
<text text-anchor="start" x="734.7961" y="-1022.3" font-family="Times,serif" font-size="14.00" fill="#000000">certification_token :character varying</text>
<text text-anchor="start" x="734.7961" y="-1008.3" font-family="Times,serif" font-size="14.00" fill="#000000">name :character varying</text>
<text text-anchor="start" x="734.7961" y="-994.3" font-family="Times,serif" font-size="14.00" fill="#000000">email :character varying</text>
<text text-anchor="start" x="734.7961" y="-980.3" font-family="Times,serif" font-size="14.00" fill="#000000">encrypted_password :character varying</text>
<text text-anchor="start" x="734.7961" y="-966.3" font-family="Times,serif" font-size="14.00" fill="#000000">phone :character varying</text>
<text text-anchor="start" x="734.7961" y="-952.3" font-family="Times,serif" font-size="14.00" fill="#000000">thumbnail :character varying</text>
<text text-anchor="start" x="734.7961" y="-938.3" font-family="Times,serif" font-size="14.00" fill="#000000">address1 :character varying</text>
<text text-anchor="start" x="734.7961" y="-924.3" font-family="Times,serif" font-size="14.00" fill="#000000">address2 :character varying</text>
<text text-anchor="start" x="734.7961" y="-910.3" font-family="Times,serif" font-size="14.00" fill="#000000">zipcode :character varying</text>
<text text-anchor="start" x="734.7961" y="-896.3" font-family="Times,serif" font-size="14.00" fill="#000000">gender :integer</text>
<text text-anchor="start" x="734.7961" y="-882.3" font-family="Times,serif" font-size="14.00" fill="#000000">customs_number :character varying</text>
<text text-anchor="start" x="734.7961" y="-868.3" font-family="Times,serif" font-size="14.00" fill="#000000">role :integer</text>
<text text-anchor="start" x="734.7961" y="-854.3" font-family="Times,serif" font-size="14.00" fill="#000000">accept_sms :boolean</text>
<text text-anchor="start" x="734.7961" y="-840.3" font-family="Times,serif" font-size="14.00" fill="#000000">accept_email :boolean</text>
<text text-anchor="start" x="734.7961" y="-826.3" font-family="Times,serif" font-size="14.00" fill="#000000">reset_password_token :character varying</text>
<text text-anchor="start" x="734.7961" y="-812.3" font-family="Times,serif" font-size="14.00" fill="#000000">reset_password_sent_at :timestamp without time zone</text>
<text text-anchor="start" x="734.7961" y="-798.3" font-family="Times,serif" font-size="14.00" fill="#000000">remember_created_at :timestamp without time zone</text>
<text text-anchor="start" x="734.7961" y="-784.3" font-family="Times,serif" font-size="14.00" fill="#000000">sign_in_count :integer</text>
<text text-anchor="start" x="734.7961" y="-770.3" font-family="Times,serif" font-size="14.00" fill="#000000">current_sign_in_at :timestamp without time zone</text>
<text text-anchor="start" x="734.7961" y="-756.3" font-family="Times,serif" font-size="14.00" fill="#000000">last_sign_in_at :timestamp without time zone</text>
<text text-anchor="start" x="734.7961" y="-742.3" font-family="Times,serif" font-size="14.00" fill="#000000">current_sign_in_ip :inet</text>
<text text-anchor="start" x="734.7961" y="-728.3" font-family="Times,serif" font-size="14.00" fill="#000000">last_sign_in_ip :inet</text>
<text text-anchor="start" x="734.7961" y="-714.3" font-family="Times,serif" font-size="14.00" fill="#000000">created_at :timestamp without time zone</text>
<text text-anchor="start" x="734.7961" y="-700.3" font-family="Times,serif" font-size="14.00" fill="#000000">updated_at :timestamp without time zone</text>
<text text-anchor="start" x="734.7961" y="-686.3" font-family="Times,serif" font-size="14.00" fill="#000000">student_card_image :character varying</text>
<text text-anchor="start" x="734.7961" y="-672.3" font-family="Times,serif" font-size="14.00" fill="#000000">certification_state :integer</text>
<text text-anchor="start" x="734.7961" y="-658.3" font-family="Times,serif" font-size="14.00" fill="#000000">status :integer</text>
<text text-anchor="start" x="734.7961" y="-644.3" font-family="Times,serif" font-size="14.00" fill="#000000">device_token :character varying</text>
<text text-anchor="start" x="734.7961" y="-630.3" font-family="Times,serif" font-size="14.00" fill="#000000">device_type :integer</text>
<text text-anchor="start" x="734.7961" y="-616.3" font-family="Times,serif" font-size="14.00" fill="#000000">blacklist :boolean</text>
<text text-anchor="start" x="734.7961" y="-602.3" font-family="Times,serif" font-size="14.00" fill="#000000">student_email :character varying</text>
<text text-anchor="start" x="734.7961" y="-588.3" font-family="Times,serif" font-size="14.00" fill="#000000">id :bigint</text>
</g>
<!-- ApplicationRecord&#45;&gt;User -->
<g id="edge18" class="edge">
<title>ApplicationRecord&#45;&gt;User</title>
<path fill="none" stroke="#000000" d="M409.4053,-1117.3464C426.6564,-1110.1693 447.7973,-1102.1886 467.4309,-1097 576.4492,-1068.1893 622.4601,-1119.2004 718.4309,-1060 721.2406,-1058.2668 724.016,-1056.4672 726.7569,-1054.6057"/>
</g>
<!-- Chatroom -->
<g id="node10" class="node">
<title>Chatroom</title>
<path fill="none" stroke="#000000" d="M781.5686,-166.5C781.5686,-166.5 1005.2932,-166.5 1005.2932,-166.5 1011.2932,-166.5 1017.2932,-172.5 1017.2932,-178.5 1017.2932,-178.5 1017.2932,-268.5 1017.2932,-268.5 1017.2932,-274.5 1011.2932,-280.5 1005.2932,-280.5 1005.2932,-280.5 781.5686,-280.5 781.5686,-280.5 775.5686,-280.5 769.5686,-274.5 769.5686,-268.5 769.5686,-268.5 769.5686,-178.5 769.5686,-178.5 769.5686,-172.5 775.5686,-166.5 781.5686,-166.5"/>
<text text-anchor="middle" x="893.4309" y="-265.3" font-family="Times,serif" font-size="14.00" fill="#000000">Chatroom</text>
<polyline fill="none" stroke="#000000" points="769.5686,-258.5 1017.2932,-258.5 "/>
<text text-anchor="start" x="777.5686" y="-243.3" font-family="Times,serif" font-size="14.00" fill="#000000">id :bigint</text>
<text text-anchor="start" x="777.5686" y="-229.3" font-family="Times,serif" font-size="14.00" fill="#000000">event_id :bigint</text>
<text text-anchor="start" x="777.5686" y="-215.3" font-family="Times,serif" font-size="14.00" fill="#000000">created_at :timestamp without time zone</text>
<text text-anchor="start" x="777.5686" y="-201.3" font-family="Times,serif" font-size="14.00" fill="#000000">updated_at :timestamp without time zone</text>
<text text-anchor="start" x="777.5686" y="-187.3" font-family="Times,serif" font-size="14.00" fill="#000000">request_user_id :bigint</text>
<text text-anchor="start" x="777.5686" y="-173.3" font-family="Times,serif" font-size="14.00" fill="#000000">perform_user_id :bigint</text>
</g>
<!-- ApplicationRecord&#45;&gt;Chatroom -->
<g id="edge22" class="edge">
<title>ApplicationRecord&#45;&gt;Chatroom</title>
<path fill="none" stroke="#000000" d="M407.4049,-1117.1041C424.9081,-1109.4909 446.8488,-1101.2079 467.4309,-1097 537.4345,-1082.6881 1061.1594,-1112.6802 1109.4309,-1060 1164.3143,-1000.104 1211.1143,-398.1769 1165.4309,-331 1147.3351,-304.3904 1080.48,-277.7779 1017.5848,-257.6884"/>
</g>
<!-- Event&#45;&gt;Chatroom -->
<g id="edge7" class="edge">
<title>Event&#45;&gt;Chatroom</title>
<path fill="none" stroke="#18d7c7" d="M454.4296,-331.9988C455.0964,-331.6621 455.7635,-331.3292 456.4309,-331 552.8462,-283.4468 671.864,-255.9561 761.3333,-240.699"/>
<ellipse fill="none" stroke="#18d7c7" cx="450.8422" cy="-333.8831" rx="4" ry="4"/>
<ellipse fill="#18d7c7" stroke="#18d7c7" cx="765.4073" cy="-240.0141" rx="4" ry="4"/>
</g>
<!-- ActsAsTaggableOn::Tagging -->
<g id="node20" class="node">
<title>ActsAsTaggableOn::Tagging</title>
<ellipse fill="none" stroke="#000000" cx="210.4309" cy="-223.5" rx="113.0056" ry="18"/>
<text text-anchor="middle" x="210.4309" y="-219.3" font-family="Times,serif" font-size="14.00" fill="#000000">ActsAsTaggableOn::Tagging</text>
</g>
<!-- Event&#45;&gt;ActsAsTaggableOn::Tagging -->
<g id="edge8" class="edge">
<title>Event&#45;&gt;ActsAsTaggableOn::Tagging</title>
<path fill="none" stroke="#4ce0c7" d="M211.8202,-323.8929C210.0585,-320.3103 208.4412,-316.6775 206.9895,-313 199.3051,-293.5342 200.6517,-269.799 203.6574,-251.6636"/>
<ellipse fill="none" stroke="#4ce0c7" cx="213.777" cy="-327.6308" rx="4" ry="4"/>
<polygon fill="#4ce0c7" stroke="#4ce0c7" points="203.6831,-251.5292 209.9829,-242.5535 204.6231,-246.6183 205.5631,-241.7075 205.5631,-241.7075 205.5631,-241.7075 204.6231,-246.6183 201.1434,-240.8614 203.6831,-251.5292 203.6831,-251.5292"/>
<text text-anchor="middle" x="231.1516" y="-301.8" font-family="Times,serif" font-size="14.00" fill="#000000">taggings</text>
</g>
<!-- Event&#45;&gt;ActsAsTaggableOn::Tagging -->
<g id="edge10" class="edge">
<title>Event&#45;&gt;ActsAsTaggableOn::Tagging</title>
<path fill="none" stroke="#588071" d="M267.6909,-324.0925C263.2693,-315.5675 258.817,-307.1263 254.4309,-299 245.6234,-282.682 235.1961,-264.7353 226.7034,-250.4349"/>
<ellipse fill="none" stroke="#588071" cx="269.5606" cy="-327.7138" rx="4" ry="4"/>
<polygon fill="#588071" stroke="#588071" points="226.5653,-250.2036 225.3019,-239.3107 224.0018,-245.9107 221.4383,-241.6178 221.4383,-241.6178 221.4383,-241.6178 224.0018,-245.9107 217.5747,-243.925 226.5653,-250.2036 226.5653,-250.2036"/>
<text text-anchor="middle" x="296.2033" y="-301.8" font-family="Times,serif" font-size="14.00" fill="#000000">tag_taggings</text>
</g>
<!-- ActsAsTaggableOn::Tag -->
<g id="node21" class="node">
<title>ActsAsTaggableOn::Tag</title>
<ellipse fill="none" stroke="#000000" cx="445.4309" cy="-223.5" rx="97.0617" ry="18"/>
<text text-anchor="middle" x="445.4309" y="-219.3" font-family="Times,serif" font-size="14.00" fill="#000000">ActsAsTaggableOn::Tag</text>
</g>
<!-- Event&#45;&gt;ActsAsTaggableOn::Tag -->
<g id="edge9" class="edge">
<title>Event&#45;&gt;ActsAsTaggableOn::Tag</title>
<path fill="none" stroke="#918f51" d="M359.4445,-322.1448C363.2895,-314.119 367.4712,-306.3194 372.0031,-299 383.8882,-279.8046 401.3907,-261.5618 416.3266,-247.8182"/>
<polygon fill="#918f51" stroke="#918f51" points="359.4188,-322.2009 351.1563,-329.4108 357.3323,-326.7448 355.2458,-331.2886 355.2458,-331.2886 355.2458,-331.2886 357.3323,-326.7448 359.3352,-333.1665 359.4188,-322.2009 359.4188,-322.2009"/>
<polygon fill="#918f51" stroke="#918f51" points="416.4162,-247.7379 426.8649,-244.4098 420.138,-244.399 423.8599,-241.0602 423.8599,-241.0602 423.8599,-241.0602 420.138,-244.399 420.8549,-237.7105 416.4162,-247.7379 416.4162,-247.7379"/>
<text text-anchor="middle" x="399.6447" y="-301.8" font-family="Times,serif" font-size="14.00" fill="#000000">base_tags</text>
</g>
<!-- Event&#45;&gt;ActsAsTaggableOn::Tag -->
<g id="edge11" class="edge">
<title>Event&#45;&gt;ActsAsTaggableOn::Tag</title>
<path fill="none" stroke="#3423dc" d="M421.5224,-322.5305C423.2482,-319.3698 424.8889,-316.1908 426.4309,-313 435.7331,-293.7517 440.5059,-270.0053 442.9406,-251.8104"/>
<polygon fill="#3423dc" stroke="#3423dc" points="421.4199,-322.7093 412.5411,-329.1449 418.9322,-327.0466 416.4446,-331.3838 416.4446,-331.3838 416.4446,-331.3838 418.9322,-327.0466 420.3481,-333.6227 421.4199,-322.7093 421.4199,-322.7093"/>
<polygon fill="#3423dc" stroke="#3423dc" points="442.9482,-251.746 448.5896,-242.3426 443.5344,-246.7805 444.1206,-241.815 444.1206,-241.815 444.1206,-241.815 443.5344,-246.7805 439.6516,-241.2874 442.9482,-251.746 442.9482,-251.746"/>
<text text-anchor="middle" x="443.7068" y="-301.8" font-family="Times,serif" font-size="14.00" fill="#000000">tags</text>
</g>
<!-- User&#45;&gt;Report -->
<g id="edge17" class="edge">
<title>User&#45;&gt;Report</title>
<path fill="none" stroke="#75ade2" d="M980.4009,-573.9895C990.0433,-548.6949 999.1522,-524.7995 1006.9729,-504.2837"/>
<ellipse fill="none" stroke="#75ade2" cx="978.9714" cy="-577.7397" rx="4" ry="4"/>
<polygon fill="#75ade2" stroke="#75ade2" points="1007.0266,-504.1426 1014.7935,-496.4015 1008.8076,-499.4706 1010.5886,-494.7985 1010.5886,-494.7985 1010.5886,-494.7985 1008.8076,-499.4706 1006.3838,-493.1956 1007.0266,-504.1426 1007.0266,-504.1426"/>
</g>
<!-- User&#45;&gt;Push -->
<g id="edge16" class="edge">
<title>User&#45;&gt;Push</title>
<path fill="none" stroke="#373ef7" d="M721.8059,-585.2591C720.6799,-583.8328 719.5548,-582.4129 718.4309,-581 697.2634,-554.3899 672.6023,-526.3226 650.5454,-502.1367"/>
<ellipse fill="none" stroke="#373ef7" cx="724.2779" cy="-588.407" rx="4" ry="4"/>
<polygon fill="#373ef7" stroke="#373ef7" points="650.5446,-502.1358 647.109,-491.7219 647.1675,-498.4485 643.7905,-494.7613 643.7905,-494.7613 643.7905,-494.7613 647.1675,-498.4485 640.472,-497.8006 650.5446,-502.1358 650.5446,-502.1358"/>
</g>
<!-- User&#45;&gt;Message -->
<g id="edge14" class="edge">
<title>User&#45;&gt;Message</title>
<path fill="none" stroke="#ccced0" d="M827.1593,-573.4912C805.5675,-481.7696 781.3394,-376.7599 760.4309,-281 750.0915,-233.6465 739.2383,-180.2886 730.8979,-138.3928"/>
<ellipse fill="none" stroke="#ccced0" cx="828.1232" cy="-577.5832" rx="4" ry="4"/>
<polygon fill="#ccced0" stroke="#ccced0" points="730.8905,-138.355 733.3558,-127.6698 729.9163,-133.4508 728.942,-128.5466 728.942,-128.5466 728.942,-128.5466 729.9163,-133.4508 724.5283,-129.4234 730.8905,-138.355 730.8905,-138.355"/>
</g>
<!-- User&#45;&gt;Event -->
<g id="edge13" class="edge">
<title>User&#45;&gt;Event</title>
<path fill="none" stroke="#705389" d="M720.0106,-581.9772C719.4853,-581.6491 718.9587,-581.3234 718.4309,-581 620.8971,-521.2429 567.3646,-586.8456 456.9561,-543.7768"/>
<ellipse fill="none" stroke="#705389" cx="723.4176" cy="-584.1907" rx="4" ry="4"/>
<polygon fill="#705389" stroke="#705389" points="456.7527,-543.693 449.2226,-535.7213 452.1301,-541.7873 447.5075,-539.8816 447.5075,-539.8816 447.5075,-539.8816 452.1301,-541.7873 445.7924,-544.042 456.7527,-543.693 456.7527,-543.693"/>
</g>
<!-- User&#45;&gt;Chatroom -->
<g id="edge15" class="edge">
<title>User&#45;&gt;Chatroom</title>
<path fill="none" stroke="#88c27b" d="M889.3552,-571.1008C890.5512,-469.0977 891.8394,-359.2293 892.6404,-290.9156"/>
<polygon fill="#88c27b" stroke="#88c27b" points="889.355,-571.1178 884.738,-581.0643 889.2964,-576.1175 889.2377,-581.1171 889.2377,-581.1171 889.2377,-581.1171 889.2964,-576.1175 893.7374,-581.17 889.355,-571.1178 889.355,-571.1178"/>
<polygon fill="#88c27b" stroke="#88c27b" points="892.6425,-290.7295 897.2595,-280.783 892.7012,-285.7298 892.7598,-280.7302 892.7598,-280.7302 892.7598,-280.7302 892.7012,-285.7298 888.2601,-280.6774 892.6425,-290.7295 892.6425,-290.7295"/>
</g>
<!-- Chatroom&#45;&gt;Message -->
<g id="edge19" class="edge">
<title>Chatroom&#45;&gt;Message</title>
<path fill="none" stroke="#3d9831" d="M823.4379,-160.625C814.1763,-152.3052 804.6316,-143.7312 795.2345,-135.2897"/>
<ellipse fill="none" stroke="#3d9831" cx="826.5541" cy="-163.4243" rx="4" ry="4"/>
<polygon fill="#3d9831" stroke="#3d9831" points="795.1773,-135.2383 790.7453,-125.208 791.4577,-131.897 787.7381,-128.5556 787.7381,-128.5556 787.7381,-128.5556 791.4577,-131.897 784.7309,-131.9033 795.1773,-135.2383 795.1773,-135.2383"/>
</g>
<!-- Sender -->
<g id="node22" class="node">
<title>Sender</title>
<ellipse fill="none" stroke="#000000" cx="893.4309" cy="-64.5" rx="34.8285" ry="18"/>
<text text-anchor="middle" x="893.4309" y="-60.3" font-family="Times,serif" font-size="14.00" fill="#000000">Sender</text>
</g>
<!-- Chatroom&#45;&gt;Sender -->
<g id="edge20" class="edge">
<title>Chatroom&#45;&gt;Sender</title>
<path fill="none" stroke="#f04de3" d="M893.4309,-155.9793C893.4309,-133.8656 893.4309,-110.4863 893.4309,-92.8983"/>
<polygon fill="#f04de3" stroke="#f04de3" points="893.431,-156.0974 888.9309,-166.0973 893.4309,-161.0974 893.4309,-166.0974 893.4309,-166.0974 893.4309,-166.0974 893.4309,-161.0974 897.9309,-166.0974 893.431,-156.0974 893.431,-156.0974"/>
<polygon fill="#f04de3" stroke="#f04de3" points="893.431,-92.7587 897.9309,-82.7587 893.4309,-87.7587 893.4309,-82.7587 893.4309,-82.7587 893.4309,-82.7587 893.4309,-87.7587 888.9309,-82.7588 893.431,-92.7587 893.431,-92.7587"/>
</g>
<!-- Receiver -->
<g id="node23" class="node">
<title>Receiver</title>
<ellipse fill="none" stroke="#000000" cx="987.4309" cy="-64.5" rx="41.5593" ry="18"/>
<text text-anchor="middle" x="987.4309" y="-60.3" font-family="Times,serif" font-size="14.00" fill="#000000">Receiver</text>
</g>
<!-- Chatroom&#45;&gt;Receiver -->
<g id="edge21" class="edge">
<title>Chatroom&#45;&gt;Receiver</title>
<path fill="none" stroke="#ea9e43" d="M932.5783,-157.2825C946.3917,-133.9173 961.1364,-108.9769 971.856,-90.8447"/>
<polygon fill="#ea9e43" stroke="#ea9e43" points="932.4562,-157.4892 923.4933,-163.8072 929.9116,-161.7933 927.367,-166.0974 927.367,-166.0974 927.367,-166.0974 929.9116,-161.7933 931.2407,-168.3875 932.4562,-157.4892 932.4562,-157.4892"/>
<polygon fill="#ea9e43" stroke="#ea9e43" points="971.9794,-90.636 980.9422,-84.3179 974.5239,-86.3319 977.0685,-82.0278 977.0685,-82.0278 977.0685,-82.0278 974.5239,-86.3319 973.1948,-79.7377 971.9794,-90.636 971.9794,-90.636"/>
</g>
<!-- ActiveStorage::Variant -->
<g id="node11" class="node">
<title>ActiveStorage::Variant</title>
<polygon fill="none" stroke="#000000" points="476.2859,-1111.5 476.2859,-1155.5 620.5759,-1155.5 620.5759,-1111.5 476.2859,-1111.5"/>
<text text-anchor="middle" x="548.4309" y="-1140.3" font-family="Times,serif" font-size="14.00" fill="#000000">ActiveStorage::Variant</text>
<polyline fill="none" stroke="#000000" points="476.2859,-1133.5 620.5759,-1133.5 "/>
<text text-anchor="middle" x="548.4309" y="-1118.3" font-family="Times,serif" font-size="14.00" fill="#000000"> </text>
</g>
<!-- ActiveStorage::Filename -->
<g id="node12" class="node">
<title>ActiveStorage::Filename</title>
<polygon fill="none" stroke="#000000" points="735.4514,-1111.5 735.4514,-1155.5 891.4104,-1155.5 891.4104,-1111.5 735.4514,-1111.5"/>
<text text-anchor="middle" x="813.4309" y="-1140.3" font-family="Times,serif" font-size="14.00" fill="#000000">ActiveStorage::Filename</text>
<polyline fill="none" stroke="#000000" points="735.4514,-1133.5 891.4104,-1133.5 "/>
<text text-anchor="middle" x="813.4309" y="-1118.3" font-family="Times,serif" font-size="14.00" fill="#000000"> </text>
</g>
<!-- ActiveStorage::Variation -->
<g id="node13" class="node">
<title>ActiveStorage::Variation</title>
<polygon fill="none" stroke="#000000" points="958.841,-1111.5 958.841,-1155.5 1114.0207,-1155.5 1114.0207,-1111.5 958.841,-1111.5"/>
<text text-anchor="middle" x="1036.4309" y="-1140.3" font-family="Times,serif" font-size="14.00" fill="#000000">ActiveStorage::Variation</text>
<polyline fill="none" stroke="#000000" points="958.841,-1133.5 1114.0207,-1133.5 "/>
<text text-anchor="middle" x="1036.4309" y="-1118.3" font-family="Times,serif" font-size="14.00" fill="#000000"> </text>
</g>
<!-- ActiveStorage::Current -->
<g id="node14" class="node">
<title>ActiveStorage::Current</title>
<polygon fill="none" stroke="#000000" points="1212.1169,-798.5 1212.1169,-842.5 1358.7448,-842.5 1358.7448,-798.5 1212.1169,-798.5"/>
<text text-anchor="middle" x="1285.4309" y="-827.3" font-family="Times,serif" font-size="14.00" fill="#000000">ActiveStorage::Current</text>
<polyline fill="none" stroke="#000000" points="1212.1169,-820.5 1358.7448,-820.5 "/>
<text text-anchor="middle" x="1285.4309" y="-805.3" font-family="Times,serif" font-size="14.00" fill="#000000"> </text>
</g>
<!-- ActiveStorage::Filename::Parameters -->
<g id="node15" class="node">
<title>ActiveStorage::Filename::Parameters</title>
<polygon fill="none" stroke="#000000" points="1432.4651,-1111.5 1432.4651,-1155.5 1658.3967,-1155.5 1658.3967,-1111.5 1432.4651,-1111.5"/>
<text text-anchor="middle" x="1545.4309" y="-1140.3" font-family="Times,serif" font-size="14.00" fill="#000000">ActiveStorage::Filename::Parameters</text>
<polyline fill="none" stroke="#000000" points="1432.4651,-1133.5 1658.3967,-1133.5 "/>
<text text-anchor="middle" x="1545.4309" y="-1118.3" font-family="Times,serif" font-size="14.00" fill="#000000"> </text>
</g>
<!-- ActiveStorage::Blob::Identifiable -->
<g id="node16" class="node">
<title>ActiveStorage::Blob::Identifiable</title>
<polygon fill="none" stroke="#000000" stroke-dasharray="1,5" points="1878.5591,-1151.5 1676.3026,-1151.5 1676.3026,-1115.5 1878.5591,-1115.5 1878.5591,-1151.5"/>
<text text-anchor="middle" x="1777.4309" y="-1129.3" font-family="Times,serif" font-size="14.00" fill="#000000">ActiveStorage::Blob::Identifiable</text>
</g>
<!-- ActiveStorage::Blob::Analyzable -->
<g id="node17" class="node">
<title>ActiveStorage::Blob::Analyzable</title>
<polygon fill="none" stroke="#000000" stroke-dasharray="1,5" points="2099.5455,-1151.5 1897.3162,-1151.5 1897.3162,-1115.5 2099.5455,-1115.5 2099.5455,-1151.5"/>
<text text-anchor="middle" x="1998.4309" y="-1129.3" font-family="Times,serif" font-size="14.00" fill="#000000">ActiveStorage::Blob::Analyzable</text>
</g>
<!-- ActiveStorage::Blob::Representable -->
<g id="node18" class="node">
<title>ActiveStorage::Blob::Representable</title>
<polygon fill="none" stroke="#000000" stroke-dasharray="1,5" points="2335.597,-1151.5 2117.2648,-1151.5 2117.2648,-1115.5 2335.597,-1115.5 2335.597,-1151.5"/>
<text text-anchor="middle" x="2226.4309" y="-1129.3" font-family="Times,serif" font-size="14.00" fill="#000000">ActiveStorage::Blob::Representable</text>
</g>
<!-- ActiveStorage::Preview -->
<g id="node19" class="node">
<title>ActiveStorage::Preview</title>
<polygon fill="none" stroke="#000000" points="2353.5617,-1111.5 2353.5617,-1155.5 2503.3,-1155.5 2503.3,-1111.5 2353.5617,-1111.5"/>
<text text-anchor="middle" x="2428.4309" y="-1140.3" font-family="Times,serif" font-size="14.00" fill="#000000">ActiveStorage::Preview</text>
<polyline fill="none" stroke="#000000" points="2353.5617,-1133.5 2503.3,-1133.5 "/>
<text text-anchor="middle" x="2428.4309" y="-1118.3" font-family="Times,serif" font-size="14.00" fill="#000000"> </text>
</g>
<!-- ActiveSupport::CurrentAttributes -->
<g id="node24" class="node">
<title>ActiveSupport::CurrentAttributes</title>
<ellipse fill="none" stroke="#000000" cx="1285.4309" cy="-1133.5" rx="128.9682" ry="18"/>
<text text-anchor="middle" x="1285.4309" y="-1129.3" font-family="Times,serif" font-size="14.00" fill="#000000">ActiveSupport::CurrentAttributes</text>
</g>
<!-- ActiveSupport::CurrentAttributes&#45;&gt;ActiveStorage::Current -->
<g id="edge23" class="edge">
<title>ActiveSupport::CurrentAttributes&#45;&gt;ActiveStorage::Current</title>
<path fill="none" stroke="#000000" d="M1285.4309,-1115.3189C1285.4309,-1061.3033 1285.4309,-901.8814 1285.4309,-842.8317"/>
</g>
</g>
</svg>
