<?xml version="1.0" encoding="UTF-8" standalone="no"?>
<!DOCTYPE svg PUBLIC "-//W3C//DTD SVG 1.1//EN"
 "http://www.w3.org/Graphics/SVG/1.1/DTD/svg11.dtd">
<!-- Generated by graphviz version 2.40.1 (20161225.0304)
 -->
<!-- Title: models_diagram Pages: 1 -->
<svg width="2745pt" height="386pt"
 viewBox="0.00 0.00 2744.87 386.00" xmlns="http://www.w3.org/2000/svg" xmlns:xlink="http://www.w3.org/1999/xlink">
<g id="graph0" class="graph" transform="scale(1 1) rotate(0) translate(4 382)">
<title>models_diagram</title>
<polygon fill="transparent" stroke="transparent" points="-4,4 -4,-382 2740.8691,-382 2740.8691,4 -4,4"/>
<!-- _diagram_info -->
<g id="node1" class="node">
<title>_diagram_info</title>
<text text-anchor="start" x="74.3123" y="-363.6" font-family="Times,serif" font-size="13.00" fill="#000000">Models diagram</text>
<text text-anchor="start" x="74.3123" y="-350.6" font-family="Times,serif" font-size="13.00" fill="#000000">Date: Dec 16 2019 &#45; 20:55</text>
<text text-anchor="start" x="74.3123" y="-337.6" font-family="Times,serif" font-size="13.00" fill="#000000">Migration version: 20191216065437</text>
<text text-anchor="start" x="74.3123" y="-324.6" font-family="Times,serif" font-size="13.00" fill="#000000">Generated by RailRoady 1.5.3</text>
<text text-anchor="start" x="74.3123" y="-311.6" font-family="Times,serif" font-size="13.00" fill="#000000">http://railroady.prestonlee.com</text>
</g>
<!-- Report -->
<g id="node2" class="node">
<title>Report</title>
<ellipse fill="none" stroke="#000000" cx="196" cy="-177" rx="34.3527" ry="18"/>
<text text-anchor="middle" x="196" y="-172.8" font-family="Times,serif" font-size="14.00" fill="#000000">Report</text>
</g>
<!-- Identity -->
<g id="node3" class="node">
<title>Identity</title>
<ellipse fill="none" stroke="#000000" cx="380" cy="-177" rx="37.7266" ry="18"/>
<text text-anchor="middle" x="380" y="-172.8" font-family="Times,serif" font-size="14.00" fill="#000000">Identity</text>
</g>
<!-- Push -->
<g id="node4" class="node">
<title>Push</title>
<ellipse fill="none" stroke="#000000" cx="1069" cy="-177" rx="27.1216" ry="18"/>
<text text-anchor="middle" x="1069" y="-172.8" font-family="Times,serif" font-size="14.00" fill="#000000">Push</text>
</g>
<!-- Message -->
<g id="node5" class="node">
<title>Message</title>
<ellipse fill="none" stroke="#000000" cx="553" cy="-18" rx="41.1007" ry="18"/>
<text text-anchor="middle" x="553" y="-13.8" font-family="Times,serif" font-size="14.00" fill="#000000">Message</text>
</g>
<!-- Building -->
<g id="node6" class="node">
<title>Building</title>
<ellipse fill="none" stroke="#000000" cx="262" cy="-250" rx="41.1266" ry="18"/>
<text text-anchor="middle" x="262" y="-245.8" font-family="Times,serif" font-size="14.00" fill="#000000">Building</text>
</g>
<!-- Event -->
<g id="node9" class="node">
<title>Event</title>
<ellipse fill="none" stroke="#000000" cx="289" cy="-177" rx="30.9706" ry="18"/>
<text text-anchor="middle" x="289" y="-172.8" font-family="Times,serif" font-size="14.00" fill="#000000">Event</text>
</g>
<!-- Building&#45;&gt;Event -->
<g id="edge5" class="edge">
<title>Building&#45;&gt;Event</title>
<path fill="none" stroke="#d5ad03" d="M271.4587,-224.4266C273.8302,-218.0146 276.3851,-211.1071 278.7913,-204.6012"/>
<ellipse fill="none" stroke="#d5ad03" cx="270.0618" cy="-228.2034" rx="4" ry="4"/>
<polygon fill="#d5ad03" stroke="#d5ad03" points="278.9336,-204.2164 286.6232,-196.3984 280.6681,-199.5269 282.4026,-194.8374 282.4026,-194.8374 282.4026,-194.8374 280.6681,-199.5269 278.182,-193.2763 278.9336,-204.2164 278.9336,-204.2164"/>
</g>
<!-- AdminUser -->
<g id="node7" class="node">
<title>AdminUser</title>
<ellipse fill="none" stroke="#000000" cx="448" cy="-250" rx="51.2415" ry="18"/>
<text text-anchor="middle" x="448" y="-245.8" font-family="Times,serif" font-size="14.00" fill="#000000">AdminUser</text>
</g>
<!-- ApplicationRecord -->
<g id="node8" class="node">
<title>ApplicationRecord</title>
<ellipse fill="none" stroke="#000000" cx="369" cy="-341.5" rx="77.2916" ry="18"/>
<text text-anchor="middle" x="369" y="-337.3" font-family="Times,serif" font-size="14.00" fill="#000000">ApplicationRecord</text>
</g>
<!-- ApplicationRecord&#45;&gt;Report -->
<g id="edge1" class="edge">
<title>ApplicationRecord&#45;&gt;Report</title>
<path fill="none" stroke="#000000" d="M332.6081,-325.4797C287.4887,-305.4692 215.9911,-273.2121 212,-268 195.8111,-246.8584 193.8896,-214.8719 194.5395,-194.9945"/>
</g>
<!-- ApplicationRecord&#45;&gt;Identity -->
<g id="edge2" class="edge">
<title>ApplicationRecord&#45;&gt;Identity</title>
<path fill="none" stroke="#000000" d="M370.2192,-323.2671C372.3392,-291.5632 376.68,-226.6493 378.7921,-195.0639"/>
</g>
<!-- ApplicationRecord&#45;&gt;Push -->
<g id="edge3" class="edge">
<title>ApplicationRecord&#45;&gt;Push</title>
<path fill="none" stroke="#000000" d="M401.1772,-324.9383C417.2211,-317.4824 437.176,-309.3849 456,-305 522.2399,-289.57 1019.8422,-317.0096 1067,-268 1085.517,-248.7559 1080.4574,-215.2616 1074.8798,-194.7186"/>
</g>
<!-- ApplicationRecord&#45;&gt;Message -->
<g id="edge4" class="edge">
<title>ApplicationRecord&#45;&gt;Message</title>
<path fill="none" stroke="#000000" d="M335.2952,-325.2571C319.6708,-318.2346 300.6827,-310.4054 283,-305 221.7331,-286.2715 0,-314.0656 0,-250 0,-250 0,-250 0,-91 0,-39.3723 383.7278,-23.1023 511.8869,-19.1081"/>
</g>
<!-- ApplicationRecord&#45;&gt;Building -->
<g id="edge6" class="edge">
<title>ApplicationRecord&#45;&gt;Building</title>
<path fill="none" stroke="#000000" d="M348.6223,-324.0742C329.0978,-307.378 299.8704,-282.3845 280.8668,-266.1338"/>
</g>
<!-- ApplicationRecord&#45;&gt;AdminUser -->
<g id="edge7" class="edge">
<title>ApplicationRecord&#45;&gt;AdminUser</title>
<path fill="none" stroke="#000000" d="M384.6079,-323.4225C398.6375,-307.173 419.1084,-283.463 432.9606,-267.4191"/>
</g>
<!-- ApplicationRecord&#45;&gt;Event -->
<g id="edge13" class="edge">
<title>ApplicationRecord&#45;&gt;Event</title>
<path fill="none" stroke="#000000" d="M360.2863,-323.5825C344.8166,-291.7729 312.7487,-225.8332 297.4615,-194.3989"/>
</g>
<!-- User -->
<g id="node10" class="node">
<title>User</title>
<ellipse fill="none" stroke="#000000" cx="544" cy="-250" rx="27" ry="18"/>
<text text-anchor="middle" x="544" y="-245.8" font-family="Times,serif" font-size="14.00" fill="#000000">User</text>
</g>
<!-- ApplicationRecord&#45;&gt;User -->
<g id="edge26" class="edge">
<title>ApplicationRecord&#45;&gt;User</title>
<path fill="none" stroke="#000000" d="M400.6912,-324.93C436.0514,-306.4417 492.2811,-277.0416 522.7295,-261.1214"/>
</g>
<!-- Chatroom -->
<g id="node11" class="node">
<title>Chatroom</title>
<ellipse fill="none" stroke="#000000" cx="801" cy="-91" rx="45.4527" ry="18"/>
<text text-anchor="middle" x="801" y="-86.8" font-family="Times,serif" font-size="14.00" fill="#000000">Chatroom</text>
</g>
<!-- ApplicationRecord&#45;&gt;Chatroom -->
<g id="edge30" class="edge">
<title>ApplicationRecord&#45;&gt;Chatroom</title>
<path fill="none" stroke="#000000" d="M400.7169,-324.8915C416.8165,-317.3256 436.9546,-309.1471 456,-305 524.7319,-290.0337 1039.9945,-319.4153 1088,-268 1121.4608,-232.1625 1135.6528,-197.2669 1105,-159 1073.0061,-119.059 922.1791,-101.0092 845.7002,-94.312"/>
</g>
<!-- Event&#45;&gt;Chatroom -->
<g id="edge8" class="edge">
<title>Event&#45;&gt;Chatroom</title>
<path fill="none" stroke="#7e7cf9" d="M320.821,-162.6098C324.8589,-161.1935 328.9837,-159.9367 333,-159 444.5097,-132.994 479.5487,-171.1865 590,-141 603.4211,-137.332 604.8327,-131.4946 618,-127 661.0185,-112.3158 711.8868,-102.9108 749.0596,-97.4108"/>
<ellipse fill="none" stroke="#7e7cf9" cx="316.9555" cy="-164.0722" rx="4" ry="4"/>
<ellipse fill="#7e7cf9" stroke="#7e7cf9" cx="753.2904" cy="-96.8005" rx="4" ry="4"/>
</g>
<!-- ActsAsTaggableOn::Tagging -->
<g id="node23" class="node">
<title>ActsAsTaggableOn::Tagging</title>
<ellipse fill="none" stroke="#000000" cx="353" cy="-91" rx="113.0056" ry="18"/>
<text text-anchor="middle" x="353" y="-86.8" font-family="Times,serif" font-size="14.00" fill="#000000">ActsAsTaggableOn::Tagging</text>
</g>
<!-- Event&#45;&gt;ActsAsTaggableOn::Tagging -->
<g id="edge9" class="edge">
<title>Event&#45;&gt;ActsAsTaggableOn::Tagging</title>
<path fill="none" stroke="#9b7f7b" d="M280.1771,-151.214C278.8804,-142.9846 279.2039,-134.1627 283.5586,-127 286.8456,-121.5935 291.2364,-116.9626 296.2203,-113.0039"/>
<ellipse fill="none" stroke="#9b7f7b" cx="281.0657" cy="-155.256" rx="4" ry="4"/>
<polygon fill="#9b7f7b" stroke="#9b7f7b" points="296.2326,-112.9955 307.0204,-111.0271 300.3498,-110.1585 304.4671,-107.3216 304.4671,-107.3216 304.4671,-107.3216 300.3498,-110.1585 301.9139,-103.616 296.2326,-112.9955 296.2326,-112.9955"/>
<text text-anchor="middle" x="307.7207" y="-129.8" font-family="Times,serif" font-size="14.00" fill="#000000">taggings</text>
</g>
<!-- Event&#45;&gt;ActsAsTaggableOn::Tagging -->
<g id="edge11" class="edge">
<title>Event&#45;&gt;ActsAsTaggableOn::Tagging</title>
<path fill="none" stroke="#4c1cbb" d="M314.9178,-157.967C320.7036,-152.8993 326.4614,-147.1171 331,-141 336.0064,-134.2525 340.1825,-126.187 343.5034,-118.5239"/>
<ellipse fill="none" stroke="#4c1cbb" cx="311.7563" cy="-160.6049" rx="4" ry="4"/>
<polygon fill="#4c1cbb" stroke="#4c1cbb" points="343.5345,-118.4458 351.4283,-110.8341 345.3925,-113.8039 347.2506,-109.1619 347.2506,-109.1619 347.2506,-109.1619 345.3925,-113.8039 343.0728,-107.4897 343.5345,-118.4458 343.5345,-118.4458"/>
<text text-anchor="middle" x="374.7725" y="-129.8" font-family="Times,serif" font-size="14.00" fill="#000000">tag_taggings</text>
</g>
<!-- ActsAsTaggableOn::Tag -->
<g id="node24" class="node">
<title>ActsAsTaggableOn::Tag</title>
<ellipse fill="none" stroke="#000000" cx="125" cy="-91" rx="97.0617" ry="18"/>
<text text-anchor="middle" x="125" y="-86.8" font-family="Times,serif" font-size="14.00" fill="#000000">ActsAsTaggableOn::Tag</text>
</g>
<!-- Event&#45;&gt;ActsAsTaggableOn::Tag -->
<g id="edge10" class="edge">
<title>Event&#45;&gt;ActsAsTaggableOn::Tag</title>
<path fill="none" stroke="#aa577a" d="M256.6696,-160.0463C230.9297,-146.5485 194.7129,-127.5568 166.776,-112.9069"/>
<polygon fill="#aa577a" stroke="#aa577a" points="256.9944,-160.2165 263.7608,-168.846 261.4225,-162.5386 265.8506,-164.8607 265.8506,-164.8607 265.8506,-164.8607 261.4225,-162.5386 267.9405,-160.8754 256.9944,-160.2165 256.9944,-160.2165"/>
<polygon fill="#aa577a" stroke="#aa577a" points="166.5025,-112.7636 159.7362,-104.1341 162.0744,-110.4415 157.6463,-108.1194 157.6463,-108.1194 157.6463,-108.1194 162.0744,-110.4415 155.5564,-112.1047 166.5025,-112.7636 166.5025,-112.7636"/>
<text text-anchor="middle" x="244.2139" y="-129.8" font-family="Times,serif" font-size="14.00" fill="#000000">base_tags</text>
</g>
<!-- Event&#45;&gt;ActsAsTaggableOn::Tag -->
<g id="edge12" class="edge">
<title>Event&#45;&gt;ActsAsTaggableOn::Tag</title>
<path fill="none" stroke="#8c9350" d="M253.3033,-163.7325C248.5159,-162.0757 243.6533,-160.4546 239,-159 209.3447,-149.7295 198.0768,-157.0094 171.4482,-141 161.1861,-134.8303 151.7875,-125.7395 144.1701,-116.9955"/>
<polygon fill="#8c9350" stroke="#8c9350" points="253.5063,-163.8044 261.4312,-171.3837 258.2197,-165.473 262.933,-167.1417 262.933,-167.1417 262.933,-167.1417 258.2197,-165.473 264.4348,-162.8997 253.5063,-163.8044 253.5063,-163.8044"/>
<polygon fill="#8c9350" stroke="#8c9350" points="144.0663,-116.8696 141.1725,-106.2924 140.8839,-113.0131 137.7016,-109.1565 137.7016,-109.1565 137.7016,-109.1565 140.8839,-113.0131 134.2307,-112.0206 144.0663,-116.8696 144.0663,-116.8696"/>
<text text-anchor="middle" x="183.2759" y="-129.8" font-family="Times,serif" font-size="14.00" fill="#000000">tags</text>
</g>
<!-- User&#45;&gt;Report -->
<g id="edge25" class="edge">
<title>User&#45;&gt;Report</title>
<path fill="none" stroke="#fd8cdf" d="M515.658,-234.7945C513.1099,-233.745 510.5345,-232.7917 508,-232 452.5047,-214.6646 305.5466,-208.5176 249,-195 243.9318,-193.7884 238.6613,-192.2946 233.4956,-190.69"/>
<ellipse fill="none" stroke="#fd8cdf" cx="519.505" cy="-236.5249" rx="4" ry="4"/>
<polygon fill="#fd8cdf" stroke="#fd8cdf" points="233.2773,-190.6187 225.1696,-183.2352 228.5246,-189.0657 223.7719,-187.5126 223.7719,-187.5126 223.7719,-187.5126 228.5246,-189.0657 222.3741,-191.7901 233.2773,-190.6187 233.2773,-190.6187"/>
</g>
<!-- User&#45;&gt;Identity -->
<g id="edge14" class="edge">
<title>User&#45;&gt;Identity</title>
<path fill="none" stroke="#fe6d25" d="M515.5619,-235.0762C513.0347,-233.9656 510.4904,-232.9213 508,-232 477.064,-220.556 466.1926,-227.2818 436,-214 426.5004,-209.8211 416.8327,-204.0716 408.2636,-198.3501"/>
<ellipse fill="none" stroke="#fe6d25" cx="519.3958" cy="-236.8615" rx="4" ry="4"/>
<polygon fill="#fe6d25" stroke="#fe6d25" points="407.9996,-198.1669 402.3504,-188.7681 403.8921,-195.3159 399.7845,-192.4649 399.7845,-192.4649 399.7845,-192.4649 403.8921,-195.3159 397.2186,-196.1617 407.9996,-198.1669 407.9996,-198.1669"/>
</g>
<!-- User&#45;&gt;Push -->
<g id="edge24" class="edge">
<title>User&#45;&gt;Push</title>
<path fill="none" stroke="#b4692d" d="M579.0958,-246.6852C641.3689,-240.7237 775.2562,-227.5466 888,-214 950.3442,-206.5091 967.5547,-212.0082 1028,-195 1031.143,-194.1156 1034.3582,-193.0369 1037.5374,-191.8515"/>
<ellipse fill="none" stroke="#b4692d" cx="574.7757" cy="-247.0976" rx="4" ry="4"/>
<polygon fill="#b4692d" stroke="#b4692d" points="1037.5948,-191.8282 1048.5533,-192.2313 1042.2268,-189.9454 1046.8587,-188.0625 1046.8587,-188.0625 1046.8587,-188.0625 1042.2268,-189.9454 1045.1641,-183.8938 1037.5948,-191.8282 1037.5948,-191.8282"/>
</g>
<!-- User&#45;&gt;Message -->
<g id="edge20" class="edge">
<title>User&#45;&gt;Message</title>
<path fill="none" stroke="#ba3ab8" d="M520.3525,-230.2079C495.4918,-206.8416 461.6039,-166.1866 474.2754,-127 484.9745,-93.9128 509.8794,-62.4237 528.8342,-41.8768"/>
<ellipse fill="none" stroke="#ba3ab8" cx="523.4893" cy="-233.069" rx="4" ry="4"/>
<polygon fill="#ba3ab8" stroke="#ba3ab8" points="528.8896,-41.8182 539.0329,-37.6513 532.3275,-38.1877 535.7654,-34.5572 535.7654,-34.5572 535.7654,-34.5572 532.3275,-38.1877 532.498,-31.463 528.8896,-41.8182 528.8896,-41.8182"/>
<text text-anchor="middle" x="545.3623" y="-129.8" font-family="Times,serif" font-size="14.00" fill="#000000">message_sender_relation</text>
</g>
<!-- User&#45;&gt;Message -->
<g id="edge22" class="edge">
<title>User&#45;&gt;Message</title>
<path fill="none" stroke="#44f2cc" d="M563.7126,-228.2397C581.046,-207.5233 605.0217,-174.601 615,-141 625.8258,-104.5452 599.278,-65.9186 577.611,-41.8853"/>
<ellipse fill="none" stroke="#44f2cc" cx="560.943" cy="-231.4812" rx="4" ry="4"/>
<polygon fill="#44f2cc" stroke="#44f2cc" points="577.3537,-41.6111 573.7929,-31.2394 573.9325,-37.9648 570.5112,-34.3185 570.5112,-34.3185 570.5112,-34.3185 573.9325,-37.9648 567.2296,-37.3976 577.3537,-41.6111 577.3537,-41.6111"/>
<text text-anchor="middle" x="692.6279" y="-129.8" font-family="Times,serif" font-size="14.00" fill="#000000">message_receiver_relation</text>
</g>
<!-- User&#45;&gt;Event -->
<g id="edge15" class="edge">
<title>User&#45;&gt;Event</title>
<path fill="none" stroke="#c4adf3" d="M515.5977,-234.9767C513.0627,-233.8877 510.5068,-232.8755 508,-232 470.4742,-218.8942 370.9927,-206.6834 333,-195 329.8445,-194.0296 326.6008,-192.923 323.3737,-191.7465"/>
<ellipse fill="none" stroke="#c4adf3" cx="519.4368" cy="-236.7427" rx="4" ry="4"/>
<polygon fill="#c4adf3" stroke="#c4adf3" points="323.1767,-191.6706 315.4649,-183.8745 318.5114,-189.8719 313.8461,-188.0733 313.8461,-188.0733 313.8461,-188.0733 318.5114,-189.8719 312.2273,-192.272 323.1767,-191.6706 323.1767,-191.6706"/>
</g>
<!-- User&#45;&gt;User -->
<g id="edge17" class="edge">
<title>User&#45;&gt;User</title>
<path fill="none" stroke="#6c24e8" d="M581.5105,-251.4545C586.0382,-251.1918 589,-250.707 589,-250 589,-249.293 586.0382,-248.8082 581.5105,-248.5455"/>
<polygon fill="#6c24e8" stroke="#6c24e8" points="581.2382,-251.4605 571.1394,-247.187 576.2395,-251.5732 571.2408,-251.6859 571.2408,-251.6859 571.2408,-251.6859 576.2395,-251.5732 571.3422,-256.1847 581.2382,-251.4605 581.2382,-251.4605"/>
<polygon fill="#6c24e8" stroke="#6c24e8" points="581.2382,-248.5395 571.3422,-243.8153 576.2395,-248.4268 571.2408,-248.3141 571.2408,-248.3141 571.2408,-248.3141 576.2395,-248.4268 571.1394,-252.813 581.2382,-248.5395 581.2382,-248.5395"/>
<text text-anchor="middle" x="641.8726" y="-245.8" font-family="Times,serif" font-size="14.00" fill="#000000">request_chatrooms</text>
</g>
<!-- User&#45;&gt;User -->
<g id="edge19" class="edge">
<title>User&#45;&gt;User</title>
<path fill="none" stroke="#2e7a3f" d="M581.0758,-252.6928C626.5869,-254.1592 694.7451,-253.2616 694.7451,-250 694.7451,-246.7384 626.5869,-245.8408 581.0758,-247.3072"/>
<polygon fill="#2e7a3f" stroke="#2e7a3f" points="580.8885,-252.6858 571.0661,-247.8104 575.8921,-252.4965 570.8957,-252.3071 570.8957,-252.3071 570.8957,-252.3071 575.8921,-252.4965 570.7253,-256.8039 580.8885,-252.6858 580.8885,-252.6858"/>
<polygon fill="#2e7a3f" stroke="#2e7a3f" points="580.8885,-247.3142 570.7253,-243.1961 575.8921,-247.5035 570.8957,-247.6929 570.8957,-247.6929 570.8957,-247.6929 575.8921,-247.5035 571.0661,-252.1896 580.8885,-247.3142 580.8885,-247.3142"/>
<text text-anchor="middle" x="749.9487" y="-245.8" font-family="Times,serif" font-size="14.00" fill="#000000">perform_chatrooms</text>
</g>
<!-- User&#45;&gt;User -->
<g id="edge21" class="edge">
<title>User&#45;&gt;User</title>
<path fill="none" stroke="#a1602d" d="M581.3962,-253.2342C655.1164,-256.4813 805.1523,-255.4032 805.1523,-250 805.1523,-244.5968 655.1164,-243.5187 581.3962,-246.7658"/>
<polygon fill="#a1602d" stroke="#a1602d" points="581.0879,-253.219 571.323,-248.2293 576.094,-252.9714 571.1002,-252.7238 571.1002,-252.7238 571.1002,-252.7238 576.094,-252.9714 570.8773,-257.2182 581.0879,-253.219 581.0879,-253.219"/>
<polygon fill="#a1602d" stroke="#a1602d" points="581.0879,-246.781 570.8773,-242.7818 576.094,-247.0286 571.1002,-247.2762 571.1002,-247.2762 571.1002,-247.2762 576.094,-247.0286 571.323,-251.7707 581.0879,-246.781 581.0879,-246.781"/>
<text text-anchor="middle" x="853.3594" y="-245.8" font-family="Times,serif" font-size="14.00" fill="#000000">sender_messages</text>
</g>
<!-- User&#45;&gt;User -->
<g id="edge23" class="edge">
<title>User&#45;&gt;User</title>
<path fill="none" stroke="#c00ec0" d="M581.062,-253.7028C674.757,-258.7578 901.5664,-257.5235 901.5664,-250 901.5664,-242.4765 674.757,-241.2422 581.062,-246.2972"/>
<polygon fill="#c00ec0" stroke="#c00ec0" points="580.8249,-253.6887 571.1121,-248.5984 575.8339,-253.3895 570.8428,-253.0903 570.8428,-253.0903 570.8428,-253.0903 575.8339,-253.3895 570.5736,-257.5822 580.8249,-253.6887 580.8249,-253.6887"/>
<polygon fill="#c00ec0" stroke="#c00ec0" points="580.8249,-246.3113 570.5736,-242.4178 575.8339,-246.6105 570.8428,-246.9097 570.8428,-246.9097 570.8428,-246.9097 575.8339,-246.6105 571.1121,-251.4016 580.8249,-246.3113 580.8249,-246.3113"/>
<text text-anchor="middle" x="954.0391" y="-245.8" font-family="Times,serif" font-size="14.00" fill="#000000">receiver_messages</text>
</g>
<!-- User&#45;&gt;Chatroom -->
<g id="edge16" class="edge">
<title>User&#45;&gt;Chatroom</title>
<path fill="none" stroke="#41c985" d="M579.4391,-248.9067C651.0357,-245.8735 808.931,-234.7308 842,-195 861.2406,-171.8833 842.1625,-138.6436 824.1073,-116.0077"/>
<ellipse fill="none" stroke="#41c985" cx="575.1467" cy="-249.0781" rx="4" ry="4"/>
<polygon fill="#41c985" stroke="#41c985" points="823.9851,-115.8614 821.0283,-105.3016 820.7798,-112.0239 817.5745,-108.1864 817.5745,-108.1864 817.5745,-108.1864 820.7798,-112.0239 814.1208,-111.0711 823.9851,-115.8614 823.9851,-115.8614"/>
<text text-anchor="middle" x="926.0278" y="-172.8" font-family="Times,serif" font-size="14.00" fill="#000000">chatroom_request_relation</text>
</g>
<!-- User&#45;&gt;Chatroom -->
<g id="edge18" class="edge">
<title>User&#45;&gt;Chatroom</title>
<path fill="none" stroke="#97e7aa" d="M578.7216,-244.7933C601.2937,-239.9534 630.2715,-230.841 651,-214 672.9987,-196.127 659.9842,-175.1428 683.2822,-159 721.7388,-132.3541 752.2869,-172.3675 787,-141 793.2076,-135.3907 796.7542,-127.2766 798.7535,-119.2112"/>
<ellipse fill="none" stroke="#97e7aa" cx="574.6452" cy="-245.6067" rx="4" ry="4"/>
<polygon fill="#97e7aa" stroke="#97e7aa" points="798.781,-119.0571 804.9717,-110.0059 799.6615,-114.1352 800.5421,-109.2134 800.5421,-109.2134 800.5421,-109.2134 799.6615,-114.1352 796.1124,-108.4209 798.781,-119.0571 798.781,-119.0571"/>
<text text-anchor="middle" x="761.3589" y="-172.8" font-family="Times,serif" font-size="14.00" fill="#000000">chatroom_perform_relation</text>
</g>
<!-- Chatroom&#45;&gt;Message -->
<g id="edge27" class="edge">
<title>Chatroom&#45;&gt;Message</title>
<path fill="none" stroke="#ea5e6f" d="M756.5785,-77.9243C711.4878,-64.6516 642.0884,-44.2236 597.11,-30.984"/>
<ellipse fill="none" stroke="#ea5e6f" cx="760.5695" cy="-79.0991" rx="4" ry="4"/>
<polygon fill="#ea5e6f" stroke="#ea5e6f" points="596.938,-30.9334 588.6156,-23.7927 592.1414,-29.5215 587.3449,-28.1096 587.3449,-28.1096 587.3449,-28.1096 592.1414,-29.5215 586.0742,-32.4265 596.938,-30.9334 596.938,-30.9334"/>
</g>
<!-- Sender -->
<g id="node25" class="node">
<title>Sender</title>
<ellipse fill="none" stroke="#000000" cx="754" cy="-18" rx="34.8285" ry="18"/>
<text text-anchor="middle" x="754" y="-13.8" font-family="Times,serif" font-size="14.00" fill="#000000">Sender</text>
</g>
<!-- Chatroom&#45;&gt;Sender -->
<g id="edge28" class="edge">
<title>Chatroom&#45;&gt;Sender</title>
<path fill="none" stroke="#2db6c7" d="M784.1209,-64.7835C779.8158,-58.0969 775.188,-50.9091 770.8828,-44.2222"/>
<polygon fill="#2db6c7" stroke="#2db6c7" points="784.2092,-64.9207 785.839,-75.7648 786.9159,-69.1247 789.6226,-73.3287 789.6226,-73.3287 789.6226,-73.3287 786.9159,-69.1247 793.4062,-70.8927 784.2092,-64.9207 784.2092,-64.9207"/>
<polygon fill="#2db6c7" stroke="#2db6c7" points="770.6861,-43.9166 769.0562,-33.0725 767.9793,-39.7126 765.2726,-35.5085 765.2726,-35.5085 765.2726,-35.5085 767.9793,-39.7126 761.489,-37.9446 770.6861,-43.9166 770.6861,-43.9166"/>
</g>
<!-- Receiver -->
<g id="node26" class="node">
<title>Receiver</title>
<ellipse fill="none" stroke="#000000" cx="848" cy="-18" rx="41.5593" ry="18"/>
<text text-anchor="middle" x="848" y="-13.8" font-family="Times,serif" font-size="14.00" fill="#000000">Receiver</text>
</g>
<!-- Chatroom&#45;&gt;Receiver -->
<g id="edge29" class="edge">
<title>Chatroom&#45;&gt;Receiver</title>
<path fill="none" stroke="#e5039b" d="M817.8791,-64.7835C822.1842,-58.0969 826.812,-50.9091 831.1172,-44.2222"/>
<polygon fill="#e5039b" stroke="#e5039b" points="817.7908,-64.9207 808.5938,-70.8927 815.0841,-69.1247 812.3774,-73.3287 812.3774,-73.3287 812.3774,-73.3287 815.0841,-69.1247 816.161,-75.7648 817.7908,-64.9207 817.7908,-64.9207"/>
<polygon fill="#e5039b" stroke="#e5039b" points="831.3139,-43.9166 840.511,-37.9446 834.0207,-39.7126 836.7274,-35.5085 836.7274,-35.5085 836.7274,-35.5085 834.0207,-39.7126 832.9438,-33.0725 831.3139,-43.9166 831.3139,-43.9166"/>
</g>
<!-- ActiveStorage::Variant -->
<g id="node12" class="node">
<title>ActiveStorage::Variant</title>
<polygon fill="none" stroke="#000000" points="609.2903,-359.5 464.7097,-359.5 464.7097,-323.5 609.2903,-323.5 609.2903,-359.5"/>
<text text-anchor="middle" x="537" y="-337.3" font-family="Times,serif" font-size="14.00" fill="#000000">ActiveStorage::Variant</text>
</g>
<!-- ActiveStorage::Blob -->
<g id="node13" class="node">
<title>ActiveStorage::Blob</title>
<ellipse fill="none" stroke="#000000" cx="710" cy="-341.5" rx="82.6131" ry="18"/>
<text text-anchor="middle" x="710" y="-337.3" font-family="Times,serif" font-size="14.00" fill="#000000">ActiveStorage::Blob</text>
</g>
<!-- ActiveStorage::Filename -->
<g id="node14" class="node">
<title>ActiveStorage::Filename</title>
<polygon fill="none" stroke="#000000" points="966.959,-359.5 811.041,-359.5 811.041,-323.5 966.959,-323.5 966.959,-359.5"/>
<text text-anchor="middle" x="889" y="-337.3" font-family="Times,serif" font-size="14.00" fill="#000000">ActiveStorage::Filename</text>
</g>
<!-- ActiveStorage::Variation -->
<g id="node15" class="node">
<title>ActiveStorage::Variation</title>
<polygon fill="none" stroke="#000000" points="1140.6798,-359.5 985.3202,-359.5 985.3202,-323.5 1140.6798,-323.5 1140.6798,-359.5"/>
<text text-anchor="middle" x="1063" y="-337.3" font-family="Times,serif" font-size="14.00" fill="#000000">ActiveStorage::Variation</text>
</g>
<!-- ActiveStorage::Attachment -->
<g id="node16" class="node">
<title>ActiveStorage::Attachment</title>
<ellipse fill="none" stroke="#000000" cx="1265" cy="-341.5" rx="106.7251" ry="18"/>
<text text-anchor="middle" x="1265" y="-337.3" font-family="Times,serif" font-size="14.00" fill="#000000">ActiveStorage::Attachment</text>
</g>
<!-- ActiveStorage::Current -->
<g id="node17" class="node">
<title>ActiveStorage::Current</title>
<polygon fill="none" stroke="#000000" points="1592.1284,-268 1445.8716,-268 1445.8716,-232 1592.1284,-232 1592.1284,-268"/>
<text text-anchor="middle" x="1519" y="-245.8" font-family="Times,serif" font-size="14.00" fill="#000000">ActiveStorage::Current</text>
</g>
<!-- ActiveStorage::Filename::Parameters -->
<g id="node18" class="node">
<title>ActiveStorage::Filename::Parameters</title>
<polygon fill="none" stroke="#000000" points="1891.9317,-359.5 1666.0683,-359.5 1666.0683,-323.5 1891.9317,-323.5 1891.9317,-359.5"/>
<text text-anchor="middle" x="1779" y="-337.3" font-family="Times,serif" font-size="14.00" fill="#000000">ActiveStorage::Filename::Parameters</text>
</g>
<!-- ActiveStorage::Blob::Identifiable -->
<g id="node19" class="node">
<title>ActiveStorage::Blob::Identifiable</title>
<polygon fill="none" stroke="#000000" stroke-dasharray="1,5" points="2112.1283,-359.5 1909.8717,-359.5 1909.8717,-323.5 2112.1283,-323.5 2112.1283,-359.5"/>
<text text-anchor="middle" x="2011" y="-337.3" font-family="Times,serif" font-size="14.00" fill="#000000">ActiveStorage::Blob::Identifiable</text>
</g>
<!-- ActiveStorage::Blob::Analyzable -->
<g id="node20" class="node">
<title>ActiveStorage::Blob::Analyzable</title>
<polygon fill="none" stroke="#000000" stroke-dasharray="1,5" points="2333.1146,-359.5 2130.8854,-359.5 2130.8854,-323.5 2333.1146,-323.5 2333.1146,-359.5"/>
<text text-anchor="middle" x="2232" y="-337.3" font-family="Times,serif" font-size="14.00" fill="#000000">ActiveStorage::Blob::Analyzable</text>
</g>
<!-- ActiveStorage::Blob::Representable -->
<g id="node21" class="node">
<title>ActiveStorage::Blob::Representable</title>
<polygon fill="none" stroke="#000000" stroke-dasharray="1,5" points="2569.1661,-359.5 2350.8339,-359.5 2350.8339,-323.5 2569.1661,-323.5 2569.1661,-359.5"/>
<text text-anchor="middle" x="2460" y="-337.3" font-family="Times,serif" font-size="14.00" fill="#000000">ActiveStorage::Blob::Representable</text>
</g>
<!-- ActiveStorage::Preview -->
<g id="node22" class="node">
<title>ActiveStorage::Preview</title>
<polygon fill="none" stroke="#000000" points="2736.7385,-359.5 2587.2615,-359.5 2587.2615,-323.5 2736.7385,-323.5 2736.7385,-359.5"/>
<text text-anchor="middle" x="2662" y="-337.3" font-family="Times,serif" font-size="14.00" fill="#000000">ActiveStorage::Preview</text>
</g>
<!-- ActiveSupport::CurrentAttributes -->
<g id="node27" class="node">
<title>ActiveSupport::CurrentAttributes</title>
<ellipse fill="none" stroke="#000000" cx="1519" cy="-341.5" rx="128.9682" ry="18"/>
<text text-anchor="middle" x="1519" y="-337.3" font-family="Times,serif" font-size="14.00" fill="#000000">ActiveSupport::CurrentAttributes</text>
</g>
<!-- ActiveSupport::CurrentAttributes&#45;&gt;ActiveStorage::Current -->
<g id="edge31" class="edge">
<title>ActiveSupport::CurrentAttributes&#45;&gt;ActiveStorage::Current</title>
<path fill="none" stroke="#000000" d="M1519,-323.4225C1519,-307.3813 1519,-284.0697 1519,-268.0399"/>
</g>
</g>
</svg>
