<?xml version="1.0" encoding="UTF-8" standalone="no"?>
<!DOCTYPE svg PUBLIC "-//W3C//DTD SVG 1.1//EN"
 "http://www.w3.org/Graphics/SVG/1.1/DTD/svg11.dtd">
<!-- Generated by graphviz version 2.40.1 (20161225.0304)
 -->
<!-- Title: models_diagram Pages: 1 -->
<svg width="2678pt" height="472pt"
 viewBox="0.00 0.00 2678.08 472.00" xmlns="http://www.w3.org/2000/svg" xmlns:xlink="http://www.w3.org/1999/xlink">
<g id="graph0" class="graph" transform="scale(1 1) rotate(0) translate(4 468)">
<title>models_diagram</title>
<polygon fill="transparent" stroke="transparent" points="-4,4 -4,-468 2674.0808,-468 2674.0808,4 -4,4"/>
<!-- _diagram_info -->
<g id="node1" class="node">
<title>_diagram_info</title>
<text text-anchor="start" x="8" y="-449.6" font-family="Times,serif" font-size="13.00" fill="#000000">Models diagram</text>
<text text-anchor="start" x="8" y="-436.6" font-family="Times,serif" font-size="13.00" fill="#000000">Date: Nov 18 2019 &#45; 14:16</text>
<text text-anchor="start" x="8" y="-423.6" font-family="Times,serif" font-size="13.00" fill="#000000">Migration version: 20191114143358</text>
<text text-anchor="start" x="8" y="-410.6" font-family="Times,serif" font-size="13.00" fill="#000000">Generated by RailRoady 1.5.3</text>
<text text-anchor="start" x="8" y="-397.6" font-family="Times,serif" font-size="13.00" fill="#000000">http://railroady.prestonlee.com</text>
</g>
<!-- Report -->
<g id="node2" class="node">
<title>Report</title>
<ellipse fill="none" stroke="#000000" cx="70.2117" cy="-336" rx="34.3527" ry="18"/>
<text text-anchor="middle" x="70.2117" y="-331.8" font-family="Times,serif" font-size="14.00" fill="#000000">Report</text>
</g>
<!-- Push -->
<g id="node3" class="node">
<title>Push</title>
<ellipse fill="none" stroke="#000000" cx="149.2117" cy="-336" rx="27.1216" ry="18"/>
<text text-anchor="middle" x="149.2117" y="-331.8" font-family="Times,serif" font-size="14.00" fill="#000000">Push</text>
</g>
<!-- Message -->
<g id="node4" class="node">
<title>Message</title>
<ellipse fill="none" stroke="#000000" cx="244.2117" cy="-18" rx="41.1007" ry="18"/>
<text text-anchor="middle" x="244.2117" y="-13.8" font-family="Times,serif" font-size="14.00" fill="#000000">Message</text>
</g>
<!-- Building -->
<g id="node5" class="node">
<title>Building</title>
<ellipse fill="none" stroke="#000000" cx="350.2117" cy="-336" rx="41.1266" ry="18"/>
<text text-anchor="middle" x="350.2117" y="-331.8" font-family="Times,serif" font-size="14.00" fill="#000000">Building</text>
</g>
<!-- Event -->
<g id="node8" class="node">
<title>Event</title>
<ellipse fill="none" stroke="#000000" cx="467.2117" cy="-263" rx="30.9706" ry="18"/>
<text text-anchor="middle" x="467.2117" y="-258.8" font-family="Times,serif" font-size="14.00" fill="#000000">Event</text>
</g>
<!-- Building&#45;&gt;Event -->
<g id="edge4" class="edge">
<title>Building&#45;&gt;Event</title>
<path fill="none" stroke="#26ca7a" d="M379.337,-316.3542C387.9337,-310.6649 397.4005,-304.5059 406.2117,-299 415.8531,-292.9753 426.4865,-286.6068 436.138,-280.9287"/>
<ellipse fill="none" stroke="#26ca7a" cx="375.9891" cy="-318.58" rx="4" ry="4"/>
<polygon fill="#26ca7a" stroke="#26ca7a" points="436.3943,-280.7789 447.2982,-279.6144 440.7103,-278.2544 445.0262,-275.73 445.0262,-275.73 445.0262,-275.73 440.7103,-278.2544 442.7542,-271.8456 436.3943,-280.7789 436.3943,-280.7789"/>
</g>
<!-- AdminUser -->
<g id="node6" class="node">
<title>AdminUser</title>
<ellipse fill="none" stroke="#000000" cx="923.2117" cy="-336" rx="51.2415" ry="18"/>
<text text-anchor="middle" x="923.2117" y="-331.8" font-family="Times,serif" font-size="14.00" fill="#000000">AdminUser</text>
</g>
<!-- ApplicationRecord -->
<g id="node7" class="node">
<title>ApplicationRecord</title>
<ellipse fill="none" stroke="#000000" cx="302.2117" cy="-427.5" rx="77.2916" ry="18"/>
<text text-anchor="middle" x="302.2117" y="-423.3" font-family="Times,serif" font-size="14.00" fill="#000000">ApplicationRecord</text>
</g>
<!-- ApplicationRecord&#45;&gt;Report -->
<g id="edge1" class="edge">
<title>ApplicationRecord&#45;&gt;Report</title>
<path fill="none" stroke="#000000" d="M265.546,-411.6457C250.0808,-405.0815 231.8403,-397.4996 215.2117,-391 170.297,-373.4442 158.1333,-371.5379 113.2117,-354 107.9345,-351.9397 102.3283,-349.6604 96.9675,-347.4357"/>
</g>
<!-- ApplicationRecord&#45;&gt;Push -->
<g id="edge2" class="edge">
<title>ApplicationRecord&#45;&gt;Push</title>
<path fill="none" stroke="#000000" d="M263.4207,-411.8603C241.1571,-402.1054 213.1571,-388.4804 190.2117,-373 180.9917,-366.7796 171.7091,-358.5996 164.3137,-351.5129"/>
</g>
<!-- ApplicationRecord&#45;&gt;Message -->
<g id="edge3" class="edge">
<title>ApplicationRecord&#45;&gt;Message</title>
<path fill="none" stroke="#000000" d="M265.9985,-411.5376C238.082,-396.4977 204.2117,-371.0319 204.2117,-336 204.2117,-336 204.2117,-336 204.2117,-91 204.2117,-69.7563 217.4008,-48.8396 228.6321,-34.8789"/>
</g>
<!-- ApplicationRecord&#45;&gt;Building -->
<g id="edge5" class="edge">
<title>ApplicationRecord&#45;&gt;Building</title>
<path fill="none" stroke="#000000" d="M311.6949,-409.4225C320.1646,-393.2772 332.498,-369.7667 340.9114,-353.7286"/>
</g>
<!-- ApplicationRecord&#45;&gt;AdminUser -->
<g id="edge6" class="edge">
<title>ApplicationRecord&#45;&gt;AdminUser</title>
<path fill="none" stroke="#000000" d="M333.9408,-410.947C350.0434,-403.3948 370.1804,-395.2118 389.2117,-391 491.0466,-368.463 757.915,-401.6155 858.2117,-373 873.4454,-368.6537 888.9217,-360.0468 900.9497,-352.2273"/>
</g>
<!-- ApplicationRecord&#45;&gt;Event -->
<g id="edge12" class="edge">
<title>ApplicationRecord&#45;&gt;Event</title>
<path fill="none" stroke="#000000" d="M329.2633,-410.3811C349.9461,-396.5729 378.5028,-375.9018 400.2117,-354 423.1381,-330.8698 444.5034,-299.4737 456.6922,-280.2571"/>
</g>
<!-- User -->
<g id="node9" class="node">
<title>User</title>
<ellipse fill="none" stroke="#000000" cx="350.2117" cy="-91" rx="27" ry="18"/>
<text text-anchor="middle" x="350.2117" y="-86.8" font-family="Times,serif" font-size="14.00" fill="#000000">User</text>
</g>
<!-- ApplicationRecord&#45;&gt;User -->
<g id="edge16" class="edge">
<title>ApplicationRecord&#45;&gt;User</title>
<path fill="none" stroke="#000000" d="M335.3311,-411.0533C351.2589,-403.812 370.8439,-395.862 389.2117,-391 438.4398,-377.9693 844.2117,-386.9236 844.2117,-336 844.2117,-336 844.2117,-336 844.2117,-177 844.2117,-166.8928 775.4461,-139.4588 723.2117,-127 657.2395,-111.2645 451.3063,-97.2806 377.157,-92.633"/>
</g>
<!-- Chatroom -->
<g id="node10" class="node">
<title>Chatroom</title>
<ellipse fill="none" stroke="#000000" cx="277.2117" cy="-177" rx="45.4527" ry="18"/>
<text text-anchor="middle" x="277.2117" y="-172.8" font-family="Times,serif" font-size="14.00" fill="#000000">Chatroom</text>
</g>
<!-- ApplicationRecord&#45;&gt;Chatroom -->
<g id="edge20" class="edge">
<title>ApplicationRecord&#45;&gt;Chatroom</title>
<path fill="none" stroke="#000000" d="M300.4137,-409.4847C295.8122,-363.3777 283.6473,-241.485 279.0269,-195.1887"/>
</g>
<!-- Event&#45;&gt;Chatroom -->
<g id="edge7" class="edge">
<title>Event&#45;&gt;Chatroom</title>
<path fill="none" stroke="#96b042" d="M435.0393,-248.4378C401.8074,-233.396 349.982,-209.9382 314.8641,-194.0427"/>
<ellipse fill="none" stroke="#96b042" cx="439.1174" cy="-250.2836" rx="4" ry="4"/>
<ellipse fill="#96b042" stroke="#96b042" cx="310.8423" cy="-192.2223" rx="4" ry="4"/>
</g>
<!-- ActsAsTaggableOn::Tagging -->
<g id="node22" class="node">
<title>ActsAsTaggableOn::Tagging</title>
<ellipse fill="none" stroke="#000000" cx="453.2117" cy="-177" rx="113.0056" ry="18"/>
<text text-anchor="middle" x="453.2117" y="-172.8" font-family="Times,serif" font-size="14.00" fill="#000000">ActsAsTaggableOn::Tagging</text>
</g>
<!-- Event&#45;&gt;ActsAsTaggableOn::Tagging -->
<g id="edge8" class="edge">
<title>Event&#45;&gt;ActsAsTaggableOn::Tagging</title>
<path fill="none" stroke="#14b055" d="M437.2349,-246.2205C430.6139,-240.9826 424.4741,-234.5574 420.7703,-227 416.7572,-218.8117 419.3514,-210.3358 424.4794,-202.7407"/>
<ellipse fill="none" stroke="#14b055" cx="440.7" cy="-248.7203" rx="4" ry="4"/>
<polygon fill="#14b055" stroke="#14b055" points="424.5421,-202.6634 434.339,-197.7367 427.6938,-198.7818 430.8455,-194.9001 430.8455,-194.9001 430.8455,-194.9001 427.6938,-198.7818 427.3521,-192.0636 424.5421,-202.6634 424.5421,-202.6634"/>
<text text-anchor="middle" x="444.9324" y="-215.8" font-family="Times,serif" font-size="14.00" fill="#000000">taggings</text>
</g>
<!-- Event&#45;&gt;ActsAsTaggableOn::Tagging -->
<g id="edge10" class="edge">
<title>Event&#45;&gt;ActsAsTaggableOn::Tagging</title>
<path fill="none" stroke="#e98d10" d="M469.8637,-236.7547C470.0725,-229.0406 469.7372,-220.6277 468.2117,-213 467.6701,-210.2924 466.9205,-207.5339 466.0428,-204.8093"/>
<ellipse fill="none" stroke="#e98d10" cx="469.6581" cy="-240.7861" rx="4" ry="4"/>
<polygon fill="#e98d10" stroke="#e98d10" points="465.9652,-204.603 466.658,-193.659 464.2056,-199.9228 462.4459,-195.2427 462.4459,-195.2427 462.4459,-195.2427 464.2056,-199.9228 458.2338,-196.8264 465.9652,-204.603 465.9652,-204.603"/>
<text text-anchor="middle" x="505.9841" y="-215.8" font-family="Times,serif" font-size="14.00" fill="#000000">tag_taggings</text>
</g>
<!-- ActsAsTaggableOn::Tag -->
<g id="node23" class="node">
<title>ActsAsTaggableOn::Tag</title>
<ellipse fill="none" stroke="#000000" cx="681.2117" cy="-177" rx="97.0617" ry="18"/>
<text text-anchor="middle" x="681.2117" y="-172.8" font-family="Times,serif" font-size="14.00" fill="#000000">ActsAsTaggableOn::Tag</text>
</g>
<!-- Event&#45;&gt;ActsAsTaggableOn::Tag -->
<g id="edge9" class="edge">
<title>Event&#45;&gt;ActsAsTaggableOn::Tag</title>
<path fill="none" stroke="#4bf63d" d="M502.1923,-248.9424C537.2087,-234.8703 591.4312,-213.08 631.0297,-197.1666"/>
<polygon fill="#4bf63d" stroke="#4bf63d" points="501.8794,-249.068 490.9226,-248.6215 497.24,-250.9325 492.6006,-252.797 492.6006,-252.797 492.6006,-252.797 497.24,-250.9325 494.2787,-256.9724 501.8794,-249.068 501.8794,-249.068"/>
<polygon fill="#4bf63d" stroke="#4bf63d" points="631.2287,-197.0867 642.1855,-197.5332 635.8681,-195.2222 640.5075,-193.3578 640.5075,-193.3578 640.5075,-193.3578 635.8681,-195.2222 638.8294,-189.1823 631.2287,-197.0867 631.2287,-197.0867"/>
<text text-anchor="middle" x="614.4255" y="-215.8" font-family="Times,serif" font-size="14.00" fill="#000000">base_tags</text>
</g>
<!-- Event&#45;&gt;ActsAsTaggableOn::Tag -->
<g id="edge11" class="edge">
<title>Event&#45;&gt;ActsAsTaggableOn::Tag</title>
<path fill="none" stroke="#4e2050" d="M507.6529,-258.2943C552.9368,-252.4281 622.9093,-241.3949 645.2117,-227 654.1496,-221.2311 661.5762,-212.3983 667.3168,-203.7529"/>
<polygon fill="#4e2050" stroke="#4e2050" points="507.4755,-258.3166 496.9903,-255.1057 502.515,-258.9434 497.5544,-259.5702 497.5544,-259.5702 497.5544,-259.5702 502.515,-258.9434 498.1185,-264.0347 507.4755,-258.3166 507.4755,-258.3166"/>
<polygon fill="#4e2050" stroke="#4e2050" points="667.4785,-203.4875 676.5244,-197.2889 670.08,-199.2175 672.6815,-194.9476 672.6815,-194.9476 672.6815,-194.9476 670.08,-199.2175 668.8385,-192.6062 667.4785,-203.4875 667.4785,-203.4875"/>
<text text-anchor="middle" x="671.4875" y="-215.8" font-family="Times,serif" font-size="14.00" fill="#000000">tags</text>
</g>
<!-- User&#45;&gt;Message -->
<g id="edge14" class="edge">
<title>User&#45;&gt;Message</title>
<path fill="none" stroke="#069b7c" d="M324.4995,-73.2926C309.481,-62.9497 290.4427,-49.8384 274.6748,-38.9794"/>
<ellipse fill="none" stroke="#069b7c" cx="327.9666" cy="-75.6803" rx="4" ry="4"/>
<polygon fill="#069b7c" stroke="#069b7c" points="274.5336,-38.8821 268.85,-29.504 270.4156,-36.0461 266.2977,-33.2102 266.2977,-33.2102 266.2977,-33.2102 270.4156,-36.0461 263.7453,-36.9163 274.5336,-38.8821 274.5336,-38.8821"/>
</g>
<!-- User&#45;&gt;Event -->
<g id="edge13" class="edge">
<title>User&#45;&gt;Event</title>
<path fill="none" stroke="#35d4b7" d="M385.44,-93.8754C484.6759,-102.3288 761.0358,-128.436 787.2117,-159 797.6193,-171.1524 796.6451,-182.0767 787.2117,-195 754.6436,-239.6167 586.8184,-255.6904 508.084,-260.8377"/>
<ellipse fill="none" stroke="#35d4b7" cx="381.2109" cy="-93.5183" rx="4" ry="4"/>
<polygon fill="#35d4b7" stroke="#35d4b7" points="508.0185,-260.8417 497.7568,-256.9753 503.0282,-261.1541 498.038,-261.4665 498.038,-261.4665 498.038,-261.4665 503.0282,-261.1541 498.3192,-265.9577 508.0185,-260.8417 508.0185,-260.8417"/>
</g>
<!-- User&#45;&gt;Chatroom -->
<g id="edge15" class="edge">
<title>User&#45;&gt;Chatroom</title>
<path fill="none" stroke="#f1d672" d="M336.8704,-116.919C332.135,-125.0191 326.4232,-133.7307 320.2117,-141 316.2408,-145.647 311.6315,-150.1799 306.9356,-154.3751"/>
<polygon fill="#f1d672" stroke="#f1d672" points="336.8967,-116.8717 345.7042,-110.3388 339.3365,-112.5074 341.7763,-108.143 341.7763,-108.143 341.7763,-108.143 339.3365,-112.5074 337.8484,-105.9472 336.8967,-116.8717 336.8967,-116.8717"/>
<polygon fill="#f1d672" stroke="#f1d672" points="306.6689,-154.6018 296.1346,-157.6481 302.8587,-157.8395 299.0486,-161.0772 299.0486,-161.0772 299.0486,-161.0772 302.8587,-157.8395 301.9625,-164.5064 306.6689,-154.6018 306.6689,-154.6018"/>
</g>
<!-- Chatroom&#45;&gt;Message -->
<g id="edge17" class="edge">
<title>Chatroom&#45;&gt;Message</title>
<path fill="none" stroke="#34ad7b" d="M268.8934,-151.097C267.927,-147.7172 267.005,-144.2876 266.2117,-141 258.4201,-108.7092 252.0784,-71.041 248.2398,-45.9812"/>
<ellipse fill="none" stroke="#34ad7b" cx="270.0468" cy="-154.969" rx="4" ry="4"/>
<polygon fill="#34ad7b" stroke="#34ad7b" points="248.2359,-45.9548 251.2011,-35.3974 247.4934,-41.0102 246.751,-36.0657 246.751,-36.0657 246.751,-36.0657 247.4934,-41.0102 242.3008,-36.7339 248.2359,-45.9548 248.2359,-45.9548"/>
</g>
<!-- Chatroom&#45;&gt;User -->
<g id="edge18" class="edge">
<title>Chatroom&#45;&gt;User</title>
<path fill="none" stroke="#307127" d="M269.7546,-149.0175C269.2075,-141.3956 270.1334,-133.4666 274.2253,-127 283.1257,-112.9346 299.172,-104.257 314.233,-98.9579"/>
<polygon fill="#307127" stroke="#307127" points="269.7765,-149.1643 266.804,-159.7196 270.5155,-154.1094 271.2546,-159.0545 271.2546,-159.0545 271.2546,-159.0545 270.5155,-154.1094 275.7051,-158.3893 269.7765,-149.1643 269.7765,-149.1643"/>
<polygon fill="#307127" stroke="#307127" points="314.3567,-98.9194 325.2432,-100.2367 319.1298,-97.4302 323.9029,-95.9409 323.9029,-95.9409 323.9029,-95.9409 319.1298,-97.4302 322.5626,-91.6452 314.3567,-98.9194 314.3567,-98.9194"/>
<text text-anchor="middle" x="296.2048" y="-129.8" font-family="Times,serif" font-size="14.00" fill="#000000">senders</text>
</g>
<!-- Chatroom&#45;&gt;User -->
<g id="edge19" class="edge">
<title>Chatroom&#45;&gt;User</title>
<path fill="none" stroke="#4aa341" d="M319.1075,-159.133C326.7361,-154.2313 333.9365,-148.2254 339.2117,-141 343.8237,-134.6829 346.5648,-126.8006 348.1762,-119.1757"/>
<polygon fill="#4aa341" stroke="#4aa341" points="318.6964,-159.3713 307.7881,-160.4937 314.3707,-161.879 310.0451,-164.3868 310.0451,-164.3868 310.0451,-164.3868 314.3707,-161.879 312.3021,-168.2799 318.6964,-159.3713 318.6964,-159.3713"/>
<polygon fill="#4aa341" stroke="#4aa341" points="348.2051,-118.9897 354.1895,-109.8007 348.9741,-114.0492 349.743,-109.1086 349.743,-109.1086 349.743,-109.1086 348.9741,-114.0492 345.2966,-108.4166 348.2051,-118.9897 348.2051,-118.9897"/>
<text text-anchor="middle" x="371.4705" y="-129.8" font-family="Times,serif" font-size="14.00" fill="#000000">receivers</text>
</g>
<!-- ActiveStorage::Variant -->
<g id="node11" class="node">
<title>ActiveStorage::Variant</title>
<polygon fill="none" stroke="#000000" points="542.502,-445.5 397.9213,-445.5 397.9213,-409.5 542.502,-409.5 542.502,-445.5"/>
<text text-anchor="middle" x="470.2117" y="-423.3" font-family="Times,serif" font-size="14.00" fill="#000000">ActiveStorage::Variant</text>
</g>
<!-- ActiveStorage::Blob -->
<g id="node12" class="node">
<title>ActiveStorage::Blob</title>
<ellipse fill="none" stroke="#000000" cx="643.2117" cy="-427.5" rx="82.6131" ry="18"/>
<text text-anchor="middle" x="643.2117" y="-423.3" font-family="Times,serif" font-size="14.00" fill="#000000">ActiveStorage::Blob</text>
</g>
<!-- ActiveStorage::Filename -->
<g id="node13" class="node">
<title>ActiveStorage::Filename</title>
<polygon fill="none" stroke="#000000" points="900.1707,-445.5 744.2527,-445.5 744.2527,-409.5 900.1707,-409.5 900.1707,-445.5"/>
<text text-anchor="middle" x="822.2117" y="-423.3" font-family="Times,serif" font-size="14.00" fill="#000000">ActiveStorage::Filename</text>
</g>
<!-- ActiveStorage::Variation -->
<g id="node14" class="node">
<title>ActiveStorage::Variation</title>
<polygon fill="none" stroke="#000000" points="1073.8915,-445.5 918.5319,-445.5 918.5319,-409.5 1073.8915,-409.5 1073.8915,-445.5"/>
<text text-anchor="middle" x="996.2117" y="-423.3" font-family="Times,serif" font-size="14.00" fill="#000000">ActiveStorage::Variation</text>
</g>
<!-- ActiveStorage::Attachment -->
<g id="node15" class="node">
<title>ActiveStorage::Attachment</title>
<ellipse fill="none" stroke="#000000" cx="1198.2117" cy="-427.5" rx="106.7251" ry="18"/>
<text text-anchor="middle" x="1198.2117" y="-423.3" font-family="Times,serif" font-size="14.00" fill="#000000">ActiveStorage::Attachment</text>
</g>
<!-- ActiveStorage::Current -->
<g id="node16" class="node">
<title>ActiveStorage::Current</title>
<polygon fill="none" stroke="#000000" points="1525.3401,-354 1379.0833,-354 1379.0833,-318 1525.3401,-318 1525.3401,-354"/>
<text text-anchor="middle" x="1452.2117" y="-331.8" font-family="Times,serif" font-size="14.00" fill="#000000">ActiveStorage::Current</text>
</g>
<!-- ActiveStorage::Filename::Parameters -->
<g id="node17" class="node">
<title>ActiveStorage::Filename::Parameters</title>
<polygon fill="none" stroke="#000000" points="1825.1433,-445.5 1599.28,-445.5 1599.28,-409.5 1825.1433,-409.5 1825.1433,-445.5"/>
<text text-anchor="middle" x="1712.2117" y="-423.3" font-family="Times,serif" font-size="14.00" fill="#000000">ActiveStorage::Filename::Parameters</text>
</g>
<!-- ActiveStorage::Blob::Identifiable -->
<g id="node18" class="node">
<title>ActiveStorage::Blob::Identifiable</title>
<polygon fill="none" stroke="#000000" stroke-dasharray="1,5" points="2045.3399,-445.5 1843.0834,-445.5 1843.0834,-409.5 2045.3399,-409.5 2045.3399,-445.5"/>
<text text-anchor="middle" x="1944.2117" y="-423.3" font-family="Times,serif" font-size="14.00" fill="#000000">ActiveStorage::Blob::Identifiable</text>
</g>
<!-- ActiveStorage::Blob::Analyzable -->
<g id="node19" class="node">
<title>ActiveStorage::Blob::Analyzable</title>
<polygon fill="none" stroke="#000000" stroke-dasharray="1,5" points="2266.3263,-445.5 2064.097,-445.5 2064.097,-409.5 2266.3263,-409.5 2266.3263,-445.5"/>
<text text-anchor="middle" x="2165.2117" y="-423.3" font-family="Times,serif" font-size="14.00" fill="#000000">ActiveStorage::Blob::Analyzable</text>
</g>
<!-- ActiveStorage::Blob::Representable -->
<g id="node20" class="node">
<title>ActiveStorage::Blob::Representable</title>
<polygon fill="none" stroke="#000000" stroke-dasharray="1,5" points="2502.3777,-445.5 2284.0456,-445.5 2284.0456,-409.5 2502.3777,-409.5 2502.3777,-445.5"/>
<text text-anchor="middle" x="2393.2117" y="-423.3" font-family="Times,serif" font-size="14.00" fill="#000000">ActiveStorage::Blob::Representable</text>
</g>
<!-- ActiveStorage::Preview -->
<g id="node21" class="node">
<title>ActiveStorage::Preview</title>
<polygon fill="none" stroke="#000000" points="2669.9502,-445.5 2520.4732,-445.5 2520.4732,-409.5 2669.9502,-409.5 2669.9502,-445.5"/>
<text text-anchor="middle" x="2595.2117" y="-423.3" font-family="Times,serif" font-size="14.00" fill="#000000">ActiveStorage::Preview</text>
</g>
<!-- ActiveSupport::CurrentAttributes -->
<g id="node24" class="node">
<title>ActiveSupport::CurrentAttributes</title>
<ellipse fill="none" stroke="#000000" cx="1452.2117" cy="-427.5" rx="128.9682" ry="18"/>
<text text-anchor="middle" x="1452.2117" y="-423.3" font-family="Times,serif" font-size="14.00" fill="#000000">ActiveSupport::CurrentAttributes</text>
</g>
<!-- ActiveSupport::CurrentAttributes&#45;&gt;ActiveStorage::Current -->
<g id="edge21" class="edge">
<title>ActiveSupport::CurrentAttributes&#45;&gt;ActiveStorage::Current</title>
<path fill="none" stroke="#000000" d="M1452.2117,-409.4225C1452.2117,-393.3813 1452.2117,-370.0697 1452.2117,-354.0399"/>
</g>
</g>
</svg>
