<?xml version="1.0" encoding="UTF-8" standalone="no"?>
<!DOCTYPE svg PUBLIC "-//W3C//DTD SVG 1.1//EN"
 "http://www.w3.org/Graphics/SVG/1.1/DTD/svg11.dtd">
<!-- Generated by graphviz version 2.40.1 (20161225.0304)
 -->
<!-- Title: models_diagram Pages: 1 -->
<svg width="2659pt" height="1178pt"
 viewBox="0.00 0.00 2658.73 1178.00" xmlns="http://www.w3.org/2000/svg" xmlns:xlink="http://www.w3.org/1999/xlink">
<g id="graph0" class="graph" transform="scale(1 1) rotate(0) translate(4 1174)">
<title>models_diagram</title>
<polygon fill="transparent" stroke="transparent" points="-4,4 -4,-1174 2654.7314,-1174 2654.7314,4 -4,4"/>
<!-- _diagram_info -->
<g id="node1" class="node">
<title>_diagram_info</title>
<text text-anchor="start" x="360.6506" y="-1155.6" font-family="Times,serif" font-size="13.00" fill="#000000">Models diagram</text>
<text text-anchor="start" x="360.6506" y="-1142.6" font-family="Times,serif" font-size="13.00" fill="#000000">Date: Nov 25 2019 &#45; 14:38</text>
<text text-anchor="start" x="360.6506" y="-1129.6" font-family="Times,serif" font-size="13.00" fill="#000000">Migration version: 20191119050953</text>
<text text-anchor="start" x="360.6506" y="-1116.6" font-family="Times,serif" font-size="13.00" fill="#000000">Generated by RailRoady 1.5.3</text>
<text text-anchor="start" x="360.6506" y="-1103.6" font-family="Times,serif" font-size="13.00" fill="#000000">http://railroady.prestonlee.com</text>
</g>
<!-- Report -->
<g id="node2" class="node">
<title>Report</title>
<path fill="none" stroke="#000000" d="M12,-763.5C12,-763.5 235.7246,-763.5 235.7246,-763.5 241.7246,-763.5 247.7246,-769.5 247.7246,-775.5 247.7246,-775.5 247.7246,-865.5 247.7246,-865.5 247.7246,-871.5 241.7246,-877.5 235.7246,-877.5 235.7246,-877.5 12,-877.5 12,-877.5 6,-877.5 0,-871.5 0,-865.5 0,-865.5 0,-775.5 0,-775.5 0,-769.5 6,-763.5 12,-763.5"/>
<text text-anchor="middle" x="123.8623" y="-862.3" font-family="Times,serif" font-size="14.00" fill="#000000">Report</text>
<polyline fill="none" stroke="#000000" points="0,-855.5 247.7246,-855.5 "/>
<text text-anchor="start" x="8" y="-840.3" font-family="Times,serif" font-size="14.00" fill="#000000">id :bigint</text>
<text text-anchor="start" x="8" y="-826.3" font-family="Times,serif" font-size="14.00" fill="#000000">event_id :bigint</text>
<text text-anchor="start" x="8" y="-812.3" font-family="Times,serif" font-size="14.00" fill="#000000">user_id :bigint</text>
<text text-anchor="start" x="8" y="-798.3" font-family="Times,serif" font-size="14.00" fill="#000000">content :text</text>
<text text-anchor="start" x="8" y="-784.3" font-family="Times,serif" font-size="14.00" fill="#000000">created_at :timestamp without time zone</text>
<text text-anchor="start" x="8" y="-770.3" font-family="Times,serif" font-size="14.00" fill="#000000">updated_at :timestamp without time zone</text>
</g>
<!-- Push -->
<g id="node3" class="node">
<title>Push</title>
<path fill="none" stroke="#000000" d="M426,-380.5C426,-380.5 649.7246,-380.5 649.7246,-380.5 655.7246,-380.5 661.7246,-386.5 661.7246,-392.5 661.7246,-392.5 661.7246,-482.5 661.7246,-482.5 661.7246,-488.5 655.7246,-494.5 649.7246,-494.5 649.7246,-494.5 426,-494.5 426,-494.5 420,-494.5 414,-488.5 414,-482.5 414,-482.5 414,-392.5 414,-392.5 414,-386.5 420,-380.5 426,-380.5"/>
<text text-anchor="middle" x="537.8623" y="-479.3" font-family="Times,serif" font-size="14.00" fill="#000000">Push</text>
<polyline fill="none" stroke="#000000" points="414,-472.5 661.7246,-472.5 "/>
<text text-anchor="start" x="422" y="-457.3" font-family="Times,serif" font-size="14.00" fill="#000000">id :bigint</text>
<text text-anchor="start" x="422" y="-443.3" font-family="Times,serif" font-size="14.00" fill="#000000">user_id :bigint</text>
<text text-anchor="start" x="422" y="-429.3" font-family="Times,serif" font-size="14.00" fill="#000000">title :character varying</text>
<text text-anchor="start" x="422" y="-415.3" font-family="Times,serif" font-size="14.00" fill="#000000">body :text</text>
<text text-anchor="start" x="422" y="-401.3" font-family="Times,serif" font-size="14.00" fill="#000000">created_at :timestamp without time zone</text>
<text text-anchor="start" x="422" y="-387.3" font-family="Times,serif" font-size="14.00" fill="#000000">updated_at :timestamp without time zone</text>
</g>
<!-- Message -->
<g id="node4" class="node">
<title>Message</title>
<path fill="none" stroke="#000000" d="M236,-.5C236,-.5 459.7246,-.5 459.7246,-.5 465.7246,-.5 471.7246,-6.5 471.7246,-12.5 471.7246,-12.5 471.7246,-116.5 471.7246,-116.5 471.7246,-122.5 465.7246,-128.5 459.7246,-128.5 459.7246,-128.5 236,-128.5 236,-128.5 230,-128.5 224,-122.5 224,-116.5 224,-116.5 224,-12.5 224,-12.5 224,-6.5 230,-.5 236,-.5"/>
<text text-anchor="middle" x="347.8623" y="-113.3" font-family="Times,serif" font-size="14.00" fill="#000000">Message</text>
<polyline fill="none" stroke="#000000" points="224,-106.5 471.7246,-106.5 "/>
<text text-anchor="start" x="232" y="-91.3" font-family="Times,serif" font-size="14.00" fill="#000000">id :bigint</text>
<text text-anchor="start" x="232" y="-77.3" font-family="Times,serif" font-size="14.00" fill="#000000">content :character varying</text>
<text text-anchor="start" x="232" y="-63.3" font-family="Times,serif" font-size="14.00" fill="#000000">sender_id :bigint</text>
<text text-anchor="start" x="232" y="-49.3" font-family="Times,serif" font-size="14.00" fill="#000000">chatroom_id :bigint</text>
<text text-anchor="start" x="232" y="-35.3" font-family="Times,serif" font-size="14.00" fill="#000000">created_at :timestamp without time zone</text>
<text text-anchor="start" x="232" y="-21.3" font-family="Times,serif" font-size="14.00" fill="#000000">updated_at :timestamp without time zone</text>
<text text-anchor="start" x="232" y="-7.3" font-family="Times,serif" font-size="14.00" fill="#000000">receiver_id :bigint</text>
</g>
<!-- Building -->
<g id="node5" class="node">
<title>Building</title>
<path fill="none" stroke="#000000" d="M730,-756.5C730,-756.5 953.7246,-756.5 953.7246,-756.5 959.7246,-756.5 965.7246,-762.5 965.7246,-768.5 965.7246,-768.5 965.7246,-872.5 965.7246,-872.5 965.7246,-878.5 959.7246,-884.5 953.7246,-884.5 953.7246,-884.5 730,-884.5 730,-884.5 724,-884.5 718,-878.5 718,-872.5 718,-872.5 718,-768.5 718,-768.5 718,-762.5 724,-756.5 730,-756.5"/>
<text text-anchor="middle" x="841.8623" y="-869.3" font-family="Times,serif" font-size="14.00" fill="#000000">Building</text>
<polyline fill="none" stroke="#000000" points="718,-862.5 965.7246,-862.5 "/>
<text text-anchor="start" x="726" y="-847.3" font-family="Times,serif" font-size="14.00" fill="#000000">id :bigint</text>
<text text-anchor="start" x="726" y="-833.3" font-family="Times,serif" font-size="14.00" fill="#000000">name :character varying</text>
<text text-anchor="start" x="726" y="-819.3" font-family="Times,serif" font-size="14.00" fill="#000000">lat :double precision</text>
<text text-anchor="start" x="726" y="-805.3" font-family="Times,serif" font-size="14.00" fill="#000000">lng :double precision</text>
<text text-anchor="start" x="726" y="-791.3" font-family="Times,serif" font-size="14.00" fill="#000000">created_at :timestamp without time zone</text>
<text text-anchor="start" x="726" y="-777.3" font-family="Times,serif" font-size="14.00" fill="#000000">updated_at :timestamp without time zone</text>
<text text-anchor="start" x="726" y="-763.3" font-family="Times,serif" font-size="14.00" fill="#000000">events_count :integer</text>
</g>
<!-- Event -->
<g id="node8" class="node">
<title>Event</title>
<path fill="none" stroke="#000000" d="M730,-331.5C730,-331.5 953.7246,-331.5 953.7246,-331.5 959.7246,-331.5 965.7246,-337.5 965.7246,-343.5 965.7246,-343.5 965.7246,-531.5 965.7246,-531.5 965.7246,-537.5 959.7246,-543.5 953.7246,-543.5 953.7246,-543.5 730,-543.5 730,-543.5 724,-543.5 718,-537.5 718,-531.5 718,-531.5 718,-343.5 718,-343.5 718,-337.5 724,-331.5 730,-331.5"/>
<text text-anchor="middle" x="841.8623" y="-528.3" font-family="Times,serif" font-size="14.00" fill="#000000">Event</text>
<polyline fill="none" stroke="#000000" points="718,-521.5 965.7246,-521.5 "/>
<text text-anchor="start" x="726" y="-506.3" font-family="Times,serif" font-size="14.00" fill="#000000">building_id :bigint</text>
<text text-anchor="start" x="726" y="-492.3" font-family="Times,serif" font-size="14.00" fill="#000000">user_id :bigint</text>
<text text-anchor="start" x="726" y="-478.3" font-family="Times,serif" font-size="14.00" fill="#000000">title :character varying</text>
<text text-anchor="start" x="726" y="-464.3" font-family="Times,serif" font-size="14.00" fill="#000000">place :character varying</text>
<text text-anchor="start" x="726" y="-450.3" font-family="Times,serif" font-size="14.00" fill="#000000">detail_place :character varying</text>
<text text-anchor="start" x="726" y="-436.3" font-family="Times,serif" font-size="14.00" fill="#000000">time_limit :timestamp without time zone</text>
<text text-anchor="start" x="726" y="-422.3" font-family="Times,serif" font-size="14.00" fill="#000000">content :text</text>
<text text-anchor="start" x="726" y="-408.3" font-family="Times,serif" font-size="14.00" fill="#000000">state :integer</text>
<text text-anchor="start" x="726" y="-394.3" font-family="Times,serif" font-size="14.00" fill="#000000">reward :integer</text>
<text text-anchor="start" x="726" y="-380.3" font-family="Times,serif" font-size="14.00" fill="#000000">created_at :timestamp without time zone</text>
<text text-anchor="start" x="726" y="-366.3" font-family="Times,serif" font-size="14.00" fill="#000000">updated_at :timestamp without time zone</text>
<text text-anchor="start" x="726" y="-352.3" font-family="Times,serif" font-size="14.00" fill="#000000">performer_id :bigint</text>
<text text-anchor="start" x="726" y="-338.3" font-family="Times,serif" font-size="14.00" fill="#000000">id :bigint</text>
</g>
<!-- Building&#45;&gt;Event -->
<g id="edge4" class="edge">
<title>Building&#45;&gt;Event</title>
<path fill="none" stroke="#86f13d" d="M841.8623,-748.0663C841.8623,-693.3412 841.8623,-617.1101 841.8623,-553.8699"/>
<ellipse fill="none" stroke="#86f13d" cx="841.8624" cy="-752.3944" rx="4" ry="4"/>
<polygon fill="#86f13d" stroke="#86f13d" points="841.8624,-553.8371 846.3623,-543.8371 841.8624,-548.8371 841.8623,-543.8371 841.8623,-543.8371 841.8623,-543.8371 841.8624,-548.8371 837.3623,-543.8372 841.8624,-553.8371 841.8624,-553.8371"/>
</g>
<!-- AdminUser -->
<g id="node6" class="node">
<title>AdminUser</title>
<path fill="none" stroke="#000000" d="M1034.2275,-749.5C1034.2275,-749.5 1329.4971,-749.5 1329.4971,-749.5 1335.4971,-749.5 1341.4971,-755.5 1341.4971,-761.5 1341.4971,-761.5 1341.4971,-879.5 1341.4971,-879.5 1341.4971,-885.5 1335.4971,-891.5 1329.4971,-891.5 1329.4971,-891.5 1034.2275,-891.5 1034.2275,-891.5 1028.2275,-891.5 1022.2275,-885.5 1022.2275,-879.5 1022.2275,-879.5 1022.2275,-761.5 1022.2275,-761.5 1022.2275,-755.5 1028.2275,-749.5 1034.2275,-749.5"/>
<text text-anchor="middle" x="1181.8623" y="-876.3" font-family="Times,serif" font-size="14.00" fill="#000000">AdminUser</text>
<polyline fill="none" stroke="#000000" points="1022.2275,-869.5 1341.4971,-869.5 "/>
<text text-anchor="start" x="1030.2275" y="-854.3" font-family="Times,serif" font-size="14.00" fill="#000000">updated_at :timestamp without time zone</text>
<text text-anchor="start" x="1030.2275" y="-840.3" font-family="Times,serif" font-size="14.00" fill="#000000">email :character varying</text>
<text text-anchor="start" x="1030.2275" y="-826.3" font-family="Times,serif" font-size="14.00" fill="#000000">encrypted_password :character varying</text>
<text text-anchor="start" x="1030.2275" y="-812.3" font-family="Times,serif" font-size="14.00" fill="#000000">reset_password_token :character varying</text>
<text text-anchor="start" x="1030.2275" y="-798.3" font-family="Times,serif" font-size="14.00" fill="#000000">reset_password_sent_at :timestamp without time zone</text>
<text text-anchor="start" x="1030.2275" y="-784.3" font-family="Times,serif" font-size="14.00" fill="#000000">remember_created_at :timestamp without time zone</text>
<text text-anchor="start" x="1030.2275" y="-770.3" font-family="Times,serif" font-size="14.00" fill="#000000">created_at :timestamp without time zone</text>
<text text-anchor="start" x="1030.2275" y="-756.3" font-family="Times,serif" font-size="14.00" fill="#000000">id :bigint</text>
</g>
<!-- ApplicationRecord -->
<g id="node7" class="node">
<title>ApplicationRecord</title>
<ellipse fill="none" stroke="#000000" cx="654.8623" cy="-1133.5" rx="77.2916" ry="18"/>
<text text-anchor="middle" x="654.8623" y="-1129.3" font-family="Times,serif" font-size="14.00" fill="#000000">ApplicationRecord</text>
</g>
<!-- ApplicationRecord&#45;&gt;Report -->
<g id="edge1" class="edge">
<title>ApplicationRecord&#45;&gt;Report</title>
<path fill="none" stroke="#000000" d="M622.6884,-1116.9241C606.6453,-1109.4648 586.69,-1101.3686 567.8623,-1097 501.5076,-1081.6036 319.2254,-1115.7353 261.8623,-1079 190.9601,-1033.5942 154.0562,-938.8587 136.8249,-877.5522"/>
</g>
<!-- ApplicationRecord&#45;&gt;Push -->
<g id="edge2" class="edge">
<title>ApplicationRecord&#45;&gt;Push</title>
<path fill="none" stroke="#000000" d="M657.5963,-1115.237C667.4967,-1044.3622 697.6008,-781.52 632.8623,-581 622.9024,-550.1504 604.3202,-519.6737 586.2136,-494.7954"/>
</g>
<!-- ApplicationRecord&#45;&gt;Message -->
<g id="edge3" class="edge">
<title>ApplicationRecord&#45;&gt;Message</title>
<path fill="none" stroke="#000000" d="M621.711,-1117.172C605.7762,-1109.9567 586.1945,-1101.9942 567.8623,-1097 508.7937,-1080.908 336.9335,-1104.4754 294.8623,-1060 258.1731,-1021.2142 275.8623,-873.8894 275.8623,-820.5 275.8623,-820.5 275.8623,-820.5 275.8623,-223.5 275.8623,-190.3188 289.0352,-156.433 304.112,-128.516"/>
</g>
<!-- ApplicationRecord&#45;&gt;Building -->
<g id="edge5" class="edge">
<title>ApplicationRecord&#45;&gt;Building</title>
<path fill="none" stroke="#000000" d="M672.8179,-1115.7677C682.6467,-1105.536 694.6606,-1092.1283 703.8623,-1079 747.661,-1016.5112 787.5117,-938.5025 813.0038,-884.6152"/>
</g>
<!-- ApplicationRecord&#45;&gt;AdminUser -->
<g id="edge6" class="edge">
<title>ApplicationRecord&#45;&gt;AdminUser</title>
<path fill="none" stroke="#000000" d="M687.803,-1117.2049C704.4897,-1109.7161 725.3115,-1101.512 744.8623,-1097 801.9431,-1083.8268 957.1219,-1108.2774 1007.8623,-1079 1079.7885,-1037.4983 1128.018,-952.8273 1155.1085,-891.6777"/>
</g>
<!-- ApplicationRecord&#45;&gt;Event -->
<g id="edge12" class="edge">
<title>ApplicationRecord&#45;&gt;Event</title>
<path fill="none" stroke="#000000" d="M689.6982,-1117.2269C706.1285,-1110.1122 726.187,-1102.2167 744.8623,-1097 794.7218,-1083.0723 941.2892,-1099.4056 974.8623,-1060 1009.3783,-1019.4877 994.2928,-630.5486 974.8623,-581 969.7778,-568.0344 962.9105,-555.5411 954.9619,-543.7013"/>
</g>
<!-- User -->
<g id="node9" class="node">
<title>User</title>
<path fill="none" stroke="#000000" d="M316.2275,-581.5C316.2275,-581.5 611.4971,-581.5 611.4971,-581.5 617.4971,-581.5 623.4971,-587.5 623.4971,-593.5 623.4971,-593.5 623.4971,-1047.5 623.4971,-1047.5 623.4971,-1053.5 617.4971,-1059.5 611.4971,-1059.5 611.4971,-1059.5 316.2275,-1059.5 316.2275,-1059.5 310.2275,-1059.5 304.2275,-1053.5 304.2275,-1047.5 304.2275,-1047.5 304.2275,-593.5 304.2275,-593.5 304.2275,-587.5 310.2275,-581.5 316.2275,-581.5"/>
<text text-anchor="middle" x="463.8623" y="-1044.3" font-family="Times,serif" font-size="14.00" fill="#000000">User</text>
<polyline fill="none" stroke="#000000" points="304.2275,-1037.5 623.4971,-1037.5 "/>
<text text-anchor="start" x="312.2275" y="-1022.3" font-family="Times,serif" font-size="14.00" fill="#000000">certification_token :character varying</text>
<text text-anchor="start" x="312.2275" y="-1008.3" font-family="Times,serif" font-size="14.00" fill="#000000">name :character varying</text>
<text text-anchor="start" x="312.2275" y="-994.3" font-family="Times,serif" font-size="14.00" fill="#000000">email :character varying</text>
<text text-anchor="start" x="312.2275" y="-980.3" font-family="Times,serif" font-size="14.00" fill="#000000">encrypted_password :character varying</text>
<text text-anchor="start" x="312.2275" y="-966.3" font-family="Times,serif" font-size="14.00" fill="#000000">phone :character varying</text>
<text text-anchor="start" x="312.2275" y="-952.3" font-family="Times,serif" font-size="14.00" fill="#000000">thumbnail :character varying</text>
<text text-anchor="start" x="312.2275" y="-938.3" font-family="Times,serif" font-size="14.00" fill="#000000">address1 :character varying</text>
<text text-anchor="start" x="312.2275" y="-924.3" font-family="Times,serif" font-size="14.00" fill="#000000">address2 :character varying</text>
<text text-anchor="start" x="312.2275" y="-910.3" font-family="Times,serif" font-size="14.00" fill="#000000">zipcode :character varying</text>
<text text-anchor="start" x="312.2275" y="-896.3" font-family="Times,serif" font-size="14.00" fill="#000000">gender :integer</text>
<text text-anchor="start" x="312.2275" y="-882.3" font-family="Times,serif" font-size="14.00" fill="#000000">customs_number :character varying</text>
<text text-anchor="start" x="312.2275" y="-868.3" font-family="Times,serif" font-size="14.00" fill="#000000">role :integer</text>
<text text-anchor="start" x="312.2275" y="-854.3" font-family="Times,serif" font-size="14.00" fill="#000000">accept_sms :boolean</text>
<text text-anchor="start" x="312.2275" y="-840.3" font-family="Times,serif" font-size="14.00" fill="#000000">accept_email :boolean</text>
<text text-anchor="start" x="312.2275" y="-826.3" font-family="Times,serif" font-size="14.00" fill="#000000">reset_password_token :character varying</text>
<text text-anchor="start" x="312.2275" y="-812.3" font-family="Times,serif" font-size="14.00" fill="#000000">reset_password_sent_at :timestamp without time zone</text>
<text text-anchor="start" x="312.2275" y="-798.3" font-family="Times,serif" font-size="14.00" fill="#000000">remember_created_at :timestamp without time zone</text>
<text text-anchor="start" x="312.2275" y="-784.3" font-family="Times,serif" font-size="14.00" fill="#000000">sign_in_count :integer</text>
<text text-anchor="start" x="312.2275" y="-770.3" font-family="Times,serif" font-size="14.00" fill="#000000">current_sign_in_at :timestamp without time zone</text>
<text text-anchor="start" x="312.2275" y="-756.3" font-family="Times,serif" font-size="14.00" fill="#000000">last_sign_in_at :timestamp without time zone</text>
<text text-anchor="start" x="312.2275" y="-742.3" font-family="Times,serif" font-size="14.00" fill="#000000">current_sign_in_ip :inet</text>
<text text-anchor="start" x="312.2275" y="-728.3" font-family="Times,serif" font-size="14.00" fill="#000000">last_sign_in_ip :inet</text>
<text text-anchor="start" x="312.2275" y="-714.3" font-family="Times,serif" font-size="14.00" fill="#000000">created_at :timestamp without time zone</text>
<text text-anchor="start" x="312.2275" y="-700.3" font-family="Times,serif" font-size="14.00" fill="#000000">updated_at :timestamp without time zone</text>
<text text-anchor="start" x="312.2275" y="-686.3" font-family="Times,serif" font-size="14.00" fill="#000000">student_card_image :character varying</text>
<text text-anchor="start" x="312.2275" y="-672.3" font-family="Times,serif" font-size="14.00" fill="#000000">certification_state :integer</text>
<text text-anchor="start" x="312.2275" y="-658.3" font-family="Times,serif" font-size="14.00" fill="#000000">status :integer</text>
<text text-anchor="start" x="312.2275" y="-644.3" font-family="Times,serif" font-size="14.00" fill="#000000">device_token :character varying</text>
<text text-anchor="start" x="312.2275" y="-630.3" font-family="Times,serif" font-size="14.00" fill="#000000">device_type :integer</text>
<text text-anchor="start" x="312.2275" y="-616.3" font-family="Times,serif" font-size="14.00" fill="#000000">blacklist :boolean</text>
<text text-anchor="start" x="312.2275" y="-602.3" font-family="Times,serif" font-size="14.00" fill="#000000">student_email :character varying</text>
<text text-anchor="start" x="312.2275" y="-588.3" font-family="Times,serif" font-size="14.00" fill="#000000">id :bigint</text>
</g>
<!-- ApplicationRecord&#45;&gt;User -->
<g id="edge17" class="edge">
<title>ApplicationRecord&#45;&gt;User</title>
<path fill="none" stroke="#000000" d="M643.7678,-1115.3189C635.6866,-1102.0759 623.7392,-1082.4973 609.7761,-1059.6153"/>
</g>
<!-- Chatroom -->
<g id="node10" class="node">
<title>Chatroom</title>
<path fill="none" stroke="#000000" d="M422,-166.5C422,-166.5 645.7246,-166.5 645.7246,-166.5 651.7246,-166.5 657.7246,-172.5 657.7246,-178.5 657.7246,-178.5 657.7246,-268.5 657.7246,-268.5 657.7246,-274.5 651.7246,-280.5 645.7246,-280.5 645.7246,-280.5 422,-280.5 422,-280.5 416,-280.5 410,-274.5 410,-268.5 410,-268.5 410,-178.5 410,-178.5 410,-172.5 416,-166.5 422,-166.5"/>
<text text-anchor="middle" x="533.8623" y="-265.3" font-family="Times,serif" font-size="14.00" fill="#000000">Chatroom</text>
<polyline fill="none" stroke="#000000" points="410,-258.5 657.7246,-258.5 "/>
<text text-anchor="start" x="418" y="-243.3" font-family="Times,serif" font-size="14.00" fill="#000000">id :bigint</text>
<text text-anchor="start" x="418" y="-229.3" font-family="Times,serif" font-size="14.00" fill="#000000">event_id :bigint</text>
<text text-anchor="start" x="418" y="-215.3" font-family="Times,serif" font-size="14.00" fill="#000000">created_at :timestamp without time zone</text>
<text text-anchor="start" x="418" y="-201.3" font-family="Times,serif" font-size="14.00" fill="#000000">updated_at :timestamp without time zone</text>
<text text-anchor="start" x="418" y="-187.3" font-family="Times,serif" font-size="14.00" fill="#000000">request_user_id :bigint</text>
<text text-anchor="start" x="418" y="-173.3" font-family="Times,serif" font-size="14.00" fill="#000000">perform_user_id :bigint</text>
</g>
<!-- ApplicationRecord&#45;&gt;Chatroom -->
<g id="edge21" class="edge">
<title>ApplicationRecord&#45;&gt;Chatroom</title>
<path fill="none" stroke="#000000" d="M663.801,-1115.3287C668.4023,-1104.9597 673.526,-1091.5609 675.8623,-1079 675.9436,-1078.563 675.8638,-1078.4444 675.8623,-1078 675.3067,-911.9972 743.9761,-480.0356 670.8623,-331 661.4082,-311.7287 646.6602,-294.8781 630.282,-280.5879"/>
</g>
<!-- Event&#45;&gt;Chatroom -->
<g id="edge7" class="edge">
<title>Event&#45;&gt;Chatroom</title>
<path fill="none" stroke="#f4c254" d="M738.5597,-326.0288C727.3173,-316.3185 715.6602,-307.1161 703.8623,-299 695.787,-293.4447 681.9828,-286.2789 665.6207,-278.5787"/>
<ellipse fill="none" stroke="#f4c254" cx="741.7548" cy="-328.8333" rx="4" ry="4"/>
<ellipse fill="#f4c254" stroke="#f4c254" cx="661.5618" cy="-276.6926" rx="4" ry="4"/>
</g>
<!-- ActsAsTaggableOn::Tagging -->
<g id="node20" class="node">
<title>ActsAsTaggableOn::Tagging</title>
<ellipse fill="none" stroke="#000000" cx="1005.8623" cy="-223.5" rx="113.0056" ry="18"/>
<text text-anchor="middle" x="1005.8623" y="-219.3" font-family="Times,serif" font-size="14.00" fill="#000000">ActsAsTaggableOn::Tagging</text>
</g>
<!-- Event&#45;&gt;ActsAsTaggableOn::Tagging -->
<g id="edge8" class="edge">
<title>Event&#45;&gt;ActsAsTaggableOn::Tagging</title>
<path fill="none" stroke="#2fe47b" d="M914.006,-324.5911C920.3806,-315.7919 926.8948,-307.163 933.4209,-299 947.717,-281.1182 965.4945,-262.5443 979.8605,-248.2938"/>
<ellipse fill="none" stroke="#2fe47b" cx="911.4916" cy="-328.0976" rx="4" ry="4"/>
<polygon fill="#2fe47b" stroke="#2fe47b" points="979.8882,-248.2666 990.1774,-244.4741 983.4569,-244.7644 987.0255,-241.2623 987.0255,-241.2623 987.0255,-241.2623 983.4569,-244.7644 983.8736,-238.0505 979.8882,-248.2666 979.8882,-248.2666"/>
<text text-anchor="middle" x="957.583" y="-301.8" font-family="Times,serif" font-size="14.00" fill="#000000">taggings</text>
</g>
<!-- Event&#45;&gt;ActsAsTaggableOn::Tagging -->
<g id="edge10" class="edge">
<title>Event&#45;&gt;ActsAsTaggableOn::Tagging</title>
<path fill="none" stroke="#646b60" d="M970.7829,-327.7741C974.3678,-322.9413 977.7452,-318.012 980.8623,-313 992.5258,-294.2459 998.8641,-269.9564 1002.2373,-251.4144"/>
<ellipse fill="none" stroke="#646b60" cx="968.2065" cy="-331.1303" rx="4" ry="4"/>
<polygon fill="#646b60" stroke="#646b60" points="1002.2428,-251.3803 1008.3007,-242.2396 1003.0513,-246.4461 1003.8599,-241.5119 1003.8599,-241.5119 1003.8599,-241.5119 1003.0513,-246.4461 999.4191,-240.7842 1002.2428,-251.3803 1002.2428,-251.3803"/>
<text text-anchor="middle" x="1024.6348" y="-301.8" font-family="Times,serif" font-size="14.00" fill="#000000">tag_taggings</text>
</g>
<!-- ActsAsTaggableOn::Tag -->
<g id="node21" class="node">
<title>ActsAsTaggableOn::Tag</title>
<ellipse fill="none" stroke="#000000" cx="777.8623" cy="-223.5" rx="97.0617" ry="18"/>
<text text-anchor="middle" x="777.8623" y="-219.3" font-family="Times,serif" font-size="14.00" fill="#000000">ActsAsTaggableOn::Tag</text>
</g>
<!-- Event&#45;&gt;ActsAsTaggableOn::Tag -->
<g id="edge9" class="edge">
<title>Event&#45;&gt;ActsAsTaggableOn::Tag</title>
<path fill="none" stroke="#c9ee99" d="M814.6412,-321.4966C812.4607,-313.8512 810.1952,-306.2959 807.8623,-299 802.7119,-282.8923 795.8053,-265.3115 789.9173,-251.1708"/>
<polygon fill="#c9ee99" stroke="#c9ee99" points="814.6658,-321.5848 813.0222,-332.4268 816.011,-326.4005 817.3563,-331.2161 817.3563,-331.2161 817.3563,-331.2161 816.011,-326.4005 821.6904,-330.0054 814.6658,-321.5848 814.6658,-321.5848"/>
<polygon fill="#c9ee99" stroke="#c9ee99" points="789.7447,-250.7626 789.9942,-239.7995 787.7971,-246.1575 785.8496,-241.5524 785.8496,-241.5524 785.8496,-241.5524 787.7971,-246.1575 781.705,-243.3052 789.7447,-250.7626 789.7447,-250.7626"/>
<text text-anchor="middle" x="839.0762" y="-301.8" font-family="Times,serif" font-size="14.00" fill="#000000">base_tags</text>
</g>
<!-- Event&#45;&gt;ActsAsTaggableOn::Tag -->
<g id="edge11" class="edge">
<title>Event&#45;&gt;ActsAsTaggableOn::Tag</title>
<path fill="none" stroke="#8f8a97" d="M783.6472,-321.5516C782.8044,-318.6945 782.0228,-315.8414 781.3105,-313 776.2776,-292.9206 775.5466,-269.5219 776.0044,-251.6861"/>
<polygon fill="#8f8a97" stroke="#8f8a97" points="783.7072,-321.7405 782.4482,-332.6339 785.222,-326.5056 786.7367,-331.2706 786.7367,-331.2706 786.7367,-331.2706 785.222,-326.5056 791.0253,-329.9073 783.7072,-321.7405 783.7072,-321.7405"/>
<polygon fill="#8f8a97" stroke="#8f8a97" points="776.0066,-251.6295 780.8979,-241.8149 776.204,-246.6333 776.4014,-241.6372 776.4014,-241.6372 776.4014,-241.6372 776.204,-246.6333 771.9049,-241.4596 776.0066,-251.6295 776.0066,-251.6295"/>
<text text-anchor="middle" x="793.1382" y="-301.8" font-family="Times,serif" font-size="14.00" fill="#000000">tags</text>
</g>
<!-- User&#45;&gt;Push -->
<g id="edge16" class="edge">
<title>User&#45;&gt;Push</title>
<path fill="none" stroke="#64c23c" d="M511.5629,-573.6171C516.3827,-548.6712 520.9375,-525.0972 524.8596,-504.7977"/>
<ellipse fill="none" stroke="#64c23c" cx="510.8031" cy="-577.55" rx="4" ry="4"/>
<polygon fill="#64c23c" stroke="#64c23c" points="524.8945,-504.617 531.2099,-495.6522 525.843,-499.7077 526.7916,-494.7985 526.7916,-494.7985 526.7916,-494.7985 525.843,-499.7077 522.3733,-493.9448 524.8945,-504.617 524.8945,-504.617"/>
</g>
<!-- User&#45;&gt;Message -->
<g id="edge14" class="edge">
<title>User&#45;&gt;Message</title>
<path fill="none" stroke="#fcf1b6" d="M377.0903,-573.4622C374.7862,-563.5659 372.6933,-553.7199 370.8623,-544 344.2163,-402.55 343.055,-233.7176 345.12,-138.828"/>
<ellipse fill="none" stroke="#fcf1b6" cx="378.0558" cy="-577.517" rx="4" ry="4"/>
<polygon fill="#fcf1b6" stroke="#fcf1b6" points="345.1217,-138.752 349.8563,-128.8609 345.2396,-133.7534 345.3575,-128.7548 345.3575,-128.7548 345.3575,-128.7548 345.2396,-133.7534 340.8588,-128.6487 345.1217,-138.752 345.1217,-138.752"/>
</g>
<!-- User&#45;&gt;Event -->
<g id="edge13" class="edge">
<title>User&#45;&gt;Event</title>
<path fill="none" stroke="#d51eb7" d="M629.48,-652.6916C663.4864,-618.2354 698.5184,-582.74 730.0807,-550.7602"/>
<ellipse fill="none" stroke="#d51eb7" cx="626.4302" cy="-655.7817" rx="4" ry="4"/>
<polygon fill="#d51eb7" stroke="#d51eb7" points="730.1559,-550.684 740.3832,-546.7276 733.6682,-547.1253 737.1804,-543.5666 737.1804,-543.5666 737.1804,-543.5666 733.6682,-547.1253 733.9776,-540.4055 730.1559,-550.684 730.1559,-550.684"/>
</g>
<!-- User&#45;&gt;Chatroom -->
<g id="edge15" class="edge">
<title>User&#45;&gt;Chatroom</title>
<path fill="none" stroke="#809db1" d="M382.3523,-571.0273C369.6007,-491.3613 370.3058,-404.7795 404.8623,-331 412.4264,-314.8503 423.7413,-300.2806 436.5825,-287.4578"/>
<polygon fill="#809db1" stroke="#809db1" points="382.406,-571.3475 379.6227,-581.9543 383.2333,-576.2786 384.0607,-581.2097 384.0607,-581.2097 384.0607,-581.2097 383.2333,-576.2786 388.4987,-580.4651 382.406,-571.3475 382.406,-571.3475"/>
<polygon fill="#809db1" stroke="#809db1" points="436.6243,-287.418 446.9658,-283.7707 440.2418,-283.9665 443.8594,-280.5149 443.8594,-280.5149 443.8594,-280.5149 440.2418,-283.9665 440.753,-277.2591 436.6243,-287.418 436.6243,-287.418"/>
</g>
<!-- Chatroom&#45;&gt;Message -->
<g id="edge18" class="edge">
<title>Chatroom&#45;&gt;Message</title>
<path fill="none" stroke="#f374b9" d="M460.5668,-160.8442C450.8235,-152.5152 440.7778,-143.9278 430.8844,-135.4705"/>
<ellipse fill="none" stroke="#f374b9" cx="463.9343" cy="-163.7228" rx="4" ry="4"/>
<polygon fill="#f374b9" stroke="#f374b9" points="430.5928,-135.2212 425.9156,-125.3028 426.7921,-131.9723 422.9915,-128.7234 422.9915,-128.7234 422.9915,-128.7234 426.7921,-131.9723 420.0675,-132.1439 430.5928,-135.2212 430.5928,-135.2212"/>
</g>
<!-- Sender -->
<g id="node22" class="node">
<title>Sender</title>
<ellipse fill="none" stroke="#000000" cx="625.8623" cy="-64.5" rx="34.8285" ry="18"/>
<text text-anchor="middle" x="625.8623" y="-60.3" font-family="Times,serif" font-size="14.00" fill="#000000">Sender</text>
</g>
<!-- Chatroom&#45;&gt;Sender -->
<g id="edge19" class="edge">
<title>Chatroom&#45;&gt;Sender</title>
<path fill="none" stroke="#b438dc" d="M572.1769,-157.2825C585.6963,-133.9173 600.1273,-108.9769 610.6188,-90.8447"/>
<polygon fill="#b438dc" stroke="#b438dc" points="572.0847,-157.4418 563.1814,-163.8436 569.5805,-161.7696 567.0764,-166.0974 567.0764,-166.0974 567.0764,-166.0974 569.5805,-161.7696 570.9714,-168.3511 572.0847,-157.4418 572.0847,-157.4418"/>
<polygon fill="#b438dc" stroke="#b438dc" points="610.7122,-90.6833 619.6154,-84.2815 613.2163,-86.3556 615.7204,-82.0278 615.7204,-82.0278 615.7204,-82.0278 613.2163,-86.3556 611.8254,-79.7741 610.7122,-90.6833 610.7122,-90.6833"/>
</g>
<!-- Receiver -->
<g id="node23" class="node">
<title>Receiver</title>
<ellipse fill="none" stroke="#000000" cx="531.8623" cy="-64.5" rx="41.5593" ry="18"/>
<text text-anchor="middle" x="531.8623" y="-60.3" font-family="Times,serif" font-size="14.00" fill="#000000">Receiver</text>
</g>
<!-- Chatroom&#45;&gt;Receiver -->
<g id="edge20" class="edge">
<title>Chatroom&#45;&gt;Receiver</title>
<path fill="none" stroke="#5ccdb1" d="M533.013,-155.9793C532.7348,-133.8656 532.4407,-110.4863 532.2195,-92.8983"/>
<polygon fill="#5ccdb1" stroke="#5ccdb1" points="533.0144,-156.0981 528.6406,-166.154 533.0773,-161.0977 533.1403,-166.0974 533.1403,-166.0974 533.1403,-166.0974 533.0773,-161.0977 537.6399,-166.0407 533.0144,-156.0981 533.0144,-156.0981"/>
<polygon fill="#5ccdb1" stroke="#5ccdb1" points="532.2178,-92.7579 536.5916,-82.7021 532.1549,-87.7583 532.092,-82.7587 532.092,-82.7587 532.092,-82.7587 532.1549,-87.7583 527.5923,-82.8154 532.2178,-92.7579 532.2178,-92.7579"/>
</g>
<!-- ActiveStorage::Variant -->
<g id="node11" class="node">
<title>ActiveStorage::Variant</title>
<polygon fill="none" stroke="#000000" points="753.7173,-1111.5 753.7173,-1155.5 898.0073,-1155.5 898.0073,-1111.5 753.7173,-1111.5"/>
<text text-anchor="middle" x="825.8623" y="-1140.3" font-family="Times,serif" font-size="14.00" fill="#000000">ActiveStorage::Variant</text>
<polyline fill="none" stroke="#000000" points="753.7173,-1133.5 898.0073,-1133.5 "/>
<text text-anchor="middle" x="825.8623" y="-1118.3" font-family="Times,serif" font-size="14.00" fill="#000000"> </text>
</g>
<!-- ActiveStorage::Filename -->
<g id="node12" class="node">
<title>ActiveStorage::Filename</title>
<polygon fill="none" stroke="#000000" points="938.8828,-1111.5 938.8828,-1155.5 1094.8418,-1155.5 1094.8418,-1111.5 938.8828,-1111.5"/>
<text text-anchor="middle" x="1016.8623" y="-1140.3" font-family="Times,serif" font-size="14.00" fill="#000000">ActiveStorage::Filename</text>
<polyline fill="none" stroke="#000000" points="938.8828,-1133.5 1094.8418,-1133.5 "/>
<text text-anchor="middle" x="1016.8623" y="-1118.3" font-family="Times,serif" font-size="14.00" fill="#000000"> </text>
</g>
<!-- ActiveStorage::Variation -->
<g id="node13" class="node">
<title>ActiveStorage::Variation</title>
<polygon fill="none" stroke="#000000" points="1124.2725,-1111.5 1124.2725,-1155.5 1279.4521,-1155.5 1279.4521,-1111.5 1124.2725,-1111.5"/>
<text text-anchor="middle" x="1201.8623" y="-1140.3" font-family="Times,serif" font-size="14.00" fill="#000000">ActiveStorage::Variation</text>
<polyline fill="none" stroke="#000000" points="1124.2725,-1133.5 1279.4521,-1133.5 "/>
<text text-anchor="middle" x="1201.8623" y="-1118.3" font-family="Times,serif" font-size="14.00" fill="#000000"> </text>
</g>
<!-- ActiveStorage::Current -->
<g id="node14" class="node">
<title>ActiveStorage::Current</title>
<polygon fill="none" stroke="#000000" points="1359.5483,-798.5 1359.5483,-842.5 1506.1763,-842.5 1506.1763,-798.5 1359.5483,-798.5"/>
<text text-anchor="middle" x="1432.8623" y="-827.3" font-family="Times,serif" font-size="14.00" fill="#000000">ActiveStorage::Current</text>
<polyline fill="none" stroke="#000000" points="1359.5483,-820.5 1506.1763,-820.5 "/>
<text text-anchor="middle" x="1432.8623" y="-805.3" font-family="Times,serif" font-size="14.00" fill="#000000"> </text>
</g>
<!-- ActiveStorage::Filename::Parameters -->
<g id="node15" class="node">
<title>ActiveStorage::Filename::Parameters</title>
<polygon fill="none" stroke="#000000" points="1579.8965,-1111.5 1579.8965,-1155.5 1805.8281,-1155.5 1805.8281,-1111.5 1579.8965,-1111.5"/>
<text text-anchor="middle" x="1692.8623" y="-1140.3" font-family="Times,serif" font-size="14.00" fill="#000000">ActiveStorage::Filename::Parameters</text>
<polyline fill="none" stroke="#000000" points="1579.8965,-1133.5 1805.8281,-1133.5 "/>
<text text-anchor="middle" x="1692.8623" y="-1118.3" font-family="Times,serif" font-size="14.00" fill="#000000"> </text>
</g>
<!-- ActiveStorage::Blob::Identifiable -->
<g id="node16" class="node">
<title>ActiveStorage::Blob::Identifiable</title>
<polygon fill="none" stroke="#000000" stroke-dasharray="1,5" points="2025.9906,-1151.5 1823.734,-1151.5 1823.734,-1115.5 2025.9906,-1115.5 2025.9906,-1151.5"/>
<text text-anchor="middle" x="1924.8623" y="-1129.3" font-family="Times,serif" font-size="14.00" fill="#000000">ActiveStorage::Blob::Identifiable</text>
</g>
<!-- ActiveStorage::Blob::Analyzable -->
<g id="node17" class="node">
<title>ActiveStorage::Blob::Analyzable</title>
<polygon fill="none" stroke="#000000" stroke-dasharray="1,5" points="2246.9769,-1151.5 2044.7477,-1151.5 2044.7477,-1115.5 2246.9769,-1115.5 2246.9769,-1151.5"/>
<text text-anchor="middle" x="2145.8623" y="-1129.3" font-family="Times,serif" font-size="14.00" fill="#000000">ActiveStorage::Blob::Analyzable</text>
</g>
<!-- ActiveStorage::Blob::Representable -->
<g id="node18" class="node">
<title>ActiveStorage::Blob::Representable</title>
<polygon fill="none" stroke="#000000" stroke-dasharray="1,5" points="2483.0284,-1151.5 2264.6962,-1151.5 2264.6962,-1115.5 2483.0284,-1115.5 2483.0284,-1151.5"/>
<text text-anchor="middle" x="2373.8623" y="-1129.3" font-family="Times,serif" font-size="14.00" fill="#000000">ActiveStorage::Blob::Representable</text>
</g>
<!-- ActiveStorage::Preview -->
<g id="node19" class="node">
<title>ActiveStorage::Preview</title>
<polygon fill="none" stroke="#000000" points="2500.9932,-1111.5 2500.9932,-1155.5 2650.7314,-1155.5 2650.7314,-1111.5 2500.9932,-1111.5"/>
<text text-anchor="middle" x="2575.8623" y="-1140.3" font-family="Times,serif" font-size="14.00" fill="#000000">ActiveStorage::Preview</text>
<polyline fill="none" stroke="#000000" points="2500.9932,-1133.5 2650.7314,-1133.5 "/>
<text text-anchor="middle" x="2575.8623" y="-1118.3" font-family="Times,serif" font-size="14.00" fill="#000000"> </text>
</g>
<!-- ActiveSupport::CurrentAttributes -->
<g id="node24" class="node">
<title>ActiveSupport::CurrentAttributes</title>
<ellipse fill="none" stroke="#000000" cx="1432.8623" cy="-1133.5" rx="128.9682" ry="18"/>
<text text-anchor="middle" x="1432.8623" y="-1129.3" font-family="Times,serif" font-size="14.00" fill="#000000">ActiveSupport::CurrentAttributes</text>
</g>
<!-- ActiveSupport::CurrentAttributes&#45;&gt;ActiveStorage::Current -->
<g id="edge22" class="edge">
<title>ActiveSupport::CurrentAttributes&#45;&gt;ActiveStorage::Current</title>
<path fill="none" stroke="#000000" d="M1432.8623,-1115.3189C1432.8623,-1061.3033 1432.8623,-901.8814 1432.8623,-842.8317"/>
</g>
</g>
</svg>
